<svg width="343" height="132" viewBox="0 0 343 132" fill="none" xmlns="http://www.w3.org/2000/svg">
<g clip-path="url(#clip0_1056_67307)">
<rect width="342.667" height="132" rx="12" fill="#07080C"/>
<g opacity="0.8">
<mask id="mask0_1056_67307" style="mask-type:alpha" maskUnits="userSpaceOnUse" x="0" y="-30" width="453" height="191">
<path d="M308.457 105.9H308.457C379.156 105.9 415.912 161 415.912 161L-0.000183105 161V-29C27.3189 -29 74.6252 -19.0769 93.3815 22.775C130.635 105.9 237.758 105.9 308.457 105.9Z" fill="url(#paint0_linear_1056_67307)"/>
<path d="M3.05176e-05 -28.9994V27.2882C157.954 175.013 192.108 142.238 217.577 84.4688C251.611 7.27091 412.907 -15.5288 453 -10.6893V-28.9994L3.05176e-05 -28.9994Z" fill="url(#paint1_linear_1056_67307)"/>
<path d="M3.05176e-05 45.3365V-29.001L453 -29.001V116.248C422.446 127.886 387.535 138.275 328.988 116.248C317.158 111.797 295.204 101.471 284.145 96.9215C225.706 72.8803 219.712 45.3365 3.05176e-05 45.3365Z" fill="url(#paint2_linear_1056_67307)"/>
<path d="M38.4572 -29L0 -29C4.51373 -25.8586 11.5552 -22.3483 38.4572 -21.509C257.825 -14.665 315.502 39.5756 374.023 101.202C383.171 110.835 392.329 120.48 402.115 129.904C420.663 147.767 437.663 157.354 453 161V-29L38.4572 -29Z" fill="url(#paint3_linear_1056_67307)"/>
</mask>
<g mask="url(#mask0_1056_67307)">
<rect x="509.956" y="207.551" width="553.336" height="285.475" transform="rotate(-180 509.956 207.551)" fill="white"/>
</g>
</g>
<path d="M17.12 39V25H19.84V31.9L25.88 25H29.2L23.44 31.46L29.36 39H26.04L21.68 33.46L19.84 35.52V39H17.12ZM30.4919 28.4H33.0919V29.98C33.4385 29.38 33.8919 28.9467 34.4519 28.68C35.0119 28.4133 35.5852 28.28 36.1719 28.28C36.4519 28.28 36.7452 28.3067 37.0519 28.36V31.14C36.6385 31.0067 36.2385 30.94 35.8519 30.94C35.3052 30.94 34.7052 31.1333 34.0519 31.52C33.4119 31.8933 33.0919 32.5867 33.0919 33.6V39H30.4919V28.4ZM41.1959 28.4V39H38.5959V28.4H41.1959ZM38.7559 24.66C39.0759 24.3533 39.4626 24.2 39.9159 24.2C40.3693 24.2 40.7559 24.3533 41.0759 24.66C41.3959 24.9667 41.5559 25.34 41.5559 25.78C41.5559 26.22 41.3959 26.5867 41.0759 26.88C40.7559 27.1867 40.3693 27.34 39.9159 27.34C39.4626 27.34 39.0759 27.1933 38.7559 26.9C38.4359 26.5933 38.2759 26.22 38.2759 25.78C38.2759 25.34 38.4359 24.9667 38.7559 24.66ZM43.1583 28.4H45.7583V29.54C46.5849 28.6733 47.6449 28.24 48.9383 28.24C50.3783 28.24 51.6116 28.78 52.6383 29.86C53.6783 30.94 54.1983 32.22 54.1983 33.7C54.1983 35.2333 53.6849 36.5267 52.6583 37.58C51.6316 38.6333 50.3916 39.16 48.9383 39.16C47.6449 39.16 46.5849 38.7133 45.7583 37.82V43.2H43.1583V28.4ZM45.5983 33.7C45.5983 34.54 45.8983 35.2733 46.4983 35.9C47.1116 36.5133 47.8383 36.82 48.6783 36.82C49.5449 36.82 50.2716 36.5133 50.8583 35.9C51.4583 35.2867 51.7583 34.5533 51.7583 33.7C51.7583 32.8467 51.4583 32.1133 50.8583 31.5C50.2716 30.8867 49.5449 30.58 48.6783 30.58C47.8383 30.58 47.1116 30.8933 46.4983 31.52C45.8983 32.1333 45.5983 32.86 45.5983 33.7ZM54.9011 30.64V28.4H56.8011V25.96L59.3811 25.22V28.4H62.5411V30.64H59.3811V35.5C59.3811 36.0467 59.5611 36.3867 59.9211 36.52C60.2811 36.6533 60.5944 36.72 60.8611 36.72C61.3411 36.72 61.9344 36.6133 62.6411 36.4V38.92C61.9078 39.12 61.2278 39.22 60.6011 39.22C59.8011 39.22 58.9678 38.9867 58.1011 38.52C57.2344 38.0533 56.8011 37.0533 56.8011 35.52V30.64H54.9011ZM65.0339 29.82C66.1006 28.7533 67.3806 28.22 68.8739 28.22C70.3806 28.22 71.6672 28.76 72.7339 29.84C73.8006 30.9067 74.3339 32.1867 74.3339 33.68C74.3339 35.1867 73.8006 36.48 72.7339 37.56C71.6672 38.6267 70.3806 39.16 68.8739 39.16C67.3806 39.16 66.1006 38.62 65.0339 37.54C63.9672 36.46 63.4339 35.1733 63.4339 33.68C63.4339 32.1733 63.9672 30.8867 65.0339 29.82ZM65.8539 33.68C65.8539 34.5333 66.1472 35.2667 66.7339 35.88C67.3206 36.48 68.0339 36.78 68.8739 36.78C69.7272 36.78 70.4472 36.48 71.0339 35.88C71.6206 35.2667 71.9139 34.5333 71.9139 33.68C71.9139 32.8267 71.6206 32.1 71.0339 31.5C70.4472 30.9 69.7272 30.6 68.8739 30.6C68.0339 30.6 67.3206 30.9067 66.7339 31.52C66.1472 32.12 65.8539 32.84 65.8539 33.68ZM80.7878 25H92.1078V27.5H87.8678V39H85.1878V27.5H80.7878V25ZM92.8514 29.8C93.8781 28.7467 95.1181 28.22 96.5714 28.22C97.8381 28.22 98.8981 28.6667 99.7514 29.56V28.4H102.351V39H99.7514V37.86C98.9114 38.7267 97.8514 39.16 96.5714 39.16C95.1314 39.16 93.8914 38.62 92.8514 37.54C91.8247 36.46 91.3114 35.18 91.3114 33.7C91.3114 32.1667 91.8247 30.8667 92.8514 29.8ZM93.7514 33.7C93.7514 34.5533 94.0447 35.2867 94.6314 35.9C95.2314 36.5 95.9647 36.8 96.8314 36.8C97.6714 36.8 98.3914 36.4933 98.9914 35.88C99.6047 35.2667 99.9114 34.54 99.9114 33.7C99.9114 32.86 99.6047 32.1333 98.9914 31.52C98.3914 30.8933 97.6714 30.58 96.8314 30.58C95.9647 30.58 95.2314 30.8867 94.6314 31.5C94.0447 32.1133 93.7514 32.8467 93.7514 33.7ZM106.963 25V33.12L111.303 28.4H114.403L109.863 33.24L114.523 39H111.483L108.323 34.92L106.963 36.4V39H104.363V25H106.963ZM115.928 29.8C116.955 28.7467 118.195 28.22 119.648 28.22C120.915 28.22 121.975 28.6667 122.828 29.56V28.4H125.428V39H122.828V37.86C121.988 38.7267 120.928 39.16 119.648 39.16C118.208 39.16 116.968 38.62 115.928 37.54C114.901 36.46 114.388 35.18 114.388 33.7C114.388 32.1667 114.901 30.8667 115.928 29.8ZM116.828 33.7C116.828 34.5533 117.121 35.2867 117.708 35.9C118.308 36.5 119.041 36.8 119.908 36.8C120.748 36.8 121.468 36.4933 122.068 35.88C122.681 35.2667 122.988 34.54 122.988 33.7C122.988 32.86 122.681 32.1333 122.068 31.52C121.468 30.8933 120.748 30.58 119.908 30.58C119.041 30.58 118.308 30.8867 117.708 31.5C117.121 32.1133 116.828 32.8467 116.828 33.7ZM127.06 31.46C127.06 30.4467 127.466 29.6533 128.28 29.08C129.093 28.5067 130.146 28.22 131.44 28.22C132.973 28.22 134.333 28.5667 135.52 29.26V31.72C133.893 30.8667 132.533 30.44 131.44 30.44C130.92 30.44 130.506 30.5333 130.2 30.72C129.893 30.9067 129.74 31.1467 129.74 31.44C129.74 31.6 129.78 31.74 129.86 31.86C129.953 31.9667 130.106 32.06 130.32 32.14C130.546 32.22 130.746 32.2867 130.92 32.34C131.093 32.38 131.366 32.44 131.74 32.52C132.126 32.6 132.42 32.6667 132.62 32.72C133.806 33.0267 134.666 33.4533 135.2 34C135.746 34.5333 136.02 35.1933 136.02 35.98C136.02 37.0733 135.586 37.88 134.72 38.4C133.866 38.9067 132.853 39.16 131.68 39.16C130.2 39.16 128.76 38.7333 127.36 37.88V35.26C127.84 35.6467 128.493 36.02 129.32 36.38C130.16 36.7267 130.946 36.9 131.68 36.9C132.133 36.9 132.526 36.82 132.86 36.66C133.193 36.4867 133.36 36.2467 133.36 35.94C133.36 35.62 133.153 35.36 132.74 35.16C132.34 34.96 131.686 34.7667 130.78 34.58C129.5 34.3133 128.56 33.94 127.96 33.46C127.36 32.98 127.06 32.3133 127.06 31.46ZM137.436 39V28.4H140.036V39H137.436Z" fill="#34C76C"/>
<path d="M146.926 32C146.926 30.0267 147.62 28.34 149.006 26.94C150.393 25.54 152.073 24.84 154.046 24.84C155.46 24.84 156.733 25.2333 157.866 26.02C159 26.7933 159.853 27.82 160.426 29.1L157.866 29.84C157.493 29.0933 156.973 28.5 156.306 28.06C155.653 27.62 154.9 27.4 154.046 27.4C152.78 27.4 151.72 27.8467 150.866 28.74C150.026 29.62 149.606 30.7067 149.606 32C149.606 33.2933 150.026 34.38 150.866 35.26C151.72 36.14 152.78 36.58 154.046 36.58C155.793 36.58 157.046 35.7933 157.806 34.22L160.406 34.92C159.886 36.0933 159.12 37.06 158.106 37.82C157.106 38.5667 155.96 39 154.666 39.12L154.546 39.5C154.72 39.54 154.88 39.58 155.026 39.62C155.173 39.6733 155.413 39.7667 155.746 39.9C156.08 40.0467 156.346 40.26 156.546 40.54C156.76 40.82 156.866 41.14 156.866 41.5C156.866 41.98 156.66 42.3667 156.246 42.66C155.846 42.9533 155.38 43.1333 154.846 43.2C154.326 43.2667 153.846 43.3 153.406 43.3C153.366 43.3 153.22 43.2933 152.966 43.28C152.713 43.28 152.473 43.2467 152.246 43.18V41.52C152.66 41.5867 153.04 41.62 153.386 41.62C153.653 41.62 153.973 41.5867 154.346 41.52C154.72 41.4667 154.906 41.32 154.906 41.08C154.906 40.9867 154.86 40.9 154.766 40.82C154.686 40.74 154.586 40.6733 154.466 40.62C154.346 40.58 154.206 40.54 154.046 40.5C153.9 40.46 153.766 40.4333 153.646 40.42C153.526 40.4067 153.413 40.3933 153.306 40.38L153.126 40.36L153.426 39.12C151.6 38.96 150.06 38.2 148.806 36.84C147.553 35.48 146.926 33.8667 146.926 32ZM162.956 29.82C164.022 28.7533 165.302 28.22 166.796 28.22C168.302 28.22 169.589 28.76 170.656 29.84C171.722 30.9067 172.256 32.1867 172.256 33.68C172.256 35.1867 171.722 36.48 170.656 37.56C169.589 38.6267 168.302 39.16 166.796 39.16C165.302 39.16 164.022 38.62 162.956 37.54C161.889 36.46 161.356 35.1733 161.356 33.68C161.356 32.1733 161.889 30.8867 162.956 29.82ZM163.776 33.68C163.776 34.5333 164.069 35.2667 164.656 35.88C165.242 36.48 165.956 36.78 166.796 36.78C167.649 36.78 168.369 36.48 168.956 35.88C169.542 35.2667 169.836 34.5333 169.836 33.68C169.836 32.8267 169.542 32.1 168.956 31.5C168.369 30.9 167.649 30.6 166.796 30.6C165.956 30.6 165.242 30.9067 164.656 31.52C164.069 32.12 163.776 32.84 163.776 33.68ZM176.461 25V33.12L180.801 28.4H183.901L179.361 33.24L184.021 39H180.981L177.821 34.92L176.461 36.4V39H173.861V25H176.461ZM16.22 53.4H19L21.96 60.88L24.76 53.4H27.52L21.64 68.2H18.94L20.62 63.94L16.22 53.4ZM29.0952 54.8C30.1218 53.7467 31.3618 53.22 32.8152 53.22C34.0818 53.22 35.1418 53.6667 35.9952 54.56V53.4H38.5952V64H35.9952V62.86C35.1552 63.7267 34.0952 64.16 32.8152 64.16C31.3752 64.16 30.1352 63.62 29.0952 62.54C28.0685 61.46 27.5552 60.18 27.5552 58.7C27.5552 57.1667 28.0685 55.8667 29.0952 54.8ZM29.9952 58.7C29.9952 59.5533 30.2885 60.2867 30.8752 60.9C31.4752 61.5 32.2085 61.8 33.0752 61.8C33.9152 61.8 34.6352 61.4933 35.2352 60.88C35.8485 60.2667 36.1552 59.54 36.1552 58.7C36.1552 57.86 35.8485 57.1333 35.2352 56.52C34.6352 55.8933 33.9152 55.58 33.0752 55.58C32.2085 55.58 31.4752 55.8867 30.8752 56.5C30.2885 57.1133 29.9952 57.8467 29.9952 58.7ZM43.2067 50V58.12L47.5467 53.4H50.6467L46.1067 58.24L50.7667 64H47.7267L44.5667 59.92L43.2067 61.4V64H40.6067V50H43.2067ZM52.1655 64V53.4H54.7655V64H52.1655ZM56.7278 53.4H59.3278V54.6C60.1278 53.68 61.1745 53.22 62.4678 53.22C63.6811 53.22 64.7211 53.6067 65.5878 54.38C66.4545 55.1533 66.8878 56.18 66.8878 57.46V64H64.2878V58.14C64.2878 57.3933 64.0611 56.7933 63.6078 56.34C63.1545 55.8733 62.6011 55.64 61.9478 55.64C61.1745 55.64 60.5411 55.92 60.0478 56.48C59.5678 57.0267 59.3278 57.7133 59.3278 58.54V64H56.7278V53.4ZM69.7795 54.8C70.8062 53.7467 72.0462 53.22 73.4995 53.22C74.7662 53.22 75.8262 53.6667 76.6795 54.56V50H79.2795V64H76.6795V62.86C75.8395 63.7267 74.7795 64.16 73.4995 64.16C72.0595 64.16 70.8195 63.62 69.7795 62.54C68.7529 61.46 68.2395 60.18 68.2395 58.7C68.2395 57.1667 68.7529 55.8667 69.7795 54.8ZM70.6795 58.7C70.6795 59.5533 70.9729 60.2867 71.5595 60.9C72.1595 61.5 72.8929 61.8 73.7595 61.8C74.5995 61.8 75.3195 61.4933 75.9195 60.88C76.5329 60.2667 76.8395 59.54 76.8395 58.7C76.8395 57.86 76.5329 57.1333 75.9195 56.52C75.3195 55.8933 74.5995 55.58 73.7595 55.58C72.8929 55.58 72.1595 55.8867 71.5595 56.5C70.9729 57.1133 70.6795 57.8467 70.6795 58.7ZM82.4311 54.8C83.4578 53.7467 84.6978 53.22 86.1511 53.22C87.4178 53.22 88.4778 53.6667 89.3311 54.56V53.4H91.9311V64H89.3311V62.86C88.4911 63.7267 87.4311 64.16 86.1511 64.16C84.7111 64.16 83.4711 63.62 82.4311 62.54C81.4044 61.46 80.8911 60.18 80.8911 58.7C80.8911 57.1667 81.4044 55.8667 82.4311 54.8ZM83.3311 58.7C83.3311 59.5533 83.6244 60.2867 84.2111 60.9C84.8111 61.5 85.5444 61.8 86.4111 61.8C87.2511 61.8 87.9711 61.4933 88.5711 60.88C89.1844 60.2667 89.4911 59.54 89.4911 58.7C89.4911 57.86 89.1844 57.1333 88.5711 56.52C87.9711 55.8933 87.2511 55.58 86.4111 55.58C85.5444 55.58 84.8111 55.8867 84.2111 56.5C83.6244 57.1133 83.3311 57.8467 83.3311 58.7Z" fill="#CACCD4"/>
<path d="M16.48 85.764C16.48 84.572 16.892 83.56 17.716 82.728C18.54 81.888 19.54 81.468 20.716 81.468C21.572 81.468 22.34 81.708 23.02 82.188C23.708 82.66 24.216 83.288 24.544 84.072L23.536 84.36C23.28 83.792 22.904 83.336 22.408 82.992C21.92 82.648 21.356 82.476 20.716 82.476C20.708 82.476 20.696 82.476 20.68 82.476C19.792 82.476 19.044 82.792 18.436 83.424C17.836 84.056 17.536 84.836 17.536 85.764C17.536 86.676 17.836 87.452 18.436 88.092C19.044 88.724 19.804 89.04 20.716 89.04C21.364 89.04 21.928 88.876 22.408 88.548C22.896 88.212 23.268 87.756 23.524 87.18L24.544 87.456C24.224 88.216 23.736 88.832 23.08 89.304C22.424 89.776 21.676 90.024 20.836 90.048L20.704 90.408C21.032 90.48 21.34 90.608 21.628 90.792C21.924 90.976 22.072 91.228 22.072 91.548C22.072 91.788 21.964 91.984 21.748 92.136C21.54 92.296 21.288 92.396 20.992 92.436C20.696 92.484 20.416 92.508 20.152 92.508C19.896 92.508 19.688 92.492 19.528 92.46V91.764C19.72 91.804 19.916 91.824 20.116 91.824C20.292 91.824 20.524 91.8 20.812 91.752C21.108 91.704 21.256 91.584 21.256 91.392C21.256 91.224 21.112 91.088 20.824 90.984C20.544 90.88 20.284 90.82 20.044 90.804L20.32 90.024C19.232 89.928 18.32 89.472 17.584 88.656C16.848 87.84 16.48 86.876 16.48 85.764ZM26.2988 84.492C26.9308 83.852 27.6988 83.532 28.6028 83.532C29.5068 83.532 30.2748 83.856 30.9068 84.504C31.5468 85.144 31.8668 85.912 31.8668 86.808C31.8668 87.712 31.5508 88.484 30.9188 89.124C30.2788 89.772 29.5068 90.096 28.6028 90.096C27.6988 90.096 26.9308 89.776 26.2988 89.136C25.6668 88.488 25.3508 87.712 25.3508 86.808C25.3508 85.904 25.6668 85.132 26.2988 84.492ZM26.3108 86.808C26.3108 87.464 26.5308 88.02 26.9708 88.476C27.4188 88.924 27.9628 89.148 28.6028 89.148C29.2508 89.148 29.7948 88.92 30.2348 88.464C30.6828 88.008 30.9068 87.456 30.9068 86.808C30.9068 86.16 30.6828 85.608 30.2348 85.152C29.7868 84.696 29.2428 84.468 28.6028 84.468C27.9628 84.468 27.4188 84.696 26.9708 85.152C26.5308 85.608 26.3108 86.16 26.3108 86.808ZM34.0519 81.6V87.204L37.3879 83.64H38.6119L35.8879 86.532L38.7319 90H37.5199L35.2759 87.204L34.0519 88.488V90H33.0319V81.6H34.0519ZM42.5006 83.64H43.5926L45.7166 88.752L47.7446 83.64H48.8366L45.2366 92.52H44.1686L45.2006 89.976L42.5006 83.64ZM50.0293 84.48C50.6533 83.848 51.4053 83.532 52.2853 83.532C52.7893 83.532 53.2453 83.648 53.6533 83.88C54.0613 84.104 54.3893 84.412 54.6373 84.804V83.64H55.6573V90H54.6373V88.836C54.3893 89.22 54.0613 89.528 53.6533 89.76C53.2453 89.984 52.7893 90.096 52.2853 90.096C51.4053 90.096 50.6533 89.776 50.0293 89.136C49.4053 88.488 49.0933 87.712 49.0933 86.808C49.0933 85.896 49.4053 85.12 50.0293 84.48ZM50.0653 86.808C50.0653 87.464 50.2893 88.02 50.7373 88.476C51.1853 88.932 51.7293 89.16 52.3693 89.16C53.0093 89.16 53.5573 88.928 54.0133 88.464C54.4693 88 54.6973 87.448 54.6973 86.808C54.6973 86.168 54.4693 85.616 54.0133 85.152C53.5573 84.688 53.0093 84.456 52.3693 84.456C51.7213 84.456 51.1733 84.688 50.7253 85.152C50.2853 85.608 50.0653 86.16 50.0653 86.808ZM58.0519 81.6V87.204L61.3879 83.64H62.6119L59.8879 86.532L62.7319 90H61.5199L59.2759 87.204L58.0519 88.488V90H57.0319V81.6H58.0519ZM63.8073 90V83.64H64.8273V90H63.8073ZM66.2655 83.64H67.2855V84.732C67.5015 84.38 67.7975 84.092 68.1735 83.868C68.5495 83.644 68.9855 83.532 69.4815 83.532C70.2175 83.532 70.8495 83.772 71.3775 84.252C71.9055 84.724 72.1695 85.356 72.1695 86.148V90H71.1495V86.46C71.1495 85.852 70.9695 85.372 70.6095 85.02C70.2495 84.66 69.8135 84.48 69.3015 84.48C68.7175 84.48 68.2335 84.696 67.8495 85.128C67.4735 85.552 67.2855 86.092 67.2855 86.748V90H66.2655V83.64ZM74.123 84.492C74.739 83.852 75.491 83.532 76.379 83.532C76.875 83.532 77.327 83.648 77.735 83.88C78.151 84.104 78.483 84.412 78.731 84.804V81.6H79.751V90H78.731V88.836C78.483 89.22 78.151 89.528 77.735 89.76C77.327 89.992 76.875 90.108 76.379 90.108C75.499 90.108 74.747 89.784 74.123 89.136C73.499 88.488 73.187 87.716 73.187 86.82C73.187 85.908 73.499 85.132 74.123 84.492ZM74.159 86.82C74.159 87.468 74.379 88.024 74.819 88.488C75.267 88.944 75.815 89.172 76.463 89.172C77.103 89.172 77.651 88.94 78.107 88.476C78.563 88.012 78.791 87.46 78.791 86.82C78.791 86.172 78.563 85.62 78.107 85.164C77.659 84.7 77.111 84.468 76.463 84.468C75.823 84.468 75.279 84.696 74.831 85.152C74.383 85.608 74.159 86.164 74.159 86.82ZM81.8457 84.48C82.4697 83.848 83.2217 83.532 84.1017 83.532C84.6057 83.532 85.0617 83.648 85.4697 83.88C85.8777 84.104 86.2057 84.412 86.4537 84.804V83.64H87.4737V90H86.4537V88.836C86.2057 89.22 85.8777 89.528 85.4697 89.76C85.0617 89.984 84.6057 90.096 84.1017 90.096C83.2217 90.096 82.4697 89.776 81.8457 89.136C81.2217 88.488 80.9097 87.712 80.9097 86.808C80.9097 85.896 81.2217 85.12 81.8457 84.48ZM81.8817 86.808C81.8817 87.464 82.1057 88.02 82.5537 88.476C83.0017 88.932 83.5457 89.16 84.1857 89.16C84.8257 89.16 85.3737 88.928 85.8297 88.464C86.2857 88 86.5137 87.448 86.5137 86.808C86.5137 86.168 86.2857 85.616 85.8297 85.152C85.3737 84.688 84.8257 84.456 84.1857 84.456C83.5377 84.456 82.9897 84.688 82.5417 85.152C82.1017 85.608 81.8817 86.16 81.8817 86.808ZM93.1496 81.6V87.204L96.4856 83.64H97.7096L94.9856 86.532L97.8296 90H96.6176L94.3736 87.204L93.1496 88.488V90H92.1296V81.6H93.1496ZM98.7264 83.64H99.7464V84.888C99.9464 84.408 100.238 84.068 100.622 83.868C101.006 83.668 101.406 83.568 101.822 83.568C101.99 83.568 102.166 83.584 102.35 83.616V84.696C102.118 84.64 101.902 84.612 101.702 84.612C101.254 84.612 100.814 84.78 100.382 85.116C99.9584 85.444 99.7464 86.004 99.7464 86.796V90H98.7264V83.64ZM104.484 83.64V90H103.464V83.64H104.484ZM103.476 81.468C103.612 81.332 103.784 81.264 103.992 81.264C104.192 81.264 104.36 81.332 104.496 81.468C104.64 81.604 104.712 81.772 104.712 81.972C104.712 82.172 104.64 82.34 104.496 82.476C104.36 82.604 104.192 82.668 103.992 82.668C103.784 82.668 103.612 82.604 103.476 82.476C103.34 82.34 103.272 82.172 103.272 81.972C103.272 81.772 103.34 81.604 103.476 81.468ZM105.922 83.64H106.942V84.78C107.19 84.404 107.518 84.104 107.926 83.88C108.334 83.648 108.79 83.532 109.294 83.532C110.174 83.532 110.926 83.856 111.55 84.504C112.174 85.144 112.486 85.912 112.486 86.808C112.486 87.72 112.174 88.496 111.55 89.136C110.934 89.776 110.182 90.096 109.294 90.096C108.798 90.096 108.342 89.984 107.926 89.76C107.518 89.528 107.19 89.22 106.942 88.836V92.52H105.922V83.64ZM106.882 86.808C106.882 87.456 107.106 88.012 107.554 88.476C108.01 88.94 108.562 89.172 109.21 89.172C109.85 89.172 110.394 88.944 110.842 88.488C111.29 88.024 111.514 87.464 111.514 86.808C111.514 86.16 111.29 85.608 110.842 85.152C110.402 84.696 109.858 84.468 109.21 84.468C108.57 84.468 108.022 84.7 107.566 85.164C107.11 85.62 106.882 86.168 106.882 86.808ZM113.063 84.528V83.64H114.383V81.984L115.391 81.672V83.64H117.455V84.528H115.391V88.008C115.391 88.52 115.515 88.84 115.763 88.968C116.011 89.088 116.247 89.148 116.471 89.148C116.751 89.148 117.083 89.092 117.467 88.98V89.964C117.059 90.068 116.687 90.12 116.351 90.12C115.903 90.12 115.463 89.988 115.031 89.724C114.599 89.46 114.383 88.892 114.383 88.02V84.528H113.063ZM119.064 84.492C119.696 83.852 120.464 83.532 121.368 83.532C122.272 83.532 123.04 83.856 123.672 84.504C124.312 85.144 124.632 85.912 124.632 86.808C124.632 87.712 124.316 88.484 123.684 89.124C123.044 89.772 122.272 90.096 121.368 90.096C120.464 90.096 119.696 89.776 119.064 89.136C118.432 88.488 118.116 87.712 118.116 86.808C118.116 85.904 118.432 85.132 119.064 84.492ZM119.076 86.808C119.076 87.464 119.296 88.02 119.736 88.476C120.184 88.924 120.728 89.148 121.368 89.148C122.016 89.148 122.56 88.92 123 88.464C123.448 88.008 123.672 87.456 123.672 86.808C123.672 86.16 123.448 85.608 123 85.152C122.552 84.696 122.008 84.468 121.368 84.468C120.728 84.468 120.184 84.696 119.736 85.152C119.296 85.608 119.076 86.16 119.076 86.808ZM129.043 83.64H130.063V84.78C130.311 84.404 130.639 84.104 131.047 83.88C131.455 83.648 131.911 83.532 132.415 83.532C133.295 83.532 134.047 83.856 134.671 84.504C135.295 85.144 135.607 85.912 135.607 86.808C135.607 87.72 135.295 88.496 134.671 89.136C134.055 89.776 133.303 90.096 132.415 90.096C131.919 90.096 131.463 89.984 131.047 89.76C130.639 89.528 130.311 89.22 130.063 88.836V92.52H129.043V83.64ZM130.003 86.808C130.003 87.456 130.227 88.012 130.675 88.476C131.131 88.94 131.683 89.172 132.331 89.172C132.971 89.172 133.515 88.944 133.963 88.488C134.411 88.024 134.635 87.464 134.635 86.808C134.635 86.16 134.411 85.608 133.963 85.152C133.523 84.696 132.979 84.468 132.331 84.468C131.691 84.468 131.143 84.7 130.687 85.164C130.231 85.62 130.003 86.168 130.003 86.808ZM137.381 84.48C138.005 83.848 138.757 83.532 139.637 83.532C140.141 83.532 140.597 83.648 141.005 83.88C141.413 84.104 141.741 84.412 141.989 84.804V83.64H143.009V90H141.989V88.836C141.741 89.22 141.413 89.528 141.005 89.76C140.597 89.984 140.141 90.096 139.637 90.096C138.757 90.096 138.005 89.776 137.381 89.136C136.757 88.488 136.445 87.712 136.445 86.808C136.445 85.896 136.757 85.12 137.381 84.48ZM137.417 86.808C137.417 87.464 137.641 88.02 138.089 88.476C138.537 88.932 139.081 89.16 139.721 89.16C140.361 89.16 140.909 88.928 141.365 88.464C141.821 88 142.049 87.448 142.049 86.808C142.049 86.168 141.821 85.616 141.365 85.152C140.909 84.688 140.361 84.456 139.721 84.456C139.073 84.456 138.525 84.688 138.077 85.152C137.637 85.608 137.417 86.16 137.417 86.808ZM144.348 83.64H145.368V84.888C145.568 84.408 145.86 84.068 146.244 83.868C146.628 83.668 147.028 83.568 147.444 83.568C147.612 83.568 147.788 83.584 147.972 83.616V84.696C147.74 84.64 147.524 84.612 147.324 84.612C146.876 84.612 146.436 84.78 146.004 85.116C145.58 85.444 145.368 86.004 145.368 86.796V90H144.348V83.64ZM149.357 84.48C149.981 83.848 150.733 83.532 151.613 83.532C152.117 83.532 152.573 83.648 152.981 83.88C153.389 84.104 153.717 84.412 153.965 84.804V83.64H154.985V90H153.965V88.836C153.717 89.22 153.389 89.528 152.981 89.76C152.573 89.984 152.117 90.096 151.613 90.096C150.733 90.096 149.981 89.776 149.357 89.136C148.733 88.488 148.421 87.712 148.421 86.808C148.421 85.896 148.733 85.12 149.357 84.48ZM149.393 86.808C149.393 87.464 149.617 88.02 150.065 88.476C150.513 88.932 151.057 89.16 151.697 89.16C152.337 89.16 152.885 88.928 153.341 88.464C153.797 88 154.025 87.448 154.025 86.808C154.025 86.168 153.797 85.616 153.341 85.152C152.885 84.688 152.337 84.456 151.697 84.456C151.049 84.456 150.501 84.688 150.053 85.152C149.613 85.608 149.393 86.16 149.393 86.808ZM159.281 84.528V83.64H160.601V81.984L161.609 81.672V83.64H163.673V84.528H161.609V88.008C161.609 88.52 161.733 88.84 161.981 88.968C162.229 89.088 162.465 89.148 162.689 89.148C162.969 89.148 163.301 89.092 163.685 88.98V89.964C163.277 90.068 162.905 90.12 162.569 90.12C162.121 90.12 161.681 89.988 161.249 89.724C160.817 89.46 160.601 88.892 160.601 88.02V84.528H159.281ZM165.283 84.48C165.907 83.848 166.659 83.532 167.539 83.532C168.043 83.532 168.499 83.648 168.907 83.88C169.315 84.104 169.643 84.412 169.891 84.804V83.64H170.911V90H169.891V88.836C169.643 89.22 169.315 89.528 168.907 89.76C168.499 89.984 168.043 90.096 167.539 90.096C166.659 90.096 165.907 89.776 165.283 89.136C164.659 88.488 164.347 87.712 164.347 86.808C164.347 85.896 164.659 85.12 165.283 84.48ZM165.319 86.808C165.319 87.464 165.543 88.02 165.991 88.476C166.439 88.932 166.983 89.16 167.623 89.16C168.263 89.16 168.811 88.928 169.267 88.464C169.723 88 169.951 87.448 169.951 86.808C169.951 86.168 169.723 85.616 169.267 85.152C168.811 84.688 168.263 84.456 167.623 84.456C166.975 84.456 166.427 84.688 165.979 85.152C165.539 85.608 165.319 86.16 165.319 86.808ZM173.306 81.6V87.204L176.642 83.64H177.866L175.142 86.532L177.986 90H176.774L174.53 87.204L173.306 88.488V90H172.286V81.6H173.306ZM179.041 84.48C179.665 83.848 180.417 83.532 181.297 83.532C181.801 83.532 182.257 83.648 182.665 83.88C183.073 84.104 183.401 84.412 183.649 84.804V83.64H184.669V90H183.649V88.836C183.401 89.22 183.073 89.528 182.665 89.76C182.257 89.984 181.801 90.096 181.297 90.096C180.417 90.096 179.665 89.776 179.041 89.136C178.417 88.488 178.105 87.712 178.105 86.808C178.105 85.896 178.417 85.12 179.041 84.48ZM179.077 86.808C179.077 87.464 179.301 88.02 179.749 88.476C180.197 88.932 180.741 89.16 181.381 89.16C182.021 89.16 182.569 88.928 183.025 88.464C183.481 88 183.709 87.448 183.709 86.808C183.709 86.168 183.481 85.616 183.025 85.152C182.569 84.688 182.021 84.456 181.381 84.456C180.733 84.456 180.185 84.688 179.737 85.152C179.297 85.608 179.077 86.16 179.077 86.808ZM185.852 85.38C185.852 84.804 186.096 84.352 186.584 84.024C187.072 83.696 187.68 83.532 188.408 83.532C189.336 83.532 190.16 83.78 190.88 84.276V85.284C190.008 84.708 189.184 84.42 188.408 84.42C187.984 84.42 187.628 84.508 187.34 84.684C187.052 84.852 186.908 85.084 186.908 85.38C186.908 85.524 186.944 85.648 187.016 85.752C187.096 85.848 187.228 85.936 187.412 86.016C187.596 86.088 187.772 86.144 187.94 86.184C188.108 86.224 188.352 86.28 188.672 86.352C188.704 86.36 188.728 86.368 188.744 86.376C188.768 86.376 188.792 86.38 188.816 86.388C188.848 86.388 188.876 86.392 188.9 86.4C189.676 86.568 190.236 86.808 190.58 87.12C190.932 87.424 191.108 87.808 191.108 88.272C191.108 88.28 191.108 88.288 191.108 88.296C191.108 88.88 190.868 89.328 190.388 89.64C189.908 89.944 189.32 90.096 188.624 90.096C187.648 90.096 186.748 89.784 185.924 89.16V88.068C186.212 88.364 186.612 88.628 187.124 88.86C187.636 89.084 188.136 89.196 188.624 89.196C189.032 89.196 189.372 89.112 189.644 88.944C189.924 88.768 190.064 88.54 190.064 88.26C190.064 87.756 189.464 87.388 188.264 87.156C187.44 86.996 186.832 86.784 186.44 86.52C186.048 86.248 185.852 85.868 185.852 85.38ZM192.257 90V83.64H193.277V90H192.257ZM17.416 100.492C18.048 99.852 18.816 99.532 19.72 99.532C20.624 99.532 21.392 99.856 22.024 100.504C22.664 101.144 22.984 101.912 22.984 102.808C22.984 103.712 22.668 104.484 22.036 105.124C21.396 105.772 20.624 106.096 19.72 106.096C18.816 106.096 18.048 105.776 17.416 105.136C16.784 104.488 16.468 103.712 16.468 102.808C16.468 101.904 16.784 101.132 17.416 100.492ZM17.428 102.808C17.428 103.464 17.648 104.02 18.088 104.476C18.536 104.924 19.08 105.148 19.72 105.148C20.368 105.148 20.912 104.92 21.352 104.464C21.8 104.008 22.024 103.456 22.024 102.808C22.024 102.16 21.8 101.608 21.352 101.152C20.904 100.696 20.36 100.468 19.72 100.468C19.08 100.468 18.536 100.696 18.088 101.152C17.648 101.608 17.428 102.16 17.428 102.808ZM23.9959 99.64H25.0159V100.78C25.2639 100.404 25.5919 100.104 25.9999 99.88C26.4079 99.648 26.8639 99.532 27.3679 99.532C28.2479 99.532 28.9999 99.856 29.6239 100.504C30.2479 101.144 30.5599 101.912 30.5599 102.808C30.5599 103.72 30.2479 104.496 29.6239 105.136C29.0079 105.776 28.2559 106.096 27.3679 106.096C26.8719 106.096 26.4159 105.984 25.9999 105.76C25.5919 105.528 25.2639 105.22 25.0159 104.836V108.52H23.9959V99.64ZM24.9559 102.808C24.9559 103.456 25.1799 104.012 25.6279 104.476C26.0839 104.94 26.6359 105.172 27.2839 105.172C27.9239 105.172 28.4679 104.944 28.9159 104.488C29.3639 104.024 29.5879 103.464 29.5879 102.808C29.5879 102.16 29.3639 101.608 28.9159 101.152C28.4759 100.696 27.9319 100.468 27.2839 100.468C26.6439 100.468 26.0959 100.7 25.6399 101.164C25.1839 101.62 24.9559 102.168 24.9559 102.808ZM31.4806 101.38C31.4806 100.804 31.7246 100.352 32.2126 100.024C32.7006 99.696 33.3086 99.532 34.0366 99.532C34.9646 99.532 35.7886 99.78 36.5086 100.276V101.284C35.6366 100.708 34.8126 100.42 34.0366 100.42C33.6126 100.42 33.2566 100.508 32.9686 100.684C32.6806 100.852 32.5366 101.084 32.5366 101.38C32.5366 101.524 32.5726 101.648 32.6446 101.752C32.7246 101.848 32.8566 101.936 33.0406 102.016C33.2246 102.088 33.4006 102.144 33.5686 102.184C33.7366 102.224 33.9806 102.28 34.3006 102.352C34.3326 102.36 34.3566 102.368 34.3726 102.376C34.3966 102.376 34.4206 102.38 34.4446 102.388C34.4766 102.388 34.5046 102.392 34.5286 102.4C35.3046 102.568 35.8646 102.808 36.2086 103.12C36.5606 103.424 36.7366 103.808 36.7366 104.272C36.7366 104.28 36.7366 104.288 36.7366 104.296C36.7366 104.88 36.4966 105.328 36.0166 105.64C35.5366 105.944 34.9486 106.096 34.2526 106.096C33.2766 106.096 32.3766 105.784 31.5526 105.16V104.068C31.8406 104.364 32.2406 104.628 32.7526 104.86C33.2646 105.084 33.7646 105.196 34.2526 105.196C34.6606 105.196 35.0006 105.112 35.2726 104.944C35.5526 104.768 35.6926 104.54 35.6926 104.26C35.6926 103.756 35.0926 103.388 33.8926 103.156C33.0686 102.996 32.4606 102.784 32.0686 102.52C31.6766 102.248 31.4806 101.868 31.4806 101.38ZM38.9055 99.64V106H37.8855V99.64H38.9055ZM37.8975 97.468C38.0335 97.332 38.2055 97.264 38.4135 97.264C38.6135 97.264 38.7815 97.332 38.9175 97.468C39.0615 97.604 39.1335 97.772 39.1335 97.972C39.1335 98.172 39.0615 98.34 38.9175 98.476C38.7815 98.604 38.6135 98.668 38.4135 98.668C38.2055 98.668 38.0335 98.604 37.8975 98.476C37.7615 98.34 37.6935 98.172 37.6935 97.972C37.6935 97.772 37.7615 97.604 37.8975 97.468ZM39.8756 99.64H40.9676L43.0916 104.752L45.1196 99.64H46.2116L42.6116 108.52H41.5436L42.5756 105.976L39.8756 99.64ZM47.4043 100.492C48.0363 99.852 48.8043 99.532 49.7083 99.532C50.6123 99.532 51.3803 99.856 52.0123 100.504C52.6523 101.144 52.9723 101.912 52.9723 102.808C52.9723 103.712 52.6563 104.484 52.0243 105.124C51.3843 105.772 50.6123 106.096 49.7083 106.096C48.8043 106.096 48.0363 105.776 47.4043 105.136C46.7723 104.488 46.4563 103.712 46.4563 102.808C46.4563 101.904 46.7723 101.132 47.4043 100.492ZM47.4163 102.808C47.4163 103.464 47.6363 104.02 48.0763 104.476C48.5243 104.924 49.0683 105.148 49.7083 105.148C50.3563 105.148 50.9003 104.92 51.3403 104.464C51.7883 104.008 52.0123 103.456 52.0123 102.808C52.0123 102.16 51.7883 101.608 51.3403 101.152C50.8923 100.696 50.3483 100.468 49.7083 100.468C49.0683 100.468 48.5243 100.696 48.0763 101.152C47.6363 101.608 47.4163 102.16 47.4163 102.808ZM53.9842 99.64H55.0042V100.732C55.2202 100.38 55.5162 100.092 55.8922 99.868C56.2682 99.644 56.7042 99.532 57.2002 99.532C57.9362 99.532 58.5682 99.772 59.0962 100.252C59.6242 100.724 59.8882 101.356 59.8882 102.148V106H58.8682V102.46C58.8682 101.852 58.6882 101.372 58.3282 101.02C57.9682 100.66 57.5322 100.48 57.0202 100.48C56.4362 100.48 55.9522 100.696 55.5682 101.128C55.1922 101.552 55.0042 102.092 55.0042 102.748V106H53.9842V99.64ZM61.0844 99.64H62.1044V103.18C62.1044 103.788 62.2844 104.268 62.6444 104.62C63.0044 104.972 63.4404 105.148 63.9524 105.148C64.5364 105.148 65.0164 104.936 65.3924 104.512C65.7764 104.088 65.9684 103.548 65.9684 102.892V99.64H66.9884V106H65.9684V104.896C65.7524 105.248 65.4564 105.54 65.0804 105.772C64.7044 105.996 64.2684 106.108 63.7724 106.108C63.0364 106.108 62.4044 105.872 61.8764 105.4C61.3484 104.92 61.0844 104.28 61.0844 103.48V99.64ZM68.328 99.64H69.348V100.732C69.564 100.38 69.86 100.092 70.236 99.868C70.612 99.644 71.048 99.532 71.544 99.532C72.28 99.532 72.912 99.772 73.44 100.252C73.968 100.724 74.232 101.356 74.232 102.148V106H73.212V102.46C73.212 101.852 73.032 101.372 72.672 101.02C72.312 100.66 71.876 100.48 71.364 100.48C70.78 100.48 70.296 100.696 69.912 101.128C69.536 101.552 69.348 102.092 69.348 102.748V106H68.328V99.64ZM75.4281 99.64H76.4481V103.18C76.4481 103.788 76.6281 104.268 76.9881 104.62C77.3481 104.972 77.7841 105.148 78.2961 105.148C78.8801 105.148 79.3601 104.936 79.7361 104.512C80.1201 104.088 80.3121 103.548 80.3121 102.892V99.64H81.3321V106H80.3121V104.896C80.0961 105.248 79.8001 105.54 79.4241 105.772C79.0481 105.996 78.6121 106.108 78.1161 106.108C77.3801 106.108 76.7481 105.872 76.2201 105.4C75.6921 104.92 75.4281 104.28 75.4281 103.48V99.64ZM86.709 100.48C87.333 99.848 88.085 99.532 88.965 99.532C89.469 99.532 89.925 99.648 90.333 99.88C90.741 100.104 91.069 100.412 91.317 100.804V99.64H92.337V106H91.317V104.836C91.069 105.22 90.741 105.528 90.333 105.76C89.925 105.984 89.469 106.096 88.965 106.096C88.085 106.096 87.333 105.776 86.709 105.136C86.085 104.488 85.773 103.712 85.773 102.808C85.773 101.896 86.085 101.12 86.709 100.48ZM86.745 102.808C86.745 103.464 86.969 104.02 87.417 104.476C87.865 104.932 88.409 105.16 89.049 105.16C89.689 105.16 90.237 104.928 90.693 104.464C91.149 104 91.377 103.448 91.377 102.808C91.377 102.168 91.149 101.616 90.693 101.152C90.237 100.688 89.689 100.456 89.049 100.456C88.401 100.456 87.853 100.688 87.405 101.152C86.965 101.608 86.745 102.16 86.745 102.808ZM94.7316 97.6V103.204L98.0676 99.64H99.2916L96.5676 102.532L99.4116 106H98.1996L95.9556 103.204L94.7316 104.488V106H93.7116V97.6H94.7316ZM100.043 100.528V99.64H101.363V97.984L102.371 97.672V99.64H104.435V100.528H102.371V104.008C102.371 104.52 102.495 104.84 102.743 104.968C102.991 105.088 103.227 105.148 103.451 105.148C103.731 105.148 104.063 105.092 104.447 104.98V105.964C104.039 106.068 103.667 106.12 103.331 106.12C102.883 106.12 102.443 105.988 102.011 105.724C101.579 105.46 101.363 104.892 101.363 104.02V100.528H100.043ZM106.663 99.64V106H105.643V99.64H106.663ZM105.655 97.468C105.791 97.332 105.963 97.264 106.171 97.264C106.371 97.264 106.539 97.332 106.675 97.468C106.819 97.604 106.891 97.772 106.891 97.972C106.891 98.172 106.819 98.34 106.675 98.476C106.539 98.604 106.371 98.668 106.171 98.668C105.963 98.668 105.791 98.604 105.655 98.476C105.519 98.34 105.451 98.172 105.451 97.972C105.451 97.772 105.519 97.604 105.655 97.468ZM107.741 100.528V99.64H109.097V99.412C109.097 98.556 109.333 98.012 109.805 97.78C110.277 97.548 110.729 97.432 111.161 97.432C111.497 97.432 111.865 97.484 112.265 97.588V98.38C111.881 98.284 111.533 98.236 111.221 98.236C111.205 98.236 111.113 98.24 110.945 98.248C110.777 98.248 110.589 98.348 110.381 98.548C110.181 98.74 110.081 99.028 110.081 99.412V99.64H112.169V100.528H110.117V106H109.109L109.097 100.528H107.741ZM116.505 97.6H117.525V100.732C117.733 100.38 118.025 100.092 118.401 99.868C118.777 99.644 119.213 99.532 119.709 99.532C120.445 99.532 121.077 99.772 121.605 100.252C122.133 100.724 122.397 101.356 122.397 102.148V106H121.377V102.46C121.377 101.852 121.197 101.372 120.837 101.02C120.485 100.66 120.049 100.48 119.529 100.48C118.945 100.48 118.465 100.696 118.089 101.128C117.713 101.552 117.525 102.092 117.525 102.748V106H116.505V97.6ZM124.385 100.48C125.009 99.848 125.761 99.532 126.641 99.532C127.145 99.532 127.601 99.648 128.009 99.88C128.417 100.104 128.745 100.412 128.993 100.804V99.64H130.013V106H128.993V104.836C128.745 105.22 128.417 105.528 128.009 105.76C127.601 105.984 127.145 106.096 126.641 106.096C125.761 106.096 125.009 105.776 124.385 105.136C123.761 104.488 123.449 103.712 123.449 102.808C123.449 101.896 123.761 101.12 124.385 100.48ZM124.421 102.808C124.421 103.464 124.645 104.02 125.093 104.476C125.541 104.932 126.085 105.16 126.725 105.16C127.365 105.16 127.913 104.928 128.369 104.464C128.825 104 129.053 103.448 129.053 102.808C129.053 102.168 128.825 101.616 128.369 101.152C127.913 100.688 127.365 100.456 126.725 100.456C126.077 100.456 125.529 100.688 125.081 101.152C124.641 101.608 124.421 102.16 124.421 102.808ZM131.411 106V97.6H132.431V106H131.411ZM134.592 100.48C135.224 99.848 135.992 99.532 136.896 99.532C137.704 99.532 138.408 99.804 139.008 100.348C139.616 100.884 139.976 101.552 140.088 102.352C140.12 102.52 140.136 102.676 140.136 102.82C140.136 102.948 140.124 103.068 140.1 103.18H134.652C134.708 103.772 134.948 104.252 135.372 104.62C135.796 104.988 136.304 105.172 136.896 105.172C137.304 105.172 137.688 105.08 138.048 104.896C138.408 104.712 138.7 104.464 138.924 104.152L139.848 104.368C139.592 104.888 139.188 105.308 138.636 105.628C138.092 105.94 137.512 106.096 136.896 106.096C135.984 106.096 135.212 105.776 134.58 105.136C133.948 104.488 133.632 103.712 133.632 102.808C133.632 101.896 133.952 101.12 134.592 100.48ZM134.652 102.376H139.092C139.02 101.832 138.776 101.376 138.36 101.008C137.952 100.632 137.46 100.444 136.884 100.444C136.3 100.444 135.796 100.632 135.372 101.008C134.956 101.376 134.716 101.832 134.652 102.376ZM144.343 102.712C144.343 101.8 144.647 101.044 145.255 100.444C145.863 99.836 146.611 99.532 147.499 99.532C147.515 99.532 147.527 99.532 147.535 99.532C148.039 99.532 148.495 99.644 148.903 99.868C149.311 100.084 149.639 100.38 149.887 100.756V99.64H150.907V105.352C150.907 105.928 150.815 106.44 150.631 106.888C150.455 107.344 150.215 107.7 149.911 107.956C149.615 108.22 149.283 108.416 148.915 108.544C148.555 108.68 148.175 108.748 147.775 108.748C147.055 108.748 146.399 108.548 145.807 108.148C145.215 107.756 144.835 107.18 144.667 106.42H145.687C145.823 106.884 146.091 107.228 146.491 107.452C146.891 107.684 147.315 107.8 147.763 107.8C148.355 107.8 148.855 107.608 149.263 107.224C149.671 106.848 149.879 106.248 149.887 105.424V104.692C149.647 105.06 149.319 105.352 148.903 105.568C148.495 105.784 148.039 105.892 147.535 105.892C146.623 105.892 145.863 105.588 145.255 104.98C144.647 104.372 144.343 103.616 144.343 102.712ZM145.999 104.332C146.447 104.764 146.987 104.98 147.619 104.98C148.259 104.98 148.807 104.764 149.263 104.332C149.719 103.892 149.947 103.352 149.947 102.712C149.947 102.08 149.719 101.544 149.263 101.104C148.815 100.664 148.267 100.444 147.619 100.444C146.971 100.444 146.423 100.664 145.975 101.104C145.535 101.536 145.315 102.072 145.315 102.712C145.315 103.36 145.543 103.9 145.999 104.332ZM153.003 100.48C153.635 99.848 154.403 99.532 155.307 99.532C156.115 99.532 156.819 99.804 157.419 100.348C158.027 100.884 158.387 101.552 158.499 102.352C158.531 102.52 158.547 102.676 158.547 102.82C158.547 102.948 158.535 103.068 158.511 103.18H153.062C153.118 103.772 153.359 104.252 153.783 104.62C154.207 104.988 154.715 105.172 155.307 105.172C155.715 105.172 156.099 105.08 156.459 104.896C156.819 104.712 157.111 104.464 157.335 104.152L158.259 104.368C158.003 104.888 157.599 105.308 157.047 105.628C156.503 105.94 155.923 106.096 155.307 106.096C154.395 106.096 153.623 105.776 152.991 105.136C152.359 104.488 152.043 103.712 152.043 102.808C152.043 101.896 152.363 101.12 153.003 100.48ZM153.062 102.376H157.503C157.431 101.832 157.187 101.376 156.771 101.008C156.363 100.632 155.871 100.444 155.295 100.444C154.711 100.444 154.207 100.632 153.783 101.008C153.367 101.376 153.127 101.832 153.062 102.376ZM159.094 100.528V99.64H160.414V97.984L161.422 97.672V99.64H163.486V100.528H161.422V104.008C161.422 104.52 161.546 104.84 161.794 104.968C162.042 105.088 162.278 105.148 162.502 105.148C162.782 105.148 163.114 105.092 163.498 104.98V105.964C163.09 106.068 162.718 106.12 162.382 106.12C161.934 106.12 161.494 105.988 161.062 105.724C160.63 105.46 160.414 104.892 160.414 104.02V100.528H159.094ZM165.714 99.64V106H164.694V99.64H165.714ZM164.706 97.468C164.842 97.332 165.014 97.264 165.222 97.264C165.422 97.264 165.59 97.332 165.726 97.468C165.87 97.604 165.942 97.772 165.942 97.972C165.942 98.172 165.87 98.34 165.726 98.476C165.59 98.604 165.422 98.668 165.222 98.668C165.014 98.668 164.842 98.604 164.706 98.476C164.57 98.34 164.502 98.172 164.502 97.972C164.502 97.772 164.57 97.604 164.706 97.468ZM167.152 99.64H168.172V100.888C168.372 100.408 168.664 100.068 169.048 99.868C169.432 99.668 169.832 99.568 170.248 99.568C170.416 99.568 170.592 99.584 170.776 99.616V100.696C170.544 100.64 170.328 100.612 170.128 100.612C169.68 100.612 169.24 100.78 168.808 101.116C168.384 101.444 168.172 102.004 168.172 102.796V106H167.152V99.64ZM172.909 99.64V106H171.889V99.64H172.909ZM171.901 97.468C172.037 97.332 172.209 97.264 172.417 97.264C172.617 97.264 172.785 97.332 172.921 97.468C173.065 97.604 173.137 97.772 173.137 97.972C173.137 98.172 173.065 98.34 172.921 98.476C172.785 98.604 172.617 98.668 172.417 98.668C172.209 98.668 172.037 98.604 171.901 98.476C171.765 98.34 171.697 98.172 171.697 97.972C171.697 97.772 171.765 97.604 171.901 97.468ZM173.88 99.64H174.972L177.096 104.752L179.124 99.64H180.216L176.616 108.52H175.548L176.58 105.976L173.88 99.64ZM181.408 100.492C182.04 99.852 182.808 99.532 183.712 99.532C184.616 99.532 185.384 99.856 186.016 100.504C186.656 101.144 186.976 101.912 186.976 102.808C186.976 103.712 186.66 104.484 186.028 105.124C185.388 105.772 184.616 106.096 183.712 106.096C182.808 106.096 182.04 105.776 181.408 105.136C180.776 104.488 180.46 103.712 180.46 102.808C180.46 101.904 180.776 101.132 181.408 100.492ZM181.42 102.808C181.42 103.464 181.64 104.02 182.08 104.476C182.528 104.924 183.072 105.148 183.712 105.148C184.36 105.148 184.904 104.92 185.344 104.464C185.792 104.008 186.016 103.456 186.016 102.808C186.016 102.16 185.792 101.608 185.344 101.152C184.896 100.696 184.352 100.468 183.712 100.468C183.072 100.468 182.528 100.696 182.08 101.152C181.64 101.608 181.42 102.16 181.42 102.808ZM187.988 99.64H189.008V100.888C189.208 100.408 189.5 100.068 189.884 99.868C190.268 99.668 190.668 99.568 191.084 99.568C191.252 99.568 191.428 99.584 191.612 99.616V100.696C191.38 100.64 191.164 100.612 190.964 100.612C190.516 100.612 190.076 100.78 189.644 101.116C189.22 101.444 189.008 102.004 189.008 102.796V106H187.988V99.64ZM192.545 99.64H193.565V103.18C193.565 103.788 193.745 104.268 194.105 104.62C194.465 104.972 194.901 105.148 195.413 105.148C195.997 105.148 196.477 104.936 196.853 104.512C197.237 104.088 197.429 103.548 197.429 102.892V99.64H198.449V106H197.429V104.896C197.213 105.248 196.917 105.54 196.541 105.772C196.165 105.996 195.729 106.108 195.233 106.108C194.497 106.108 193.865 105.872 193.337 105.4C192.809 104.92 192.545 104.28 192.545 103.48V99.64ZM199.669 104.956L203.449 100.588H199.681V99.64H204.697V100.612L200.881 105.052H204.637V106.012H199.669V104.956Z" fill="#CACCD4"/>
<circle cx="293.738" cy="82.7063" r="16.8" transform="rotate(90 293.738 82.7063)" fill="#DFE7FF"/>
<circle cx="293.738" cy="82.7063" r="16.8" transform="rotate(90 293.738 82.7063)" stroke="#015DFA"/>
<g clip-path="url(#clip1_1056_67307)">
<path d="M293.867 94.3313C300.216 94.3313 305.362 89.1849 305.362 82.8365C305.362 76.4882 300.216 71.3418 293.867 71.3418C287.519 71.3418 282.373 76.4882 282.373 82.8365C282.373 89.1849 287.519 94.3313 293.867 94.3313Z" fill="#627EEA"/>
<path d="M293.867 74.2148V80.5872L299.253 82.9939L293.867 74.2148Z" fill="white" fill-opacity="0.602"/>
<path d="M294.225 74.2148L288.838 82.9939L294.225 80.5872V74.2148Z" fill="white"/>
<path d="M293.867 87.4V91.7299L299.257 84.2734L293.867 87.4Z" fill="white" fill-opacity="0.602"/>
<path d="M294.225 91.7299V87.3993L288.838 84.2734L294.225 91.7299Z" fill="white"/>
<path d="M293.867 86.2122L299.253 83.085L293.867 80.6797V86.2122Z" fill="white" fill-opacity="0.2"/>
<path d="M288.838 83.085L294.225 86.2122V80.6797L288.838 83.085Z" fill="white" fill-opacity="0.602"/>
</g>
<circle cx="259.524" cy="48.3547" r="16.8" transform="rotate(90 259.524 48.3547)" fill="#DFE7FF"/>
<g clip-path="url(#clip2_1056_67307)">
<path d="M270.657 51.1543C269.122 57.3122 262.885 61.0598 256.726 59.5242C250.57 57.989 246.823 51.7516 248.358 45.5942C249.893 39.4356 256.13 35.6877 262.287 37.2229C268.445 38.7581 272.192 44.9961 270.657 51.1544L270.657 51.1543H270.657Z" fill="#F7931A"/>
<path d="M264.593 46.7196C264.821 45.1899 263.657 44.3676 262.064 43.8191L262.581 41.747L261.32 41.4327L260.817 43.4502C260.485 43.3675 260.144 43.2896 259.806 43.2124L260.313 41.1815L259.052 40.8672L258.535 42.9386C258.261 42.8761 257.991 42.8144 257.73 42.7493L257.731 42.7428L255.992 42.3085L255.656 43.6557C255.656 43.6557 256.592 43.8702 256.572 43.8834C257.083 44.0109 257.175 44.349 257.16 44.617L256.572 46.9776C256.607 46.9865 256.652 46.9995 256.703 47.0197C256.661 47.0092 256.616 46.9978 256.569 46.9867L255.745 50.2936C255.682 50.4488 255.524 50.6817 255.167 50.5932C255.179 50.6116 254.25 50.3645 254.25 50.3645L253.624 51.8083L255.265 52.2175C255.57 52.2941 255.87 52.3742 256.164 52.4495L255.642 54.5454L256.902 54.8597L257.419 52.7861C257.763 52.8795 258.097 52.9657 258.424 53.047L257.909 55.1108L259.171 55.4251L259.692 53.3332C261.843 53.7402 263.461 53.5761 264.141 51.6306C264.69 50.0643 264.114 49.1609 262.983 48.5717C263.807 48.3816 264.428 47.8395 264.593 46.7198L264.593 46.7195L264.593 46.7196ZM261.711 50.7608C261.321 52.3271 258.684 51.4804 257.829 51.2681L258.521 48.4914C259.376 48.7049 262.118 49.1273 261.711 50.7608H261.711ZM262.101 46.6969C261.745 48.1217 259.55 47.3978 258.838 47.2203L259.466 44.7021C260.178 44.8795 262.471 45.2108 262.101 46.6969H262.101Z" fill="white"/>
</g>
<path fill-rule="evenodd" clip-rule="evenodd" d="M285.059 30.5436C285.424 29.8987 286.108 29.5 286.849 29.5C301.121 29.5 312.667 41.0451 312.667 55.3171C312.667 56.4533 311.745 57.3743 310.609 57.3743C309.473 57.3743 308.552 56.4533 308.552 55.3171C308.552 44.6264 300.851 35.7585 290.685 33.9511L292.177 36.4388C292.762 37.413 292.446 38.6766 291.472 39.2611C290.498 39.8457 289.234 39.5298 288.649 38.5555L285.085 32.6155C284.704 31.98 284.694 31.1885 285.059 30.5436ZM242.724 73.6257C243.86 73.6257 244.781 74.5467 244.781 75.6829C244.781 86.3736 252.482 95.2415 262.648 97.0489L261.156 94.5612C260.571 93.587 260.887 92.3234 261.861 91.7389C262.835 91.1543 264.099 91.4702 264.684 92.4445L268.248 98.3845C268.629 99.02 268.639 99.8115 268.274 100.456C267.909 101.101 267.225 101.5 266.484 101.5C252.212 101.5 240.667 89.9549 240.667 75.6829C240.667 74.5467 241.588 73.6257 242.724 73.6257Z" fill="#015DFA" stroke="#DFE7FF" stroke-width="2.5" stroke-linecap="round" stroke-linejoin="round"/>
<circle cx="243.167" cy="67" r="2.5" fill="#34C76C"/>
<circle cx="310.167" cy="65" r="2.5" fill="#34C76C"/>
<path d="M278.533 34C278.148 34.6667 277.186 34.6667 276.801 34L275.069 31C274.684 30.3333 275.165 29.5 275.935 29.5L279.399 29.5C280.169 29.5 280.65 30.3333 280.265 31L278.533 34Z" fill="#34C76C"/>
<path d="M274.801 98C275.186 97.3333 276.148 97.3333 276.533 98L278.265 101C278.65 101.667 278.168 102.5 277.399 102.5H273.935C273.165 102.5 272.684 101.667 273.069 101L274.801 98Z" fill="#34C76C"/>
</g>
<defs>
<linearGradient id="paint0_linear_1056_67307" x1="253.653" y1="617.238" x2="-38.7959" y2="105.989" gradientUnits="userSpaceOnUse">
<stop stop-color="white"/>
<stop offset="1" stop-color="white" stop-opacity="0"/>
</linearGradient>
<linearGradient id="paint1_linear_1056_67307" x1="293.39" y1="-341.787" x2="294.753" y2="127.511" gradientUnits="userSpaceOnUse">
<stop stop-color="white"/>
<stop offset="1" stop-color="white" stop-opacity="0"/>
</linearGradient>
<linearGradient id="paint2_linear_1056_67307" x1="312.597" y1="440.062" x2="297.543" y2="30.8548" gradientUnits="userSpaceOnUse">
<stop stop-color="white"/>
<stop offset="1" stop-color="white" stop-opacity="0"/>
</linearGradient>
<linearGradient id="paint3_linear_1056_67307" x1="258.621" y1="693.237" x2="416.453" y2="17.4635" gradientUnits="userSpaceOnUse">
<stop stop-color="white"/>
<stop offset="1" stop-color="white" stop-opacity="0"/>
</linearGradient>
<clipPath id="clip0_1056_67307">
<rect width="342.667" height="132" rx="12" fill="white"/>
</clipPath>
<clipPath id="clip1_1056_67307">
<rect width="22.9895" height="22.9895" fill="white" transform="translate(282.373 71.3418)"/>
</clipPath>
<clipPath id="clip2_1056_67307">
<rect width="22.9895" height="22.9895" fill="white" transform="translate(248.029 36.8613)"/>
</clipPath>
</defs>
</svg>
