<svg width="344" height="132" viewBox="0 0 344 132" fill="none" xmlns="http://www.w3.org/2000/svg">
<g clip-path="url(#clip0_1056_67325)">
<rect x="0.666504" width="342.667" height="132" rx="12" fill="#015DFA"/>
<g opacity="0.6">
<mask id="mask0_1056_67325" style="mask-type:alpha" maskUnits="userSpaceOnUse" x="0" y="-30" width="454" height="191">
<path d="M309.124 105.9H309.125C379.823 105.9 416.58 161 416.58 161L0.667297 161V-29C27.9864 -29 75.2927 -19.0769 94.049 22.775C131.302 105.9 238.426 105.9 309.124 105.9Z" fill="url(#paint0_linear_1056_67325)"/>
<path d="M0.667511 -28.9994V27.2882C158.621 175.013 192.775 142.238 218.244 84.4688C252.278 7.27091 413.575 -15.5288 453.667 -10.6893V-28.9994L0.667511 -28.9994Z" fill="url(#paint1_linear_1056_67325)"/>
<path d="M0.667511 45.3365V-29.001L453.667 -29.001V116.248C423.113 127.886 388.203 138.275 329.655 116.248C317.825 111.797 295.871 101.471 284.812 96.9215C226.373 72.8803 220.379 45.3365 0.667511 45.3365Z" fill="url(#paint2_linear_1056_67325)"/>
<path d="M39.1246 -29L0.66748 -29C5.18121 -25.8586 12.2227 -22.3483 39.1246 -21.509C258.493 -14.665 316.169 39.5756 374.69 101.202C383.838 110.835 392.997 120.48 402.782 129.904C421.33 147.767 438.33 157.354 453.667 161V-29L39.1246 -29Z" fill="url(#paint3_linear_1056_67325)"/>
</mask>
<g mask="url(#mask0_1056_67325)">
<rect x="510.624" y="207.551" width="553.336" height="285.475" transform="rotate(-180 510.624 207.551)" fill="white"/>
</g>
</g>
<path d="M17.3465 25H28.6665V27.5H24.4265V39H21.7465V27.5H17.3465V25ZM29.947 34.94V28.4H32.547V34.26C32.547 35.0067 32.7736 35.6133 33.227 36.08C33.6803 36.5333 34.2336 36.76 34.887 36.76C35.6603 36.76 36.287 36.4867 36.767 35.94C37.2603 35.38 37.507 34.6867 37.507 33.86V28.4H40.107V39H37.507V37.8C36.6803 38.72 35.6336 39.18 34.367 39.18C33.1536 39.18 32.1136 38.7933 31.247 38.02C30.3803 37.2467 29.947 36.22 29.947 34.94ZM31.647 24.78C31.927 24.5 32.2736 24.36 32.687 24.36C33.1003 24.36 33.447 24.5 33.727 24.78C34.007 25.06 34.147 25.4067 34.147 25.82C34.147 26.2333 34.007 26.5733 33.727 26.84C33.447 27.12 33.1003 27.26 32.687 27.26C32.2736 27.26 31.927 27.1267 31.647 26.86C31.367 26.58 31.227 26.2333 31.227 25.82C31.227 25.4067 31.367 25.06 31.647 24.78ZM35.827 25.82C35.827 25.4067 35.967 25.06 36.247 24.78C36.527 24.5 36.8736 24.36 37.287 24.36C37.7003 24.36 38.047 24.5 38.327 24.78C38.607 25.06 38.747 25.4067 38.747 25.82C38.747 26.2333 38.607 26.5733 38.327 26.84C38.047 27.12 37.7003 27.26 37.287 27.26C36.8736 27.26 36.527 27.1267 36.247 26.86C35.967 26.58 35.827 26.2333 35.827 25.82ZM42.1326 28.4H44.7326V29.58C45.4926 28.6733 46.4259 28.22 47.5326 28.22C48.1859 28.22 48.7993 28.38 49.3726 28.7C49.9593 29.0067 50.4326 29.4467 50.7926 30.02C51.2059 29.46 51.7259 29.02 52.3526 28.7C52.9926 28.38 53.6393 28.22 54.2926 28.22C55.3726 28.22 56.3059 28.6 57.0926 29.36C57.8926 30.12 58.2926 31.1533 58.2926 32.46V39H55.6926V33.06C55.6926 32.3 55.5259 31.7 55.1926 31.26C54.8593 30.8067 54.3859 30.58 53.7726 30.58C53.0793 30.58 52.5393 30.8067 52.1526 31.26C51.7793 31.7 51.5659 32.2733 51.5126 32.98V39H48.9126V33.06C48.9126 32.3 48.7459 31.7 48.4126 31.26C48.0793 30.8067 47.6059 30.58 46.9926 30.58C46.2326 30.58 45.6659 30.8467 45.2926 31.38C44.9193 31.9133 44.7326 32.58 44.7326 33.38V39H42.1326V28.4ZM65.4045 39V25H68.1245V31.9L74.1645 25H77.4845L71.7245 31.46L77.6445 39H74.3245L69.9645 33.46L68.1245 35.52V39H65.4045ZM78.7763 28.4H81.3763V29.98C81.723 29.38 82.1763 28.9467 82.7363 28.68C83.2963 28.4133 83.8697 28.28 84.4563 28.28C84.7363 28.28 85.0297 28.3067 85.3363 28.36V31.14C84.923 31.0067 84.523 30.94 84.1363 30.94C83.5897 30.94 82.9897 31.1333 82.3363 31.52C81.6963 31.8933 81.3763 32.5867 81.3763 33.6V39H78.7763V28.4ZM89.4804 28.4V39H86.8804V28.4H89.4804ZM87.0404 24.66C87.3604 24.3533 87.7471 24.2 88.2004 24.2C88.6537 24.2 89.0404 24.3533 89.3604 24.66C89.6804 24.9667 89.8404 25.34 89.8404 25.78C89.8404 26.22 89.6804 26.5867 89.3604 26.88C89.0404 27.1867 88.6537 27.34 88.2004 27.34C87.7471 27.34 87.3604 27.1933 87.0404 26.9C86.7204 26.5933 86.5604 26.22 86.5604 25.78C86.5604 25.34 86.7204 24.9667 87.0404 24.66ZM91.4428 28.4H94.0428V29.54C94.8694 28.6733 95.9294 28.24 97.2228 28.24C98.6628 28.24 99.8961 28.78 100.923 29.86C101.963 30.94 102.483 32.22 102.483 33.7C102.483 35.2333 101.969 36.5267 100.943 37.58C99.9161 38.6333 98.6761 39.16 97.2228 39.16C95.9294 39.16 94.8694 38.7133 94.0428 37.82V43.2H91.4428V28.4ZM93.8828 33.7C93.8828 34.54 94.1828 35.2733 94.7828 35.9C95.3961 36.5133 96.1228 36.82 96.9628 36.82C97.8294 36.82 98.5561 36.5133 99.1428 35.9C99.7428 35.2867 100.043 34.5533 100.043 33.7C100.043 32.8467 99.7428 32.1133 99.1428 31.5C98.5561 30.8867 97.8294 30.58 96.9628 30.58C96.1228 30.58 95.3961 30.8933 94.7828 31.52C94.1828 32.1333 93.8828 32.86 93.8828 33.7ZM103.186 30.64V28.4H105.086V25.96L107.666 25.22V28.4H110.826V30.64H107.666V35.5C107.666 36.0467 107.846 36.3867 108.206 36.52C108.566 36.6533 108.879 36.72 109.146 36.72C109.626 36.72 110.219 36.6133 110.926 36.4V38.92C110.192 39.12 109.512 39.22 108.886 39.22C108.086 39.22 107.252 38.9867 106.386 38.52C105.519 38.0533 105.086 37.0533 105.086 35.52V30.64H103.186ZM113.318 29.82C114.385 28.7533 115.665 28.22 117.158 28.22C118.665 28.22 119.952 28.76 121.018 29.84C122.085 30.9067 122.618 32.1867 122.618 33.68C122.618 35.1867 122.085 36.48 121.018 37.56C119.952 38.6267 118.665 39.16 117.158 39.16C115.665 39.16 114.385 38.62 113.318 37.54C112.252 36.46 111.718 35.1733 111.718 33.68C111.718 32.1733 112.252 30.8867 113.318 29.82ZM114.138 33.68C114.138 34.5333 114.432 35.2667 115.018 35.88C115.605 36.48 116.318 36.78 117.158 36.78C118.012 36.78 118.732 36.48 119.318 35.88C119.905 35.2667 120.198 34.5333 120.198 33.68C120.198 32.8267 119.905 32.1 119.318 31.5C118.732 30.9 118.012 30.6 117.158 30.6C116.318 30.6 115.605 30.9067 115.018 31.52C114.432 32.12 114.138 32.84 114.138 33.68ZM129.512 39V25H135.812C137.172 25 138.319 25.4733 139.252 26.42C140.186 27.3533 140.652 28.4667 140.652 29.76C140.652 31.0933 140.192 32.2133 139.272 33.12C138.352 34.0267 137.199 34.48 135.812 34.48H132.232V39H129.512ZM132.232 32.06H135.652C136.359 32.06 136.932 31.8333 137.372 31.38C137.826 30.9133 138.052 30.3467 138.052 29.68C138.052 29.0267 137.832 28.4867 137.392 28.06C136.952 27.6333 136.372 27.42 135.652 27.42H132.232V32.06ZM143.05 29.8C144.077 28.7467 145.317 28.22 146.77 28.22C148.037 28.22 149.097 28.6667 149.95 29.56V28.4H152.55V39H149.95V37.86C149.11 38.7267 148.05 39.16 146.77 39.16C145.33 39.16 144.09 38.62 143.05 37.54C142.023 36.46 141.51 35.18 141.51 33.7C141.51 32.1667 142.023 30.8667 143.05 29.8ZM143.95 33.7C143.95 34.5533 144.243 35.2867 144.83 35.9C145.43 36.5 146.163 36.8 147.03 36.8C147.87 36.8 148.59 36.4933 149.19 35.88C149.803 35.2667 150.11 34.54 150.11 33.7C150.11 32.86 149.803 32.1333 149.19 31.52C148.59 30.8933 147.87 30.58 147.03 30.58C146.163 30.58 145.43 30.8867 144.83 31.5C144.243 32.1133 143.95 32.8467 143.95 33.7ZM154.461 28.4H157.061V29.98C157.408 29.38 157.861 28.9467 158.421 28.68C158.981 28.4133 159.555 28.28 160.141 28.28C160.421 28.28 160.715 28.3067 161.021 28.36V31.14C160.608 31.0067 160.208 30.94 159.821 30.94C159.275 30.94 158.675 31.1333 158.021 31.52C157.381 31.8933 157.061 32.5867 157.061 33.6V39H154.461V28.4ZM163.138 29.8C164.165 28.7467 165.405 28.22 166.858 28.22C168.125 28.22 169.185 28.6667 170.038 29.56V28.4H172.638V39H170.038V37.86C169.198 38.7267 168.138 39.16 166.858 39.16C165.418 39.16 164.178 38.62 163.138 37.54C162.112 36.46 161.598 35.18 161.598 33.7C161.598 32.1667 162.112 30.8667 163.138 29.8ZM164.038 33.7C164.038 34.5533 164.332 35.2867 164.918 35.9C165.518 36.5 166.252 36.8 167.118 36.8C167.958 36.8 168.678 36.4933 169.278 35.88C169.892 35.2667 170.198 34.54 170.198 33.7C170.198 32.86 169.892 32.1333 169.278 31.52C168.678 30.8933 167.958 30.58 167.118 30.58C166.252 30.58 165.518 30.8867 164.918 31.5C164.332 32.1133 164.038 32.8467 164.038 33.7ZM174.59 39V25H177.19V39H174.59ZM180.297 29.8C181.323 28.7467 182.563 28.22 184.017 28.22C185.283 28.22 186.343 28.6667 187.197 29.56V28.4H189.797V39H187.197V37.86C186.357 38.7267 185.297 39.16 184.017 39.16C182.577 39.16 181.337 38.62 180.297 37.54C179.27 36.46 178.757 35.18 178.757 33.7C178.757 32.1667 179.27 30.8667 180.297 29.8ZM181.197 33.7C181.197 34.5533 181.49 35.2867 182.077 35.9C182.677 36.5 183.41 36.8 184.277 36.8C185.117 36.8 185.837 36.4933 186.437 35.88C187.05 35.2667 187.357 34.54 187.357 33.7C187.357 32.86 187.05 32.1333 186.437 31.52C185.837 30.8933 185.117 30.58 184.277 30.58C183.41 30.58 182.677 30.8867 182.077 31.5C181.49 32.1133 181.197 32.8467 181.197 33.7ZM191.708 28.4H194.308V29.98C194.655 29.38 195.108 28.9467 195.668 28.68C196.228 28.4133 196.802 28.28 197.388 28.28C197.668 28.28 197.962 28.3067 198.268 28.36V31.14C197.855 31.0067 197.455 30.94 197.068 30.94C196.522 30.94 195.922 31.1333 195.268 31.52C194.628 31.8933 194.308 32.5867 194.308 33.6V39H191.708V28.4ZM200.385 29.8C201.412 28.7467 202.652 28.22 204.105 28.22C205.372 28.22 206.432 28.6667 207.285 29.56V25H209.885V39H207.285V37.86C206.445 38.7267 205.385 39.16 204.105 39.16C202.665 39.16 201.425 38.62 200.385 37.54C199.358 36.46 198.845 35.18 198.845 33.7C198.845 32.1667 199.358 30.8667 200.385 29.8ZM201.285 33.7C201.285 34.5533 201.578 35.2867 202.165 35.9C202.765 36.5 203.498 36.8 204.365 36.8C205.205 36.8 205.925 36.4933 206.525 35.88C207.138 35.2667 207.445 34.54 207.445 33.7C207.445 32.86 207.138 32.1333 206.525 31.52C205.925 30.8933 205.205 30.58 204.365 30.58C203.498 30.58 202.765 30.8867 202.165 31.5C201.578 32.1133 201.285 32.8467 201.285 33.7ZM213.037 29.8C214.063 28.7467 215.303 28.22 216.757 28.22C218.023 28.22 219.083 28.6667 219.937 29.56V28.4H222.537V39H219.937V37.86C219.097 38.7267 218.037 39.16 216.757 39.16C215.317 39.16 214.077 38.62 213.037 37.54C212.01 36.46 211.497 35.18 211.497 33.7C211.497 32.1667 212.01 30.8667 213.037 29.8ZM213.937 33.7C213.937 34.5533 214.23 35.2867 214.817 35.9C215.417 36.5 216.15 36.8 217.017 36.8C217.857 36.8 218.577 36.4933 219.177 35.88C219.79 35.2667 220.097 34.54 220.097 33.7C220.097 32.86 219.79 32.1333 219.177 31.52C218.577 30.8933 217.857 30.58 217.017 30.58C216.15 30.58 215.417 30.8867 214.817 31.5C214.23 32.1133 213.937 32.8467 213.937 33.7Z" fill="#BFD0FF"/>
<path d="M17.4265 53.94C17.4265 52.7267 17.9398 51.74 18.9665 50.98C20.0065 50.22 21.2532 49.84 22.7065 49.84C24.4932 49.84 26.1998 50.3467 27.8265 51.36V54.14C27.0398 53.5933 26.1865 53.16 25.2665 52.84C24.3465 52.5067 23.4932 52.34 22.7065 52.34C21.9865 52.34 21.3732 52.4867 20.8665 52.78C20.3598 53.06 20.1065 53.44 20.1065 53.92C20.1065 54.1733 20.1932 54.4 20.3665 54.6C20.5398 54.8 20.7865 54.9733 21.1065 55.12C21.4265 55.2533 21.7798 55.3733 22.1665 55.48C22.5532 55.5867 22.9932 55.7 23.4865 55.82C23.6865 55.86 23.8332 55.8933 23.9265 55.92C26.8865 56.6533 28.3665 58.0533 28.3665 60.12C28.3665 60.1333 28.3665 60.1467 28.3665 60.16C28.3665 61.44 27.8398 62.4267 26.7865 63.12C25.7465 63.8133 24.5265 64.16 23.1265 64.16C23.0732 64.16 23.0198 64.16 22.9665 64.16C20.8598 64.12 19.0998 63.4667 17.6865 62.2V59.42C19.4198 60.9 21.2398 61.64 23.1465 61.64C23.8665 61.64 24.4665 61.5133 24.9465 61.26C25.4398 60.9933 25.6865 60.62 25.6865 60.14C25.6865 59.6733 25.4132 59.2733 24.8665 58.94C24.3198 58.5933 23.3398 58.2467 21.9265 57.9C18.9265 57.18 17.4265 55.86 17.4265 53.94ZM29.9117 64V53.4H32.5117V64H29.9117ZM33.954 53.4H35.794V53C35.794 52.24 35.9673 51.6 36.314 51.08C36.6607 50.56 37.114 50.1933 37.674 49.98C38.2473 49.7667 38.7073 49.66 39.054 49.66C39.4007 49.6467 39.5807 49.64 39.594 49.64C40.2473 49.64 40.9007 49.7467 41.554 49.96V51.9C41.154 51.78 40.8207 51.7067 40.554 51.68C40.3007 51.6533 40.1007 51.64 39.954 51.64C39.754 51.64 39.5207 51.66 39.254 51.7C39.0007 51.74 38.774 51.8733 38.574 52.1C38.3873 52.3267 38.294 52.6267 38.294 53V53.4H41.374V55.64H38.394L38.414 64H35.854L35.794 55.64H33.954V53.4ZM43.0663 64V53.4H45.6663V64H43.0663ZM47.6287 53.4H50.2287V54.98C50.5754 54.38 51.0287 53.9467 51.5887 53.68C52.1487 53.4133 52.722 53.28 53.3087 53.28C53.5887 53.28 53.882 53.3067 54.1887 53.36V56.14C53.7754 56.0067 53.3754 55.94 52.9887 55.94C52.442 55.94 51.842 56.1333 51.1887 56.52C50.5487 56.8933 50.2287 57.5867 50.2287 58.6V64H47.6287V53.4ZM60.981 64V50H63.701V56.9L69.741 50H73.061L67.301 56.46L73.221 64H69.901L65.541 58.46L63.701 60.52V64H60.981ZM74.5192 54.82C75.5858 53.7533 76.8658 53.22 78.3592 53.22C79.8658 53.22 81.1525 53.76 82.2192 54.84C83.2858 55.9067 83.8192 57.1867 83.8192 58.68C83.8192 60.1867 83.2858 61.48 82.2192 62.56C81.1525 63.6267 79.8658 64.16 78.3592 64.16C76.8658 64.16 75.5858 63.62 74.5192 62.54C73.4525 61.46 72.9192 60.1733 72.9192 58.68C72.9192 57.1733 73.4525 55.8867 74.5192 54.82ZM75.3392 58.68C75.3392 59.5333 75.6325 60.2667 76.2192 60.88C76.8058 61.48 77.5192 61.78 78.3592 61.78C79.2125 61.78 79.9325 61.48 80.5192 60.88C81.1058 60.2667 81.3992 59.5333 81.3992 58.68C81.3992 57.8267 81.1058 57.1 80.5192 56.5C79.9325 55.9 79.2125 55.6 78.3592 55.6C77.5192 55.6 76.8058 55.9067 76.2192 56.52C75.6325 57.12 75.3392 57.84 75.3392 58.68ZM85.2295 53.4H87.8295V54.58C88.5895 53.6733 89.5228 53.22 90.6295 53.22C91.2828 53.22 91.8961 53.38 92.4695 53.7C93.0561 54.0067 93.5295 54.4467 93.8895 55.02C94.3028 54.46 94.8228 54.02 95.4495 53.7C96.0895 53.38 96.7361 53.22 97.3895 53.22C98.4695 53.22 99.4028 53.6 100.189 54.36C100.989 55.12 101.389 56.1533 101.389 57.46V64H98.7895V58.06C98.7895 57.3 98.6228 56.7 98.2895 56.26C97.9561 55.8067 97.4828 55.58 96.8695 55.58C96.1761 55.58 95.6361 55.8067 95.2495 56.26C94.8761 56.7 94.6628 57.2733 94.6095 57.98V64H92.0095V58.06C92.0095 57.3 91.8428 56.7 91.5095 56.26C91.1761 55.8067 90.7028 55.58 90.0895 55.58C89.3295 55.58 88.7628 55.8467 88.3895 56.38C88.0161 56.9133 87.8295 57.58 87.8295 58.38V64H85.2295V53.4ZM105.853 53.4V64H103.253V53.4H105.853ZM103.413 49.66C103.733 49.3533 104.12 49.2 104.573 49.2C105.026 49.2 105.413 49.3533 105.733 49.66C106.053 49.9667 106.213 50.34 106.213 50.78C106.213 51.22 106.053 51.5867 105.733 51.88C105.413 52.1867 105.026 52.34 104.573 52.34C104.12 52.34 103.733 52.1933 103.413 51.9C103.093 51.5933 102.933 51.22 102.933 50.78C102.933 50.34 103.093 49.9667 103.413 49.66ZM107.535 56.46C107.535 55.4467 107.942 54.6533 108.755 54.08C109.569 53.5067 110.622 53.22 111.915 53.22C113.449 53.22 114.809 53.5667 115.995 54.26V56.72C114.369 55.8667 113.009 55.44 111.915 55.44C111.395 55.44 110.982 55.5333 110.675 55.72C110.369 55.9067 110.215 56.1467 110.215 56.44C110.215 56.6 110.255 56.74 110.335 56.86C110.429 56.9667 110.582 57.06 110.795 57.14C111.022 57.22 111.222 57.2867 111.395 57.34C111.569 57.38 111.842 57.44 112.215 57.52C112.602 57.6 112.895 57.6667 113.095 57.72C114.282 58.0267 115.142 58.4533 115.675 59C116.222 59.5333 116.495 60.1933 116.495 60.98C116.495 62.0733 116.062 62.88 115.195 63.4C114.342 63.9067 113.329 64.16 112.155 64.16C110.675 64.16 109.235 63.7333 107.835 62.88V60.26C108.315 60.6467 108.969 61.02 109.795 61.38C110.635 61.7267 111.422 61.9 112.155 61.9C112.609 61.9 113.002 61.82 113.335 61.66C113.669 61.4867 113.835 61.2467 113.835 60.94C113.835 60.62 113.629 60.36 113.215 60.16C112.815 59.96 112.162 59.7667 111.255 59.58C109.975 59.3133 109.035 58.94 108.435 58.46C107.835 57.98 107.535 57.3133 107.535 56.46ZM116.874 53.4H119.654L122.614 60.88L125.414 53.4H128.174L122.294 68.2H119.594L121.274 63.94L116.874 53.4ZM129.769 54.82C130.836 53.7533 132.116 53.22 133.609 53.22C135.116 53.22 136.402 53.76 137.469 54.84C138.536 55.9067 139.069 57.1867 139.069 58.68C139.069 60.1867 138.536 61.48 137.469 62.56C136.402 63.6267 135.116 64.16 133.609 64.16C132.116 64.16 130.836 63.62 129.769 62.54C128.702 61.46 128.169 60.1733 128.169 58.68C128.169 57.1733 128.702 55.8867 129.769 54.82ZM130.589 58.68C130.589 59.5333 130.882 60.2667 131.469 60.88C132.056 61.48 132.769 61.78 133.609 61.78C134.462 61.78 135.182 61.48 135.769 60.88C136.356 60.2667 136.649 59.5333 136.649 58.68C136.649 57.8267 136.356 57.1 135.769 56.5C135.182 55.9 134.462 55.6 133.609 55.6C132.769 55.6 132.056 55.9067 131.469 56.52C130.882 57.12 130.589 57.84 130.589 58.68ZM140.379 53.4H142.979V54.6C143.779 53.68 144.826 53.22 146.119 53.22C147.333 53.22 148.373 53.6067 149.239 54.38C150.106 55.1533 150.539 56.18 150.539 57.46V64H147.939V58.14C147.939 57.3933 147.713 56.7933 147.259 56.34C146.806 55.8733 146.253 55.64 145.599 55.64C144.826 55.64 144.193 55.92 143.699 56.48C143.219 57.0267 142.979 57.7133 142.979 58.54V64H140.379V53.4Z" fill="white"/>
<path d="M18.5025 81.6V90H17.4465V81.6H18.5025ZM17.4705 79.428C17.6065 79.292 17.7745 79.224 17.9745 79.224C18.1745 79.224 18.3425 79.296 18.4785 79.44C18.6225 79.576 18.6945 79.744 18.6945 79.944C18.6945 80.152 18.6265 80.324 18.4905 80.46C18.3465 80.596 18.1745 80.664 17.9745 80.664C17.7745 80.664 17.6025 80.596 17.4585 80.46C17.3225 80.316 17.2545 80.144 17.2545 79.944C17.2545 79.744 17.3265 79.572 17.4705 79.428ZM19.9998 90V81.6H21.0198V90H19.9998ZM23.4567 81.6V87.204L26.7927 83.64H28.0167L25.2927 86.532L28.1367 90H26.9247L24.6807 87.204L23.4567 88.488V90H22.4367V81.6H23.4567ZM33.2614 87.456C33.3014 87.96 33.5014 88.372 33.8614 88.692C34.2214 89.004 34.6614 89.16 35.1814 89.16C35.7334 89.16 36.1814 89.004 36.5254 88.692C36.8774 88.372 37.0534 87.96 37.0534 87.456C37.0534 86.824 36.8214 86.376 36.3574 86.112C35.9014 85.848 35.4134 85.716 34.8934 85.716C34.6534 85.716 34.3974 85.74 34.1254 85.788L33.7534 85.296L36.6214 82.572H32.4814V81.6H37.8454V82.728L35.3974 85.044C36.1814 85.06 36.8214 85.276 37.3174 85.692C37.8214 86.108 38.0734 86.688 38.0734 87.432C38.0734 88.256 37.7894 88.908 37.2214 89.388C36.6614 89.86 35.9814 90.096 35.1814 90.096C34.3974 90.096 33.7174 89.844 33.1414 89.34C32.5734 88.836 32.2694 88.208 32.2294 87.456H33.2614ZM43.3481 84.48C43.9721 83.848 44.7241 83.532 45.6041 83.532C46.1081 83.532 46.5641 83.648 46.9721 83.88C47.3801 84.104 47.7081 84.412 47.9561 84.804V83.64H48.9761V90H47.9561V88.836C47.7081 89.22 47.3801 89.528 46.9721 89.76C46.5641 89.984 46.1081 90.096 45.6041 90.096C44.7241 90.096 43.9721 89.776 43.3481 89.136C42.7241 88.488 42.4121 87.712 42.4121 86.808C42.4121 85.896 42.7241 85.12 43.3481 84.48ZM43.3841 86.808C43.3841 87.464 43.6081 88.02 44.0561 88.476C44.5041 88.932 45.0481 89.16 45.6881 89.16C46.3281 89.16 46.8761 88.928 47.3321 88.464C47.7881 88 48.0161 87.448 48.0161 86.808C48.0161 86.168 47.7881 85.616 47.3321 85.152C46.8761 84.688 46.3281 84.456 45.6881 84.456C45.0401 84.456 44.4921 84.688 44.0441 85.152C43.6041 85.608 43.3841 86.16 43.3841 86.808ZM49.8468 83.64H50.9388L53.0628 88.752L55.0908 83.64H56.1828L52.5828 92.52H51.5148L52.5468 89.976L49.8468 83.64ZM59.9483 83.64H61.0403L63.1643 88.752L65.1923 83.64H66.2843L62.6843 92.52H61.6163L62.6483 89.976L59.9483 83.64ZM67.477 84.48C68.101 83.848 68.853 83.532 69.733 83.532C70.237 83.532 70.693 83.648 71.101 83.88C71.509 84.104 71.837 84.412 72.085 84.804V83.64H73.105V90H72.085V88.836C71.837 89.22 71.509 89.528 71.101 89.76C70.693 89.984 70.237 90.096 69.733 90.096C68.853 90.096 68.101 89.776 67.477 89.136C66.853 88.488 66.541 87.712 66.541 86.808C66.541 85.896 66.853 85.12 67.477 84.48ZM67.513 86.808C67.513 87.464 67.737 88.02 68.185 88.476C68.633 88.932 69.177 89.16 69.817 89.16C70.457 89.16 71.005 88.928 71.461 88.464C71.917 88 72.145 87.448 72.145 86.808C72.145 86.168 71.917 85.616 71.461 85.152C71.005 84.688 70.457 84.456 69.817 84.456C69.169 84.456 68.621 84.688 68.173 85.152C67.733 85.608 67.513 86.16 67.513 86.808ZM74.4437 83.64H75.4637V84.78C75.7117 84.404 76.0397 84.104 76.4477 83.88C76.8557 83.648 77.3117 83.532 77.8157 83.532C78.6957 83.532 79.4477 83.856 80.0717 84.504C80.6957 85.144 81.0077 85.912 81.0077 86.808C81.0077 87.72 80.6957 88.496 80.0717 89.136C79.4557 89.776 78.7037 90.096 77.8157 90.096C77.3197 90.096 76.8637 89.984 76.4477 89.76C76.0397 89.528 75.7117 89.22 75.4637 88.836V92.52H74.4437V83.64ZM75.4037 86.808C75.4037 87.456 75.6277 88.012 76.0757 88.476C76.5317 88.94 77.0837 89.172 77.7317 89.172C78.3717 89.172 78.9157 88.944 79.3637 88.488C79.8117 88.024 80.0357 87.464 80.0357 86.808C80.0357 86.16 79.8117 85.608 79.3637 85.152C78.9237 84.696 78.3797 84.468 77.7317 84.468C77.0917 84.468 76.5437 84.7 76.0877 85.164C75.6317 85.62 75.4037 86.168 75.4037 86.808ZM81.5845 84.528V83.64H82.9045V81.984L83.9125 81.672V83.64H85.9765V84.528H83.9125V88.008C83.9125 88.52 84.0365 88.84 84.2845 88.968C84.5325 89.088 84.7685 89.148 84.9925 89.148C85.2725 89.148 85.6045 89.092 85.9885 88.98V89.964C85.5805 90.068 85.2085 90.12 84.8725 90.12C84.4245 90.12 83.9845 89.988 83.5525 89.724C83.1205 89.46 82.9045 88.892 82.9045 88.02V84.528H81.5845ZM87.1848 90V83.64H88.2048V90H87.1848ZM89.4629 86.712C89.4629 85.8 89.7669 85.044 90.3749 84.444C90.9829 83.836 91.7309 83.532 92.6189 83.532C92.6349 83.532 92.6469 83.532 92.6549 83.532C93.1589 83.532 93.6149 83.644 94.0229 83.868C94.4309 84.084 94.7589 84.38 95.0069 84.756V83.64H96.0269V89.352C96.0269 89.928 95.9349 90.44 95.7509 90.888C95.5749 91.344 95.3349 91.7 95.0309 91.956C94.7349 92.22 94.4029 92.416 94.0349 92.544C93.6749 92.68 93.2949 92.748 92.8949 92.748C92.1749 92.748 91.5189 92.548 90.9269 92.148C90.3349 91.756 89.9549 91.18 89.7869 90.42H90.8069C90.9429 90.884 91.2109 91.228 91.6109 91.452C92.0109 91.684 92.4349 91.8 92.8829 91.8C93.4749 91.8 93.9749 91.608 94.3829 91.224C94.7909 90.848 94.9989 90.248 95.0069 89.424V88.692C94.7669 89.06 94.4389 89.352 94.0229 89.568C93.6149 89.784 93.1589 89.892 92.6549 89.892C91.7429 89.892 90.9829 89.588 90.3749 88.98C89.7669 88.372 89.4629 87.616 89.4629 86.712ZM91.1189 88.332C91.5669 88.764 92.1069 88.98 92.7389 88.98C93.3789 88.98 93.9269 88.764 94.3829 88.332C94.8389 87.892 95.0669 87.352 95.0669 86.712C95.0669 86.08 94.8389 85.544 94.3829 85.104C93.9349 84.664 93.3869 84.444 92.7389 84.444C92.0909 84.444 91.5429 84.664 91.0949 85.104C90.6549 85.536 90.4349 86.072 90.4349 86.712C90.4349 87.36 90.6629 87.9 91.1189 88.332ZM91.0829 81.3H91.7669C91.7669 81.548 91.8549 81.756 92.0309 81.924C92.2069 82.084 92.4389 82.164 92.7269 82.164C93.0229 82.164 93.2589 82.084 93.4349 81.924C93.6109 81.756 93.6989 81.548 93.6989 81.3H94.3709C94.3709 81.732 94.2149 82.096 93.9029 82.392C93.5909 82.688 93.1989 82.836 92.7269 82.836C92.2549 82.836 91.8629 82.688 91.5509 82.392C91.2389 82.096 91.0829 81.732 91.0829 81.3ZM97.4621 90V83.64H98.4821V90H97.4621ZM99.9203 83.64H100.94V84.732C101.156 84.38 101.452 84.092 101.828 83.868C102.204 83.644 102.64 83.532 103.136 83.532C103.872 83.532 104.504 83.772 105.032 84.252C105.56 84.724 105.824 85.356 105.824 86.148V90H104.804V86.46C104.804 85.852 104.624 85.372 104.264 85.02C103.904 84.66 103.468 84.48 102.956 84.48C102.372 84.48 101.888 84.696 101.504 85.128C101.128 85.552 100.94 86.092 100.94 86.748V90H99.9203V83.64ZM107.2 90V83.64H108.22V90H107.2ZM109.539 88.956L113.319 84.588H109.551V83.64H114.567V84.612L110.751 89.052H114.507V90.012H109.539V88.956ZM119.813 84.48C120.437 83.848 121.189 83.532 122.069 83.532C122.573 83.532 123.029 83.648 123.437 83.88C123.845 84.104 124.173 84.412 124.421 84.804V83.64H125.441V90H124.421V88.836C124.173 89.22 123.845 89.528 123.437 89.76C123.029 89.984 122.573 90.096 122.069 90.096C121.189 90.096 120.437 89.776 119.813 89.136C119.189 88.488 118.877 87.712 118.877 86.808C118.877 85.896 119.189 85.12 119.813 84.48ZM119.849 86.808C119.849 87.464 120.073 88.02 120.521 88.476C120.969 88.932 121.513 89.16 122.153 89.16C122.793 89.16 123.341 88.928 123.797 88.464C124.253 88 124.481 87.448 124.481 86.808C124.481 86.168 124.253 85.616 123.797 85.152C123.341 84.688 122.793 84.456 122.153 84.456C121.505 84.456 120.957 84.688 120.509 85.152C120.069 85.608 119.849 86.16 119.849 86.808ZM126.84 90V81.6H127.86V90H126.84ZM129.361 90V83.64H130.381V90H129.361ZM131.855 83.64H132.875V84.684C133.059 84.34 133.315 84.064 133.643 83.856C133.971 83.64 134.359 83.532 134.807 83.532C135.271 83.532 135.687 83.656 136.055 83.904C136.423 84.144 136.699 84.496 136.883 84.96C137.083 84.512 137.383 84.164 137.783 83.916C138.183 83.66 138.623 83.532 139.103 83.532C139.767 83.532 140.327 83.768 140.783 84.24C141.247 84.704 141.479 85.34 141.479 86.148V90H140.459V86.424C140.459 85.808 140.323 85.328 140.051 84.984C139.779 84.64 139.403 84.468 138.923 84.468C138.387 84.468 137.967 84.656 137.663 85.032C137.359 85.408 137.199 85.868 137.183 86.412V90H136.163V86.424C136.163 85.808 136.023 85.328 135.743 84.984C135.471 84.64 135.099 84.468 134.627 84.468C134.067 84.468 133.635 84.672 133.331 85.08C133.027 85.48 132.875 85.968 132.875 86.544V90H131.855V83.64ZM145.842 85.38C145.842 84.804 146.086 84.352 146.574 84.024C147.062 83.696 147.67 83.532 148.398 83.532C149.326 83.532 150.15 83.78 150.87 84.276V85.284C149.998 84.708 149.174 84.42 148.398 84.42C147.974 84.42 147.618 84.508 147.33 84.684C147.042 84.852 146.898 85.084 146.898 85.38C146.898 85.524 146.934 85.648 147.006 85.752C147.086 85.848 147.218 85.936 147.402 86.016C147.586 86.088 147.762 86.144 147.93 86.184C148.098 86.224 148.342 86.28 148.662 86.352C148.694 86.36 148.718 86.368 148.734 86.376C148.758 86.376 148.782 86.38 148.806 86.388C148.838 86.388 148.866 86.392 148.89 86.4C149.666 86.568 150.226 86.808 150.57 87.12C150.922 87.424 151.098 87.808 151.098 88.272C151.098 88.28 151.098 88.288 151.098 88.296C151.098 88.88 150.858 89.328 150.378 89.64C149.898 89.944 149.31 90.096 148.614 90.096C147.638 90.096 146.738 89.784 145.914 89.16V88.068C146.202 88.364 146.602 88.628 147.114 88.86C147.626 89.084 148.126 89.196 148.614 89.196C149.022 89.196 149.362 89.112 149.634 88.944C149.914 88.768 150.054 88.54 150.054 88.26C150.054 87.756 149.454 87.388 148.254 87.156C147.43 86.996 146.822 86.784 146.43 86.52C146.038 86.248 145.842 85.868 145.842 85.38ZM152.825 84.48C153.449 83.848 154.201 83.532 155.081 83.532C155.585 83.532 156.041 83.648 156.449 83.88C156.857 84.104 157.185 84.412 157.433 84.804V83.64H158.453V90H157.433V88.836C157.185 89.22 156.857 89.528 156.449 89.76C156.041 89.984 155.585 90.096 155.081 90.096C154.201 90.096 153.449 89.776 152.825 89.136C152.201 88.488 151.889 87.712 151.889 86.808C151.889 85.896 152.201 85.12 152.825 84.48ZM152.861 86.808C152.861 87.464 153.085 88.02 153.533 88.476C153.981 88.932 154.525 89.16 155.165 89.16C155.805 89.16 156.353 88.928 156.809 88.464C157.265 88 157.493 87.448 157.493 86.808C157.493 86.168 157.265 85.616 156.809 85.152C156.353 84.688 155.805 84.456 155.165 84.456C154.517 84.456 153.969 84.688 153.521 85.152C153.081 85.608 152.861 86.16 152.861 86.808ZM159.467 84.528V83.64H160.787V81.984L161.795 81.672V83.64H163.859V84.528H161.795V88.008C161.795 88.52 161.919 88.84 162.167 88.968C162.415 89.088 162.651 89.148 162.875 89.148C163.155 89.148 163.487 89.092 163.871 88.98V89.964C163.463 90.068 163.091 90.12 162.755 90.12C162.307 90.12 161.867 89.988 161.435 89.724C161.003 89.46 160.787 88.892 160.787 88.02V84.528H159.467ZM165.068 90V83.64H166.088V90H165.068ZM167.562 83.64H168.582V84.684C168.766 84.34 169.022 84.064 169.35 83.856C169.678 83.64 170.066 83.532 170.514 83.532C170.978 83.532 171.394 83.656 171.762 83.904C172.13 84.144 172.406 84.496 172.59 84.96C172.79 84.512 173.09 84.164 173.49 83.916C173.89 83.66 174.33 83.532 174.81 83.532C175.474 83.532 176.034 83.768 176.49 84.24C176.954 84.704 177.186 85.34 177.186 86.148V90H176.166V86.424C176.166 85.808 176.03 85.328 175.758 84.984C175.486 84.64 175.11 84.468 174.63 84.468C174.094 84.468 173.674 84.656 173.37 85.032C173.066 85.408 172.906 85.868 172.89 86.412V90H171.87V86.424C171.87 85.808 171.73 85.328 171.45 84.984C171.178 84.64 170.806 84.468 170.334 84.468C169.774 84.468 169.342 84.672 169.038 85.08C168.734 85.48 168.582 85.968 168.582 86.544V90H167.562V83.64ZM178.426 90V81.6H179.446V90H178.426ZM181.583 84.48C182.207 83.848 182.959 83.532 183.839 83.532C184.343 83.532 184.799 83.648 185.207 83.88C185.615 84.104 185.943 84.412 186.191 84.804V83.64H187.211V90H186.191V88.836C185.943 89.22 185.615 89.528 185.207 89.76C184.799 89.984 184.343 90.096 183.839 90.096C182.959 90.096 182.207 89.776 181.583 89.136C180.959 88.488 180.647 87.712 180.647 86.808C180.647 85.896 180.959 85.12 181.583 84.48ZM181.619 86.808C181.619 87.464 181.843 88.02 182.291 88.476C182.739 88.932 183.283 89.16 183.923 89.16C184.563 89.16 185.111 88.928 185.567 88.464C186.023 88 186.251 87.448 186.251 86.808C186.251 86.168 186.023 85.616 185.567 85.152C185.111 84.688 184.563 84.456 183.923 84.456C183.275 84.456 182.727 84.688 182.279 85.152C181.839 85.608 181.619 86.16 181.619 86.808ZM188.549 83.64H189.569V84.888C189.769 84.408 190.061 84.068 190.445 83.868C190.829 83.668 191.229 83.568 191.645 83.568C191.813 83.568 191.989 83.584 192.173 83.616V84.696C191.941 84.64 191.725 84.612 191.525 84.612C191.077 84.612 190.637 84.78 190.205 85.116C189.781 85.444 189.569 86.004 189.569 86.796V90H188.549V83.64ZM193.559 84.492C194.175 83.852 194.927 83.532 195.815 83.532C196.311 83.532 196.763 83.648 197.171 83.88C197.587 84.104 197.919 84.412 198.167 84.804V81.6H199.187V90H198.167V88.836C197.919 89.22 197.587 89.528 197.171 89.76C196.763 89.992 196.311 90.108 195.815 90.108C194.935 90.108 194.183 89.784 193.559 89.136C192.935 88.488 192.623 87.716 192.623 86.82C192.623 85.908 192.935 85.132 193.559 84.492ZM193.595 86.82C193.595 87.468 193.815 88.024 194.255 88.488C194.703 88.944 195.251 89.172 195.899 89.172C196.539 89.172 197.087 88.94 197.543 88.476C197.999 88.012 198.227 87.46 198.227 86.82C198.227 86.172 197.999 85.62 197.543 85.164C197.095 84.7 196.547 84.468 195.899 84.468C195.259 84.468 194.715 84.696 194.267 85.152C193.819 85.608 193.595 86.164 193.595 86.82ZM201.282 84.48C201.906 83.848 202.658 83.532 203.538 83.532C204.042 83.532 204.498 83.648 204.906 83.88C205.314 84.104 205.642 84.412 205.89 84.804V83.64H206.91V90H205.89V88.836C205.642 89.22 205.314 89.528 204.906 89.76C204.498 89.984 204.042 90.096 203.538 90.096C202.658 90.096 201.906 89.776 201.282 89.136C200.658 88.488 200.346 87.712 200.346 86.808C200.346 85.896 200.658 85.12 201.282 84.48ZM201.318 86.808C201.318 87.464 201.542 88.02 201.99 88.476C202.438 88.932 202.982 89.16 203.622 89.16C204.262 89.16 204.81 88.928 205.266 88.464C205.722 88 205.95 87.448 205.95 86.808C205.95 86.168 205.722 85.616 205.266 85.152C204.81 84.688 204.262 84.456 203.622 84.456C202.974 84.456 202.426 84.688 201.978 85.152C201.538 85.608 201.318 86.16 201.318 86.808ZM212.25 82.68C212.85 81.888 213.662 81.492 214.686 81.492C215.702 81.492 216.514 81.892 217.122 82.692C217.73 83.484 218.034 84.52 218.034 85.8C218.034 87.072 217.734 88.104 217.134 88.896C216.526 89.696 215.71 90.096 214.686 90.096C213.662 90.096 212.85 89.704 212.25 88.92C211.65 88.128 211.35 87.092 211.35 85.812C211.35 84.524 211.65 83.48 212.25 82.68ZM212.37 85.812C212.37 86.78 212.582 87.572 213.006 88.188C213.43 88.796 213.99 89.1 214.686 89.1C215.398 89.1 215.962 88.792 216.378 88.176C216.802 87.552 217.014 86.76 217.014 85.8C217.014 84.84 216.802 84.048 216.378 83.424C215.954 82.792 215.39 82.476 214.686 82.476C213.974 82.476 213.41 82.792 212.994 83.424C212.578 84.048 212.37 84.844 212.37 85.812ZM18.3825 97.6V103.204L21.7185 99.64H22.9425L20.2185 102.532L23.0625 106H21.8505L19.6065 103.204L18.3825 104.488V106H17.3625V97.6H18.3825ZM24.1177 100.492C24.7497 99.852 25.5177 99.532 26.4217 99.532C27.3257 99.532 28.0937 99.856 28.7257 100.504C29.3657 101.144 29.6857 101.912 29.6857 102.808C29.6857 103.712 29.3697 104.484 28.7377 105.124C28.0977 105.772 27.3257 106.096 26.4217 106.096C25.5177 106.096 24.7497 105.776 24.1177 105.136C23.4857 104.488 23.1697 103.712 23.1697 102.808C23.1697 101.904 23.4857 101.132 24.1177 100.492ZM24.1297 102.808C24.1297 103.464 24.3497 104.02 24.7897 104.476C25.2377 104.924 25.7817 105.148 26.4217 105.148C27.0697 105.148 27.6137 104.92 28.0537 104.464C28.5017 104.008 28.7257 103.456 28.7257 102.808C28.7257 102.16 28.5017 101.608 28.0537 101.152C27.6057 100.696 27.0617 100.468 26.4217 100.468C25.7817 100.468 25.2377 100.696 24.7897 101.152C24.3497 101.608 24.1297 102.16 24.1297 102.808ZM30.7336 99.64H31.7536V100.684C31.9376 100.34 32.1936 100.064 32.5216 99.856C32.8496 99.64 33.2376 99.532 33.6856 99.532C34.1496 99.532 34.5656 99.656 34.9336 99.904C35.3016 100.144 35.5776 100.496 35.7616 100.96C35.9616 100.512 36.2616 100.164 36.6616 99.916C37.0616 99.66 37.5016 99.532 37.9816 99.532C38.6456 99.532 39.2056 99.768 39.6616 100.24C40.1256 100.704 40.3576 101.34 40.3576 102.148V106H39.3376V102.424C39.3376 101.808 39.2016 101.328 38.9296 100.984C38.6576 100.64 38.2816 100.468 37.8016 100.468C37.2656 100.468 36.8456 100.656 36.5416 101.032C36.2376 101.408 36.0776 101.868 36.0616 102.412V106H35.0416V102.424C35.0416 101.808 34.9016 101.328 34.6216 100.984C34.3496 100.64 33.9776 100.468 33.5056 100.468C32.9456 100.468 32.5136 100.672 32.2096 101.08C31.9056 101.48 31.7536 101.968 31.7536 102.544V106H30.7336V99.64ZM42.736 99.64V106H41.716V99.64H42.736ZM41.728 97.468C41.864 97.332 42.036 97.264 42.244 97.264C42.444 97.264 42.612 97.332 42.748 97.468C42.892 97.604 42.964 97.772 42.964 97.972C42.964 98.172 42.892 98.34 42.748 98.476C42.612 98.604 42.444 98.668 42.244 98.668C42.036 98.668 41.864 98.604 41.728 98.476C41.592 98.34 41.524 98.172 41.524 97.972C41.524 97.772 41.592 97.604 41.728 97.468ZM44.0182 101.38C44.0182 100.804 44.2622 100.352 44.7502 100.024C45.2382 99.696 45.8462 99.532 46.5742 99.532C47.5022 99.532 48.3262 99.78 49.0462 100.276V101.284C48.1742 100.708 47.3502 100.42 46.5742 100.42C46.1502 100.42 45.7942 100.508 45.5062 100.684C45.2182 100.852 45.0742 101.084 45.0742 101.38C45.0742 101.524 45.1102 101.648 45.1822 101.752C45.2622 101.848 45.3942 101.936 45.5782 102.016C45.7622 102.088 45.9382 102.144 46.1062 102.184C46.2742 102.224 46.5182 102.28 46.8382 102.352C46.8702 102.36 46.8942 102.368 46.9102 102.376C46.9342 102.376 46.9582 102.38 46.9822 102.388C47.0142 102.388 47.0422 102.392 47.0662 102.4C47.8422 102.568 48.4022 102.808 48.7462 103.12C49.0982 103.424 49.2742 103.808 49.2742 104.272C49.2742 104.28 49.2742 104.288 49.2742 104.296C49.2742 104.88 49.0342 105.328 48.5542 105.64C48.0742 105.944 47.4862 106.096 46.7902 106.096C45.8142 106.096 44.9142 105.784 44.0902 105.16V104.068C44.3782 104.364 44.7782 104.628 45.2902 104.86C45.8022 105.084 46.3022 105.196 46.7902 105.196C47.1982 105.196 47.5382 105.112 47.8102 104.944C48.0902 104.768 48.2302 104.54 48.2302 104.26C48.2302 103.756 47.6302 103.388 46.4302 103.156C45.6062 102.996 44.9982 102.784 44.6062 102.52C44.2142 102.248 44.0182 101.868 44.0182 101.38ZM49.7765 99.64H50.8685L52.9925 104.752L55.0205 99.64H56.1125L52.5125 108.52H51.4445L52.4765 105.976L49.7765 99.64ZM57.3052 100.492C57.9372 99.852 58.7052 99.532 59.6092 99.532C60.5132 99.532 61.2812 99.856 61.9132 100.504C62.5532 101.144 62.8732 101.912 62.8732 102.808C62.8732 103.712 62.5572 104.484 61.9252 105.124C61.2852 105.772 60.5132 106.096 59.6092 106.096C58.7052 106.096 57.9372 105.776 57.3052 105.136C56.6732 104.488 56.3572 103.712 56.3572 102.808C56.3572 101.904 56.6732 101.132 57.3052 100.492ZM57.3172 102.808C57.3172 103.464 57.5372 104.02 57.9772 104.476C58.4252 104.924 58.9692 105.148 59.6092 105.148C60.2572 105.148 60.8012 104.92 61.2412 104.464C61.6892 104.008 61.9132 103.456 61.9132 102.808C61.9132 102.16 61.6892 101.608 61.2412 101.152C60.7932 100.696 60.2492 100.468 59.6092 100.468C58.9692 100.468 58.4252 100.696 57.9772 101.152C57.5372 101.608 57.3172 102.16 57.3172 102.808ZM63.8851 99.64H64.9051V100.732C65.1211 100.38 65.4171 100.092 65.7931 99.868C66.1691 99.644 66.6051 99.532 67.1011 99.532C67.8371 99.532 68.4691 99.772 68.9971 100.252C69.5251 100.724 69.7891 101.356 69.7891 102.148V106H68.7691V102.46C68.7691 101.852 68.5891 101.372 68.2291 101.02C67.8691 100.66 67.4331 100.48 66.9211 100.48C66.3371 100.48 65.8531 100.696 65.4691 101.128C65.0931 101.552 64.9051 102.092 64.9051 102.748V106H63.8851V99.64ZM75.0825 100.492C75.7145 99.852 76.4825 99.532 77.3865 99.532C78.2905 99.532 79.0585 99.856 79.6905 100.504C80.3305 101.144 80.6505 101.912 80.6505 102.808C80.6505 103.712 80.3345 104.484 79.7025 105.124C79.0625 105.772 78.2905 106.096 77.3865 106.096C76.4825 106.096 75.7145 105.776 75.0825 105.136C74.4505 104.488 74.1345 103.712 74.1345 102.808C74.1345 101.904 74.4505 101.132 75.0825 100.492ZM75.7665 104.464C76.2065 104.92 76.7465 105.148 77.3865 105.148C78.0345 105.148 78.5785 104.92 79.0185 104.464C79.4665 104.008 79.6905 103.456 79.6905 102.808C79.6905 102.16 79.4665 101.608 79.0185 101.152C78.5705 100.696 78.0265 100.468 77.3865 100.468C76.7465 100.468 76.2025 100.696 75.7545 101.152C75.3145 101.608 75.0945 102.16 75.0945 102.808C75.0945 103.464 75.3185 104.016 75.7665 104.464ZM78.0825 98.08C78.0825 97.896 78.1465 97.74 78.2745 97.612C78.4025 97.484 78.5585 97.42 78.7425 97.42C78.9265 97.42 79.0825 97.484 79.2105 97.612C79.3385 97.74 79.4025 97.896 79.4025 98.08C79.4025 98.264 79.3385 98.42 79.2105 98.548C79.0825 98.676 78.9265 98.74 78.7425 98.74C78.5585 98.74 78.4025 98.676 78.2745 98.548C78.1465 98.42 78.0825 98.264 78.0825 98.08ZM75.3825 98.08C75.3825 97.896 75.4465 97.74 75.5745 97.612C75.7025 97.484 75.8585 97.42 76.0425 97.42C76.2265 97.42 76.3825 97.484 76.5105 97.612C76.6385 97.74 76.7025 97.896 76.7025 98.08C76.7025 98.264 76.6385 98.42 76.5105 98.548C76.3825 98.676 76.2265 98.74 76.0425 98.74C75.8585 98.74 75.7025 98.676 75.5745 98.548C75.4465 98.42 75.3825 98.264 75.3825 98.08ZM82.4184 100.492C83.0344 99.852 83.7864 99.532 84.6744 99.532C85.1704 99.532 85.6224 99.648 86.0304 99.88C86.4464 100.104 86.7784 100.412 87.0264 100.804V97.6H88.0464V106H87.0264V104.836C86.7784 105.22 86.4464 105.528 86.0304 105.76C85.6224 105.992 85.1704 106.108 84.6744 106.108C83.7944 106.108 83.0424 105.784 82.4184 105.136C81.7944 104.488 81.4824 103.716 81.4824 102.82C81.4824 101.908 81.7944 101.132 82.4184 100.492ZM82.4544 102.82C82.4544 103.468 82.6744 104.024 83.1144 104.488C83.5624 104.944 84.1104 105.172 84.7584 105.172C85.3984 105.172 85.9464 104.94 86.4024 104.476C86.8584 104.012 87.0864 103.46 87.0864 102.82C87.0864 102.172 86.8584 101.62 86.4024 101.164C85.9544 100.7 85.4064 100.468 84.7584 100.468C84.1184 100.468 83.5744 100.696 83.1264 101.152C82.6784 101.608 82.4544 102.164 82.4544 102.82ZM90.1651 100.48C90.7971 99.848 91.5651 99.532 92.4691 99.532C93.2771 99.532 93.9811 99.804 94.5811 100.348C95.1891 100.884 95.5491 101.552 95.6611 102.352C95.6931 102.52 95.7091 102.676 95.7091 102.82C95.7091 102.948 95.6971 103.068 95.6731 103.18H90.2251C90.2811 103.772 90.5211 104.252 90.9451 104.62C91.3691 104.988 91.8771 105.172 92.4691 105.172C92.8771 105.172 93.2611 105.08 93.6211 104.896C93.9811 104.712 94.2731 104.464 94.4971 104.152L95.4211 104.368C95.1651 104.888 94.7611 105.308 94.2091 105.628C93.6651 105.94 93.0851 106.096 92.4691 106.096C91.5571 106.096 90.7851 105.776 90.1531 105.136C89.5211 104.488 89.2051 103.712 89.2051 102.808C89.2051 101.896 89.5251 101.12 90.1651 100.48ZM90.2251 102.376H94.6651C94.5931 101.832 94.3491 101.376 93.9331 101.008C93.5251 100.632 93.0331 100.444 92.4571 100.444C91.8731 100.444 91.3691 100.632 90.9451 101.008C90.5291 101.376 90.2891 101.832 90.2251 102.376ZM96.6976 99.64H97.7176V100.888C97.9176 100.408 98.2096 100.068 98.5936 99.868C98.9776 99.668 99.3776 99.568 99.7936 99.568C99.9616 99.568 100.138 99.584 100.322 99.616V100.696C100.09 100.64 99.8736 100.612 99.6736 100.612C99.2256 100.612 98.7856 100.78 98.3536 101.116C97.9296 101.444 97.7176 102.004 97.7176 102.796V106H96.6976V99.64ZM101.159 101.38C101.159 100.804 101.403 100.352 101.891 100.024C102.379 99.696 102.987 99.532 103.715 99.532C104.643 99.532 105.467 99.78 106.187 100.276V101.284C105.315 100.708 104.491 100.42 103.715 100.42C103.291 100.42 102.935 100.508 102.647 100.684C102.359 100.852 102.215 101.084 102.215 101.38C102.215 101.524 102.251 101.648 102.323 101.752C102.403 101.848 102.535 101.936 102.719 102.016C102.903 102.088 103.079 102.144 103.247 102.184C103.415 102.224 103.659 102.28 103.979 102.352C104.011 102.36 104.035 102.368 104.051 102.376C104.075 102.376 104.099 102.38 104.123 102.388C104.155 102.388 104.183 102.392 104.207 102.4C104.983 102.568 105.543 102.808 105.887 103.12C106.239 103.424 106.415 103.808 106.415 104.272C106.415 104.28 106.415 104.288 106.415 104.296C106.415 104.88 106.175 105.328 105.695 105.64C105.215 105.944 104.627 106.096 103.931 106.096C102.955 106.096 102.055 105.784 101.231 105.16V104.068C101.519 104.364 101.919 104.628 102.431 104.86C102.943 105.084 103.443 105.196 103.931 105.196C104.339 105.196 104.679 105.112 104.951 104.944C105.231 104.768 105.371 104.54 105.371 104.26C105.371 103.756 104.771 103.388 103.571 103.156C102.747 102.996 102.139 102.784 101.747 102.52C101.355 102.248 101.159 101.868 101.159 101.38ZM108.584 99.64V106H107.564V99.64H108.584ZM107.576 97.468C107.712 97.332 107.884 97.264 108.092 97.264C108.292 97.264 108.46 97.332 108.596 97.468C108.74 97.604 108.812 97.772 108.812 97.972C108.812 98.172 108.74 98.34 108.596 98.476C108.46 98.604 108.292 98.668 108.092 98.668C107.884 98.668 107.712 98.604 107.576 98.476C107.44 98.34 107.372 98.172 107.372 97.972C107.372 97.772 107.44 97.604 107.576 97.468ZM110.022 99.64H111.042V100.732C111.258 100.38 111.554 100.092 111.93 99.868C112.306 99.644 112.742 99.532 113.238 99.532C113.974 99.532 114.606 99.772 115.134 100.252C115.662 100.724 115.926 101.356 115.926 102.148V106H114.906V102.46C114.906 101.852 114.726 101.372 114.366 101.02C114.006 100.66 113.57 100.48 113.058 100.48C112.474 100.48 111.99 100.696 111.606 101.128C111.23 101.552 111.042 102.092 111.042 102.748V106H110.022V99.64ZM118.322 99.64V106H117.302V99.64H118.322ZM117.314 97.468C117.45 97.332 117.622 97.264 117.83 97.264C118.03 97.264 118.198 97.332 118.334 97.468C118.478 97.604 118.55 97.772 118.55 97.972C118.55 98.172 118.478 98.34 118.334 98.476C118.198 98.604 118.03 98.668 117.83 98.668C117.622 98.668 117.45 98.604 117.314 98.476C117.178 98.34 117.11 98.172 117.11 97.972C117.11 97.772 117.178 97.604 117.314 97.468ZM119.64 104.956L123.42 100.588H119.652V99.64H124.668V100.612L120.852 105.052H124.608V106.012H119.64V104.956Z" fill="white"/>
<path d="M314.862 77.6953L316.427 80.5096L306.75 53.2045L305.184 50.3926L314.862 77.6953Z" fill="url(#paint4_linear_1056_67325)"/>
<path d="M269.792 50.3926L244.075 77.6953L253.75 105H289.143L314.862 77.6953L305.184 50.3926H269.792Z" fill="url(#paint5_linear_1056_67325)"/>
<path d="M288.853 104.319L314.086 77.5311L304.708 51.0684H270.082L244.851 77.859L254.226 104.319H288.853Z" fill="url(#paint6_linear_1056_67325)"/>
<path d="M253.751 105L255.316 107.812H290.708L289.143 105H253.751Z" fill="url(#paint7_linear_1056_67325)"/>
<path d="M289.143 105L290.708 107.812L316.427 80.5096L314.862 77.6953L289.143 105Z" fill="url(#paint8_linear_1056_67325)"/>
<path style="mix-blend-mode:multiply" opacity="0.6" d="M301.099 102.728C305.294 95.4197 296.767 82.5679 282.053 74.0226C267.34 65.4774 252.012 64.4746 247.817 71.7829C243.623 79.0911 252.15 91.9429 266.863 100.488C281.577 109.033 296.905 110.036 301.099 102.728Z" fill="url(#paint9_radial_1056_67325)"/>
<path d="M276.954 58.0931C277.073 55.3482 277.347 52.3186 277.772 48.9993C278.179 45.8237 278.655 42.9018 279.202 40.2406C279.747 37.5795 280.423 35.287 281.227 33.3629C282.028 31.4389 282.982 29.948 284.084 28.8878C285.185 27.8301 286.482 27.2988 287.974 27.2988C289.203 27.2988 290.219 27.6698 291.023 28.414L295.32 32.3865C294.516 31.6423 293.498 31.2714 292.27 31.2714C290.776 31.2714 289.479 31.8002 288.38 32.8604C287.279 33.9181 286.327 35.409 285.523 37.3354C284.721 39.2571 284.046 41.5521 283.499 44.2132C282.954 46.8743 282.478 49.7962 282.069 52.9719C281.643 56.2887 281.369 59.3183 281.251 62.0656C281.129 64.8129 281.222 67.1725 281.524 69.1515C281.829 71.1306 282.383 72.6694 283.192 73.7726C283.358 73.9999 283.539 74.2033 283.734 74.3828L279.438 70.4103C279.243 70.2308 279.062 70.0274 278.895 69.8001C278.086 68.6992 277.53 67.1581 277.228 65.179C276.926 63.1999 276.833 60.8403 276.954 58.0931Z" fill="url(#paint10_linear_1056_67325)"/>
<path d="M270.894 77.2209C273.809 78.6424 277.277 79.3532 281.298 79.3532C285.318 79.3532 289.184 78.6233 292.481 77.1587C295.781 75.6942 298.629 73.6265 301.022 70.9487C303.418 68.2732 305.361 65.076 306.858 61.3548C308.354 57.6311 309.391 53.515 309.969 48.9993C310.559 44.3998 310.564 40.2693 309.988 36.6031C309.415 32.9369 308.249 29.8306 306.496 27.2796C305.777 26.2314 304.961 25.2862 304.048 24.4414L308.344 28.4139C309.258 29.2587 310.074 30.204 310.792 31.2521C312.546 33.8008 313.709 36.9094 314.285 40.5756C314.86 44.2418 314.856 48.3723 314.266 52.9718C313.688 57.4875 312.648 61.6037 311.154 65.3273C309.658 69.0486 307.714 72.2457 305.318 74.9212C302.925 77.5967 300.077 79.6667 296.778 81.1312C293.478 82.5958 289.753 83.3257 285.594 83.3257C281.436 83.3257 278.105 82.615 275.191 81.1935C273.566 80.4014 272.122 79.4202 270.856 78.2524L266.56 74.2798C267.823 75.4477 269.267 76.4288 270.894 77.2209Z" fill="url(#paint11_linear_1056_67325)"/>
<path d="M263.495 36.7081C261.994 40.3599 260.952 44.4569 260.372 48.999C259.775 53.6535 259.772 57.8486 260.367 61.5842C260.959 65.3198 262.137 68.5026 263.888 71.1374C265.644 73.7698 267.977 75.7992 270.894 77.2207C273.808 78.6422 277.277 79.3529 281.297 79.3529C285.318 79.3529 289.184 78.623 292.481 77.1584C295.781 75.6939 298.628 73.6262 301.021 70.9484C303.417 68.2729 305.361 65.0757 306.857 61.3545C308.353 57.6308 309.391 53.5147 309.969 48.999C310.559 44.3995 310.564 40.269 309.988 36.6028C309.415 32.9366 308.249 29.8303 306.496 27.2793C304.745 24.7283 302.413 22.7779 299.504 21.4234C296.592 20.0737 293.085 19.3965 288.981 19.3965C284.878 19.3965 281.102 20.0857 277.814 21.4665C274.527 22.8449 271.693 24.8192 269.312 27.3822C266.933 29.9452 264.992 33.0538 263.491 36.7057L263.495 36.7081ZM276.953 58.0927C277.072 55.3478 277.346 52.3182 277.772 48.999C278.178 45.8234 278.654 42.9014 279.201 40.2403C279.746 37.5792 280.422 35.2866 281.226 33.3625C282.028 31.4385 282.982 29.9476 284.083 28.8875C285.185 27.8273 286.481 27.2985 287.973 27.2985C290.666 27.2985 292.338 29.0813 292.995 32.6494C293.651 36.2175 293.511 41.6642 292.571 48.9966C292.103 52.6484 291.56 55.8671 290.946 58.6527C290.33 61.4406 289.609 63.7835 288.782 65.6788C287.956 67.5717 287.012 69.0076 285.946 69.984C284.885 70.9603 283.674 71.4485 282.313 71.4485C280.845 71.4485 279.711 70.8981 278.897 69.7973C278.088 68.6965 277.531 67.1553 277.229 65.1762C276.927 63.1972 276.834 60.8376 276.956 58.0903" fill="url(#paint12_linear_1056_67325)"/>
<path d="M277.084 48.9123C277.493 45.7247 277.976 42.762 278.521 40.1033C279.073 37.4135 279.767 35.0563 280.583 33.1011C281.416 31.1029 282.43 29.5211 283.595 28.3987C284.82 27.2189 286.286 26.623 287.951 26.623C291.001 26.623 292.914 28.6093 293.635 32.5292C294.301 36.1523 294.16 41.7234 293.216 49.087C292.747 52.7412 292.198 56.0102 291.579 58.8029C290.956 61.6243 290.214 64.0294 289.371 65.9558C288.51 67.9301 287.502 69.4545 286.374 70.4883C285.189 71.5772 283.814 72.13 282.287 72.13C280.602 72.13 279.27 71.4815 278.331 70.2036C277.46 69.019 276.858 67.363 276.537 65.2834C276.228 63.2612 276.135 60.8322 276.258 58.0634C276.377 55.3209 276.656 52.2434 277.082 48.9147L277.084 48.9123ZM277.208 65.1781C277.512 67.1572 278.066 68.6959 278.875 69.7991C279.687 70.8999 280.824 71.4504 282.292 71.4504C283.652 71.4504 284.861 70.9622 285.924 69.9858C286.988 69.0094 287.932 67.5736 288.76 65.6806C289.588 63.7853 290.309 61.4425 290.925 58.6545C291.541 55.869 292.081 52.6503 292.55 48.9984C293.489 41.6684 293.63 36.2193 292.973 32.6512C292.317 29.0831 290.644 27.3003 287.951 27.3003C286.457 27.3003 285.161 27.8292 284.062 28.8893C282.96 29.947 282.008 31.4379 281.204 33.3644C280.403 35.286 279.727 37.581 279.18 40.2421C278.635 42.9032 278.159 45.8252 277.75 49.0008C277.324 52.3176 277.051 55.3473 276.932 58.0945C276.81 60.8418 276.903 63.2014 277.205 65.1805L277.208 65.1781Z" fill="url(#paint13_linear_1056_67325)"/>
<path d="M260.349 48.9985C260.932 44.4541 261.974 40.3571 263.473 36.7076C264.974 33.0558 266.915 29.9496 269.294 27.3842C271.676 24.8212 274.509 22.8469 277.797 21.4685C281.085 20.0876 284.805 19.3984 288.964 19.3984C293.122 19.3984 296.574 20.0733 299.486 21.4254C302.396 22.7775 304.727 24.7278 306.478 27.2813C308.231 29.8299 309.395 32.9385 309.97 36.6047C310.546 40.2709 310.541 44.4014 309.951 49.0009C309.373 53.5167 308.334 57.6328 306.84 61.3564C305.343 65.0777 303.4 68.2749 301.004 70.9503C298.611 73.6258 295.763 75.6958 292.463 77.1604C289.164 78.625 285.438 79.3549 281.28 79.3549C277.121 79.3549 273.791 78.6441 270.876 77.2226C267.96 75.8011 265.628 73.7718 263.87 71.1394C262.117 68.5046 260.942 65.3218 260.349 61.5862C259.755 57.8506 259.757 53.6555 260.354 49.0009L260.349 48.9985ZM261.011 61.4761C261.584 65.0897 262.733 68.2126 264.427 70.7589C266.109 73.2812 268.376 75.2483 271.167 76.6076C273.976 77.9764 277.376 78.6728 281.275 78.6728C285.174 78.6728 288.992 77.9525 292.187 76.5358C295.385 75.1167 298.18 73.085 300.5 70.4933C302.831 67.8896 304.753 64.7283 306.211 61.098C307.679 57.4437 308.712 53.3444 309.28 48.91C309.858 44.399 309.866 40.2949 309.302 36.7076C308.745 33.1611 307.608 30.1171 305.921 27.6642C304.249 25.2256 301.986 23.3327 299.201 22.0404C296.391 20.7386 292.946 20.0757 288.961 20.0757C284.977 20.0757 281.242 20.7553 278.056 22.0931C274.876 23.426 272.092 25.362 269.787 27.846C267.472 30.3396 265.557 33.4076 264.096 36.9661C262.626 40.5462 261.589 44.6216 261.018 49.0847C260.433 53.6555 260.43 57.8266 261.011 61.4761Z" fill="url(#paint14_linear_1056_67325)"/>
<path d="M309.397 70.3282L305.957 67.2363L308.238 70.601L311.678 73.6905L309.397 70.3282Z" fill="#FFDF3E"/>
<path style="mix-blend-mode:multiply" d="M319.168 77.3023C323.677 72.7659 324.828 66.5687 321.738 63.4603C318.648 60.352 312.487 61.5096 307.978 66.046C303.468 70.5823 302.317 76.7796 305.407 79.8879C308.498 82.9963 314.658 81.8386 319.168 77.3023Z" fill="url(#paint15_radial_1056_67325)"/>
<path d="M248.68 62.2012C248.703 62.206 248.727 62.2107 248.753 62.2155C248.73 62.2107 248.703 62.206 248.68 62.2012Z" fill="#A6A6A6"/>
<path d="M247.911 61.8047C248.068 61.9985 248.322 62.1278 248.679 62.1995C248.32 62.1254 248.07 61.9961 247.911 61.8047Z" fill="#A6A6A6"/>
<path d="M252.51 53.7191C252.332 53.4559 252.063 53.3004 251.682 53.2333C251.273 53.1616 250.938 53.1903 250.655 53.3291C250.336 53.4846 250.05 53.7239 249.784 54.0614C249.486 54.4347 249.21 54.9037 248.968 55.4493C248.711 56.0309 248.463 56.677 248.235 57.3734C248.009 58.0674 247.828 58.7255 247.7 59.3309C247.579 59.9005 247.533 60.4078 247.569 60.841C247.598 61.1951 247.688 61.4847 247.847 61.7192L250.129 65.0839C250.119 65.0696 250.11 65.0504 250.1 65.0361L250.191 65.1701C250.36 65.3759 250.633 65.5099 251.03 65.5793L249.841 63.8251C249.848 63.4829 249.893 63.1072 249.981 62.698C250.11 62.0949 250.291 61.4368 250.517 60.7405C250.745 60.0441 250.99 59.3979 251.249 58.8164C251.492 58.2684 251.768 57.8018 252.065 57.4284C252.332 57.091 252.617 56.8517 252.936 56.6961C253.219 56.5573 253.555 56.5286 253.964 56.6004C254.342 56.6674 254.613 56.823 254.792 57.0862L252.51 53.7215V53.7191Z" fill="url(#paint16_linear_1056_67325)"/>
<path d="M259.737 56.1318C259.609 55.8326 259.454 55.5502 259.273 55.2846L256.992 51.9199C257.173 52.1856 257.327 52.4679 257.456 52.7671C257.815 53.5975 257.979 54.5619 257.946 55.6292C257.915 56.6702 257.703 57.7997 257.315 58.9843C256.928 60.1713 256.414 61.2458 255.786 62.1767C255.146 63.1244 254.399 63.9189 253.569 64.5387C252.724 65.1657 251.789 65.6132 250.785 65.8621C249.786 66.1109 248.727 66.1396 247.64 65.9482C246.405 65.728 245.387 65.3188 244.619 64.7253C244.148 64.3616 243.75 63.9452 243.434 63.4785L245.716 66.8432C246.032 67.3099 246.427 67.7263 246.9 68.09C247.669 68.6835 248.687 69.0951 249.922 69.3129C251.009 69.5067 252.067 69.478 253.067 69.2267C254.071 68.9778 255.005 68.5303 255.85 67.9034C256.68 67.2859 257.427 66.4914 258.067 65.5414C258.695 64.6105 259.212 63.536 259.597 62.349C259.985 61.1644 260.196 60.0349 260.227 58.9939C260.261 57.929 260.096 56.9646 259.737 56.1318Z" fill="url(#paint17_linear_1056_67325)"/>
<path d="M274.002 54.9316L276.283 58.2963L249.101 83.8593L246.819 80.497L274.002 54.9316Z" fill="url(#paint18_linear_1056_67325)"/>
<path d="M269.531 70.6106C269.517 70.589 269.5 70.5651 269.484 70.5436C269.317 70.3258 269.039 70.187 268.627 70.1128C268.249 70.0458 267.933 70.0817 267.659 70.2205C267.345 70.3808 267.055 70.6321 266.796 70.9647C266.503 71.3405 266.229 71.8119 265.987 72.3623C265.727 72.9462 265.485 73.5852 265.261 74.2648C264.709 75.9543 264.5 77.2035 264.638 77.9813C264.683 78.2349 264.759 78.4407 264.869 78.6035L267.15 81.9682C267.038 81.803 266.962 81.5972 266.919 81.346C266.781 80.5682 266.993 79.3166 267.543 77.6295C267.764 76.9499 268.009 76.3085 268.268 75.727C268.513 75.1766 268.784 74.7051 269.079 74.3294C269.339 73.9968 269.629 73.7455 269.943 73.5852C270.217 73.4464 270.533 73.4105 270.911 73.4775C271.323 73.5493 271.601 73.6905 271.768 73.9082C271.784 73.9298 271.801 73.9513 271.815 73.9752L269.534 70.6106H269.531Z" fill="url(#paint19_linear_1056_67325)"/>
<path d="M257.456 52.7666C257.089 51.9219 256.521 51.2087 255.757 50.644C255.001 50.084 254.039 49.7011 252.902 49.4977C251.744 49.2919 250.642 49.3038 249.626 49.5312C248.604 49.7633 247.654 50.1989 246.81 50.8211C245.979 51.4361 245.237 52.2306 244.612 53.1854C243.998 54.1163 243.486 55.2028 243.091 56.4161C242.723 57.5456 242.513 58.6369 242.473 59.6611C242.43 60.7117 242.582 61.6737 242.927 62.5233C243.277 63.3872 243.846 64.1266 244.619 64.7225C245.387 65.316 246.405 65.7276 247.64 65.9454C248.727 66.1392 249.786 66.1105 250.785 65.8592C251.789 65.6103 252.724 65.1628 253.568 64.5359C254.399 63.9184 255.146 63.1239 255.786 62.1739C256.414 61.243 256.93 60.1685 257.315 58.9815C257.703 57.7969 257.915 56.6674 257.946 55.6264C257.979 54.5615 257.815 53.597 257.456 52.7643V52.7666ZM252.117 58.0625C251.896 58.7398 251.651 59.3811 251.394 59.9627C251.149 60.5155 250.875 60.9845 250.583 61.3626C250.324 61.6953 250.033 61.9465 249.719 62.1069C249.446 62.2481 249.129 62.2816 248.751 62.2146C248.725 62.2098 248.701 62.205 248.677 62.2002C248.67 62.2002 248.661 62.1978 248.653 62.1954C248.637 62.193 248.623 62.1882 248.606 62.1858C248.596 62.1858 248.587 62.1811 248.58 62.1787C248.565 62.1763 248.551 62.1715 248.539 62.1691C248.53 62.1667 248.52 62.1643 248.511 62.1619C248.499 62.1595 248.487 62.1547 248.475 62.1523C248.466 62.1499 248.456 62.1475 248.447 62.1428C248.435 62.138 248.423 62.1356 248.411 62.1308C248.401 62.1284 248.394 62.1236 248.385 62.1212C248.373 62.1164 248.363 62.114 248.351 62.1093C248.342 62.1069 248.335 62.1021 248.325 62.0997C248.316 62.0949 248.304 62.0901 248.294 62.0877C248.285 62.0829 248.278 62.0805 248.27 62.0758C248.261 62.071 248.251 62.0662 248.242 62.0614C248.235 62.0566 248.225 62.0542 248.218 62.0494C248.209 62.0446 248.199 62.0399 248.19 62.0351C248.182 62.0303 248.175 62.0255 248.166 62.0231C248.156 62.0183 248.149 62.0135 248.14 62.0088C248.132 62.004 248.125 61.9992 248.118 61.9944C248.109 61.9896 248.102 61.9824 248.094 61.9776C248.087 61.9729 248.08 61.9681 248.075 61.9633C248.068 61.9585 248.059 61.9513 248.052 61.9465C248.044 61.9417 248.04 61.937 248.033 61.9322C248.025 61.9274 248.018 61.9202 248.011 61.913C248.004 61.9082 247.999 61.9011 247.992 61.8963C247.985 61.8891 247.978 61.8843 247.973 61.8771C247.968 61.8723 247.961 61.8652 247.956 61.8604C247.949 61.8532 247.945 61.846 247.937 61.8412C247.933 61.8364 247.928 61.8293 247.914 61.8125C247.909 61.8053 247.902 61.7982 247.897 61.7934C247.709 61.5469 247.602 61.2382 247.571 60.8505C247.538 60.4173 247.581 59.91 247.702 59.3405C247.83 58.7374 248.011 58.0793 248.237 57.3829C248.466 56.6865 248.711 56.0404 248.97 55.4589C249.213 54.9109 249.488 54.4442 249.786 54.0709C250.052 53.7335 250.338 53.4941 250.657 53.3386C250.94 53.1998 251.275 53.1711 251.684 53.2429C252.3 53.353 252.626 53.6928 252.743 54.3509C252.879 55.131 252.669 56.3826 252.117 58.0697V58.0625Z" fill="url(#paint20_linear_1056_67325)"/>
<path d="M270.569 51.8105L243.379 77.4022L246.819 80.4941L274.002 54.9287L270.569 51.8105Z" fill="url(#paint21_linear_1056_67325)"/>
<path d="M274.451 69.8085C274.101 68.9446 273.533 68.2051 272.759 67.6093C271.991 67.0158 270.973 66.6042 269.738 66.3864C268.651 66.1925 267.592 66.2213 266.593 66.4725C265.589 66.7238 264.654 67.1689 263.81 67.7959C262.979 68.4133 262.232 69.2078 261.592 70.1579C260.964 71.0888 260.448 72.1633 260.06 73.3527C259.675 74.5348 259.463 75.6644 259.43 76.7078C259.397 77.7727 259.561 78.7371 259.92 79.5699C260.286 80.4123 260.855 81.1254 261.619 81.6902C262.375 82.2502 263.334 82.6355 264.473 82.8365C265.632 83.0423 266.736 83.0303 267.749 82.8006C268.772 82.5684 269.721 82.1353 270.566 81.5107C271.399 80.8957 272.139 80.0988 272.767 79.1463C273.38 78.213 273.889 77.1266 274.284 75.9133C274.653 74.7837 274.862 73.6925 274.903 72.6682C274.946 71.6201 274.793 70.6557 274.449 69.8061L274.451 69.8085ZM269.676 73.0033C269.548 73.6063 269.369 74.2644 269.141 74.9608C268.915 75.6548 268.668 76.3009 268.411 76.8825C268.168 77.4305 267.892 77.8971 267.595 78.2705C267.328 78.6079 267.043 78.8472 266.724 79.0027C266.441 79.1415 266.105 79.1703 265.696 79.0985C265.08 78.9884 264.754 78.6486 264.638 77.9905C264.5 77.2127 264.711 75.9611 265.261 74.274C265.482 73.5944 265.727 72.953 265.986 72.3715C266.232 71.8211 266.503 71.3497 266.795 70.9739C267.055 70.6413 267.345 70.39 267.659 70.2297C267.932 70.0909 268.249 70.055 268.627 70.122C269.039 70.1938 269.317 70.335 269.484 70.5528C269.672 70.7992 269.779 71.1079 269.807 71.4956C269.84 71.9288 269.798 72.4361 269.676 73.0081V73.0033Z" fill="url(#paint22_linear_1056_67325)"/>
<path d="M276.733 73.1706C276.597 72.8332 276.428 72.5149 276.226 72.2182L273.944 68.8535C274.147 69.1527 274.316 69.4685 274.451 69.806C274.794 70.6555 274.946 71.6199 274.906 72.6681C274.865 73.6923 274.656 74.7836 274.287 75.9131C273.892 77.124 273.381 78.2129 272.769 79.1462C272.141 80.0986 271.401 80.8931 270.569 81.5106C269.724 82.1352 268.775 82.5683 267.752 82.8004C266.739 83.0302 265.637 83.0421 264.476 82.8363C263.339 82.6353 262.378 82.2476 261.621 81.69C261.127 81.3239 260.715 80.8955 260.384 80.4121L262.666 83.7768C262.994 84.2626 263.408 84.691 263.903 85.0547C264.659 85.6147 265.618 86 266.758 86.201C267.916 86.4068 269.02 86.3948 270.033 86.1651C271.056 85.933 272.006 85.4998 272.85 84.8752C273.683 84.2602 274.423 83.4633 275.051 82.5109C275.664 81.5776 276.174 80.4911 276.569 79.2778C276.937 78.1483 277.147 77.057 277.187 76.0328C277.23 74.9846 277.078 74.0202 276.733 73.1706Z" fill="url(#paint23_linear_1056_67325)"/>
<path d="M251.801 52.5635C251.62 52.5324 251.444 52.5156 251.28 52.5156C250.944 52.5156 250.635 52.5826 250.362 52.7166C249.95 52.9177 249.588 53.2168 249.258 53.6356C248.925 54.0544 248.62 54.5713 248.354 55.172C248.085 55.7774 247.83 56.4475 247.597 57.1606C247.364 57.8737 247.179 58.5558 247.043 59.1876C246.907 59.8193 246.86 60.3937 246.9 60.8938C246.941 61.4179 247.093 61.8463 247.364 62.1981L247.414 62.2603L247.476 62.3297C247.476 62.3297 247.523 62.3775 247.538 62.3895L247.602 62.4469L247.714 62.5331L247.788 62.5809L247.866 62.6264L247.942 62.6671L248.018 62.703L248.104 62.7389L248.197 62.7724L248.275 62.7987L248.351 62.8203L248.449 62.8442L248.539 62.8633L248.63 62.8801C248.794 62.9088 248.953 62.9232 249.101 62.9232C249.436 62.9232 249.745 62.8514 250.024 62.7078C250.421 62.5068 250.787 62.1933 251.111 61.7793C251.439 61.3557 251.741 60.8364 252.008 60.2381C252.277 59.6327 252.529 58.9722 252.757 58.2734C253.352 56.4523 253.564 55.1289 253.407 54.2243C253.24 53.2814 252.7 52.7238 251.801 52.5659V52.5635ZM252.117 58.0604C251.896 58.7376 251.651 59.379 251.394 59.9605C251.149 60.5133 250.875 60.9824 250.583 61.3605C250.324 61.6931 250.033 61.9444 249.719 62.1047C249.446 62.2459 249.129 62.2794 248.751 62.2124C248.725 62.2076 248.701 62.2028 248.677 62.1981C248.67 62.1981 248.661 62.1957 248.653 62.1933C248.637 62.1909 248.623 62.1861 248.606 62.1837C248.596 62.1837 248.587 62.1789 248.58 62.1765C248.565 62.1741 248.551 62.1693 248.539 62.1669C248.53 62.1646 248.52 62.1622 248.511 62.1598C248.499 62.1574 248.487 62.1526 248.475 62.1502C248.466 62.1478 248.456 62.1454 248.447 62.1406C248.435 62.1358 248.423 62.1334 248.411 62.1287C248.401 62.1263 248.394 62.1215 248.385 62.1191C248.373 62.1143 248.363 62.1119 248.351 62.1071C248.342 62.1047 248.335 62.0999 248.325 62.0975C248.316 62.0928 248.304 62.088 248.294 62.0856C248.285 62.0808 248.278 62.0784 248.27 62.0736C248.261 62.0688 248.251 62.064 248.242 62.0593C248.235 62.0545 248.225 62.0521 248.218 62.0473C248.209 62.0425 248.199 62.0377 248.19 62.0329C248.182 62.0281 248.175 62.0234 248.166 62.021C248.156 62.0162 248.149 62.0114 248.14 62.0066C248.132 62.0018 248.125 61.997 248.118 61.9922C248.109 61.9875 248.102 61.9803 248.094 61.9755C248.087 61.9707 248.08 61.9659 248.075 61.9611C248.068 61.9564 248.059 61.9492 248.052 61.9444C248.044 61.9396 248.04 61.9348 248.033 61.93C248.025 61.9252 248.018 61.9181 248.011 61.9109C248.004 61.9061 247.999 61.8989 247.992 61.8941C247.985 61.887 247.978 61.8822 247.973 61.875C247.968 61.8702 247.961 61.863 247.956 61.8582C247.949 61.8511 247.945 61.8439 247.937 61.8391C247.933 61.8343 247.928 61.8271 247.914 61.8104C247.909 61.8032 247.902 61.796 247.897 61.7912C247.709 61.5447 247.602 61.236 247.571 60.8484C247.538 60.4152 247.581 59.9079 247.702 59.3383C247.83 58.7353 248.011 58.0772 248.237 57.3808C248.466 56.6844 248.711 56.0382 248.97 55.4567C249.213 54.9087 249.489 54.4421 249.786 54.0687C250.052 53.7313 250.338 53.492 250.657 53.3365C250.94 53.1977 251.275 53.1689 251.684 53.2407C252.3 53.3508 252.626 53.6906 252.743 54.3487C252.879 55.1289 252.669 56.3805 252.117 58.0676V58.0604Z" fill="url(#paint24_linear_1056_67325)"/>
<path d="M257.456 52.7666C257.089 51.9219 256.521 51.2087 255.757 50.644C255.001 50.084 254.039 49.7011 252.902 49.4977C251.744 49.2919 250.642 49.3038 249.626 49.5312C248.604 49.7633 247.654 50.1989 246.81 50.8211C245.979 51.4361 245.237 52.2306 244.612 53.1854C243.998 54.1163 243.486 55.2028 243.091 56.4161C242.723 57.5456 242.513 58.6369 242.473 59.6611C242.43 60.7117 242.582 61.6737 242.927 62.5233C243.277 63.3872 243.846 64.1266 244.619 64.7225C245.387 65.316 246.405 65.7276 247.64 65.9454C248.727 66.1392 249.786 66.1105 250.785 65.8592C251.789 65.6103 252.724 65.1628 253.568 64.5359C254.399 63.9184 255.146 63.1239 255.786 62.1739C256.414 61.243 256.93 60.1685 257.315 58.9815C257.703 57.7969 257.915 56.6674 257.946 55.6264C257.979 54.5615 257.815 53.597 257.456 52.7643V52.7666ZM257.273 55.6072C257.244 56.5812 257.044 57.6462 256.675 58.7733C256.307 59.9028 255.819 60.9199 255.227 61.7982C254.627 62.6836 253.935 63.4231 253.166 63.995C252.391 64.5717 251.534 64.9786 250.623 65.2059C250.114 65.3327 249.581 65.3974 249.041 65.3974C248.623 65.3974 248.19 65.3591 247.757 65.2825C246.627 65.0815 245.708 64.7129 245.03 64.1889C244.352 63.6672 243.855 63.0234 243.553 62.272C243.246 61.511 243.11 60.6447 243.149 59.6946C243.187 58.7374 243.384 57.7084 243.734 56.6339C244.112 55.4732 244.597 54.4418 245.175 53.5683C245.756 52.6829 246.441 51.9434 247.212 51.3763C247.98 50.8091 248.844 50.4118 249.779 50.2013C250.259 50.0936 250.771 50.0385 251.297 50.0385C251.777 50.0385 252.279 50.084 252.788 50.1749C253.823 50.3592 254.689 50.7038 255.36 51.1992C256.024 51.6898 256.521 52.312 256.837 53.0466C257.156 53.7861 257.303 54.65 257.273 55.6168V55.6072Z" fill="url(#paint25_linear_1056_67325)"/>
<path d="M270.569 51.8105L243.377 77.4022L246.819 80.4941L273.999 54.9287L270.569 51.8105ZM246.807 79.5728L244.376 77.3879L270.576 52.7295L273.002 54.9335L246.807 79.5704V79.5728Z" fill="url(#paint26_linear_1056_67325)"/>
<path d="M274.451 69.8085C274.101 68.9446 273.533 68.2051 272.759 67.6093C271.991 67.0158 270.973 66.6042 269.738 66.3864C268.651 66.1925 267.592 66.2213 266.593 66.4725C265.589 66.7238 264.654 67.1689 263.81 67.7959C262.979 68.4133 262.232 69.2078 261.592 70.1579C260.964 71.0888 260.448 72.1633 260.06 73.3527C259.675 74.5348 259.463 75.6644 259.43 76.7078C259.397 77.7727 259.561 78.7371 259.92 79.5699C260.286 80.4123 260.855 81.1254 261.619 81.6902C262.375 82.2502 263.334 82.6355 264.473 82.8365C265.632 83.0423 266.736 83.0303 267.749 82.8006C268.772 82.5684 269.721 82.1353 270.566 81.5107C271.399 80.8957 272.139 80.0988 272.767 79.1463C273.38 78.213 273.889 77.1266 274.284 75.9133C274.653 74.7837 274.862 73.6925 274.903 72.6682C274.946 71.6201 274.793 70.6557 274.449 69.8061L274.451 69.8085ZM274.23 72.6419C274.192 73.5992 273.994 74.6282 273.644 75.7027C273.266 76.8585 272.783 77.8924 272.203 78.773C271.62 79.6561 270.935 80.3931 270.164 80.9651C269.396 81.5322 268.532 81.9271 267.599 82.1377C267.114 82.2478 266.6 82.3028 266.072 82.3028C265.594 82.3028 265.094 82.2573 264.588 82.1688C263.555 81.9845 262.689 81.6399 262.016 81.1422C261.352 80.6516 260.855 80.0318 260.536 79.2971C260.217 78.5576 260.07 77.6913 260.101 76.7293C260.132 75.7481 260.332 74.6832 260.698 73.5633C261.067 72.4337 261.554 71.4143 262.147 70.5384C262.746 69.653 263.439 68.9135 264.207 68.3415C264.978 67.7672 265.834 67.3604 266.753 67.1306C267.262 67.0038 267.792 66.9392 268.335 66.9392C268.753 66.9392 269.186 66.9775 269.619 67.0541C270.749 67.2551 271.667 67.6236 272.346 68.1477C273.024 68.6694 273.521 69.3131 273.823 70.0646C274.13 70.8232 274.265 71.6919 274.227 72.6419H274.23Z" fill="url(#paint27_linear_1056_67325)"/>
<path d="M270.019 70.1333C269.745 69.7767 269.329 69.5542 268.746 69.4513C268.585 69.4226 268.428 69.4082 268.278 69.4082C267.945 69.4082 267.633 69.48 267.355 69.6236C266.953 69.8294 266.586 70.1429 266.265 70.5545C265.934 70.9781 265.635 71.4974 265.371 72.0956C265.102 72.7035 264.85 73.364 264.621 74.0628C264.026 75.8839 263.815 77.2097 263.974 78.1095C264.141 79.05 264.681 79.6075 265.58 79.7679C265.761 79.799 265.937 79.8157 266.101 79.8157C266.436 79.8157 266.746 79.7487 267.019 79.6147C267.431 79.4137 267.792 79.1146 268.123 78.6958C268.456 78.277 268.761 77.7601 269.027 77.1594C269.296 76.554 269.55 75.8839 269.784 75.1732C270.017 74.46 270.202 73.778 270.338 73.1462C270.473 72.512 270.521 71.9377 270.483 71.4375C270.443 70.9135 270.29 70.4875 270.019 70.1333ZM269.679 73.0026C269.55 73.6057 269.372 74.2638 269.144 74.9602C268.918 75.6542 268.67 76.3003 268.413 76.8818C268.171 77.4298 267.895 77.8965 267.597 78.2698C267.331 78.6072 267.045 78.8465 266.727 79.0021C266.443 79.1409 266.108 79.1696 265.699 79.0978C265.083 78.9877 264.757 78.6479 264.64 77.9898C264.502 77.2121 264.714 75.9605 265.263 74.2734C265.485 73.5937 265.73 72.9524 265.989 72.3708C266.234 71.8204 266.505 71.349 266.798 70.9733C267.057 70.6406 267.347 70.3894 267.662 70.229C267.935 70.0902 268.251 70.0543 268.63 70.1213C269.041 70.1931 269.32 70.3343 269.486 70.5521C269.674 70.7986 269.781 71.1073 269.81 71.495C269.843 71.9281 269.8 72.4355 269.679 73.0074V73.0026Z" fill="url(#paint28_linear_1056_67325)"/>
<path d="M252.442 16L265.539 41.35L242.113 30.9281L252.442 16Z" fill="url(#paint29_linear_1056_67325)"/>
<path d="M243.133 30.6405L252.356 17.3086L264.054 39.9472L243.133 30.6405Z" fill="url(#paint30_linear_1056_67325)"/>
<path d="M265.54 41.3496L263.363 42.6132L239.935 32.1889L242.114 30.9277L265.54 41.3496Z" fill="url(#paint31_linear_1056_67325)"/>
<path d="M242.114 30.9281L239.935 32.1892L250.264 17.2636L252.443 16L242.114 30.9281Z" fill="url(#paint32_linear_1056_67325)"/>
<path d="M327.282 24.0652L316.196 31.9672L318.568 19.4609L327.282 24.0652Z" fill="url(#paint33_linear_1056_67325)"/>
<path d="M319.057 20.4863L325.995 24.1501L317.171 30.4392L319.057 20.4863Z" fill="url(#paint34_linear_1056_67325)"/>
<path d="M327.282 24.0645L326.835 24.8972L315.749 32.7992L316.196 31.9664L327.282 24.0645Z" fill="url(#paint35_linear_1056_67325)"/>
<path d="M316.196 31.9672L315.749 32.8L318.118 20.2913L318.568 19.4609L316.196 31.9672Z" fill="url(#paint36_linear_1056_67325)"/>
<path d="M240.235 38.6641L257.154 47.9827L242.866 48.9926L240.235 38.6641Z" fill="url(#paint37_linear_1056_67325)"/>
<path d="M241.272 40.0117L254.816 47.4686L243.38 48.2774L241.272 40.0117Z" fill="url(#paint38_linear_1056_67325)"/>
<path d="M257.154 47.9824L254.742 49.9854L240.451 50.9953L242.866 48.9923L257.154 47.9824Z" fill="url(#paint39_linear_1056_67325)"/>
<path d="M242.866 48.9926L240.451 50.9956L237.82 40.6671L240.234 38.6641L242.866 48.9926Z" fill="url(#paint40_linear_1056_67325)"/>
<path d="M240.545 87.3457L270.285 89.442L257.181 106.064L240.545 87.3457Z" fill="url(#paint41_linear_1056_67325)"/>
<path d="M242.156 88.1387L268.962 90.0268L257.15 105.01L242.156 88.1387Z" fill="url(#paint42_linear_1056_67325)"/>
<path d="M257.182 106.064L254.206 109.207L237.569 90.4902L240.545 87.3457L257.182 106.064Z" fill="url(#paint43_linear_1056_67325)"/>
<path d="M274.276 106.938L277.571 96.0801L283.823 109.266L274.276 106.938Z" fill="url(#paint44_linear_1056_67325)"/>
<path d="M275.128 106.448L277.71 97.9473L282.603 108.271L275.128 106.448Z" fill="url(#paint45_linear_1056_67325)"/>
<path d="M274.276 106.938L272.794 108.943L276.089 98.0855L277.571 96.0801L274.276 106.938Z" fill="url(#paint46_linear_1056_67325)"/>
<path d="M283.823 109.266L282.341 111.271L272.794 108.943L274.276 106.938L283.823 109.266Z" fill="url(#paint47_linear_1056_67325)"/>
<path d="M270.742 29.2375C270.742 30.1277 270.026 30.848 269.141 30.848C268.256 30.848 267.54 30.1277 267.54 29.2375C267.54 28.3473 268.256 27.627 269.141 27.627C270.026 27.627 270.742 28.3473 270.742 29.2375Z" stroke="url(#paint48_linear_1056_67325)" stroke-width="3" stroke-miterlimit="10"/>
<path d="M325.551 94.8617C326.435 94.8617 327.152 94.1407 327.152 93.2512C327.152 92.3617 326.435 91.6406 325.551 91.6406C324.667 91.6406 323.95 92.3617 323.95 93.2512C323.95 94.1407 324.667 94.8617 325.551 94.8617Z" stroke="url(#paint49_linear_1056_67325)" stroke-width="3" stroke-miterlimit="10"/>
<path d="M264.43 114.39C264.43 115.28 263.714 116 262.829 116C261.944 116 261.228 115.28 261.228 114.39C261.228 113.5 261.944 112.779 262.829 112.779C263.714 112.779 264.43 113.5 264.43 114.39Z" stroke="url(#paint50_linear_1056_67325)" stroke-width="3" stroke-miterlimit="10"/>
</g>
<defs>
<linearGradient id="paint0_linear_1056_67325" x1="254.321" y1="617.238" x2="-38.1284" y2="105.989" gradientUnits="userSpaceOnUse">
<stop stop-color="white"/>
<stop offset="1" stop-color="white" stop-opacity="0"/>
</linearGradient>
<linearGradient id="paint1_linear_1056_67325" x1="294.058" y1="-341.787" x2="295.421" y2="127.511" gradientUnits="userSpaceOnUse">
<stop stop-color="white"/>
<stop offset="1" stop-color="white" stop-opacity="0"/>
</linearGradient>
<linearGradient id="paint2_linear_1056_67325" x1="313.264" y1="440.062" x2="298.211" y2="30.8548" gradientUnits="userSpaceOnUse">
<stop stop-color="white"/>
<stop offset="1" stop-color="white" stop-opacity="0"/>
</linearGradient>
<linearGradient id="paint3_linear_1056_67325" x1="259.288" y1="693.237" x2="417.12" y2="17.4635" gradientUnits="userSpaceOnUse">
<stop stop-color="white"/>
<stop offset="1" stop-color="white" stop-opacity="0"/>
</linearGradient>
<linearGradient id="paint4_linear_1056_67325" x1="316.427" y1="65.4499" x2="305.184" y2="65.4499" gradientUnits="userSpaceOnUse">
<stop stop-color="#5879CE"/>
<stop offset="0.64" stop-color="#839DF9"/>
</linearGradient>
<linearGradient id="paint5_linear_1056_67325" x1="294.457" y1="45.3599" x2="264.187" y2="109.896" gradientUnits="userSpaceOnUse">
<stop stop-color="#2A54E9"/>
<stop offset="0.43" stop-color="#5E5BE8"/>
<stop offset="1" stop-color="#505CC7"/>
</linearGradient>
<linearGradient id="paint6_linear_1056_67325" x1="294.115" y1="46.1003" x2="264.537" y2="109.156" gradientUnits="userSpaceOnUse">
<stop offset="0.43" stop-color="#3662FE"/>
<stop offset="1" stop-color="#3E4CCE"/>
</linearGradient>
<linearGradient id="paint7_linear_1056_67325" x1="290.708" y1="106.407" x2="253.751" y2="106.407" gradientUnits="userSpaceOnUse">
<stop stop-color="#3654BF"/>
<stop offset="1" stop-color="#3D5ED1"/>
</linearGradient>
<linearGradient id="paint8_linear_1056_67325" x1="316.427" y1="92.755" x2="289.143" y2="92.755" gradientUnits="userSpaceOnUse">
<stop stop-color="#3545CE"/>
<stop offset="1" stop-color="#5269DE"/>
</linearGradient>
<radialGradient id="paint9_radial_1056_67325" cx="0" cy="0" r="1" gradientUnits="userSpaceOnUse" gradientTransform="translate(275.435 87.8751) rotate(-60.1465) scale(15.2507 30.7796)">
<stop stop-color="#366374"/>
<stop offset="0.08" stop-color="#3D7184"/>
<stop offset="0.16" stop-color="#447D91"/>
<stop offset="0.25" stop-color="#4A8699" stop-opacity="0.87"/>
<stop offset="0.5" stop-color="#5E9FB1" stop-opacity="0.5"/>
<stop offset="0.72" stop-color="#6CB1C3" stop-opacity="0.23"/>
<stop offset="0.89" stop-color="#74BCCE" stop-opacity="0.06"/>
<stop offset="1" stop-color="#78C1D2" stop-opacity="0"/>
</radialGradient>
<linearGradient id="paint10_linear_1056_67325" x1="300.021" y1="38.027" x2="271.926" y2="61.4594" gradientUnits="userSpaceOnUse">
<stop stop-color="#9EABB1"/>
<stop offset="0.11" stop-color="#ACB9BF"/>
<stop offset="0.27" stop-color="#BCC9CF"/>
<stop offset="0.44" stop-color="#CAD4D9"/>
<stop offset="0.66" stop-color="#DAE1E5"/>
<stop offset="0.94" stop-color="#BCC9CF"/>
</linearGradient>
<linearGradient id="paint11_linear_1056_67325" x1="317.427" y1="39.0871" x2="270.12" y2="78.5465" gradientUnits="userSpaceOnUse">
<stop stop-color="#BECBD1"/>
<stop offset="0.06" stop-color="#D3DCE1"/>
<stop offset="0.12" stop-color="#DFE7EB"/>
<stop offset="0.17" stop-color="#E4EBEF"/>
<stop offset="0.44" stop-color="#BCC9CF"/>
<stop offset="0.53" stop-color="#CAD4D9"/>
<stop offset="0.66" stop-color="#DAE1E5"/>
<stop offset="0.73" stop-color="#C8D1D5"/>
<stop offset="0.94" stop-color="#9EABB1"/>
</linearGradient>
<linearGradient id="paint12_linear_1056_67325" x1="298.252" y1="20.8371" x2="271.641" y2="77.5716" gradientUnits="userSpaceOnUse">
<stop stop-color="white"/>
<stop offset="0.37" stop-color="#E6EBEE"/>
<stop offset="0.73" stop-color="#D5DDE3"/>
<stop offset="1" stop-color="#CFD9DF"/>
</linearGradient>
<linearGradient id="paint13_linear_1056_67325" x1="294.458" y1="29.064" x2="275.485" y2="69.5122" gradientUnits="userSpaceOnUse">
<stop stop-color="#CDD7DD"/>
<stop offset="0.28" stop-color="#D1DADF"/>
<stop offset="0.57" stop-color="#DDE4E8"/>
<stop offset="0.86" stop-color="#F2F4F6"/>
<stop offset="1" stop-color="white"/>
</linearGradient>
<linearGradient id="paint14_linear_1056_67325" x1="298.232" y1="20.8367" x2="271.621" y2="77.5712" gradientUnits="userSpaceOnUse">
<stop offset="0.18" stop-color="white"/>
<stop offset="0.7" stop-color="#D7DFE2"/>
<stop offset="1" stop-color="#C6D1D6"/>
</linearGradient>
<radialGradient id="paint15_radial_1056_67325" cx="0" cy="0" r="1" gradientUnits="userSpaceOnUse" gradientTransform="translate(315.046 72.074) rotate(-45.1693) scale(11.5998 7.92063)">
<stop stop-color="#CFD9DF"/>
<stop offset="0.06" stop-color="#CFD9DF" stop-opacity="0.88"/>
<stop offset="0.19" stop-color="#CFD9DF" stop-opacity="0.65"/>
<stop offset="0.33" stop-color="#CFD9DF" stop-opacity="0.45"/>
<stop offset="0.46" stop-color="#CFD9DF" stop-opacity="0.29"/>
<stop offset="0.6" stop-color="#CFD9DF" stop-opacity="0.16"/>
<stop offset="0.73" stop-color="#CFD9DF" stop-opacity="0.07"/>
<stop offset="0.87" stop-color="#CFD9DF" stop-opacity="0.02"/>
<stop offset="1" stop-color="#CFD9DF" stop-opacity="0"/>
</radialGradient>
<linearGradient id="paint16_linear_1056_67325" x1="248" y1="63.9592" x2="253.635" y2="54.2529" gradientUnits="userSpaceOnUse">
<stop offset="0.04" stop-color="#DDB736"/>
<stop offset="0.2" stop-color="#E5BF3B"/>
<stop offset="0.38" stop-color="#F5D146"/>
<stop offset="0.66" stop-color="#DDB736"/>
<stop offset="0.96" stop-color="#CC992F"/>
</linearGradient>
<linearGradient id="paint17_linear_1056_67325" x1="246.001" y1="67.2524" x2="260.593" y2="57.0959" gradientUnits="userSpaceOnUse">
<stop stop-color="#FFDF3E"/>
<stop offset="0.04" stop-color="#F9D83C"/>
<stop offset="0.21" stop-color="#E4BF37"/>
<stop offset="0.32" stop-color="#DDB736"/>
<stop offset="0.45" stop-color="#EBC839"/>
<stop offset="0.59" stop-color="#FFDF3E"/>
<stop offset="0.8" stop-color="#F5D146"/>
<stop offset="1" stop-color="#FFE84F"/>
</linearGradient>
<linearGradient id="paint18_linear_1056_67325" x1="248.137" y1="82.8901" x2="275.124" y2="56.0627" gradientUnits="userSpaceOnUse">
<stop stop-color="#FFDF3E"/>
<stop offset="0.2" stop-color="#F5D146"/>
<stop offset="0.44" stop-color="#DDB736"/>
<stop offset="0.68" stop-color="#F5D146"/>
<stop offset="1" stop-color="#FFE84F"/>
</linearGradient>
<linearGradient id="paint19_linear_1056_67325" x1="264.654" y1="80.5251" x2="270.24" y2="70.9072" gradientUnits="userSpaceOnUse">
<stop offset="0.04" stop-color="#DDB736"/>
<stop offset="0.2" stop-color="#E5BF3B"/>
<stop offset="0.38" stop-color="#F5D146"/>
<stop offset="0.66" stop-color="#DDB736"/>
<stop offset="0.96" stop-color="#CC992F"/>
</linearGradient>
<linearGradient id="paint20_linear_1056_67325" x1="246.926" y1="50.6081" x2="253.549" y2="64.7284" gradientUnits="userSpaceOnUse">
<stop stop-color="#FFDF3E"/>
<stop offset="0.71" stop-color="#F5D146"/>
</linearGradient>
<linearGradient id="paint21_linear_1056_67325" x1="255.346" y1="58.9515" x2="262.091" y2="73.3298" gradientUnits="userSpaceOnUse">
<stop stop-color="#FFDF3E"/>
<stop offset="0.71" stop-color="#F5D146"/>
</linearGradient>
<linearGradient id="paint22_linear_1056_67325" x1="263.893" y1="67.5758" x2="270.518" y2="81.6961" gradientUnits="userSpaceOnUse">
<stop stop-color="#FFDF3E"/>
<stop offset="0.71" stop-color="#F5D146"/>
</linearGradient>
<linearGradient id="paint23_linear_1056_67325" x1="262.97" y1="84.21" x2="277.562" y2="74.051" gradientUnits="userSpaceOnUse">
<stop stop-color="#FFDF3E"/>
<stop offset="0.32" stop-color="#DDB736"/>
<stop offset="0.56" stop-color="#FFDF3E"/>
<stop offset="0.76" stop-color="#F5D146"/>
<stop offset="1" stop-color="#FFE84F"/>
</linearGradient>
<linearGradient id="paint24_linear_1056_67325" x1="248.306" y1="53.6811" x2="252.087" y2="61.743" gradientUnits="userSpaceOnUse">
<stop stop-color="#E9C246"/>
<stop offset="1" stop-color="#FBE740"/>
</linearGradient>
<linearGradient id="paint25_linear_1056_67325" x1="246.926" y1="50.6081" x2="253.549" y2="64.7284" gradientUnits="userSpaceOnUse">
<stop stop-color="#FFF03E"/>
<stop offset="0.71" stop-color="#EFC946"/>
</linearGradient>
<linearGradient id="paint26_linear_1056_67325" x1="255.346" y1="58.9515" x2="262.091" y2="73.3298" gradientUnits="userSpaceOnUse">
<stop stop-color="#FFF03E"/>
<stop offset="0.71" stop-color="#EFC946"/>
</linearGradient>
<linearGradient id="paint27_linear_1056_67325" x1="263.893" y1="67.5758" x2="270.518" y2="81.6961" gradientUnits="userSpaceOnUse">
<stop stop-color="#FFF03E"/>
<stop offset="0.71" stop-color="#EFC946"/>
</linearGradient>
<linearGradient id="paint28_linear_1056_67325" x1="265.328" y1="70.5689" x2="269.111" y2="78.6308" gradientUnits="userSpaceOnUse">
<stop stop-color="#E9C246"/>
<stop offset="1" stop-color="#FBE740"/>
</linearGradient>
<linearGradient id="paint29_linear_1056_67325" x1="245.91" y1="19.0632" x2="258.019" y2="44.8776" gradientUnits="userSpaceOnUse">
<stop offset="0.03" stop-color="#FFF555"/>
<stop offset="0.3" stop-color="#F9E750"/>
<stop offset="0.72" stop-color="#EFC946"/>
</linearGradient>
<linearGradient id="paint30_linear_1056_67325" x1="246.525" y1="20.0439" x2="257.337" y2="43.0978" gradientUnits="userSpaceOnUse">
<stop stop-color="#FFDF3E"/>
<stop offset="0.71" stop-color="#F5D146"/>
</linearGradient>
<linearGradient id="paint31_linear_1056_67325" x1="248.615" y1="27.8765" x2="256.941" y2="45.6243" gradientUnits="userSpaceOnUse">
<stop stop-color="#EFC946"/>
<stop offset="0.46" stop-color="#D8AF34"/>
<stop offset="0.96" stop-color="#CC992F"/>
</linearGradient>
<linearGradient id="paint32_linear_1056_67325" x1="239.935" y1="24.0958" x2="252.443" y2="24.0958" gradientUnits="userSpaceOnUse">
<stop stop-color="#F5D146"/>
<stop offset="1" stop-color="#FFF03E"/>
</linearGradient>
<linearGradient id="paint33_linear_1056_67325" x1="317.916" y1="19.7673" x2="322.295" y2="29.1068" gradientUnits="userSpaceOnUse">
<stop stop-color="#8CC6E6"/>
<stop offset="0.43" stop-color="#425DEA"/>
<stop offset="1" stop-color="#4B5BAC"/>
</linearGradient>
<linearGradient id="paint34_linear_1056_67325" x1="318.539" y1="20.728" x2="322.027" y2="28.1619" gradientUnits="userSpaceOnUse">
<stop offset="0.43" stop-color="#5C7DF1"/>
<stop offset="1" stop-color="#3D64C7"/>
</linearGradient>
<linearGradient id="paint35_linear_1056_67325" x1="315.749" y1="28.4318" x2="327.282" y2="28.4318" gradientUnits="userSpaceOnUse">
<stop stop-color="#444791"/>
<stop offset="1" stop-color="#364474"/>
</linearGradient>
<linearGradient id="paint36_linear_1056_67325" x1="315.749" y1="26.1305" x2="318.568" y2="26.1305" gradientUnits="userSpaceOnUse">
<stop stop-color="#6476D6"/>
<stop offset="0.64" stop-color="#6A78FB"/>
</linearGradient>
<linearGradient id="paint37_linear_1056_67325" x1="244.524" y1="36.6539" x2="251.157" y2="50.7957" gradientUnits="userSpaceOnUse">
<stop stop-color="#939BE1"/>
<stop offset="0.43" stop-color="#7D81E2"/>
<stop offset="1" stop-color="#3248BD"/>
</linearGradient>
<linearGradient id="paint38_linear_1056_67325" x1="244.705" y1="38.4012" x2="250.016" y2="49.7204" gradientUnits="userSpaceOnUse">
<stop offset="0.43" stop-color="#7881D2"/>
<stop offset="1" stop-color="#5F80C0"/>
</linearGradient>
<linearGradient id="paint39_linear_1056_67325" x1="240.451" y1="49.4901" x2="257.154" y2="49.4901" gradientUnits="userSpaceOnUse">
<stop stop-color="#4E5AC5"/>
<stop offset="1" stop-color="#4B56B5"/>
</linearGradient>
<linearGradient id="paint40_linear_1056_67325" x1="237.974" y1="39.7242" x2="242.757" y2="49.9162" gradientUnits="userSpaceOnUse">
<stop stop-color="#5D7ADF"/>
<stop offset="0.43" stop-color="#3B6BE7"/>
<stop offset="1" stop-color="#3E5CC9"/>
</linearGradient>
<linearGradient id="paint41_linear_1056_67325" x1="252.359" y1="81.8033" x2="262.556" y2="103.541" gradientUnits="userSpaceOnUse">
<stop stop-color="#8CA0E6"/>
<stop offset="0.43" stop-color="#8290DC"/>
<stop offset="1" stop-color="#4B5BAC"/>
</linearGradient>
<linearGradient id="paint42_linear_1056_67325" x1="252.804" y1="83.1419" x2="261.997" y2="102.736" gradientUnits="userSpaceOnUse">
<stop offset="0.43" stop-color="#788CD2"/>
<stop offset="1" stop-color="#5F74C0"/>
</linearGradient>
<linearGradient id="paint43_linear_1056_67325" x1="237.569" y1="98.2773" x2="257.182" y2="98.2773" gradientUnits="userSpaceOnUse">
<stop stop-color="#546DAE"/>
<stop offset="1" stop-color="#4A619D"/>
</linearGradient>
<linearGradient id="paint44_linear_1056_67325" x1="274.207" y1="97.6571" x2="280.405" y2="110.868" gradientUnits="userSpaceOnUse">
<stop offset="0.03" stop-color="#FFF555"/>
<stop offset="0.3" stop-color="#F9E750"/>
<stop offset="0.72" stop-color="#EFC946"/>
</linearGradient>
<linearGradient id="paint45_linear_1056_67325" x1="275.076" y1="99.1845" x2="279.928" y2="109.525" gradientUnits="userSpaceOnUse">
<stop stop-color="#FFDF3E"/>
<stop offset="0.71" stop-color="#F5D146"/>
</linearGradient>
<linearGradient id="paint46_linear_1056_67325" x1="275.182" y1="108.943" x2="275.182" y2="96.0801" gradientUnits="userSpaceOnUse">
<stop stop-color="#DDB736"/>
<stop offset="0.54" stop-color="#F5D146"/>
<stop offset="1" stop-color="#FFF03E"/>
</linearGradient>
<linearGradient id="paint47_linear_1056_67325" x1="272.794" y1="109.103" x2="283.823" y2="109.103" gradientUnits="userSpaceOnUse">
<stop stop-color="#D8AF34"/>
<stop offset="0.96" stop-color="#CC992F"/>
</linearGradient>
<linearGradient id="paint48_linear_1056_67325" x1="268.313" y1="27.4523" x2="269.985" y2="31.0152" gradientUnits="userSpaceOnUse">
<stop stop-color="#FFDF3E"/>
<stop offset="0.71" stop-color="#F5D146"/>
</linearGradient>
<linearGradient id="paint49_linear_1056_67325" x1="324.723" y1="91.4659" x2="326.395" y2="95.0312" gradientUnits="userSpaceOnUse">
<stop stop-color="#FFDF3E"/>
<stop offset="0.71" stop-color="#F5D146"/>
</linearGradient>
<linearGradient id="paint50_linear_1056_67325" x1="261.999" y1="112.605" x2="263.671" y2="116.168" gradientUnits="userSpaceOnUse">
<stop stop-color="#FFDF3E"/>
<stop offset="0.71" stop-color="#F5D146"/>
</linearGradient>
<clipPath id="clip0_1056_67325">
<rect x="0.666504" width="342.667" height="132" rx="12" fill="white"/>
</clipPath>
</defs>
</svg>
