<svg width="508" height="319" viewBox="0 0 508 319" fill="none" xmlns="http://www.w3.org/2000/svg">
<path d="M39.0546 131.142C31.0546 137.672 44.1455 194.985 44.1455 194.985C44.1455 194.985 47.0546 282.407 53.2364 286.397C59.4183 290.387 73.2365 286.034 78.691 285.308C84.1455 284.583 79.4183 230.534 71.4183 210.583C63.4183 190.632 69.6001 161.613 69.6001 161.613L112.873 169.956C112.873 169.956 86.691 192.083 87.7819 196.799C88.8729 201.515 116.873 217.475 121.964 218.201C127.055 218.926 136.873 189.181 145.6 168.868C154.328 148.554 85.9638 135.495 85.9638 135.495L76.5092 117.721C76.5092 117.721 47.0546 124.613 39.0546 131.142Z" fill="#2F2E41"/>
<path d="M60.7726 287.904C60.7726 287.904 58.1339 297.117 60.7726 297.117C63.4114 297.117 68.2491 299.749 75.7256 298.871C83.202 297.994 81.003 288.781 75.7256 287.465C70.4481 286.149 71.7674 275.62 71.7674 275.62C70.0083 272.11 61.6522 276.497 61.6522 276.497L60.7726 287.904Z" fill="#2F2E41"/>
<path d="M98.2353 214.64C98.2353 214.64 93.7082 223.091 96.2876 223.646C98.867 224.201 103.039 227.792 110.533 228.507C118.027 229.222 117.825 219.754 112.945 217.357C108.064 214.96 111.58 204.945 111.58 204.945C110.602 201.144 101.506 203.675 101.506 203.675L98.2353 214.64Z" fill="#2F2E41"/>
<path d="M43.9637 52.6087C44.6909 54.0597 41.4182 72.1969 41.4182 72.1969L44.3273 77.2753C44.3273 77.2753 61.0546 70.7459 58.5092 69.6577C55.9637 68.5694 56.3273 55.1479 56.3273 55.1479C56.3273 55.1479 43.2364 51.1577 43.9637 52.6087Z" fill="#FFB9B9"/>
<path d="M50.2595 58.2002C62.5732 58.2002 72.5554 48.2425 72.5554 35.959C72.5554 23.6755 62.5732 13.7178 50.2595 13.7178C37.9457 13.7178 27.9635 23.6755 27.9635 35.959C27.9635 48.2425 37.9457 58.2002 50.2595 58.2002Z" fill="#2F2E41"/>
<path d="M48.7218 24.3411C53.8171 24.3411 57.9477 20.2206 57.9477 15.1378C57.9477 10.055 53.8171 5.93457 48.7218 5.93457C43.6264 5.93457 39.4958 10.055 39.4958 15.1378C39.4958 20.2206 43.6264 24.3411 48.7218 24.3411Z" fill="#2F2E41"/>
<path d="M52.7581 19.306C53.0773 19.3391 53.3981 19.3557 53.7191 19.3558C54.9307 19.3558 56.1304 19.1177 57.2497 18.6552C58.369 18.1927 59.3861 17.5148 60.2428 16.6602C61.0995 15.8056 61.7791 14.791 62.2427 13.6744C62.7064 12.5578 62.945 11.3611 62.945 10.1525C62.945 8.9439 62.7064 7.74714 62.2427 6.63055C61.7791 5.51396 61.0995 4.4994 60.2428 3.64479C59.3861 2.79019 58.369 2.11228 57.2497 1.64978C56.1304 1.18727 54.9307 0.949219 53.7191 0.949219C53.3981 0.949301 53.0773 0.965909 52.7581 0.998977C55.0261 1.23603 57.1259 2.30262 58.6521 3.99295C60.1783 5.68329 61.0229 7.87758 61.0229 10.1525C61.0229 12.4274 60.1783 14.6217 58.6521 16.312C57.1259 18.0024 55.0261 19.069 52.7581 19.306Z" fill="#2F2E41"/>
<path d="M50.8726 62.0398C59.3075 62.0398 66.1453 55.2188 66.1453 46.8046C66.1453 38.3904 59.3075 31.5693 50.8726 31.5693C42.4377 31.5693 35.5999 38.3904 35.5999 46.8046C35.5999 55.2188 42.4377 62.0398 50.8726 62.0398Z" fill="#FFB9B9"/>
<path d="M28.8726 70.2019C24.1453 71.2901 16.1453 82.898 16.1453 82.898L28.8726 95.594C28.8726 95.594 37.9635 129.692 39.0544 131.143C46.2013 140.649 78.3272 119.535 78.3272 119.535C78.3272 119.535 77.0544 109.197 77.7817 104.119C78.4812 99.2342 75.0545 89.4274 75.0545 89.4274C75.0545 89.4274 87.0545 84.349 84.509 79.2706C81.9636 74.1921 66.3272 62.5843 59.7817 66.5745C53.2363 70.5647 40.1454 66.5745 40.1454 66.5745C40.1454 66.5745 33.5999 69.1137 28.8726 70.2019Z" fill="#6092FF"/>
<path d="M121.782 143.296C121.782 143.296 142.509 161.07 147.6 157.443C152.691 153.815 127.964 141.119 127.964 141.119L121.782 143.296Z" fill="#FFB9B9"/>
<path d="M28.6908 137.128C31.5999 140.392 45.4182 132.049 43.6466 128.344C41.875 124.639 30.8726 132.049 30.8726 132.049C30.8726 132.049 25.7817 133.863 28.6908 137.128Z" fill="#FFB9B9"/>
<path d="M28.8727 87.9758L13.6 116.27C13.6 116.27 31.0545 130.78 33.2363 131.142C35.4181 131.505 28.8727 140.936 28.8727 140.936C28.8727 140.936 9.23629 127.152 1.59992 120.26C-6.03646 113.368 16.1454 82.8974 16.1454 82.8974L22.6909 78.9072L28.8727 87.9758Z" fill="#6092FF"/>
<path d="M73.2363 86.8884L91.0545 114.457C91.0545 114.457 118.327 144.927 121.964 146.378C125.6 147.829 129.964 140.937 129.964 140.937L97.2364 101.398L84.8727 79.2707L80.1455 77.457L73.2363 86.8884Z" fill="#6092FF"/>
<path d="M50.2596 37.9075C58.7518 37.9075 65.6361 33.7871 65.6361 28.7042C65.6361 23.6214 58.7518 19.501 50.2596 19.501C41.7674 19.501 34.8831 23.6214 34.8831 28.7042C34.8831 33.7871 41.7674 37.9075 50.2596 37.9075Z" fill="#2F2E41"/>
<g filter="url(#filter0_dd_1155_79696)">
<rect x="125.253" y="36.0195" width="331.919" height="68.609" rx="7.41719" fill="#151822" shape-rendering="crispEdges"/>
<g clip-path="url(#clip0_1155_79696)">
<path d="M150.922 54.9645C149.683 59.9314 144.653 62.9542 139.685 61.7156C134.72 60.4773 131.697 55.4463 132.936 50.4798C134.174 45.5124 139.204 42.4894 144.17 43.7276C149.137 44.9659 152.16 49.9974 150.922 54.9646L150.922 54.9645H150.922Z" fill="#F7931A"/>
<path d="M146.03 51.3865C146.214 50.1527 145.275 49.4894 143.991 49.047L144.407 47.3757L143.39 47.1221L142.984 48.7495C142.717 48.6828 142.442 48.6199 142.169 48.5576L142.578 46.9195L141.561 46.666L141.144 48.3368C140.923 48.2864 140.705 48.2366 140.494 48.1841L140.495 48.1789L139.092 47.8285L138.822 48.9152C138.822 48.9152 139.577 49.0882 139.561 49.0988C139.973 49.2017 140.047 49.4744 140.035 49.6906L139.56 51.5946C139.589 51.6018 139.625 51.6122 139.666 51.6285C139.632 51.6201 139.596 51.6109 139.558 51.6019L138.893 54.2692C138.843 54.3944 138.715 54.5822 138.427 54.5109C138.437 54.5257 137.687 54.3264 137.687 54.3264L137.182 55.491L138.506 55.821C138.753 55.8828 138.994 55.9474 139.232 56.0082L138.811 57.6987L139.827 57.9522L140.244 56.2796C140.521 56.355 140.791 56.4245 141.055 56.49L140.639 58.1547L141.657 58.4082L142.078 56.7209C143.812 57.0492 145.117 56.9169 145.666 55.3477C146.108 54.0843 145.644 53.3556 144.731 52.8804C145.396 52.727 145.897 52.2898 146.03 51.3866L146.03 51.3864L146.03 51.3865ZM143.705 54.646C143.391 55.9094 141.264 55.2265 140.574 55.0552L141.133 52.8156C141.822 52.9878 144.034 53.3285 143.705 54.646H143.705ZM144.02 51.3682C143.733 52.5174 141.963 51.9335 141.388 51.7904L141.895 49.7592C142.469 49.9023 144.319 50.1695 144.02 51.3682H144.02Z" fill="white"/>
</g>
<path d="M159.422 46.622V55.708H163.653C164.549 55.708 165.25 55.4873 165.756 55.033C166.262 54.5917 166.522 53.9946 166.522 53.2548C166.522 52.1515 165.977 51.4246 164.9 51.0482C165.302 50.8794 165.613 50.6068 165.847 50.2304C166.068 49.867 166.185 49.4516 166.185 48.9713C166.185 48.2834 165.938 47.7123 165.445 47.271C164.951 46.8426 164.289 46.622 163.446 46.622H159.422ZM163.524 51.6712C164.004 51.6712 164.406 51.788 164.705 52.0217C165.003 52.2683 165.159 52.6058 165.159 53.0601C165.159 53.5144 165.016 53.8648 164.731 54.1115C164.445 54.3711 164.056 54.5009 163.563 54.5009H160.72V51.6712H163.524ZM163.407 47.8291C163.861 47.8291 164.225 47.9589 164.497 48.2055C164.77 48.4521 164.9 48.7766 164.9 49.179C164.9 49.5944 164.757 49.9319 164.484 50.1915C164.199 50.4511 163.822 50.5809 163.355 50.5809H160.72V47.8291H163.407ZM167.412 47.868H170.436V55.708H171.773V47.868H174.694V46.622H167.412V47.868ZM176.965 47.8551C176.069 48.7637 175.615 49.854 175.615 51.139C175.615 52.424 176.056 53.5144 176.952 54.41C177.847 55.3186 178.925 55.7729 180.21 55.7729C181.144 55.7729 181.975 55.5133 182.715 55.0071C183.442 54.5009 183.987 53.8259 184.337 52.9952L183.039 52.6447C182.78 53.2158 182.403 53.6701 181.923 53.9946C181.43 54.3191 180.859 54.4879 180.21 54.4879C179.275 54.4879 178.496 54.1634 177.886 53.5144C177.263 52.8654 176.952 52.0736 176.952 51.139C176.952 50.1915 177.263 49.3867 177.873 48.7377C178.483 48.1017 179.249 47.7772 180.171 47.7772C180.184 47.7772 180.197 47.7772 180.21 47.7772C180.846 47.7772 181.417 47.9459 181.923 48.2834C182.429 48.6339 182.806 49.0882 183.065 49.6593L184.35 49.2958C183.987 48.4521 183.442 47.7772 182.702 47.258C181.962 46.7518 181.131 46.4922 180.21 46.4922C178.938 46.4922 177.86 46.9465 176.965 47.8551Z" fill="white"/>
<path d="M187.318 55.708L190.705 46.622H189.433L186.045 55.708H187.318Z" fill="white"/>
<path d="M191.82 52.0217C191.82 53.1769 192.183 54.0985 192.923 54.7864C193.65 55.4744 194.533 55.8118 195.584 55.8118C196.635 55.8118 197.531 55.4614 198.258 54.7734C198.985 54.0855 199.348 53.1639 199.348 52.0217V46.6349H198.011V52.0217C198.011 52.8005 197.765 53.4105 197.284 53.8648C196.804 54.3191 196.233 54.5398 195.584 54.5398C194.935 54.5398 194.377 54.3191 193.897 53.8648C193.416 53.4105 193.17 52.8005 193.17 52.0217V46.6349H191.82V52.0217ZM201.626 47.219C200.951 47.6993 200.613 48.3223 200.613 49.1011C200.613 49.7372 200.86 50.2564 201.366 50.6458C201.859 51.0482 202.638 51.3597 203.703 51.6063C204.65 51.827 205.312 52.0736 205.702 52.3202C206.091 52.5798 206.286 52.8913 206.286 53.2678C206.286 53.6831 206.091 53.9946 205.702 54.2153C205.312 54.436 204.832 54.5528 204.274 54.5528C203.015 54.5528 201.834 54.0466 200.717 53.0341V54.4489C201.704 55.3446 202.859 55.7989 204.196 55.8118C204.235 55.8118 204.261 55.8118 204.3 55.8118C205.195 55.8118 205.961 55.5912 206.623 55.1499C207.285 54.7215 207.61 54.0985 207.61 53.2807C207.61 53.2678 207.61 53.2678 207.61 53.2548C207.61 52.6447 207.389 52.1125 206.935 51.6582C206.48 51.2039 205.715 50.8535 204.624 50.5939C204.274 50.516 204.04 50.4641 203.91 50.4251C203.768 50.3862 203.573 50.3343 203.3 50.2564C203.028 50.1785 202.833 50.1136 202.716 50.0487C202.599 49.9838 202.47 49.9059 202.327 49.8151C202.184 49.7242 202.08 49.6074 202.028 49.4905C201.963 49.3737 201.937 49.2439 201.937 49.1011C201.937 48.6858 202.145 48.3613 202.573 48.1147C202.989 47.881 203.469 47.7642 204.027 47.7642C204.585 47.7642 205.143 47.881 205.728 48.1017C206.312 48.3223 206.831 48.6209 207.311 48.9843V47.5695C206.351 46.8686 205.26 46.5181 204.027 46.5181C203.106 46.5181 202.301 46.7518 201.626 47.219ZM211.896 55.721C213.207 55.721 214.31 55.2797 215.205 54.41C216.101 53.5403 216.542 52.476 216.542 51.2039C216.542 51.1909 216.542 51.178 216.542 51.165C216.542 49.88 216.101 48.7896 215.205 47.92C214.31 47.0503 213.207 46.609 211.896 46.609H208.767V55.721H211.896ZM210.117 47.868H211.896C212.869 47.868 213.661 48.1796 214.284 48.7896C214.907 49.4127 215.218 50.2045 215.218 51.165C215.218 52.1125 214.907 52.8913 214.297 53.5144C213.674 54.1504 212.869 54.4619 211.896 54.4619H210.117V47.868ZM217.482 47.868H220.506V55.708H221.843V47.868H224.764V46.622H217.482V47.868Z" fill="#AAACB7"/>
<path d="M133.301 83.7526L132.67 83.888V97.2115H223.53V78.8731L222.9 76.8444C222.269 74.8158 221.007 70.7586 219.745 70.0798C218.483 69.401 217.221 72.1007 215.959 73.8554C214.697 75.6101 213.435 76.4198 212.173 78.3464C210.911 80.273 209.649 83.3165 208.387 81.2875C207.125 79.2585 205.863 72.157 204.601 68.6406C203.339 65.1243 202.077 65.193 200.815 66.5592C199.553 67.9254 198.291 70.589 197.029 74.9773C195.768 79.3657 194.506 85.4788 193.244 86.7356C191.982 87.9924 190.72 84.3929 189.458 84.5529C188.196 84.7128 186.934 88.6322 185.672 89.6392C184.41 90.6462 183.148 88.7407 181.886 89.2227C180.624 89.7047 179.362 92.574 178.1 90.1048C176.838 87.6356 175.576 79.8279 174.314 77.6768C173.052 75.5258 171.79 79.0314 170.528 82.9828C169.267 86.9342 168.005 91.3313 166.743 93.1013C165.481 94.8712 164.219 94.0141 162.957 91.9531C161.695 89.8922 160.433 86.6274 159.171 86.3098C157.909 85.9922 156.647 88.6218 155.385 89.6671C154.123 90.7125 152.861 90.1736 151.599 87.3657C150.337 84.5577 149.075 79.4807 147.813 77.0496C146.551 74.6185 145.289 74.8335 144.027 76.2002C142.766 77.5669 141.504 80.0854 140.242 81.4233C138.98 82.7611 137.718 82.9183 136.456 83.1323C135.194 83.3463 133.932 83.6171 133.301 83.7526Z" fill="url(#paint0_linear_1155_79696)"/>
<path d="M132.67 83.888L133.301 83.7526C133.932 83.6171 135.194 83.3463 136.456 83.1323C137.718 82.9183 138.98 82.7611 140.242 81.4233C141.504 80.0854 142.766 77.5669 144.027 76.2002C145.289 74.8335 146.551 74.6185 147.813 77.0496C149.075 79.4807 150.337 84.5577 151.599 87.3657C152.861 90.1736 154.123 90.7125 155.385 89.6671C156.647 88.6218 157.909 85.9922 159.171 86.3098C160.433 86.6274 161.695 89.8922 162.957 91.9531C164.219 94.0141 165.481 94.8712 166.743 93.1013C168.005 91.3313 169.267 86.9342 170.528 82.9828C171.79 79.0314 173.052 75.5258 174.314 77.6768C175.576 79.8279 176.838 87.6356 178.1 90.1048C179.362 92.574 180.624 89.7047 181.886 89.2227C183.148 88.7407 184.41 90.6462 185.672 89.6392C186.934 88.6322 188.196 84.7128 189.458 84.5529C190.72 84.3929 191.982 87.9924 193.244 86.7356C194.506 85.4788 195.768 79.3657 197.029 74.9773C198.291 70.589 199.553 67.9254 200.815 66.5592C202.077 65.193 203.339 65.1243 204.601 68.6406C205.863 72.157 207.125 79.2585 208.387 81.2875C209.649 83.3165 210.911 80.273 212.173 78.3464C213.435 76.4198 214.697 75.6101 215.959 73.8554C217.221 72.1007 218.483 69.401 219.745 70.0798C221.007 70.7586 222.269 74.8158 222.9 76.8444L223.53 78.8731" stroke="#34C76C" stroke-width="0.927149" stroke-linecap="round"/>
<rect x="267.616" y="49.9268" width="64.9004" height="18.543" rx="9.27149" fill="#6775A1" fill-opacity="0.28"/>
<path d="M281.578 80.5775L276.888 75.8877L272.198 80.5775M276.888 86.6278V76.019" stroke="#34C76C" stroke-width="1.39072" stroke-miterlimit="10" stroke-linecap="round" stroke-linejoin="round"/>
<path d="M286.873 80.2576V81.2701H289.21V83.5286L290.209 83.5156V81.2571H292.533V80.2576H290.209V77.9991H289.21V80.2576H286.873ZM297.348 84.4502V75.3641H293.675V76.4155H296.245V84.4502H297.348ZM298.826 83.1911C298.671 83.3469 298.593 83.5416 298.593 83.7623C298.593 83.9829 298.671 84.1646 298.826 84.3204C298.982 84.4762 299.164 84.554 299.385 84.554C299.605 84.554 299.8 84.4762 299.956 84.3204C300.111 84.1776 300.189 83.9829 300.189 83.7623C300.189 83.5416 300.111 83.3469 299.956 83.1911C299.8 83.0354 299.605 82.9575 299.385 82.9575C299.164 82.9575 298.969 83.0354 298.826 83.1911ZM302.4 78.1029C302.452 77.5578 302.66 77.1165 303.01 76.766C303.361 76.4155 303.802 76.2468 304.347 76.2468C304.866 76.2468 305.295 76.4025 305.632 76.7141C305.97 77.0256 306.139 77.428 306.139 77.9082C306.139 77.9212 306.139 77.9342 306.139 77.9472C306.126 78.1549 306.074 78.3625 305.983 78.5832C305.879 78.8039 305.775 78.9726 305.671 79.1154C305.554 79.2582 305.412 79.4269 305.217 79.6476L301.505 83.6844V84.4502H307.372L307.385 83.3858H303.205L306.022 80.3095C306.45 79.8552 306.762 79.4399 306.956 79.0764C307.151 78.713 307.242 78.3236 307.242 77.9212C307.242 77.0775 306.956 76.4155 306.398 75.9482C305.827 75.481 305.139 75.2473 304.347 75.2473C303.517 75.2473 302.816 75.4939 302.244 76.0002C301.66 76.5064 301.349 77.2073 301.297 78.1029H302.4ZM308.519 82.594L313.126 82.5811V84.4502H314.23V82.5811H315.606V81.6076H314.23V75.3641H312.361L308.519 81.7374V82.594ZM313.126 76.0651V81.6076L309.713 81.6205L313.126 76.0651ZM320.928 82.7238C320.928 83.2301 321.11 83.6714 321.473 84.0348C321.836 84.4113 322.278 84.593 322.797 84.593C323.303 84.593 323.744 84.4113 324.121 84.0348C324.484 83.6714 324.666 83.2301 324.666 82.7238C324.666 82.2046 324.484 81.7633 324.121 81.3999C323.744 81.0364 323.303 80.8547 322.797 80.8547C322.291 80.8547 321.849 81.0364 321.486 81.3999C321.11 81.7633 320.928 82.2046 320.928 82.7238ZM317.306 75.7535C316.93 76.117 316.748 76.5583 316.748 77.0775C316.748 77.5837 316.93 78.0251 317.293 78.3885C317.657 78.7519 318.098 78.9337 318.617 78.9337C319.124 78.9337 319.565 78.7519 319.941 78.3885C320.305 78.0251 320.486 77.5837 320.486 77.0775C320.486 76.5583 320.305 76.117 319.941 75.7535C319.565 75.3901 319.124 75.2084 318.617 75.2084C318.111 75.2084 317.67 75.3901 317.306 75.7535ZM317.955 84.4502L324.653 75.3641H323.744L317.047 84.4502H317.955ZM317.488 77.0775C317.488 76.753 317.592 76.4804 317.813 76.2598C318.033 76.0391 318.293 75.9353 318.617 75.9353C318.942 75.9353 319.201 76.0391 319.422 76.2598C319.63 76.4804 319.734 76.753 319.734 77.0775C319.734 77.389 319.63 77.6486 319.409 77.8693C319.188 78.09 318.929 78.1938 318.617 78.1938C318.306 78.1938 318.046 78.09 317.826 77.8693C317.605 77.6486 317.488 77.389 317.488 77.0775ZM322.005 83.5286C321.784 83.3079 321.681 83.0483 321.681 82.7368C321.681 82.4123 321.784 82.1397 322.005 81.9191C322.213 81.6984 322.472 81.5946 322.797 81.5946C323.121 81.5946 323.381 81.6984 323.602 81.9191C323.822 82.1397 323.926 82.4123 323.926 82.7368C323.926 83.0483 323.822 83.3079 323.602 83.5286C323.381 83.7493 323.108 83.8531 322.797 83.8531C322.485 83.8531 322.226 83.7493 322.005 83.5286Z" fill="#34C76C"/>
<rect x="374.503" y="57.7607" width="75.2516" height="25.1258" rx="7.41719" fill="#6775A1" fill-opacity="0.28"/>
<path d="M386.352 65.5362V73.3242H387.509V65.5362H386.352ZM386.408 63.4556C386.263 63.6003 386.185 63.7783 386.185 63.9897C386.185 64.2011 386.263 64.368 386.408 64.5126C386.552 64.6572 386.719 64.7351 386.931 64.7351C387.142 64.7351 387.32 64.6572 387.465 64.5126C387.609 64.368 387.687 64.2011 387.687 63.9897C387.687 63.7783 387.609 63.6003 387.465 63.4556C387.32 63.311 387.142 63.2443 386.931 63.2443C386.719 63.2443 386.552 63.311 386.408 63.4556ZM388.682 69.0742C388.682 69.5303 388.86 69.8864 389.216 70.1422C389.56 70.3981 390.117 70.6095 390.862 70.7542C391.919 70.9544 392.453 71.2659 392.453 71.6887C392.453 71.9112 392.342 72.0893 392.108 72.2228C391.875 72.3674 391.585 72.4342 391.252 72.4342C390.807 72.4342 390.35 72.334 389.883 72.1226C389.405 71.9112 389.038 71.6887 388.782 71.4328V72.601C389.438 73.0572 390.139 73.3131 390.873 73.391L390.651 74.0696C390.862 74.0919 391.096 74.1475 391.352 74.2254C391.608 74.3033 391.73 74.4257 391.73 74.5703C391.73 74.7372 391.608 74.8373 391.363 74.8707C391.107 74.9041 390.907 74.9263 390.74 74.9263C390.551 74.9263 390.362 74.9152 390.172 74.8818V75.6273C390.317 75.6606 390.506 75.6718 390.751 75.6718C390.996 75.6718 391.263 75.6495 391.552 75.605C391.83 75.5716 392.075 75.4715 392.286 75.3269C392.498 75.1822 392.598 74.982 392.598 74.7483C392.598 74.5258 392.509 74.3255 392.331 74.1587C392.142 73.9918 391.975 73.8694 391.808 73.8138C391.641 73.7581 391.485 73.7025 391.318 73.6691L391.418 73.4132C392.03 73.391 392.542 73.2352 392.965 72.9459C393.388 72.6678 393.599 72.245 393.599 71.6999C393.588 71.2659 393.432 70.9099 393.121 70.6095C392.798 70.3203 392.297 70.0977 391.596 69.9309C391.519 69.9197 391.418 69.8975 391.285 69.8641C391.029 69.8085 390.829 69.764 390.695 69.7306C390.551 69.6972 390.406 69.6416 390.261 69.5748C390.106 69.5192 389.994 69.4413 389.928 69.3634C389.861 69.2856 389.827 69.1854 389.827 69.063C389.827 68.8294 389.95 68.6403 390.184 68.4956C390.417 68.351 390.718 68.2842 391.074 68.2842C391.752 68.2842 392.52 68.5401 393.365 69.063V67.9838C392.709 67.5499 391.941 67.3274 391.074 67.3274C390.395 67.3274 389.827 67.4832 389.371 67.7947C388.915 68.1062 388.682 68.529 388.682 69.0742ZM395.666 73.3242V65.5362H394.553V73.3242H395.666ZM397.622 68.2175C397.033 68.8072 396.732 69.5303 396.732 70.3759C396.732 71.2103 397.022 71.9335 397.611 72.5232C398.19 73.1128 398.902 73.4132 399.758 73.4132C400.326 73.4132 400.871 73.2686 401.383 72.9793C401.895 72.69 402.273 72.3118 402.507 71.8334L401.516 71.5775C401.316 71.8334 401.06 72.0448 400.749 72.1894C400.426 72.3451 400.103 72.423 399.758 72.423C399.258 72.423 398.835 72.2673 398.479 71.9669C398.112 71.6665 397.9 71.2771 397.834 70.7764H402.729C402.762 70.654 402.774 70.5316 402.774 70.3981C402.774 70.2424 402.751 70.0755 402.718 69.8975C402.607 69.1743 402.273 68.5624 401.717 68.0617C401.149 67.5722 400.504 67.3274 399.758 67.3274C398.924 67.3274 398.212 67.6278 397.622 68.2175ZM397.834 69.9197C397.9 69.4636 398.112 69.0853 398.468 68.7738C398.824 68.4734 399.247 68.3176 399.747 68.3176C400.237 68.3176 400.66 68.4734 401.005 68.7738C401.349 69.0853 401.561 69.4636 401.639 69.9197H397.834ZM403.821 73.3242H404.934V70.1422C404.934 69.6416 405.067 69.2077 405.323 68.8628C405.579 68.5179 405.957 68.3399 406.436 68.3399C406.836 68.3399 407.159 68.4845 407.392 68.7849C407.626 69.0853 407.737 69.4969 407.737 70.0199V73.3242H408.85V69.9865C408.872 69.5303 409.017 69.1409 409.273 68.8183C409.528 68.4956 409.896 68.3399 410.352 68.3399C410.763 68.3399 411.075 68.4845 411.309 68.7849C411.542 69.0853 411.654 69.4969 411.654 70.0199V73.3242H412.766V69.7306C412.766 68.9852 412.555 68.4066 412.121 67.9727C411.687 67.5388 411.175 67.3274 410.563 67.3274C410.14 67.3274 409.751 67.4387 409.384 67.6501C409.017 67.8615 408.739 68.1619 408.538 68.5401C408.349 68.1507 408.093 67.8503 407.759 67.6389C407.426 67.4276 407.059 67.3274 406.647 67.3274C405.901 67.3274 405.334 67.6501 404.934 68.2954V67.4276H403.821V73.3242ZM419.449 70.7875V73.3242H420.606V70.7653L423.398 65.5362H422.163L420.016 69.4969L417.869 65.5362H416.634L419.449 70.7875ZM425.002 68.2064C424.423 68.796 424.134 69.5192 424.134 70.3759C424.134 71.2103 424.423 71.9224 425.002 72.512C425.569 73.1128 426.27 73.4132 427.082 73.4132C427.516 73.4132 427.905 73.3242 428.262 73.1351C428.606 72.9571 428.896 72.7123 429.118 72.3897V73.3242H430.231V67.4276H429.118V68.3621C428.629 67.6723 427.95 67.3274 427.082 67.3274C426.27 67.3274 425.569 67.6167 425.002 68.2064ZM425.18 70.3759C425.18 69.8085 425.369 69.3301 425.758 68.9295C426.148 68.5401 426.615 68.3399 427.182 68.3399C427.727 68.3399 428.206 68.5401 428.595 68.9407C428.985 69.3412 429.185 69.8196 429.185 70.3759C429.185 70.921 428.985 71.3995 428.595 71.8C428.206 72.2005 427.727 72.4008 427.182 72.4008C426.626 72.4008 426.159 72.2005 425.769 71.8C425.38 71.4106 425.18 70.9322 425.18 70.3759ZM431.461 75.6606H432.573V72.3897C432.796 72.7123 433.085 72.9571 433.441 73.1351C433.786 73.3242 434.175 73.4132 434.609 73.4132C435.422 73.4132 436.122 73.1128 436.701 72.5232C437.268 71.9335 437.558 71.2214 437.558 70.3759C437.558 69.5415 437.268 68.8294 436.69 68.2286C436.111 67.6389 435.422 67.3385 434.609 67.3385C433.73 67.3385 433.052 67.6723 432.573 68.351V67.4276H431.461V75.6606ZM432.507 70.3759C432.507 69.8196 432.707 69.3412 433.096 68.9407C433.486 68.5401 433.964 68.3399 434.509 68.3399C435.077 68.3399 435.544 68.5401 435.933 68.9295C436.323 69.3301 436.512 69.8085 436.512 70.3759C436.512 70.9322 436.323 71.4106 435.933 71.8111C435.544 72.2116 435.066 72.4119 434.509 72.4119C433.953 72.4119 433.486 72.2116 433.096 71.8111C432.707 71.4106 432.507 70.9322 432.507 70.3759Z" fill="white"/>
</g>
<g filter="url(#filter1_dd_1155_79696)">
<rect x="164.081" y="131.177" width="331.919" height="68.609" rx="7.41719" fill="#151822" shape-rendering="crispEdges"/>
<g clip-path="url(#clip1_1155_79696)">
<path d="M189.75 150.122C188.511 155.089 183.481 158.111 178.513 156.873C173.548 155.635 170.525 150.604 171.764 145.637C173.001 140.67 178.032 137.647 182.998 138.885C187.965 140.123 190.988 145.155 189.749 150.122L189.75 150.122H189.75Z" fill="#F7931A"/>
<path d="M184.858 146.544C185.042 145.31 184.103 144.647 182.818 144.204L183.235 142.533L182.218 142.279L181.812 143.907C181.545 143.84 181.27 143.777 180.997 143.715L181.406 142.077L180.389 141.823L179.972 143.494C179.75 143.444 179.533 143.394 179.322 143.341L179.323 143.336L177.92 142.986L177.65 144.072C177.65 144.072 178.405 144.245 178.389 144.256C178.801 144.359 178.875 144.632 178.863 144.848L178.388 146.752C178.416 146.759 178.453 146.769 178.494 146.786C178.46 146.777 178.424 146.768 178.386 146.759L177.721 149.426C177.671 149.552 177.543 149.739 177.255 149.668C177.265 149.683 176.515 149.484 176.515 149.484L176.01 150.648L177.334 150.978C177.581 151.04 177.822 151.105 178.06 151.165L177.639 152.856L178.655 153.109L179.072 151.437C179.349 151.512 179.619 151.582 179.883 151.647L179.467 153.312L180.484 153.565L180.905 151.878C182.64 152.206 183.945 152.074 184.494 150.505C184.936 149.242 184.472 148.513 183.559 148.038C184.224 147.884 184.725 147.447 184.858 146.544L184.858 146.544L184.858 146.544ZM182.533 149.803C182.219 151.067 180.092 150.384 179.402 150.212L179.961 147.973C180.65 148.145 182.862 148.486 182.533 149.803H182.533ZM182.848 146.525C182.561 147.675 180.791 147.091 180.216 146.948L180.723 144.916C181.297 145.06 183.147 145.327 182.848 146.525H182.848Z" fill="white"/>
</g>
<path d="M198.25 141.779V150.865H202.481C203.377 150.865 204.078 150.645 204.584 150.19C205.09 149.749 205.35 149.152 205.35 148.412C205.35 147.309 204.805 146.582 203.727 146.205C204.13 146.037 204.441 145.764 204.675 145.388C204.896 145.024 205.012 144.609 205.012 144.129C205.012 143.441 204.766 142.87 204.273 142.428C203.779 142 203.117 141.779 202.274 141.779H198.25ZM202.351 146.828C202.832 146.828 203.234 146.945 203.533 147.179C203.831 147.426 203.987 147.763 203.987 148.217C203.987 148.672 203.844 149.022 203.559 149.269C203.273 149.528 202.884 149.658 202.39 149.658H199.548V146.828H202.351ZM202.235 142.986C202.689 142.986 203.052 143.116 203.325 143.363C203.598 143.609 203.727 143.934 203.727 144.336C203.727 144.752 203.585 145.089 203.312 145.349C203.026 145.608 202.65 145.738 202.183 145.738H199.548V142.986H202.235ZM206.24 143.025H209.264V150.865H210.601V143.025H213.522V141.779H206.24V143.025ZM215.792 143.012C214.897 143.921 214.443 145.011 214.443 146.296C214.443 147.581 214.884 148.672 215.779 149.567C216.675 150.476 217.752 150.93 219.037 150.93C219.972 150.93 220.803 150.671 221.543 150.164C222.27 149.658 222.815 148.983 223.165 148.152L221.867 147.802C221.608 148.373 221.231 148.827 220.751 149.152C220.258 149.476 219.686 149.645 219.037 149.645C218.103 149.645 217.324 149.321 216.714 148.672C216.091 148.023 215.779 147.231 215.779 146.296C215.779 145.349 216.091 144.544 216.701 143.895C217.311 143.259 218.077 142.934 218.999 142.934C219.012 142.934 219.025 142.934 219.037 142.934C219.674 142.934 220.245 143.103 220.751 143.441C221.257 143.791 221.634 144.245 221.893 144.817L223.178 144.453C222.815 143.609 222.27 142.934 221.53 142.415C220.79 141.909 219.959 141.649 219.037 141.649C217.765 141.649 216.688 142.104 215.792 143.012Z" fill="white"/>
<path d="M226.145 150.865L229.533 141.779H228.261L224.873 150.865H226.145Z" fill="white"/>
<path d="M230.648 147.179C230.648 148.334 231.011 149.256 231.751 149.944C232.478 150.632 233.36 150.969 234.412 150.969C235.463 150.969 236.359 150.619 237.086 149.931C237.813 149.243 238.176 148.321 238.176 147.179V141.792H236.839V147.179C236.839 147.958 236.592 148.568 236.112 149.022C235.632 149.476 235.061 149.697 234.412 149.697C233.763 149.697 233.205 149.476 232.724 149.022C232.244 148.568 231.998 147.958 231.998 147.179V141.792H230.648V147.179ZM240.454 142.376C239.779 142.857 239.441 143.48 239.441 144.258C239.441 144.894 239.688 145.414 240.194 145.803C240.687 146.205 241.466 146.517 242.531 146.764C243.478 146.984 244.14 147.231 244.529 147.477C244.919 147.737 245.114 148.049 245.114 148.425C245.114 148.84 244.919 149.152 244.529 149.373C244.14 149.593 243.66 149.71 243.102 149.71C241.843 149.71 240.661 149.204 239.545 148.191V149.606C240.532 150.502 241.687 150.956 243.024 150.969C243.063 150.969 243.089 150.969 243.128 150.969C244.023 150.969 244.789 150.748 245.451 150.307C246.113 149.879 246.438 149.256 246.438 148.438C246.438 148.425 246.438 148.425 246.438 148.412C246.438 147.802 246.217 147.27 245.763 146.815C245.308 146.361 244.542 146.011 243.452 145.751C243.102 145.673 242.868 145.621 242.738 145.582C242.595 145.543 242.401 145.491 242.128 145.414C241.856 145.336 241.661 145.271 241.544 145.206C241.427 145.141 241.297 145.063 241.155 144.972C241.012 144.881 240.908 144.765 240.856 144.648C240.791 144.531 240.765 144.401 240.765 144.258C240.765 143.843 240.973 143.519 241.401 143.272C241.817 143.038 242.297 142.921 242.855 142.921C243.413 142.921 243.971 143.038 244.555 143.259C245.14 143.48 245.659 143.778 246.139 144.142V142.727C245.178 142.026 244.088 141.675 242.855 141.675C241.933 141.675 241.129 141.909 240.454 142.376ZM250.723 150.878C252.034 150.878 253.138 150.437 254.033 149.567C254.929 148.698 255.37 147.633 255.37 146.361C255.37 146.348 255.37 146.335 255.37 146.322C255.37 145.037 254.929 143.947 254.033 143.077C253.138 142.208 252.034 141.766 250.723 141.766H247.595V150.878H250.723ZM248.945 143.025H250.723C251.697 143.025 252.489 143.337 253.112 143.947C253.735 144.57 254.046 145.362 254.046 146.322C254.046 147.27 253.735 148.049 253.125 148.672C252.502 149.308 251.697 149.619 250.723 149.619H248.945V143.025ZM256.31 143.025H259.334V150.865H260.671V143.025H263.592V141.779H256.31V143.025Z" fill="#AAACB7"/>
<path d="M172.129 178.91L171.498 179.045V192.369H262.358V174.03L261.727 172.002C261.096 169.973 259.834 165.916 258.573 165.237C257.311 164.558 256.049 167.258 254.787 169.013C253.525 170.767 252.263 171.577 251.001 173.504C249.739 175.43 248.477 178.474 247.215 176.445C245.953 174.416 244.691 167.314 243.429 163.798C242.167 160.281 240.905 160.35 239.643 161.716C238.381 163.083 237.119 165.746 235.857 170.135C234.595 174.523 233.333 180.636 232.072 181.893C230.81 183.15 229.548 179.55 228.286 179.71C227.024 179.87 225.762 183.789 224.5 184.796C223.238 185.803 221.976 183.898 220.714 184.38C219.452 184.862 218.19 187.731 216.928 185.262C215.666 182.793 214.404 174.985 213.142 172.834C211.88 170.683 210.618 174.189 209.356 178.14C208.094 182.091 206.832 186.489 205.571 188.258C204.309 190.028 203.047 189.171 201.785 187.11C200.523 185.049 199.261 181.785 197.999 181.467C196.737 181.149 195.475 183.779 194.213 184.824C192.951 185.87 191.689 185.331 190.427 182.523C189.165 179.715 187.903 174.638 186.641 172.207C185.379 169.776 184.117 169.991 182.855 171.357C181.593 172.724 180.331 175.243 179.07 176.58C177.808 177.918 176.546 178.075 175.284 178.29C174.022 178.504 172.76 178.774 172.129 178.91Z" fill="url(#paint1_linear_1155_79696)"/>
<path d="M171.498 179.045L172.129 178.91C172.76 178.774 174.022 178.504 175.284 178.29C176.546 178.075 177.808 177.918 179.07 176.58C180.331 175.243 181.593 172.724 182.855 171.357C184.117 169.991 185.379 169.776 186.641 172.207C187.903 174.638 189.165 179.715 190.427 182.523C191.689 185.331 192.951 185.87 194.213 184.824C195.475 183.779 196.737 181.149 197.999 181.467C199.261 181.785 200.523 185.049 201.785 187.11C203.047 189.171 204.309 190.028 205.571 188.258C206.832 186.489 208.094 182.091 209.356 178.14C210.618 174.189 211.88 170.683 213.142 172.834C214.404 174.985 215.666 182.793 216.928 185.262C218.19 187.731 219.452 184.862 220.714 184.38C221.976 183.898 223.238 185.803 224.5 184.796C225.762 183.789 227.024 179.87 228.286 179.71C229.548 179.55 230.81 183.15 232.072 181.893C233.333 180.636 234.595 174.523 235.857 170.135C237.119 165.746 238.381 163.083 239.643 161.716C240.905 160.35 242.167 160.281 243.429 163.798C244.691 167.314 245.953 174.416 247.215 176.445C248.477 178.474 249.739 175.43 251.001 173.504C252.263 171.577 253.525 170.767 254.787 169.013C256.049 167.258 257.311 164.558 258.573 165.237C259.834 165.916 261.096 169.973 261.727 172.002L262.358 174.03" stroke="#34C76C" stroke-width="0.927149" stroke-linecap="round"/>
<rect x="306.444" y="145.084" width="64.9004" height="18.543" rx="9.27149" fill="#6775A1" fill-opacity="0.28"/>
<path d="M320.406 175.735L315.716 171.045L311.026 175.735M315.716 181.785V171.176" stroke="#34C76C" stroke-width="1.39072" stroke-miterlimit="10" stroke-linecap="round" stroke-linejoin="round"/>
<path d="M325.701 175.415V176.427H328.038V178.686L329.037 178.673V176.414H331.361V175.415H329.037V173.156H328.038V175.415H325.701ZM336.176 179.607V170.521H332.503V171.573H335.073V179.607H336.176ZM337.654 178.348C337.498 178.504 337.421 178.699 337.421 178.919C337.421 179.14 337.498 179.322 337.654 179.478C337.81 179.633 337.992 179.711 338.212 179.711C338.433 179.711 338.628 179.633 338.784 179.478C338.939 179.335 339.017 179.14 339.017 178.919C339.017 178.699 338.939 178.504 338.784 178.348C338.628 178.193 338.433 178.115 338.212 178.115C337.992 178.115 337.797 178.193 337.654 178.348ZM341.228 173.26C341.28 172.715 341.488 172.274 341.838 171.923C342.189 171.573 342.63 171.404 343.175 171.404C343.694 171.404 344.123 171.56 344.46 171.871C344.798 172.183 344.966 172.585 344.966 173.065C344.966 173.078 344.966 173.091 344.966 173.104C344.953 173.312 344.901 173.52 344.811 173.74C344.707 173.961 344.603 174.13 344.499 174.273C344.382 174.415 344.24 174.584 344.045 174.805L340.332 178.842V179.607H346.199L346.212 178.543H342.033L344.85 175.467C345.278 175.012 345.589 174.597 345.784 174.234C345.979 173.87 346.07 173.481 346.07 173.078C346.07 172.235 345.784 171.573 345.226 171.105C344.655 170.638 343.967 170.405 343.175 170.405C342.344 170.405 341.643 170.651 341.072 171.157C340.488 171.664 340.177 172.365 340.125 173.26H341.228ZM347.346 177.751L351.954 177.738V179.607H353.058V177.738H354.434V176.765H353.058V170.521H351.189L347.346 176.895V177.751ZM351.954 171.222V176.765L348.541 176.778L351.954 171.222ZM359.756 177.881C359.756 178.387 359.937 178.829 360.301 179.192C360.664 179.568 361.106 179.75 361.625 179.75C362.131 179.75 362.572 179.568 362.949 179.192C363.312 178.829 363.494 178.387 363.494 177.881C363.494 177.362 363.312 176.921 362.949 176.557C362.572 176.194 362.131 176.012 361.625 176.012C361.119 176.012 360.677 176.194 360.314 176.557C359.937 176.921 359.756 177.362 359.756 177.881ZM356.134 170.911C355.758 171.274 355.576 171.716 355.576 172.235C355.576 172.741 355.758 173.182 356.121 173.546C356.485 173.909 356.926 174.091 357.445 174.091C357.951 174.091 358.393 173.909 358.769 173.546C359.133 173.182 359.314 172.741 359.314 172.235C359.314 171.716 359.133 171.274 358.769 170.911C358.393 170.547 357.951 170.366 357.445 170.366C356.939 170.366 356.498 170.547 356.134 170.911ZM356.783 179.607L363.481 170.521H362.572L355.875 179.607H356.783ZM356.316 172.235C356.316 171.91 356.42 171.638 356.64 171.417C356.861 171.196 357.121 171.092 357.445 171.092C357.77 171.092 358.029 171.196 358.25 171.417C358.458 171.638 358.561 171.91 358.561 172.235C358.561 172.546 358.458 172.806 358.237 173.027C358.016 173.247 357.757 173.351 357.445 173.351C357.134 173.351 356.874 173.247 356.653 173.027C356.433 172.806 356.316 172.546 356.316 172.235ZM360.833 178.686C360.612 178.465 360.509 178.206 360.509 177.894C360.509 177.57 360.612 177.297 360.833 177.076C361.041 176.856 361.3 176.752 361.625 176.752C361.949 176.752 362.209 176.856 362.43 177.076C362.65 177.297 362.754 177.57 362.754 177.894C362.754 178.206 362.65 178.465 362.43 178.686C362.209 178.906 361.936 179.01 361.625 179.01C361.313 179.01 361.054 178.906 360.833 178.686Z" fill="#34C76C"/>
<rect x="413.331" y="152.918" width="75.2516" height="25.1258" rx="7.41719" fill="#6775A1" fill-opacity="0.28"/>
<path d="M425.18 160.693V168.481H426.337V160.693H425.18ZM425.236 158.613C425.091 158.758 425.013 158.936 425.013 159.147C425.013 159.358 425.091 159.525 425.236 159.67C425.38 159.814 425.547 159.892 425.759 159.892C425.97 159.892 426.148 159.814 426.293 159.67C426.437 159.525 426.515 159.358 426.515 159.147C426.515 158.936 426.437 158.758 426.293 158.613C426.148 158.468 425.97 158.401 425.759 158.401C425.547 158.401 425.38 158.468 425.236 158.613ZM427.509 164.231C427.509 164.688 427.687 165.044 428.043 165.299C428.388 165.555 428.945 165.767 429.69 165.911C430.747 166.112 431.281 166.423 431.281 166.846C431.281 167.068 431.17 167.246 430.936 167.38C430.703 167.525 430.413 167.591 430.079 167.591C429.634 167.591 429.178 167.491 428.711 167.28C428.233 167.068 427.865 166.846 427.61 166.59V167.758C428.266 168.214 428.967 168.47 429.701 168.548L429.479 169.227C429.69 169.249 429.924 169.305 430.18 169.383C430.436 169.461 430.558 169.583 430.558 169.728C430.558 169.894 430.436 169.995 430.191 170.028C429.935 170.061 429.735 170.084 429.568 170.084C429.379 170.084 429.189 170.072 429 170.039V170.784C429.145 170.818 429.334 170.829 429.579 170.829C429.824 170.829 430.091 170.807 430.38 170.762C430.658 170.729 430.903 170.629 431.114 170.484C431.326 170.339 431.426 170.139 431.426 169.906C431.426 169.683 431.337 169.483 431.159 169.316C430.97 169.149 430.803 169.027 430.636 168.971C430.469 168.915 430.313 168.86 430.146 168.826L430.246 168.57C430.858 168.548 431.37 168.392 431.793 168.103C432.216 167.825 432.427 167.402 432.427 166.857C432.416 166.423 432.26 166.067 431.949 165.767C431.626 165.477 431.125 165.255 430.424 165.088C430.346 165.077 430.246 165.055 430.113 165.021C429.857 164.966 429.657 164.921 429.523 164.888C429.379 164.854 429.234 164.799 429.089 164.732C428.934 164.676 428.822 164.599 428.756 164.521C428.689 164.443 428.655 164.343 428.655 164.22C428.655 163.987 428.778 163.797 429.011 163.653C429.245 163.508 429.545 163.441 429.901 163.441C430.58 163.441 431.348 163.697 432.193 164.22V163.141C431.537 162.707 430.769 162.485 429.901 162.485C429.223 162.485 428.655 162.64 428.199 162.952C427.743 163.263 427.509 163.686 427.509 164.231ZM434.494 168.481V160.693H433.381V168.481H434.494ZM436.45 163.375C435.861 163.964 435.56 164.688 435.56 165.533C435.56 166.368 435.849 167.091 436.439 167.68C437.018 168.27 437.73 168.57 438.586 168.57C439.154 168.57 439.699 168.426 440.211 168.137C440.723 167.847 441.101 167.469 441.334 166.991L440.344 166.735C440.144 166.991 439.888 167.202 439.577 167.347C439.254 167.502 438.931 167.58 438.586 167.58C438.086 167.58 437.663 167.424 437.307 167.124C436.94 166.824 436.728 166.434 436.662 165.934H441.557C441.59 165.811 441.601 165.689 441.601 165.555C441.601 165.4 441.579 165.233 441.546 165.055C441.435 164.332 441.101 163.72 440.544 163.219C439.977 162.729 439.332 162.485 438.586 162.485C437.752 162.485 437.04 162.785 436.45 163.375ZM436.662 165.077C436.728 164.621 436.94 164.243 437.296 163.931C437.652 163.631 438.075 163.475 438.575 163.475C439.065 163.475 439.488 163.631 439.832 163.931C440.177 164.243 440.389 164.621 440.467 165.077H436.662ZM442.649 168.481H443.761V165.299C443.761 164.799 443.895 164.365 444.151 164.02C444.407 163.675 444.785 163.497 445.263 163.497C445.664 163.497 445.987 163.642 446.22 163.942C446.454 164.243 446.565 164.654 446.565 165.177V168.481H447.678V165.144C447.7 164.688 447.845 164.298 448.1 163.976C448.356 163.653 448.724 163.497 449.18 163.497C449.591 163.497 449.903 163.642 450.136 163.942C450.37 164.243 450.481 164.654 450.481 165.177V168.481H451.594V164.888C451.594 164.142 451.383 163.564 450.949 163.13C450.515 162.696 450.003 162.485 449.391 162.485C448.968 162.485 448.579 162.596 448.212 162.807C447.845 163.019 447.566 163.319 447.366 163.697C447.177 163.308 446.921 163.008 446.587 162.796C446.254 162.585 445.886 162.485 445.475 162.485C444.729 162.485 444.162 162.807 443.761 163.453V162.585H442.649V168.481ZM458.277 165.945V168.481H459.434V165.923L462.226 160.693H460.991L458.844 164.654L456.697 160.693H455.462L458.277 165.945ZM463.83 163.364C463.251 163.953 462.962 164.676 462.962 165.533C462.962 166.368 463.251 167.08 463.83 167.669C464.397 168.27 465.098 168.57 465.91 168.57C466.344 168.57 466.733 168.481 467.089 168.292C467.434 168.114 467.724 167.87 467.946 167.547V168.481H469.059V162.585H467.946V163.519C467.457 162.83 466.778 162.485 465.91 162.485C465.098 162.485 464.397 162.774 463.83 163.364ZM464.008 165.533C464.008 164.966 464.197 164.487 464.586 164.087C464.975 163.697 465.443 163.497 466.01 163.497C466.555 163.497 467.034 163.697 467.423 164.098C467.813 164.498 468.013 164.977 468.013 165.533C468.013 166.078 467.813 166.557 467.423 166.957C467.034 167.358 466.555 167.558 466.01 167.558C465.454 167.558 464.987 167.358 464.597 166.957C464.208 166.568 464.008 166.089 464.008 165.533ZM470.289 170.818H471.401V167.547C471.624 167.87 471.913 168.114 472.269 168.292C472.614 168.481 473.003 168.57 473.437 168.57C474.249 168.57 474.95 168.27 475.529 167.68C476.096 167.091 476.386 166.379 476.386 165.533C476.386 164.699 476.096 163.987 475.518 163.386C474.939 162.796 474.249 162.496 473.437 162.496C472.558 162.496 471.88 162.83 471.401 163.508V162.585H470.289V170.818ZM471.334 165.533C471.334 164.977 471.535 164.498 471.924 164.098C472.314 163.697 472.792 163.497 473.337 163.497C473.905 163.497 474.372 163.697 474.761 164.087C475.151 164.487 475.34 164.966 475.34 165.533C475.34 166.089 475.151 166.568 474.761 166.968C474.372 167.369 473.893 167.569 473.337 167.569C472.781 167.569 472.314 167.369 471.924 166.968C471.535 166.568 471.334 166.089 471.334 165.533Z" fill="white"/>
</g>
<g filter="url(#filter2_dd_1155_79696)">
<rect x="91.4341" y="226.332" width="331.919" height="68.609" rx="7.41719" fill="#151822" shape-rendering="crispEdges"/>
<g clip-path="url(#clip2_1155_79696)">
<path d="M117.103 245.277C115.865 250.244 110.834 253.267 105.867 252.028C100.901 250.79 97.8784 245.759 99.1173 240.792C100.355 235.825 105.386 232.802 110.352 234.04C115.319 235.278 118.341 240.31 117.103 245.277L117.103 245.277H117.103Z" fill="#F7931A"/>
<path d="M112.211 241.699C112.396 240.465 111.456 239.802 110.172 239.359L110.589 237.688L109.571 237.435L109.166 239.062C108.898 238.995 108.623 238.932 108.35 238.87L108.759 237.232L107.742 236.979L107.325 238.649C107.104 238.599 106.887 238.549 106.676 238.497L106.677 238.491L105.274 238.141L105.003 239.228C105.003 239.228 105.758 239.401 105.742 239.411C106.154 239.514 106.229 239.787 106.216 240.003L105.742 241.907C105.77 241.914 105.807 241.925 105.847 241.941C105.813 241.933 105.777 241.923 105.74 241.914L105.075 244.582C105.024 244.707 104.896 244.895 104.608 244.823C104.619 244.838 103.869 244.639 103.869 244.639L103.364 245.803L104.688 246.134C104.934 246.195 105.175 246.26 105.413 246.321L104.992 248.011L106.008 248.265L106.425 246.592C106.703 246.667 106.972 246.737 107.236 246.803L106.821 248.467L107.838 248.721L108.259 247.033C109.994 247.362 111.298 247.229 111.847 245.66C112.29 244.397 111.825 243.668 110.913 243.193C111.577 243.04 112.078 242.602 112.212 241.699L112.211 241.699L112.211 241.699ZM109.887 244.959C109.572 246.222 107.445 245.539 106.756 245.368L107.314 243.128C108.004 243.3 110.215 243.641 109.887 244.959H109.887ZM110.201 241.681C109.915 242.83 108.144 242.246 107.57 242.103L108.076 240.072C108.651 240.215 110.5 240.482 110.201 241.681H110.201Z" fill="white"/>
</g>
<path d="M125.603 236.934V246.021H129.835C130.73 246.021 131.431 245.8 131.938 245.346C132.444 244.904 132.703 244.307 132.703 243.567C132.703 242.464 132.158 241.737 131.081 241.361C131.483 241.192 131.795 240.919 132.028 240.543C132.249 240.179 132.366 239.764 132.366 239.284C132.366 238.596 132.119 238.025 131.626 237.583C131.133 237.155 130.471 236.934 129.627 236.934H125.603ZM129.705 241.984C130.185 241.984 130.588 242.101 130.886 242.334C131.185 242.581 131.341 242.918 131.341 243.373C131.341 243.827 131.198 244.177 130.912 244.424C130.627 244.684 130.237 244.813 129.744 244.813H126.901V241.984H129.705ZM129.588 238.142C130.042 238.142 130.406 238.271 130.679 238.518C130.951 238.765 131.081 239.089 131.081 239.492C131.081 239.907 130.938 240.244 130.666 240.504C130.38 240.764 130.004 240.893 129.536 240.893H126.901V238.142H129.588ZM133.593 238.181H136.618V246.021H137.955V238.181H140.875V236.934H133.593V238.181ZM143.146 238.168C142.25 239.076 141.796 240.166 141.796 241.452C141.796 242.737 142.237 243.827 143.133 244.722C144.029 245.631 145.106 246.085 146.391 246.085C147.326 246.085 148.156 245.826 148.896 245.32C149.623 244.813 150.168 244.138 150.519 243.308L149.221 242.957C148.961 243.528 148.585 243.983 148.104 244.307C147.611 244.632 147.04 244.8 146.391 244.8C145.456 244.8 144.678 244.476 144.068 243.827C143.445 243.178 143.133 242.386 143.133 241.452C143.133 240.504 143.445 239.699 144.055 239.05C144.665 238.414 145.43 238.09 146.352 238.09C146.365 238.09 146.378 238.09 146.391 238.09C147.027 238.09 147.598 238.258 148.104 238.596C148.611 238.946 148.987 239.401 149.247 239.972L150.532 239.608C150.168 238.765 149.623 238.09 148.883 237.57C148.143 237.064 147.313 236.805 146.391 236.805C145.119 236.805 144.042 237.259 143.146 238.168Z" fill="white"/>
<path d="M153.499 246.021L156.887 236.934H155.615L152.227 246.021H153.499Z" fill="white"/>
<path d="M158.001 242.334C158.001 243.489 158.365 244.411 159.104 245.099C159.831 245.787 160.714 246.124 161.765 246.124C162.817 246.124 163.712 245.774 164.439 245.086C165.166 244.398 165.53 243.476 165.53 242.334V236.947H164.193V242.334C164.193 243.113 163.946 243.723 163.466 244.177C162.985 244.632 162.414 244.852 161.765 244.852C161.116 244.852 160.558 244.632 160.078 244.177C159.598 243.723 159.351 243.113 159.351 242.334V236.947H158.001V242.334ZM167.807 237.532C167.132 238.012 166.795 238.635 166.795 239.414C166.795 240.05 167.041 240.569 167.548 240.958C168.041 241.361 168.82 241.672 169.884 241.919C170.832 242.139 171.494 242.386 171.883 242.633C172.272 242.892 172.467 243.204 172.467 243.58C172.467 243.996 172.272 244.307 171.883 244.528C171.494 244.748 171.013 244.865 170.455 244.865C169.196 244.865 168.015 244.359 166.899 243.347V244.761C167.885 245.657 169.04 246.111 170.377 246.124C170.416 246.124 170.442 246.124 170.481 246.124C171.377 246.124 172.143 245.904 172.805 245.462C173.467 245.034 173.791 244.411 173.791 243.593C173.791 243.58 173.791 243.58 173.791 243.567C173.791 242.957 173.57 242.425 173.116 241.971C172.662 241.516 171.896 241.166 170.806 240.906C170.455 240.828 170.222 240.777 170.092 240.738C169.949 240.699 169.754 240.647 169.482 240.569C169.209 240.491 169.014 240.426 168.898 240.361C168.781 240.296 168.651 240.218 168.508 240.128C168.365 240.037 168.262 239.92 168.21 239.803C168.145 239.686 168.119 239.556 168.119 239.414C168.119 238.998 168.326 238.674 168.755 238.427C169.17 238.194 169.65 238.077 170.209 238.077C170.767 238.077 171.325 238.194 171.909 238.414C172.493 238.635 173.012 238.933 173.493 239.297V237.882C172.532 237.181 171.442 236.831 170.209 236.831C169.287 236.831 168.482 237.064 167.807 237.532ZM178.077 246.033C179.388 246.033 180.491 245.592 181.387 244.722C182.282 243.853 182.724 242.788 182.724 241.516C182.724 241.503 182.724 241.49 182.724 241.477C182.724 240.192 182.282 239.102 181.387 238.232C180.491 237.363 179.388 236.921 178.077 236.921H174.949V246.033H178.077ZM176.299 238.181H178.077C179.05 238.181 179.842 238.492 180.465 239.102C181.088 239.725 181.4 240.517 181.4 241.477C181.4 242.425 181.088 243.204 180.478 243.827C179.855 244.463 179.05 244.774 178.077 244.774H176.299V238.181ZM183.663 238.181H186.688V246.021H188.025V238.181H190.945V236.934H183.663V238.181Z" fill="#AAACB7"/>
<path d="M99.4823 274.065L98.8513 274.2V287.524H189.712V269.186L189.081 267.157C188.45 265.128 187.188 261.071 185.926 260.392C184.664 259.714 183.402 262.413 182.14 264.168C180.878 265.923 179.616 266.732 178.354 268.659C177.092 270.586 175.83 273.629 174.568 271.6C173.307 269.571 172.045 262.47 170.783 258.953C169.521 255.437 168.259 255.506 166.997 256.872C165.735 258.238 164.473 260.901 163.211 265.29C161.949 269.678 160.687 275.791 159.425 277.048C158.163 278.305 156.901 274.705 155.639 274.865C154.377 275.025 153.115 278.945 151.853 279.952C150.591 280.959 149.329 279.053 148.067 279.535C146.806 280.017 145.544 282.887 144.282 280.417C143.02 277.948 141.758 270.14 140.496 267.989C139.234 265.838 137.972 269.344 136.71 273.295C135.448 277.247 134.186 281.644 132.924 283.414C131.662 285.184 130.4 284.327 129.138 282.266C127.876 280.205 126.614 276.94 125.352 276.622C124.09 276.305 122.828 278.934 121.566 279.98C120.305 281.025 119.043 280.486 117.781 277.678C116.519 274.87 115.257 269.793 113.995 267.362C112.733 264.931 111.471 265.146 110.209 266.513C108.947 267.879 107.685 270.398 106.423 271.736C105.161 273.074 103.899 273.231 102.637 273.445C101.375 273.659 100.113 273.93 99.4823 274.065Z" fill="url(#paint2_linear_1155_79696)"/>
<path d="M98.8513 274.2L99.4823 274.065C100.113 273.93 101.375 273.659 102.637 273.445C103.899 273.231 105.161 273.074 106.423 271.736C107.685 270.398 108.947 267.879 110.209 266.513C111.471 265.146 112.733 264.931 113.995 267.362C115.257 269.793 116.519 274.87 117.781 277.678C119.043 280.486 120.305 281.025 121.566 279.98C122.828 278.934 124.09 276.305 125.352 276.622C126.614 276.94 127.876 280.205 129.138 282.266C130.4 284.327 131.662 285.184 132.924 283.414C134.186 281.644 135.448 277.247 136.71 273.295C137.972 269.344 139.234 265.838 140.496 267.989C141.758 270.14 143.02 277.948 144.282 280.417C145.544 282.887 146.806 280.017 148.067 279.535C149.329 279.053 150.591 280.959 151.853 279.952C153.115 278.945 154.377 275.025 155.639 274.865C156.901 274.705 158.163 278.305 159.425 277.048C160.687 275.791 161.949 269.678 163.211 265.29C164.473 260.901 165.735 258.238 166.997 256.872C168.259 255.506 169.521 255.437 170.783 258.953C172.045 262.469 173.307 269.571 174.568 271.6C175.83 273.629 177.092 270.586 178.354 268.659C179.616 266.732 180.878 265.923 182.14 264.168C183.402 262.413 184.664 259.714 185.926 260.392C187.188 261.071 188.45 265.128 189.081 267.157L189.712 269.186" stroke="#34C76C" stroke-width="0.927149" stroke-linecap="round"/>
<rect x="233.798" y="240.239" width="64.9004" height="18.543" rx="9.27149" fill="#6775A1" fill-opacity="0.28"/>
<path d="M247.759 270.89L243.069 266.2L238.379 270.89M243.069 276.94V266.332" stroke="#34C76C" stroke-width="1.39072" stroke-miterlimit="10" stroke-linecap="round" stroke-linejoin="round"/>
<path d="M253.055 270.57V271.583H255.391V273.841L256.391 273.828V271.57H258.714V270.57H256.391V268.312H255.391V270.57H253.055ZM263.53 274.763V265.677H259.856V266.728H262.427V274.763H263.53ZM265.008 273.504C264.852 273.659 264.774 273.854 264.774 274.075C264.774 274.295 264.852 274.477 265.008 274.633C265.164 274.789 265.345 274.867 265.566 274.867C265.787 274.867 265.981 274.789 266.137 274.633C266.293 274.49 266.371 274.295 266.371 274.075C266.371 273.854 266.293 273.659 266.137 273.504C265.981 273.348 265.787 273.27 265.566 273.27C265.345 273.27 265.151 273.348 265.008 273.504ZM268.582 268.415C268.634 267.87 268.841 267.429 269.192 267.078C269.542 266.728 269.983 266.559 270.529 266.559C271.048 266.559 271.476 266.715 271.814 267.027C272.151 267.338 272.32 267.74 272.32 268.221C272.32 268.234 272.32 268.247 272.32 268.26C272.307 268.467 272.255 268.675 272.164 268.896C272.06 269.116 271.956 269.285 271.853 269.428C271.736 269.571 271.593 269.739 271.398 269.96L267.686 273.997V274.763H273.553L273.566 273.698H269.386L272.203 270.622C272.631 270.168 272.943 269.752 273.138 269.389C273.332 269.025 273.423 268.636 273.423 268.234C273.423 267.39 273.138 266.728 272.58 266.261C272.008 265.793 271.32 265.56 270.529 265.56C269.698 265.56 268.997 265.806 268.426 266.313C267.842 266.819 267.53 267.52 267.478 268.415H268.582ZM274.7 272.907L279.308 272.894V274.763H280.411V272.894H281.787V271.92H280.411V265.677H278.542L274.7 272.05V272.907ZM279.308 266.378V271.92L275.894 271.933L279.308 266.378ZM287.109 273.036C287.109 273.543 287.291 273.984 287.654 274.347C288.018 274.724 288.459 274.905 288.978 274.905C289.485 274.905 289.926 274.724 290.302 274.347C290.666 273.984 290.847 273.543 290.847 273.036C290.847 272.517 290.666 272.076 290.302 271.712C289.926 271.349 289.485 271.167 288.978 271.167C288.472 271.167 288.031 271.349 287.667 271.712C287.291 272.076 287.109 272.517 287.109 273.036ZM283.488 266.066C283.111 266.429 282.93 266.871 282.93 267.39C282.93 267.896 283.111 268.338 283.475 268.701C283.838 269.064 284.28 269.246 284.799 269.246C285.305 269.246 285.746 269.064 286.123 268.701C286.486 268.338 286.668 267.896 286.668 267.39C286.668 266.871 286.486 266.429 286.123 266.066C285.746 265.703 285.305 265.521 284.799 265.521C284.293 265.521 283.851 265.703 283.488 266.066ZM284.137 274.763L290.834 265.677H289.926L283.228 274.763H284.137ZM283.669 267.39C283.669 267.066 283.773 266.793 283.994 266.572C284.215 266.352 284.474 266.248 284.799 266.248C285.123 266.248 285.383 266.352 285.603 266.572C285.811 266.793 285.915 267.066 285.915 267.39C285.915 267.702 285.811 267.961 285.591 268.182C285.37 268.402 285.11 268.506 284.799 268.506C284.487 268.506 284.228 268.402 284.007 268.182C283.786 267.961 283.669 267.702 283.669 267.39ZM288.187 273.841C287.966 273.62 287.862 273.361 287.862 273.049C287.862 272.725 287.966 272.452 288.187 272.232C288.394 272.011 288.654 271.907 288.978 271.907C289.303 271.907 289.562 272.011 289.783 272.232C290.004 272.452 290.108 272.725 290.108 273.049C290.108 273.361 290.004 273.62 289.783 273.841C289.562 274.062 289.29 274.166 288.978 274.166C288.667 274.166 288.407 274.062 288.187 273.841Z" fill="#34C76C"/>
<rect x="340.685" y="248.073" width="75.2516" height="25.1258" rx="7.41719" fill="#6775A1" fill-opacity="0.28"/>
<path d="M352.533 255.849V263.637H353.691V255.849H352.533ZM352.589 253.768C352.444 253.913 352.367 254.091 352.367 254.302C352.367 254.514 352.444 254.68 352.589 254.825C352.734 254.97 352.901 255.048 353.112 255.048C353.323 255.048 353.501 254.97 353.646 254.825C353.791 254.68 353.869 254.514 353.869 254.302C353.869 254.091 353.791 253.913 353.646 253.768C353.501 253.624 353.323 253.557 353.112 253.557C352.901 253.557 352.734 253.624 352.589 253.768ZM354.863 259.387C354.863 259.843 355.041 260.199 355.397 260.455C355.742 260.711 356.298 260.922 357.044 261.067C358.101 261.267 358.635 261.578 358.635 262.001C358.635 262.224 358.523 262.402 358.29 262.535C358.056 262.68 357.767 262.747 357.433 262.747C356.988 262.747 356.532 262.647 356.065 262.435C355.586 262.224 355.219 262.001 354.963 261.745V262.914C355.619 263.37 356.32 263.626 357.055 263.703L356.832 264.382C357.044 264.404 357.277 264.46 357.533 264.538C357.789 264.616 357.911 264.738 357.911 264.883C357.911 265.05 357.789 265.15 357.544 265.183C357.288 265.217 357.088 265.239 356.921 265.239C356.732 265.239 356.543 265.228 356.354 265.194V265.94C356.498 265.973 356.688 265.984 356.932 265.984C357.177 265.984 357.444 265.962 357.733 265.918C358.012 265.884 358.256 265.784 358.468 265.639C358.679 265.495 358.779 265.294 358.779 265.061C358.779 264.838 358.69 264.638 358.512 264.471C358.323 264.304 358.156 264.182 357.989 264.126C357.822 264.071 357.667 264.015 357.5 263.982L357.6 263.726C358.212 263.703 358.724 263.548 359.146 263.258C359.569 262.98 359.781 262.558 359.781 262.012C359.769 261.578 359.614 261.222 359.302 260.922C358.979 260.633 358.479 260.41 357.778 260.243C357.7 260.232 357.6 260.21 357.466 260.177C357.21 260.121 357.01 260.076 356.877 260.043C356.732 260.01 356.587 259.954 356.443 259.887C356.287 259.832 356.176 259.754 356.109 259.676C356.042 259.598 356.009 259.498 356.009 259.376C356.009 259.142 356.131 258.953 356.365 258.808C356.599 258.663 356.899 258.597 357.255 258.597C357.934 258.597 358.701 258.853 359.547 259.376V258.296C358.89 257.862 358.123 257.64 357.255 257.64C356.576 257.64 356.009 257.796 355.553 258.107C355.097 258.419 354.863 258.842 354.863 259.387ZM361.847 263.637V255.849H360.735V263.637H361.847ZM363.804 258.53C363.214 259.12 362.914 259.843 362.914 260.688C362.914 261.523 363.203 262.246 363.793 262.836C364.371 263.425 365.083 263.726 365.94 263.726C366.507 263.726 367.052 263.581 367.564 263.292C368.076 263.003 368.454 262.624 368.688 262.146L367.698 261.89C367.497 262.146 367.242 262.357 366.93 262.502C366.607 262.658 366.285 262.736 365.94 262.736C365.439 262.736 365.016 262.58 364.66 262.279C364.293 261.979 364.082 261.59 364.015 261.089H368.91C368.944 260.967 368.955 260.844 368.955 260.711C368.955 260.555 368.933 260.388 368.899 260.21C368.788 259.487 368.454 258.875 367.898 258.374C367.331 257.885 366.685 257.64 365.94 257.64C365.105 257.64 364.393 257.94 363.804 258.53ZM364.015 260.232C364.082 259.776 364.293 259.398 364.649 259.086C365.005 258.786 365.428 258.63 365.929 258.63C366.418 258.63 366.841 258.786 367.186 259.086C367.531 259.398 367.742 259.776 367.82 260.232H364.015ZM370.002 263.637H371.115V260.455C371.115 259.954 371.248 259.52 371.504 259.175C371.76 258.83 372.138 258.652 372.617 258.652C373.017 258.652 373.34 258.797 373.574 259.097C373.807 259.398 373.919 259.809 373.919 260.332V263.637H375.031V260.299C375.053 259.843 375.198 259.453 375.454 259.131C375.71 258.808 376.077 258.652 376.533 258.652C376.945 258.652 377.256 258.797 377.49 259.097C377.724 259.398 377.835 259.809 377.835 260.332V263.637H378.947V260.043C378.947 259.298 378.736 258.719 378.302 258.285C377.868 257.851 377.356 257.64 376.745 257.64C376.322 257.64 375.932 257.751 375.565 257.963C375.198 258.174 374.92 258.474 374.72 258.853C374.531 258.463 374.275 258.163 373.941 257.951C373.607 257.74 373.24 257.64 372.828 257.64C372.083 257.64 371.515 257.963 371.115 258.608V257.74H370.002V263.637ZM385.63 261.1V263.637H386.787V261.078L389.58 255.849H388.345L386.197 259.809L384.05 255.849H382.815L385.63 261.1ZM391.183 258.519C390.605 259.109 390.315 259.832 390.315 260.688C390.315 261.523 390.605 262.235 391.183 262.825C391.75 263.425 392.451 263.726 393.264 263.726C393.697 263.726 394.087 263.637 394.443 263.448C394.788 263.27 395.077 263.025 395.3 262.702V263.637H396.412V257.74H395.3V258.675C394.81 257.985 394.131 257.64 393.264 257.64C392.451 257.64 391.75 257.929 391.183 258.519ZM391.361 260.688C391.361 260.121 391.55 259.643 391.94 259.242C392.329 258.853 392.796 258.652 393.364 258.652C393.909 258.652 394.387 258.853 394.777 259.253C395.166 259.654 395.366 260.132 395.366 260.688C395.366 261.234 395.166 261.712 394.777 262.112C394.387 262.513 393.909 262.713 393.364 262.713C392.807 262.713 392.34 262.513 391.951 262.112C391.561 261.723 391.361 261.245 391.361 260.688ZM397.642 265.973H398.755V262.702C398.977 263.025 399.267 263.27 399.623 263.448C399.967 263.637 400.357 263.726 400.791 263.726C401.603 263.726 402.304 263.425 402.882 262.836C403.45 262.246 403.739 261.534 403.739 260.688C403.739 259.854 403.45 259.142 402.871 258.541C402.293 257.951 401.603 257.651 400.791 257.651C399.912 257.651 399.233 257.985 398.755 258.663V257.74H397.642V265.973ZM398.688 260.688C398.688 260.132 398.888 259.654 399.278 259.253C399.667 258.853 400.145 258.652 400.691 258.652C401.258 258.652 401.725 258.853 402.115 259.242C402.504 259.643 402.693 260.121 402.693 260.688C402.693 261.245 402.504 261.723 402.115 262.124C401.725 262.524 401.247 262.724 400.691 262.724C400.134 262.724 399.667 262.524 399.278 262.124C398.888 261.723 398.688 261.245 398.688 260.688Z" fill="white"/>
</g>
<defs>
<filter id="filter0_dd_1155_79696" x="113.253" y="36.0195" width="355.919" height="92.6094" filterUnits="userSpaceOnUse" color-interpolation-filters="sRGB">
<feFlood flood-opacity="0" result="BackgroundImageFix"/>
<feColorMatrix in="SourceAlpha" type="matrix" values="0 0 0 0 0 0 0 0 0 0 0 0 0 0 0 0 0 0 127 0" result="hardAlpha"/>
<feMorphology radius="2" operator="erode" in="SourceAlpha" result="effect1_dropShadow_1155_79696"/>
<feOffset dy="4"/>
<feGaussianBlur stdDeviation="3"/>
<feComposite in2="hardAlpha" operator="out"/>
<feColorMatrix type="matrix" values="0 0 0 0 0 0 0 0 0 0 0 0 0 0 0 0 0 0 0.19 0"/>
<feBlend mode="normal" in2="BackgroundImageFix" result="effect1_dropShadow_1155_79696"/>
<feColorMatrix in="SourceAlpha" type="matrix" values="0 0 0 0 0 0 0 0 0 0 0 0 0 0 0 0 0 0 127 0" result="hardAlpha"/>
<feMorphology radius="4" operator="erode" in="SourceAlpha" result="effect2_dropShadow_1155_79696"/>
<feOffset dy="12"/>
<feGaussianBlur stdDeviation="8"/>
<feComposite in2="hardAlpha" operator="out"/>
<feColorMatrix type="matrix" values="0 0 0 0 0 0 0 0 0 0 0 0 0 0 0 0 0 0 0.2 0"/>
<feBlend mode="normal" in2="effect1_dropShadow_1155_79696" result="effect2_dropShadow_1155_79696"/>
<feBlend mode="normal" in="SourceGraphic" in2="effect2_dropShadow_1155_79696" result="shape"/>
</filter>
<filter id="filter1_dd_1155_79696" x="152.081" y="131.177" width="355.919" height="92.6094" filterUnits="userSpaceOnUse" color-interpolation-filters="sRGB">
<feFlood flood-opacity="0" result="BackgroundImageFix"/>
<feColorMatrix in="SourceAlpha" type="matrix" values="0 0 0 0 0 0 0 0 0 0 0 0 0 0 0 0 0 0 127 0" result="hardAlpha"/>
<feMorphology radius="2" operator="erode" in="SourceAlpha" result="effect1_dropShadow_1155_79696"/>
<feOffset dy="4"/>
<feGaussianBlur stdDeviation="3"/>
<feComposite in2="hardAlpha" operator="out"/>
<feColorMatrix type="matrix" values="0 0 0 0 0 0 0 0 0 0 0 0 0 0 0 0 0 0 0.19 0"/>
<feBlend mode="normal" in2="BackgroundImageFix" result="effect1_dropShadow_1155_79696"/>
<feColorMatrix in="SourceAlpha" type="matrix" values="0 0 0 0 0 0 0 0 0 0 0 0 0 0 0 0 0 0 127 0" result="hardAlpha"/>
<feMorphology radius="4" operator="erode" in="SourceAlpha" result="effect2_dropShadow_1155_79696"/>
<feOffset dy="12"/>
<feGaussianBlur stdDeviation="8"/>
<feComposite in2="hardAlpha" operator="out"/>
<feColorMatrix type="matrix" values="0 0 0 0 0 0 0 0 0 0 0 0 0 0 0 0 0 0 0.2 0"/>
<feBlend mode="normal" in2="effect1_dropShadow_1155_79696" result="effect2_dropShadow_1155_79696"/>
<feBlend mode="normal" in="SourceGraphic" in2="effect2_dropShadow_1155_79696" result="shape"/>
</filter>
<filter id="filter2_dd_1155_79696" x="79.4341" y="226.332" width="355.919" height="92.6094" filterUnits="userSpaceOnUse" color-interpolation-filters="sRGB">
<feFlood flood-opacity="0" result="BackgroundImageFix"/>
<feColorMatrix in="SourceAlpha" type="matrix" values="0 0 0 0 0 0 0 0 0 0 0 0 0 0 0 0 0 0 127 0" result="hardAlpha"/>
<feMorphology radius="2" operator="erode" in="SourceAlpha" result="effect1_dropShadow_1155_79696"/>
<feOffset dy="4"/>
<feGaussianBlur stdDeviation="3"/>
<feComposite in2="hardAlpha" operator="out"/>
<feColorMatrix type="matrix" values="0 0 0 0 0 0 0 0 0 0 0 0 0 0 0 0 0 0 0.19 0"/>
<feBlend mode="normal" in2="BackgroundImageFix" result="effect1_dropShadow_1155_79696"/>
<feColorMatrix in="SourceAlpha" type="matrix" values="0 0 0 0 0 0 0 0 0 0 0 0 0 0 0 0 0 0 127 0" result="hardAlpha"/>
<feMorphology radius="4" operator="erode" in="SourceAlpha" result="effect2_dropShadow_1155_79696"/>
<feOffset dy="12"/>
<feGaussianBlur stdDeviation="8"/>
<feComposite in2="hardAlpha" operator="out"/>
<feColorMatrix type="matrix" values="0 0 0 0 0 0 0 0 0 0 0 0 0 0 0 0 0 0 0.2 0"/>
<feBlend mode="normal" in2="effect1_dropShadow_1155_79696" result="effect2_dropShadow_1155_79696"/>
<feBlend mode="normal" in="SourceGraphic" in2="effect2_dropShadow_1155_79696" result="shape"/>
</filter>
<linearGradient id="paint0_linear_1155_79696" x1="178.1" y1="62.9302" x2="178.1" y2="97.2115" gradientUnits="userSpaceOnUse">
<stop stop-color="#2DAE5E"/>
<stop offset="0.90625" stop-color="#151822" stop-opacity="0"/>
</linearGradient>
<linearGradient id="paint1_linear_1155_79696" x1="216.928" y1="158.087" x2="216.928" y2="192.369" gradientUnits="userSpaceOnUse">
<stop stop-color="#2DAE5E"/>
<stop offset="0.90625" stop-color="#151822" stop-opacity="0"/>
</linearGradient>
<linearGradient id="paint2_linear_1155_79696" x1="144.282" y1="253.243" x2="144.282" y2="287.524" gradientUnits="userSpaceOnUse">
<stop stop-color="#2DAE5E"/>
<stop offset="0.90625" stop-color="#151822" stop-opacity="0"/>
</linearGradient>
<clipPath id="clip0_1155_79696">
<rect width="18.543" height="18.543" fill="white" transform="translate(132.67 43.4365)"/>
</clipPath>
<clipPath id="clip1_1155_79696">
<rect width="18.543" height="18.543" fill="white" transform="translate(171.498 138.594)"/>
</clipPath>
<clipPath id="clip2_1155_79696">
<rect width="18.543" height="18.543" fill="white" transform="translate(98.8513 233.749)"/>
</clipPath>
</defs>
</svg>
