<svg width="1440" height="657" viewBox="0 0 1440 657" fill="none" xmlns="http://www.w3.org/2000/svg">
<g style="mix-blend-mode:multiply" opacity="0.5">
<mask id="mask0_1369_82655" style="mask-type:alpha" maskUnits="userSpaceOnUse" x="0" y="0" width="1440" height="658">
<path d="M459.474 190.53H459.473C234.737 190.53 117.895 0 117.895 0H1440V657C1353.16 657 1202.78 622.687 1143.16 477.968C1024.74 190.53 684.211 190.53 459.474 190.53Z" fill="url(#paint0_linear_1369_82655)"/>
<path d="M1440 657V462.364C937.895 -48.4538 829.326 64.8787 748.365 264.639C640.177 531.581 127.447 610.42 0 593.686V657H1440Z" fill="url(#paint1_linear_1369_82655)"/>
<path d="M1440 399.949V657H0V154.744C97.1261 114.502 208.1 78.5761 394.211 154.744C431.816 170.134 501.604 205.841 536.758 221.573C722.525 304.705 741.579 399.949 1440 399.949Z" fill="url(#paint2_linear_1369_82655)"/>
<path d="M1317.75 657H1440C1425.65 646.137 1403.27 633.999 1317.75 631.097C620.422 607.431 437.081 419.873 251.053 206.775C221.974 173.464 192.86 140.114 161.754 107.527C102.795 45.76 48.7543 12.6084 0 0V657H1317.75Z" fill="url(#paint3_linear_1369_82655)"/>
</mask>
<g mask="url(#mask0_1369_82655)">
<rect x="-181.053" y="-160.965" width="1758.95" height="987.142" fill="url(#paint4_linear_1369_82655)"/>
</g>
</g>
<defs>
<linearGradient id="paint0_linear_1369_82655" x1="633.684" y1="-1577.62" x2="1686.16" y2="113.786" gradientUnits="userSpaceOnUse">
<stop stop-color="white"/>
<stop offset="1" stop-color="white" stop-opacity="0"/>
</linearGradient>
<linearGradient id="paint1_linear_1369_82655" x1="507.368" y1="1738.59" x2="502.243" y2="115.806" gradientUnits="userSpaceOnUse">
<stop stop-color="white"/>
<stop offset="1" stop-color="white" stop-opacity="0"/>
</linearGradient>
<linearGradient id="paint2_linear_1369_82655" x1="446.315" y1="-964.969" x2="502.924" y2="449.675" gradientUnits="userSpaceOnUse">
<stop stop-color="white"/>
<stop offset="1" stop-color="white" stop-opacity="0"/>
</linearGradient>
<linearGradient id="paint3_linear_1369_82655" x1="617.895" y1="-1840.42" x2="29.7884" y2="474.386" gradientUnits="userSpaceOnUse">
<stop stop-color="white"/>
<stop offset="1" stop-color="white" stop-opacity="0"/>
</linearGradient>
<linearGradient id="paint4_linear_1369_82655" x1="698.421" y1="-160.965" x2="698.421" y2="826.177" gradientUnits="userSpaceOnUse">
<stop stop-color="#488CFF"/>
<stop offset="0.0001" stop-color="#407FFF"/>
<stop offset="1" stop-color="#015DFA"/>
</linearGradient>
</defs>
</svg>
