<svg width="177" height="177" viewBox="0 0 177 177" fill="none" xmlns="http://www.w3.org/2000/svg">
<path d="M88.5 176C136.825 176 176 136.825 176 88.5C176 40.1751 136.825 1 88.5 1C40.1751 1 1 40.1751 1 88.5C1 136.825 40.1751 176 88.5 176Z" stroke="#07080C" stroke-width="2" stroke-miterlimit="10" stroke-linecap="round" stroke-linejoin="round"/>
<path d="M140.608 88.4999C140.608 59.7683 117.233 36.3976 88.5053 36.3976C88.0736 36.3976 87.6453 36.4044 87.217 36.4146L85.9388 31.6419C85.3609 29.4901 83.1683 28.2051 81.0165 28.7388H81.0131C80.9893 28.7456 80.9689 28.749 80.9451 28.7558C80.9247 28.7626 80.9043 28.766 80.8839 28.7728L80.8601 28.7796C78.8545 29.3643 77.6273 31.3665 77.9842 33.396C78.0046 33.5082 78.0284 33.6237 78.059 33.7359C78.059 33.7393 78.059 33.7427 78.059 33.7495C78.059 33.7563 78.059 33.7597 78.0624 33.7665L78.1508 34.0962L79.0006 37.2645C76.2981 37.7676 73.667 38.478 71.1243 39.3789L70.1827 35.8639C69.6014 33.6883 67.3646 32.4 65.189 32.9812C63.0372 33.5591 61.7488 35.7551 62.2893 37.9069C62.2961 37.9307 62.2995 37.9511 62.3063 37.9749C62.3063 37.9817 62.3097 37.9885 62.3131 37.9953L62.3403 38.0939L63.5879 42.7477C47.4034 51.5996 36.3997 68.7869 36.3997 88.4965C36.3997 117.228 59.7738 140.599 88.5019 140.599C88.937 140.599 89.3688 140.592 89.8005 140.582L91.0514 145.249C91.0583 145.287 91.0685 145.321 91.0787 145.358C91.0888 145.392 91.0991 145.426 91.1093 145.46C91.7245 147.54 93.8661 148.774 95.9738 148.268C95.984 148.268 95.9941 148.264 96.0043 148.261H96.0077C96.0315 148.254 96.0519 148.251 96.0757 148.244C96.0961 148.237 96.1165 148.234 96.1369 148.227L96.1607 148.22C96.1607 148.22 96.1777 148.213 96.1879 148.213C98.2751 147.591 99.5057 145.433 98.9788 143.318C98.9788 143.318 98.9788 143.311 98.9788 143.308C98.9754 143.288 98.9686 143.271 98.9652 143.25C98.9618 143.233 98.955 143.216 98.9516 143.199C98.9516 143.199 98.9448 143.176 98.9414 143.165C98.9414 143.165 98.9414 143.165 98.9414 143.162L98.0236 139.735C100.726 139.232 103.357 138.522 105.9 137.618L106.753 140.81L106.825 141.071C106.831 141.095 106.835 141.115 106.842 141.139C106.842 141.146 106.845 141.156 106.848 141.163C107.44 143.322 109.67 144.603 111.835 144.022C114.011 143.437 115.299 141.204 114.718 139.028L113.436 134.249C129.617 125.397 140.614 108.209 140.614 88.5033L140.608 88.4999ZM111.244 126.097L109.578 119.873C107.277 121.423 104.795 122.728 102.174 123.748L103.772 129.711C101.246 130.649 98.6151 131.359 95.8956 131.822L94.2979 125.859C92.4078 126.151 90.4736 126.301 88.5019 126.301C87.6453 126.301 86.7954 126.274 85.949 126.216L87.6147 132.433C63.7884 131.961 44.5514 112.432 44.5514 88.4965C44.5514 72.5772 53.06 58.6092 65.7669 50.896L67.4326 57.1168C69.734 55.5667 72.2155 54.2614 74.8364 53.2415L73.2387 47.279C75.7645 46.3408 78.399 45.6303 81.1151 45.168L82.7128 51.1305C84.5994 50.8382 86.5303 50.6886 88.4985 50.6886C89.3586 50.6886 90.2118 50.7192 91.0583 50.7736L89.3926 44.5561C113.215 45.0354 132.449 64.5581 132.449 88.4931C132.449 104.409 123.944 118.377 111.24 126.09L111.244 126.097Z" fill="#07080C"/>
<path d="M107.135 93.8773C106.519 96.0257 105.534 98.0517 104.208 99.8772C103.606 100.707 102.933 101.495 102.192 102.233C100.744 103.681 99.1121 104.871 97.3478 105.782C94.9241 107.033 92.2488 107.757 89.4715 107.896C89.1519 107.913 88.8256 107.92 88.5027 107.92C85.7288 107.92 83.0433 107.339 80.5821 106.231C78.4609 105.275 76.5097 103.933 74.8134 102.236C71.1488 98.5718 69.1296 93.7073 69.1296 88.5471C69.1296 84.4236 70.418 80.4906 72.8077 77.2068C73.4094 76.3807 74.0791 75.5955 74.8167 74.8578C76.2649 73.4097 77.9034 72.2165 79.6711 71.3054C82.0982 70.0545 84.7701 69.3304 87.5474 69.1978C87.867 69.1808 88.1865 69.174 88.5061 69.174C91.2833 69.174 93.9723 69.7587 96.4368 70.8703C98.5546 71.8255 100.502 73.1649 102.195 74.8612C102.26 74.9258 102.325 74.9904 102.386 75.055L113.08 68.6097C108.117 62.5044 100.931 58.2756 92.7655 57.1742C91.3717 56.9839 89.9508 56.8887 88.5061 56.8887C87.0613 56.8887 85.6914 56.9839 84.3214 57.164C81.5679 57.5278 78.93 58.2484 76.4451 59.275C73.8139 60.3628 71.3596 61.7974 69.1398 63.5175C61.6646 69.3134 56.8442 78.3795 56.8442 88.5505C56.8442 104.568 68.7999 117.846 84.2568 119.927C85.6472 120.114 87.0681 120.212 88.5061 120.212C89.944 120.212 91.3275 120.117 92.7009 119.937C95.4544 119.573 98.0923 118.853 100.577 117.823C103.208 116.735 105.663 115.3 107.883 113.577C114.018 108.814 118.366 101.852 119.723 93.8807H107.141L107.135 93.8773Z" fill="#07080C"/>
<path d="M123.853 155.121C123.493 156.185 122.806 156.964 121.793 157.457C121.062 157.814 120.307 157.929 119.532 157.807C118.757 157.685 118.06 157.365 117.445 156.845L118.455 155.947C118.856 156.267 119.301 156.464 119.787 156.536C120.273 156.607 120.756 156.529 121.225 156.298C121.922 155.958 122.384 155.434 122.612 154.727C122.84 154.02 122.779 153.31 122.432 152.599C122.092 151.902 121.575 151.423 120.878 151.168C120.182 150.91 119.485 150.954 118.788 151.294C118.308 151.528 117.948 151.848 117.703 152.259C117.459 152.67 117.343 153.129 117.353 153.639L116.017 153.898C115.983 153.102 116.16 152.361 116.544 151.681C116.928 151.001 117.486 150.481 118.217 150.124C119.23 149.631 120.263 149.567 121.324 149.937C122.384 150.305 123.159 150.995 123.652 152.008C124.145 153.021 124.21 154.057 123.849 155.121H123.853Z" fill="#07080C"/>
<path d="M111.405 158.62C110.993 159.375 110.375 159.875 109.552 160.12C108.726 160.361 107.937 160.276 107.186 159.861C106.431 159.446 105.935 158.828 105.694 158.012C105.449 157.186 105.534 156.397 105.945 155.636C106.357 154.878 106.969 154.375 107.788 154.133C108.61 153.888 109.403 153.977 110.161 154.392C110.919 154.806 111.418 155.425 111.66 156.251C111.901 157.074 111.82 157.866 111.408 158.62H111.405ZM110.477 156.598C110.327 156.095 110.025 155.711 109.569 155.449C109.11 155.187 108.631 155.129 108.128 155.279C107.631 155.425 107.261 155.731 107.02 156.2C106.778 156.669 106.731 157.155 106.877 157.658C107.023 158.162 107.326 158.542 107.778 158.801C108.23 159.059 108.709 159.113 109.212 158.967C109.715 158.818 110.089 158.512 110.334 158.046C110.579 157.58 110.626 157.098 110.477 156.594V156.598Z" fill="#07080C"/>
<path d="M99.7042 162.205L98.7422 156.236L100.037 156.028L100.999 161.998L99.7042 162.205ZM101.268 164.092C101.129 164.275 100.942 164.387 100.707 164.425C100.476 164.462 100.265 164.418 100.078 164.289C99.8912 164.16 99.779 163.979 99.7416 163.748C99.7042 163.517 99.7518 163.31 99.8844 163.136C100.024 162.953 100.211 162.841 100.442 162.803C100.673 162.766 100.887 162.81 101.078 162.939C101.268 163.068 101.38 163.245 101.417 163.48C101.455 163.704 101.4 163.911 101.261 164.095L101.268 164.092Z" fill="#07080C"/>
<path d="M93.8367 162.91L92.5246 162.954L92.4974 162.156C92.0521 162.771 91.4368 163.094 90.6447 163.118C89.9512 163.141 89.3496 162.937 88.8396 162.509C88.3297 162.081 88.0578 161.5 88.034 160.762L87.9116 157.057L89.2238 157.012L89.336 160.364C89.353 160.843 89.5059 161.221 89.8017 161.496C90.0974 161.772 90.4544 161.904 90.8691 161.89C91.3484 161.877 91.7325 161.69 92.0215 161.333C92.3104 160.976 92.4464 160.541 92.4294 160.024L92.3274 156.91L93.6396 156.866L93.8367 162.91Z" fill="#07080C"/>
<path d="M82.2111 162.835L80.9092 162.671L81.0077 161.879C80.457 162.406 79.7806 162.62 78.9715 162.519C78.1489 162.413 77.4826 162.022 76.9761 161.339C76.4696 160.656 76.269 159.894 76.3744 159.048C76.4832 158.188 76.8673 157.494 77.5234 156.967C78.1795 156.44 78.9239 156.23 79.7534 156.335C80.5624 156.437 81.1641 156.821 81.5618 157.484L81.9664 154.292L83.2683 154.455L82.2077 162.831L82.2111 162.835ZM81.3817 159.683C81.4463 159.163 81.3171 158.691 80.9908 158.266C80.6644 157.841 80.2429 157.596 79.7194 157.532C79.1925 157.464 78.72 157.596 78.3086 157.923C77.8973 158.249 77.656 158.677 77.588 159.204C77.52 159.731 77.6457 160.207 77.9585 160.625C78.2712 161.043 78.6996 161.288 79.2333 161.356C79.7534 161.42 80.2259 161.291 80.6474 160.962C81.0689 160.632 81.3137 160.207 81.3783 159.687L81.3817 159.683Z" fill="#07080C"/>
<path d="M69.9834 159.895C69.2492 160.313 68.4809 160.405 67.6786 160.17C66.8968 159.942 66.3631 159.467 66.0742 158.749L65.8464 159.528L64.5886 159.157L66.2917 153.354L67.5495 153.725L67.3217 154.503C67.9506 154.062 68.6543 153.956 69.4361 154.184C70.2316 154.418 70.8265 154.911 71.2174 155.666C71.6117 156.421 71.6865 157.206 71.4452 158.022C71.2004 158.855 70.7109 159.48 69.9766 159.898L69.9834 159.895ZM70.2792 157.675C70.4288 157.165 70.3812 156.676 70.133 156.21C69.8849 155.744 69.5041 155.438 68.9942 155.289C68.4911 155.143 68.005 155.197 67.5359 155.455C67.0668 155.714 66.7608 156.094 66.6113 156.598C66.4617 157.101 66.5161 157.59 66.7676 158.066C67.0192 158.542 67.3999 158.851 67.903 159.001C68.4129 159.15 68.899 159.096 69.3613 158.834C69.8237 158.573 70.1296 158.188 70.2792 157.675Z" fill="#07080C"/>
<path d="M59.0483 156.989L57.8551 156.445L58.2664 155.541C57.9366 155.809 57.5865 155.949 57.216 155.959C56.8454 155.969 56.5021 155.904 56.186 155.758C56.033 155.69 55.88 155.602 55.7271 155.5L56.3083 154.222C56.4919 154.388 56.6789 154.518 56.8726 154.606C57.1854 154.749 57.5661 154.783 58.0148 154.715C58.4669 154.643 58.8239 154.317 59.089 153.736L60.3638 150.941L61.557 151.485L59.0483 156.989Z" fill="#07080C"/>
<path d="M50.8922 151.961C50.0729 152.162 49.3081 152.036 48.601 151.587C47.9143 151.152 47.5302 150.547 47.452 149.775L47.0169 150.458L45.9087 149.755L49.1517 144.652L50.2599 145.356L49.8248 146.039C50.5522 145.788 51.2593 145.883 51.946 146.318C52.6463 146.763 53.0814 147.402 53.2479 148.235C53.4179 149.068 53.2751 149.843 52.8162 150.564C52.3505 151.295 51.708 151.76 50.8888 151.961H50.8922ZM51.7896 149.908C52.0752 149.459 52.1636 148.976 52.0548 148.46C51.946 147.943 51.6672 147.542 51.2185 147.256C50.7766 146.974 50.2939 146.893 49.7704 147.012C49.2503 147.13 48.8458 147.413 48.567 147.855C48.2849 148.296 48.1999 148.783 48.3121 149.309C48.4242 149.836 48.6996 150.241 49.1449 150.52C49.5936 150.805 50.0763 150.887 50.593 150.764C51.1097 150.642 51.5075 150.353 51.793 149.904L51.7896 149.908Z" fill="#07080C"/>
<path d="M33.9634 142.374C33.7322 142.363 33.5351 142.275 33.3685 142.109C33.2053 141.939 33.1204 141.741 33.1204 141.514C33.1204 141.289 33.2019 141.092 33.3719 140.929C33.5419 140.766 33.7356 140.688 33.9566 140.694C34.1878 140.705 34.3849 140.793 34.5515 140.963C34.7147 141.133 34.7996 141.33 34.8064 141.561C34.8098 141.789 34.7283 141.986 34.5617 142.149C34.3985 142.309 34.2014 142.384 33.9702 142.374H33.9634ZM34.6093 140.011L38.9469 135.796L39.8613 136.738L35.5237 140.953L34.6093 140.011Z" fill="#07080C"/>
<path d="M32.1678 134.709C31.7157 135.056 31.2194 135.141 30.6789 134.971C30.1384 134.801 29.6522 134.424 29.2137 133.849C28.6936 133.166 28.3843 132.418 28.2925 131.609L29.2987 130.841C29.4279 131.85 29.6998 132.625 30.1111 133.163C30.3151 133.428 30.5293 133.608 30.757 133.696C30.9848 133.785 31.1786 133.768 31.3417 133.645C31.3961 133.604 31.4369 133.553 31.4675 133.499C31.4947 133.445 31.5083 133.377 31.5083 133.295C31.5083 133.217 31.4947 133.142 31.4811 133.071C31.4675 132.999 31.4335 132.908 31.3893 132.789C31.3417 132.673 31.3009 132.574 31.2669 132.496C31.2329 132.418 31.1785 132.303 31.1106 132.15C31.0426 131.997 30.9848 131.874 30.944 131.782C30.6516 131.123 30.5327 130.579 30.5803 130.14C30.6312 129.705 30.8284 129.352 31.1751 129.076C31.5015 128.828 31.855 128.72 32.2324 128.75C32.6097 128.781 32.9496 128.903 33.2488 129.114C33.5479 129.325 33.8267 129.597 34.0782 129.93C34.5983 130.613 34.8975 131.436 34.9757 132.404L33.915 133.214C33.9354 132.853 33.8845 132.418 33.7553 131.915C33.6261 131.408 33.4289 130.98 33.1638 130.63C32.9836 130.395 32.7831 130.225 32.5553 130.123C32.3309 130.022 32.1406 130.032 31.9808 130.151C31.8176 130.276 31.7599 130.477 31.8074 130.759C31.855 131.038 31.9978 131.422 32.2358 131.912C32.5689 132.595 32.7321 133.163 32.7321 133.608C32.7321 134.053 32.5451 134.417 32.1712 134.706L32.1678 134.709Z" fill="#07080C"/>
<path d="M26.6477 118.153L18.1798 118.575L17.3572 116.583L23.6732 110.95L24.2137 112.259L22.8302 113.483L24.2545 116.933L26.1072 116.848L26.6477 118.157V118.153ZM21.8477 114.333L18.4824 117.276L22.9593 117.032L21.8444 114.333H21.8477Z" fill="#07080C"/>
<path d="M22.3617 106.341L14.6315 108.353L14.3018 107.082L22.0319 105.069L22.3617 106.341Z" fill="#07080C"/>
<path d="M14.8931 101.113L14.7469 99.7969L19.489 98.1584L14.4988 97.5738L14.3084 95.8503L19.0607 94.188L14.0637 93.6271L13.9175 92.3115L20.0941 93.1546L20.2913 94.946L15.4336 96.5981L20.5327 97.1488L20.7298 98.9403L14.8863 101.113H14.8931Z" fill="#07080C"/>
<path d="M14.7645 86.3112C14.1934 85.6891 13.935 84.9582 13.986 84.1254C14.037 83.3129 14.3804 82.6874 15.0195 82.2455L14.2104 82.1945L14.292 80.8857L20.3259 81.2631L20.2443 82.5718L19.4353 82.5208C20.0063 83.0375 20.2647 83.7004 20.2137 84.5129C20.1627 85.3389 19.8126 86.029 19.1633 86.5797C18.514 87.1304 17.7662 87.3786 16.9163 87.3242C16.0495 87.2698 15.3322 86.9332 14.7611 86.3078L14.7645 86.3112ZM16.9945 86.1072C17.5248 86.1412 17.9905 85.9848 18.3882 85.6415C18.786 85.2981 19.0035 84.8596 19.0375 84.3259C19.0715 83.8024 18.9084 83.3401 18.5514 82.939C18.1945 82.5412 17.756 82.3237 17.2325 82.2897C16.709 82.2557 16.2432 82.4155 15.8353 82.769C15.4274 83.1225 15.2098 83.5577 15.1758 84.0812C15.1418 84.6115 15.305 85.0738 15.6619 85.4647C16.0189 85.8556 16.4608 86.0698 16.9945 86.1038V86.1072Z" fill="#07080C"/>
<path d="M15.0598 75.3926L15.3658 74.0227L20.1215 73.251L16.1306 70.6063L16.4366 69.2363L23.939 74.383L23.6398 75.7189L21.4778 74.2436L15.0598 75.3926Z" fill="#07080C"/>
<path d="M19.6079 64.8173C19.0742 64.6133 18.7411 64.2394 18.6017 63.6887C18.4657 63.1414 18.5269 62.5295 18.7819 61.853C19.0878 61.0508 19.5604 60.3947 20.2028 59.8916L21.3858 60.3437C20.5938 60.9862 20.0805 61.6253 19.8391 62.2576C19.7201 62.5703 19.6827 62.8457 19.7235 63.087C19.7643 63.3284 19.8833 63.4847 20.0771 63.5561C20.1416 63.5799 20.2028 63.5901 20.2674 63.5867C20.3286 63.5833 20.3932 63.5595 20.4612 63.5119C20.5258 63.4677 20.587 63.4202 20.6379 63.3726C20.6889 63.325 20.7535 63.2468 20.8283 63.1448C20.9031 63.0428 20.9643 62.9578 21.0119 62.8865C21.0595 62.8151 21.1309 62.7097 21.2226 62.5703C21.3144 62.4309 21.3926 62.3188 21.447 62.2338C21.8515 61.6389 22.2527 61.248 22.6504 61.061C23.0481 60.874 23.4526 60.857 23.8674 61.0066C24.2515 61.1528 24.5302 61.3975 24.7002 61.7341C24.8736 62.074 24.9484 62.4241 24.9246 62.7913C24.9042 63.1584 24.8158 63.5357 24.6696 63.9267C24.3637 64.7289 23.8198 65.419 23.0379 65.9901L21.7903 65.5142C22.1099 65.3442 22.4498 65.0689 22.8102 64.6949C23.1739 64.321 23.4322 63.9267 23.5886 63.5153C23.694 63.2366 23.7314 62.9782 23.6974 62.7335C23.6634 62.4887 23.5546 62.3324 23.3711 62.261C23.1807 62.1896 22.9767 62.244 22.7626 62.4309C22.5484 62.6179 22.2969 62.9408 22.0079 63.3998C21.6 64.0422 21.2056 64.4808 20.8283 64.7153C20.451 64.9499 20.0397 64.9839 19.6011 64.8139L19.6079 64.8173Z" fill="#07080C"/>
<path d="M24.3362 46.5314L25.1826 45.413L31.5429 48.486L26.9537 43.0742L28.2149 41.4085L34.6295 44.3931L29.969 39.0969L30.8154 37.9785L36.1184 44.2028L34.8505 45.8753L28.2625 42.741L33.0114 48.3024L31.7502 49.9647L24.3362 46.5212V46.5314Z" fill="#07080C"/>
<path d="M35.1471 33.4544C35.1573 33.2233 35.2491 33.0261 35.4191 32.8629C35.5891 32.6997 35.7896 32.6182 36.014 32.6182C36.2417 32.6182 36.4355 32.7031 36.5953 32.8731C36.7584 33.0431 36.8332 33.2402 36.823 33.4612C36.8128 33.6924 36.721 33.8895 36.5511 34.0527C36.3811 34.2159 36.1806 34.2975 35.9528 34.3009C35.725 34.3009 35.5279 34.2193 35.3647 34.0493C35.2083 33.8827 35.1335 33.6856 35.1437 33.4544H35.1471ZM37.5029 34.1241L41.6773 38.5025L40.7289 39.4067L36.5545 35.0317L37.5029 34.1241Z" fill="#07080C"/>
<path d="M42.3903 31.3472L41.7002 30.4362L42.6112 29.7461L41.7376 28.5903L42.5398 27.5127L43.6412 28.9676L45.1234 27.8458L45.8134 28.7569L44.3313 29.8787L46.1092 32.2276C46.3335 32.5268 46.5613 32.6458 46.7891 32.588C47.0168 32.5302 47.2004 32.4486 47.3398 32.3432C47.5573 32.1766 47.7851 31.9285 48.0197 31.5988L48.7845 32.6084C48.5262 32.9483 48.261 33.2203 47.9856 33.4276C47.6287 33.6996 47.1834 33.8695 46.6565 33.9409C46.1262 34.0123 45.6061 33.703 45.086 33.0197L43.3013 30.6639L42.3903 31.354V31.3472Z" fill="#07080C"/>
<path d="M48.9414 23.0258L50.0836 22.3799L51.4331 24.7628C51.5487 24.0082 51.9498 23.4337 52.6365 23.0462C53.2382 22.7062 53.8671 22.6042 54.5198 22.747C55.1725 22.8898 55.6824 23.2807 56.0427 23.9232L57.8682 27.1492L56.726 27.7951L55.0739 24.875C54.8359 24.4569 54.5232 24.1952 54.1322 24.0898C53.7413 23.9844 53.364 24.032 53.0071 24.2359C52.5889 24.4705 52.334 24.8172 52.2388 25.266C52.1436 25.7181 52.2252 26.1668 52.4802 26.6189L54.0133 29.3282L52.8711 29.9741L48.938 23.0224L48.9414 23.0258Z" fill="#07080C"/>
<path d="M66.8459 15.0607L68.2635 14.7105L71.1801 18.0113L72.2305 13.7349L73.6481 13.3848L72.2135 19.2963L72.8322 21.8118L71.5133 22.1382L70.9014 19.6566L66.8425 15.0641L66.8459 15.0607Z" fill="#07080C"/>
<path d="M79.0736 15.3326C79.6209 14.6663 80.3212 14.2924 81.1779 14.2074C82.0345 14.1224 82.7926 14.357 83.452 14.9077C84.1115 15.4584 84.4854 16.1586 84.5704 17.0051C84.6554 17.8617 84.4243 18.6232 83.877 19.2929C83.3297 19.9625 82.6362 20.3399 81.7863 20.4215C80.9297 20.5064 80.1716 20.2719 79.5054 19.7212C78.8391 19.1705 78.4652 18.4702 78.3802 17.6136C78.2952 16.7569 78.5263 15.9989 79.0736 15.3326ZM79.6073 17.4912C79.6583 18.0147 79.8861 18.4464 80.2838 18.7898C80.6849 19.1331 81.1473 19.2793 81.6674 19.2283C82.1807 19.1773 82.6022 18.9461 82.9285 18.5314C83.2549 18.1167 83.3908 17.6476 83.3398 17.1275C83.2889 16.604 83.0645 16.1756 82.6668 15.8357C82.2691 15.4958 81.8101 15.353 81.29 15.404C80.7665 15.455 80.3416 15.6861 80.0153 16.0974C79.6889 16.5088 79.5495 16.9745 79.6039 17.498L79.6073 17.4912Z" fill="#07080C"/>
<path d="M89.9481 13.915L91.2568 13.9932L91.0597 17.3314C91.0325 17.8107 91.1514 18.2017 91.42 18.5076C91.6885 18.8135 92.0285 18.9767 92.4466 19.0039C92.9259 19.0311 93.3236 18.8815 93.6432 18.5552C93.9627 18.2289 94.1395 17.8005 94.1701 17.277L94.3537 14.1802L95.6624 14.2584L95.3055 20.2957L93.9967 20.2175L94.0443 19.4186C93.5446 19.9897 92.9021 20.2549 92.1101 20.2073C91.42 20.1665 90.8387 19.9081 90.3662 19.4356C89.8937 18.9631 89.6829 18.358 89.7237 17.6204L89.9447 13.9184L89.9481 13.915Z" fill="#07080C"/>
<path d="M131.401 144.988C148.435 132.033 159.432 111.548 159.432 88.4972C159.432 54.8739 136.037 26.7169 104.637 19.4082" stroke="#07080C" stroke-width="2" stroke-miterlimit="10" stroke-linecap="round" stroke-linejoin="round"/>
</svg>
