<svg width="24" height="24" viewBox="0 0 24 24" fill="none" xmlns="http://www.w3.org/2000/svg">
<path d="M22 8.50404C22.0001 9.4022 21.8144 10.2907 21.4545 11.1134C21.0946 11.9362 20.5683 12.6755 19.9088 13.2847C19.2493 13.8939 18.4709 14.3598 17.6227 14.6531C16.7744 14.9464 15.8746 15.0608 14.98 14.9889C14.8548 13.4489 14.1867 12.0035 13.095 10.9109C12.0032 9.8183 10.5589 9.14968 9.01999 9.02444C8.95145 8.15187 9.05957 7.27443 9.33789 6.44466C9.61621 5.6149 10.059 4.84988 10.6397 4.19542C11.2205 3.54096 11.9272 3.01051 12.7176 2.63585C13.5081 2.26119 14.3659 2.05002 15.2398 2.01498C16.1137 1.97994 16.9857 2.12176 17.8035 2.43195C18.6214 2.74213 19.3683 3.2143 19.9994 3.82017C20.6306 4.42605 21.1331 5.15317 21.4769 5.95799C21.8206 6.76281 21.9986 7.62878 22 8.50404Z" fill="url(#paint0_linear_532_54531)"/>
<path d="M15 15.5C15 17.2239 14.3152 18.8772 13.0962 20.0962C11.8772 21.3152 10.2239 22 8.5 22C6.77609 22 5.12279 21.3152 3.90381 20.0962C2.68482 18.8772 2 17.2239 2 15.5C2 13.7761 2.68482 12.1228 3.90381 10.9038C5.12279 9.68482 6.77609 9 8.5 9C10.2239 9 11.8772 9.68482 13.0962 10.9038C14.3152 12.1228 15 13.7761 15 15.5Z" fill="url(#paint1_linear_532_54531)"/>
<path d="M7.62 14.62L8.5 13L9.38 14.62L11 15.5L9.38 16.38L8.5 18L7.62 16.38L6 15.5L7.62 14.62Z" fill="url(#paint2_linear_532_54531)"/>
<path d="M15.4377 6.04339C15.4591 5.98554 15.5409 5.98554 15.5623 6.04339L16.1985 7.76229C16.2052 7.78048 16.2195 7.79482 16.2377 7.80155L17.9566 8.43767C18.0145 8.45909 18.0145 8.54091 17.9566 8.56232L16.2377 9.19845C16.2195 9.20518 16.2052 9.21952 16.1985 9.23771L15.5623 10.9566C15.5409 11.0145 15.4591 11.0145 15.4377 10.9566L14.8015 9.23771C14.7948 9.21952 14.7805 9.20518 14.7623 9.19845L13.0434 8.56232C12.9855 8.54091 12.9855 8.45909 13.0434 8.43767L14.7623 7.80155C14.7805 7.79482 14.7948 7.78048 14.8015 7.76229L15.4377 6.04339Z" fill="url(#paint3_linear_532_54531)"/>
<path d="M4.58074 2.18646C4.60215 2.1286 4.68398 2.1286 4.70539 2.18646L5.34152 3.90535C5.34825 3.92354 5.36259 3.93788 5.38078 3.94461L7.09967 4.58074C7.15753 4.60215 7.15753 4.68398 7.09967 4.70539L5.38078 5.34152C5.36259 5.34825 5.34825 5.36259 5.34152 5.38078L4.70539 7.09967C4.68398 7.15753 4.60215 7.15753 4.58074 7.09967L3.94461 5.38078C3.93788 5.36259 3.92354 5.34825 3.90535 5.34152L2.18646 4.70539C2.1286 4.68398 2.1286 4.60215 2.18646 4.58074L3.90535 3.94461C3.92354 3.93788 3.93788 3.92354 3.94461 3.90535L4.58074 2.18646Z" fill="url(#paint4_linear_532_54531)"/>
<path d="M19.152 16.7577C19.1734 16.6999 19.2553 16.6999 19.2767 16.7577L19.9128 18.4766C19.9195 18.4948 19.9339 18.5092 19.9521 18.5159L21.671 19.152C21.7288 19.1734 21.7288 19.2553 21.671 19.2767L19.9521 19.9128C19.9339 19.9195 19.9195 19.9339 19.9128 19.9521L19.2767 21.671C19.2553 21.7288 19.1734 21.7288 19.152 21.671L18.5159 19.9521C18.5092 19.9339 18.4948 19.9195 18.4766 19.9128L16.7577 19.2767C16.6999 19.2553 16.6999 19.1734 16.7577 19.152L18.4766 18.5159C18.4948 18.5092 18.5092 18.4948 18.5159 18.4766L19.152 16.7577Z" fill="url(#paint5_linear_532_54531)"/>
<defs>
<linearGradient id="paint0_linear_532_54531" x1="17.6144" y1="-0.280597" x2="14.4183" y2="13.0067" gradientUnits="userSpaceOnUse">
<stop stop-color="#46465C"/>
<stop offset="1" stop-color="#1A1A27"/>
</linearGradient>
<linearGradient id="paint1_linear_532_54531" x1="8.5" y1="9" x2="8.5" y2="22" gradientUnits="userSpaceOnUse">
<stop stop-color="#488CFF"/>
<stop offset="0.0001" stop-color="#407FFF"/>
<stop offset="1" stop-color="#015DFA"/>
</linearGradient>
<linearGradient id="paint2_linear_532_54531" x1="9.30507" y1="18.0403" x2="9.30507" y2="13.0315" gradientUnits="userSpaceOnUse">
<stop stop-color="#C0C9E8"/>
<stop offset="1" stop-color="white"/>
</linearGradient>
<linearGradient id="paint3_linear_532_54531" x1="16.3051" y1="11.0403" x2="16.3051" y2="6.03148" gradientUnits="userSpaceOnUse">
<stop stop-color="#C0C9E8"/>
<stop offset="1" stop-color="white"/>
</linearGradient>
<linearGradient id="paint4_linear_532_54531" x1="5.45631" y1="1.26216" x2="4.22703" y2="6.37265" gradientUnits="userSpaceOnUse">
<stop stop-color="#46465C"/>
<stop offset="1" stop-color="#1A1A27"/>
</linearGradient>
<linearGradient id="paint5_linear_532_54531" x1="19.2144" y1="16.7144" x2="19.2144" y2="21.7144" gradientUnits="userSpaceOnUse">
<stop stop-color="#488CFF"/>
<stop offset="0.0001" stop-color="#407FFF"/>
<stop offset="1" stop-color="#015DFA"/>
</linearGradient>
</defs>
</svg>
