<svg width="143" height="47" viewBox="0 0 143 47" fill="none" xmlns="http://www.w3.org/2000/svg">
<path d="M9.13107 46.4976C8.76365 46.4976 8.4051 46.4929 8.04056 46.4847C7.28539 46.4749 6.53198 46.4094 5.78651 46.2886C5.0914 46.1692 4.41803 45.9471 3.7886 45.6297C3.16495 45.3149 2.59612 44.9021 2.10392 44.4072C1.6046 43.9181 1.18888 43.3508 0.87326 42.7278C0.554159 42.1008 0.333322 41.4287 0.218442 40.735C0.0943812 39.9895 0.0272593 39.2358 0.0176548 38.4802C0.0100092 38.2266 0 37.3821 0 37.3821V9.60252C0 9.60252 0.0106605 8.77106 0.0177151 8.52679C0.0269113 7.77241 0.093643 7.01982 0.217332 6.27553C0.332425 5.57988 0.553433 4.90585 0.872706 4.27677C1.18717 3.65422 1.60057 3.08652 2.09689 2.59566C2.59265 2.10014 3.1633 1.68524 3.78801 1.36609C4.41599 1.04968 5.08809 0.829177 5.7818 0.711974C6.52971 0.589994 7.28573 0.524046 8.04353 0.514683L9.13166 0.5H133.063L134.164 0.515272C134.915 0.52417 135.664 0.58953 136.405 0.710795C137.106 0.829469 137.785 1.05151 138.42 1.36961C139.672 2.01279 140.69 3.03036 141.333 4.2797C141.647 4.90444 141.864 5.57297 141.978 6.26261C142.103 7.01301 142.173 7.77151 142.188 8.53208C142.191 8.87264 142.191 9.23846 142.191 9.60252C142.201 10.0535 142.201 10.4827 142.201 10.9155V36.0833C142.201 36.5201 142.201 36.9464 142.191 37.3762C142.191 37.7673 142.191 38.1255 142.186 38.4943C142.172 39.2412 142.103 39.9862 141.98 40.7232C141.868 41.4219 141.648 42.0993 141.329 42.7314C141.011 43.3477 140.598 43.91 140.104 44.3978C139.612 44.8954 139.042 45.3106 138.417 45.6274C137.783 45.9473 137.105 46.1702 136.405 46.2886C135.66 46.41 134.906 46.4756 134.151 46.4847C133.798 46.4929 133.428 46.4976 133.069 46.4976L131.762 46.5L9.13107 46.4976Z" fill="black"/>
<path d="M29.0896 23.3628C29.1031 22.319 29.3811 21.2956 29.8978 20.3878C30.4145 19.4799 31.1531 18.7172 32.0448 18.1705C31.4783 17.3637 30.731 16.6997 29.8622 16.2314C28.9933 15.763 28.0269 15.5031 27.0398 15.4723C24.9339 15.2518 22.8924 16.7288 21.8193 16.7288C20.7254 16.7288 19.0732 15.4941 17.2941 15.5306C16.1433 15.5677 15.0217 15.9014 14.0387 16.4993C13.0557 17.0971 12.2448 17.9386 11.6849 18.9419C9.25962 23.1292 11.0686 29.2831 13.3919 32.6678C14.5542 34.3252 15.9127 36.1766 17.6903 36.1109C19.4297 36.039 20.0793 35.0049 22.179 35.0049C24.2591 35.0049 24.8686 36.1109 26.6822 36.0692C28.5487 36.039 29.7247 34.4044 30.8463 32.7313C31.6814 31.5504 32.3241 30.2452 32.7504 28.8641C31.6661 28.4067 30.7407 27.6412 30.0897 26.6629C29.4387 25.6846 29.0909 24.5369 29.0896 23.3628Z" fill="white"/>
<path d="M25.6631 13.2467C26.6808 12.0284 27.1822 10.4626 27.0608 8.88159C25.506 9.04444 24.0698 9.78545 23.0383 10.957C22.534 11.5293 22.1478 12.1951 21.9017 12.9164C21.6556 13.6377 21.5545 14.4002 21.6041 15.1605C22.3817 15.1685 23.1511 15.0004 23.8542 14.6689C24.5573 14.3374 25.1758 13.8511 25.6631 13.2467Z" fill="white"/>
<path d="M49.9557 32.0819H44.2475L42.8767 36.1182H40.459L45.8656 21.1849H48.3776L53.7842 36.1182H51.3253L49.9557 32.0819ZM44.8387 30.2194H49.3634L47.1328 23.6687H47.0704L44.8387 30.2194Z" fill="white"/>
<path d="M65.4603 30.6769C65.4603 34.0602 63.6444 36.234 60.904 36.234C60.2098 36.2702 59.5194 36.1107 58.9118 35.7738C58.3043 35.437 57.8042 34.9363 57.4687 34.3291H57.4169V39.7218H55.1758V25.2325H57.345V27.0434H57.3863C57.7371 26.4391 58.2457 25.9411 58.8579 25.6021C59.47 25.2632 60.1629 25.0961 60.8627 25.1186C63.6338 25.1186 65.4603 27.3029 65.4603 30.6769ZM63.1568 30.6769C63.1568 28.4726 62.0145 27.0234 60.2716 27.0234C58.5592 27.0234 57.4075 28.5031 57.4075 30.6769C57.4075 32.8706 58.5592 34.3397 60.2716 34.3397C62.0145 34.3397 63.1568 32.9011 63.1568 30.6769H63.1568Z" fill="white"/>
<path d="M77.4785 30.6769C77.4785 34.0602 75.662 36.234 72.9215 36.234C72.2273 36.2702 71.537 36.1107 70.9294 35.7738C70.3219 35.437 69.8218 34.9363 69.4863 34.3291H69.4345V39.7218H67.1934V25.2325H69.3626V27.0434H69.4038C69.7547 26.4391 70.2633 25.9411 70.8754 25.6021C71.4876 25.2632 72.1805 25.0961 72.8803 25.1186C75.6514 25.1186 77.4785 27.3029 77.4785 30.6769ZM75.1744 30.6769C75.1744 28.4726 74.0321 27.0234 72.2891 27.0234C70.5768 27.0234 69.4251 28.5031 69.4251 30.6769C69.4251 32.8706 70.5768 34.3397 72.2891 34.3397C74.0321 34.3397 75.1744 32.9011 75.1744 30.6769Z" fill="white"/>
<path d="M85.4191 31.9594C85.5852 33.4402 87.0278 34.4126 88.9992 34.4126C90.8882 34.4126 92.2472 33.4402 92.2472 32.1049C92.2472 30.9458 91.4276 30.2518 89.4868 29.7762L87.546 29.3099C84.7962 28.6476 83.5196 27.3652 83.5196 25.2842C83.5196 22.7076 85.7713 20.9379 88.9675 20.9379C92.133 20.9379 94.3023 22.7076 94.3753 25.2842H92.113C91.9775 23.7939 90.7422 22.8944 88.9368 22.8944C87.1315 22.8944 85.8961 23.8045 85.8961 25.1292C85.8961 26.1849 86.6851 26.8062 88.6153 27.2818L90.2652 27.6857C93.3377 28.4103 94.6132 29.6411 94.6132 31.8254C94.6132 34.6192 92.3826 36.369 88.8331 36.369C85.5121 36.369 83.2699 34.6603 83.125 31.9593L85.4191 31.9594Z" fill="white"/>
<path d="M99.4505 22.6555V25.2321H101.527V27.0019H99.4505V33.004C99.4505 33.9365 99.8662 34.371 100.779 34.371C101.025 34.3667 101.271 34.3495 101.516 34.3193V36.0785C101.106 36.155 100.689 36.1896 100.271 36.1818C98.0609 36.1818 97.1988 35.3539 97.1988 33.2424V27.0019H95.6113V25.2321H97.1988V22.6555H99.4505Z" fill="white"/>
<path d="M102.73 30.6785C102.73 27.2528 104.754 25.1002 107.909 25.1002C111.074 25.1002 113.088 27.2528 113.088 30.6785C113.088 34.1135 111.085 36.2567 107.909 36.2567C104.734 36.2567 102.73 34.1135 102.73 30.6785ZM110.805 30.6785C110.805 28.3286 109.725 26.9416 107.909 26.9416C106.093 26.9416 105.013 28.3391 105.013 30.6785C105.013 33.0378 106.093 34.4141 107.909 34.4141C109.725 34.4141 110.805 33.0378 110.805 30.6785H110.805Z" fill="white"/>
<path d="M114.936 25.2324H117.073V27.0855H117.125C117.269 26.5068 117.609 25.9953 118.088 25.6371C118.566 25.2788 119.153 25.0957 119.751 25.1185C120.009 25.1176 120.267 25.1455 120.519 25.2019V27.2922C120.193 27.1929 119.853 27.1473 119.512 27.1572C119.186 27.144 118.862 27.2013 118.561 27.325C118.259 27.4487 117.988 27.636 117.766 27.874C117.545 28.1119 117.377 28.395 117.275 28.7036C117.173 29.0123 117.14 29.3393 117.177 29.6621V36.1199H114.936L114.936 25.2324Z" fill="white"/>
<path d="M130.851 32.9239C130.549 34.9003 128.619 36.2567 126.15 36.2567C122.973 36.2567 121.002 34.1346 121.002 30.7301C121.002 27.3151 122.984 25.1002 126.055 25.1002C129.076 25.1002 130.976 27.1694 130.976 30.4706V31.2363H123.264V31.3713C123.229 31.772 123.279 32.1757 123.412 32.5555C123.545 32.9353 123.757 33.2826 124.035 33.5743C124.313 33.8659 124.65 34.0953 125.023 34.2472C125.397 34.3991 125.798 34.47 126.201 34.4552C126.731 34.5047 127.262 34.3824 127.717 34.1065C128.171 33.8306 128.524 33.4158 128.723 32.9238L130.851 32.9239ZM123.275 29.6744H128.733C128.753 29.3141 128.699 28.9536 128.572 28.6154C128.446 28.2772 128.251 27.9687 128 27.7093C127.748 27.4498 127.446 27.2449 127.111 27.1076C126.777 26.9702 126.417 26.9033 126.055 26.9111C125.69 26.9089 125.329 26.9788 124.991 27.1168C124.653 27.2548 124.346 27.4581 124.088 27.715C123.829 27.9719 123.624 28.2773 123.485 28.6136C123.345 28.9499 123.274 29.3105 123.275 29.6744V29.6744Z" fill="white"/>
<path d="M44.562 9.94552C45.0318 9.9119 45.5033 9.98268 45.9424 10.1528C46.3815 10.3228 46.7773 10.588 47.1012 10.9291C47.4251 11.2701 47.669 11.6786 47.8154 12.1251C47.9618 12.5716 48.007 13.0449 47.9478 13.5109C47.9478 15.8033 46.7054 17.121 44.562 17.121H41.9629V9.94552H44.562ZM43.0805 16.1062H44.4372C44.7729 16.1262 45.1089 16.0713 45.4207 15.9455C45.7324 15.8197 46.0122 15.6262 46.2395 15.379C46.4668 15.1317 46.636 14.8371 46.7347 14.5165C46.8334 14.1959 46.8592 13.8573 46.8101 13.5255C46.8556 13.195 46.8272 12.8586 46.727 12.5403C46.6268 12.222 46.4572 11.9298 46.2304 11.6846C46.0036 11.4393 45.7252 11.2472 45.4152 11.1218C45.1052 10.9965 44.7712 10.941 44.4372 10.9595H43.0805V16.1062Z" fill="white"/>
<path d="M49.2113 14.4095C49.1772 14.0536 49.218 13.6946 49.3312 13.3554C49.4443 13.0162 49.6274 12.7043 49.8685 12.4398C50.1096 12.1752 50.4035 11.9638 50.7313 11.8192C51.0592 11.6746 51.4137 11.5999 51.7722 11.5999C52.1306 11.5999 52.4852 11.6746 52.813 11.8192C53.1408 11.9638 53.4347 12.1752 53.6759 12.4398C53.917 12.7043 54.1 13.0162 54.2131 13.3554C54.3263 13.6946 54.3671 14.0536 54.333 14.4095C54.3678 14.7657 54.3274 15.1252 54.2146 15.465C54.1017 15.8047 53.9188 16.1172 53.6776 16.3822C53.4365 16.6473 53.1423 16.8591 52.8142 17.0041C52.486 17.149 52.1311 17.2239 51.7722 17.2239C51.4133 17.2239 51.0583 17.149 50.7301 17.0041C50.402 16.8591 50.1079 16.6473 49.8667 16.3822C49.6255 16.1172 49.4426 15.8047 49.3297 15.465C49.2169 15.1252 49.1765 14.7657 49.2113 14.4095ZM53.2307 14.4095C53.2307 13.2357 52.7019 12.5493 51.7739 12.5493C50.8424 12.5493 50.3184 13.2357 50.3184 14.4095C50.3184 15.5927 50.8424 16.2738 51.7739 16.2738C52.7019 16.2738 53.2307 15.5879 53.2307 14.4095H53.2307Z" fill="white"/>
<path d="M61.1398 17.119H60.0281L58.9058 13.1308H58.821L57.7034 17.119H56.6023L55.1055 11.704H56.1925L57.1652 15.8359H57.2453L58.3617 11.704H59.3898L60.5062 15.8359H60.591L61.5591 11.704H62.6307L61.1398 17.119Z" fill="white"/>
<path d="M63.8887 11.7056H64.9203V12.5658H65.0004C65.1362 12.2568 65.3654 11.9978 65.6558 11.8249C65.9463 11.652 66.2837 11.5737 66.6209 11.601C66.8851 11.5812 67.1504 11.621 67.3971 11.7173C67.6438 11.8136 67.8657 11.964 68.0462 12.1575C68.2267 12.3509 68.3612 12.5823 68.4399 12.8346C68.5185 13.087 68.5392 13.3537 68.5004 13.6151V17.1205H67.4287V13.8834C67.4287 13.0132 67.0495 12.5805 66.257 12.5805C66.0776 12.5721 65.8985 12.6026 65.732 12.6697C65.5655 12.7369 65.4156 12.8391 65.2924 12.9694C65.1692 13.0998 65.0758 13.2551 65.0185 13.4248C64.9612 13.5946 64.9413 13.7746 64.9603 13.9527V17.1206H63.8887L63.8887 11.7056Z" fill="white"/>
<path d="M70.209 9.59216H71.2807V17.121H70.209V9.59216Z" fill="white"/>
<path d="M72.7699 14.4096C72.7358 14.0537 72.7766 13.6946 72.8898 13.3554C73.003 13.0162 73.1861 12.7043 73.4272 12.4398C73.6683 12.1752 73.9623 11.9638 74.2901 11.8192C74.618 11.6746 74.9725 11.5999 75.331 11.5999C75.6895 11.5999 76.0441 11.6746 76.3719 11.8192C76.6998 11.9638 76.9937 12.1752 77.2348 12.4398C77.476 12.7043 77.659 13.0162 77.7722 13.3554C77.8854 13.6946 77.9262 14.0537 77.8921 14.4096C77.9269 14.7658 77.8865 15.1254 77.7736 15.4651C77.6607 15.8049 77.4778 16.1173 77.2366 16.3823C76.9954 16.6474 76.7012 16.8592 76.3731 17.0041C76.0449 17.1491 75.6899 17.224 75.331 17.224C74.9721 17.224 74.6171 17.1491 74.289 17.0041C73.9608 16.8592 73.6667 16.6474 73.4255 16.3823C73.1843 16.1173 73.0013 15.8049 72.8884 15.4651C72.7755 15.1254 72.7352 14.7658 72.7699 14.4096ZM76.7892 14.4096C76.7892 13.2358 76.2605 12.5494 75.3325 12.5494C74.401 12.5494 73.8769 13.2358 73.8769 14.4096C73.8769 15.5928 74.401 16.2739 75.3325 16.2739C76.2605 16.2739 76.7893 15.588 76.7893 14.4096H76.7892Z" fill="white"/>
<path d="M79.0215 15.588C79.0215 14.6133 79.7493 14.0513 81.0412 13.9715L82.5121 13.8869V13.4195C82.5121 12.8476 82.1329 12.5247 81.4004 12.5247C80.8021 12.5247 80.3876 12.7437 80.2686 13.1265H79.2311C79.3406 12.1964 80.218 11.5999 81.4498 11.5999C82.8112 11.5999 83.579 12.2757 83.579 13.4195V17.1194H82.5474V16.3584H82.4626C82.2905 16.6314 82.0488 16.8539 81.7623 17.0033C81.4757 17.1526 81.1546 17.2235 80.8316 17.2086C80.6036 17.2322 80.3732 17.208 80.1552 17.1374C79.9372 17.0668 79.7365 16.9515 79.566 16.7988C79.3954 16.6461 79.2589 16.4594 79.1651 16.2509C79.0713 16.0424 79.0224 15.8165 79.0215 15.588ZM82.5121 15.1253V14.6726L81.186 14.7571C80.4382 14.807 80.099 15.0607 80.099 15.5381C80.099 16.0254 80.523 16.309 81.106 16.309C81.2768 16.3263 81.4493 16.3091 81.6134 16.2585C81.7774 16.2079 81.9295 16.1249 82.0607 16.0144C82.1919 15.904 82.2994 15.7683 82.377 15.6156C82.4545 15.4628 82.5005 15.2961 82.5121 15.1253Z" fill="white"/>
<path d="M84.9863 14.4112C84.9863 12.7001 85.8684 11.6162 87.2404 11.6162C87.5797 11.6006 87.9166 11.6817 88.2114 11.8499C88.5063 12.0181 88.7471 12.2666 88.9056 12.5662H88.9857V9.59216H90.0573V17.121H89.0304V16.2655H88.9456C88.7749 16.5631 88.5257 16.8085 88.2251 16.975C87.9246 17.1415 87.584 17.2229 87.2404 17.2103C85.859 17.2103 84.9863 16.1264 84.9863 14.4112ZM86.0934 14.4112C86.0934 15.5597 86.6363 16.2508 87.5443 16.2508C88.4475 16.2508 89.0057 15.5498 89.0057 14.4159C89.0057 13.2873 88.4416 12.5762 87.5443 12.5762C86.6421 12.5762 86.0933 13.2721 86.0933 14.4112H86.0934Z" fill="white"/>
<path d="M94.4906 14.4095C94.4565 14.0536 94.4973 13.6946 94.6105 13.3554C94.7236 13.0162 94.9067 12.7043 95.1478 12.4398C95.3889 12.1752 95.6828 11.9638 96.0106 11.8192C96.3384 11.6746 96.693 11.5999 97.0515 11.5999C97.4099 11.5999 97.7645 11.6746 98.0923 11.8192C98.4201 11.9638 98.714 12.1752 98.9551 12.4398C99.1963 12.7043 99.3793 13.0162 99.4924 13.3554C99.6056 13.6946 99.6464 14.0536 99.6123 14.4095C99.6471 14.7657 99.6067 15.1252 99.4939 15.465C99.381 15.8047 99.1981 16.1172 98.9569 16.3822C98.7157 16.6473 98.4216 16.8591 98.0935 17.0041C97.7653 17.149 97.4104 17.2239 97.0515 17.2239C96.6925 17.2239 96.3376 17.149 96.0094 17.0041C95.6813 16.8591 95.3872 16.6473 95.146 16.3822C94.9048 16.1172 94.7219 15.8047 94.609 15.465C94.4962 15.1252 94.4558 14.7657 94.4906 14.4095ZM98.51 14.4095C98.51 13.2357 97.9812 12.5493 97.0532 12.5493C96.1217 12.5493 95.5977 13.2357 95.5977 14.4095C95.5977 15.5927 96.1217 16.2738 97.0532 16.2738C97.9812 16.2738 98.51 15.5879 98.51 14.4095Z" fill="white"/>
<path d="M101.051 11.7056H102.082V12.5658H102.163C102.298 12.2568 102.527 11.9978 102.818 11.8249C103.108 11.652 103.446 11.5737 103.783 11.601C104.047 11.5812 104.312 11.621 104.559 11.7173C104.806 11.8136 105.028 11.964 105.208 12.1575C105.389 12.3509 105.523 12.5823 105.602 12.8346C105.681 13.087 105.701 13.3537 105.663 13.6151V17.1205H104.591V13.8834C104.591 13.0132 104.212 12.5805 103.419 12.5805C103.24 12.5721 103.061 12.6026 102.894 12.6697C102.728 12.7369 102.578 12.8391 102.455 12.9694C102.331 13.0998 102.238 13.2551 102.181 13.4248C102.123 13.5946 102.103 13.7746 102.122 13.9527V17.1206H101.051V11.7056Z" fill="white"/>
<path d="M111.718 10.356V11.7288H112.895V12.6289H111.718V15.4134C111.718 15.9806 111.952 16.229 112.486 16.229C112.623 16.2285 112.759 16.2203 112.895 16.2043V17.0945C112.702 17.1288 112.507 17.1471 112.312 17.1491C111.12 17.1491 110.645 16.731 110.645 15.687V12.6289H109.783V11.7287H110.645V10.356H111.718Z" fill="white"/>
<path d="M114.357 9.59216H115.42V12.5762H115.504C115.647 12.2644 115.882 12.0039 116.179 11.8303C116.475 11.6568 116.818 11.5785 117.16 11.6062C117.423 11.5919 117.686 11.6357 117.93 11.7344C118.174 11.833 118.393 11.9842 118.571 12.177C118.75 12.3698 118.884 12.5995 118.963 12.8498C119.042 13.1001 119.065 13.3648 119.03 13.6249V17.121H117.958V13.8886C117.958 13.0237 117.554 12.5856 116.796 12.5856C116.612 12.5706 116.427 12.5958 116.254 12.6596C116.08 12.7234 115.923 12.8242 115.793 12.955C115.662 13.0857 115.562 13.2433 115.5 13.4166C115.437 13.59 115.413 13.7749 115.429 13.9584V17.121H114.357L114.357 9.59216Z" fill="white"/>
<path d="M125.281 15.6574C125.135 16.1523 124.82 16.5804 124.39 16.8668C123.96 17.1531 123.442 17.2796 122.928 17.224C122.57 17.2334 122.215 17.1651 121.886 17.0237C121.558 16.8824 121.264 16.6714 121.025 16.4055C120.786 16.1396 120.609 15.825 120.504 15.4837C120.4 15.1424 120.371 14.7825 120.42 14.429C120.372 14.0744 120.401 13.7137 120.506 13.3714C120.61 13.029 120.787 12.713 121.024 12.4448C121.262 12.1765 121.554 11.9623 121.882 11.8165C122.209 11.6707 122.565 11.5969 122.923 11.5999C124.434 11.5999 125.346 12.6293 125.346 14.3297V14.7026H121.511V14.7625C121.495 14.9612 121.52 15.1613 121.585 15.3498C121.65 15.5383 121.754 15.7111 121.89 15.8571C122.027 16.0032 122.192 16.1193 122.376 16.1979C122.559 16.2765 122.758 16.316 122.958 16.3138C123.214 16.3445 123.474 16.2985 123.704 16.1816C123.934 16.0647 124.124 15.8822 124.249 15.6573L125.281 15.6574ZM121.511 13.9123H124.254C124.268 13.7305 124.243 13.548 124.181 13.3764C124.12 13.2047 124.023 13.0478 123.897 12.9157C123.771 12.7836 123.619 12.6792 123.45 12.6093C123.282 12.5393 123.1 12.5053 122.917 12.5095C122.732 12.5072 122.548 12.5419 122.376 12.6116C122.205 12.6812 122.049 12.7845 121.918 12.9152C121.787 13.046 121.683 13.2015 121.613 13.3728C121.544 13.544 121.509 13.7274 121.511 13.9123H121.511Z" fill="white"/>
</svg>
