<svg width="25" height="24" viewBox="0 0 25 24" fill="none" xmlns="http://www.w3.org/2000/svg">
<path d="M9.0971 12.4567L7.20284 11.8253C6.97288 11.7486 6.7875 11.5759 6.69473 11.352C6.60197 11.128 6.61095 10.8748 6.71936 10.658L7.72943 8.6379C7.87108 8.35463 8.16062 8.1757 8.47733 8.1757H12.1414M12.0411 15.4002L12.6727 17.2951C12.7494 17.5251 12.922 17.7105 13.146 17.8032C13.3699 17.896 13.6231 17.887 13.8399 17.7786L15.8601 16.7685C16.1433 16.6269 16.3223 16.3374 16.3223 16.0206V12.3565M20.153 7.26616C21.0384 8.68548 21.5064 10.3253 21.5036 11.9981C21.5022 15.3154 19.6775 18.3635 16.7543 19.9318C13.8311 21.5 10.2824 21.3346 7.51777 19.5013M4.99672 16.9802C2.65194 13.4562 3.07963 8.77448 6.02415 5.73366C8.96867 2.69283 13.6342 2.11474 17.2318 4.34494M17.2385 11.6236L12.7258 15.2337C12.3931 15.4999 11.9135 15.4733 11.6122 15.172L9.32593 12.8858C9.02465 12.5845 8.99809 12.1048 9.26425 11.7721L12.8744 7.2595C14.5252 5.19601 17.0244 3.99479 19.667 3.99479C20.1288 3.99479 20.5032 4.36916 20.5032 4.83097C20.5032 7.47353 19.302 9.97282 17.2385 11.6236ZM7.1051 19.6096L4.49652 20.0015L4.88841 17.3929C5.01553 16.5466 5.67984 15.8823 6.52609 15.7552C7.13758 15.6633 7.75637 15.8671 8.19361 16.3044C8.63084 16.7416 8.83462 17.3604 8.74275 17.9719C8.61562 18.8181 7.95133 19.4824 7.1051 19.6096Z" stroke="white" stroke-width="1.5" stroke-linecap="round" stroke-linejoin="round"/>
</svg>
