<svg width="73" height="72" viewBox="0 0 73 72" fill="none" xmlns="http://www.w3.org/2000/svg">
<path d="M66.667 25.5121C66.6673 28.2066 66.1101 30.872 65.0304 33.3403C63.9507 35.8086 62.3719 38.0265 60.3934 39.8541C58.415 41.6817 56.0798 43.0795 53.535 43.9594C50.9901 44.8393 48.2908 45.1823 45.607 44.9668C45.2315 40.3466 43.2272 36.0104 39.9519 32.7326C36.6766 29.4549 32.3437 27.449 27.727 27.0733C27.5213 24.4556 27.8457 21.8233 28.6807 19.334C29.5156 16.8447 30.844 14.5496 32.5862 12.5863C34.3284 10.6229 36.4486 9.03153 38.8199 7.90755C41.1912 6.78356 43.7647 6.15005 46.3864 6.04494C49.0081 5.93983 51.6241 6.36529 54.0776 7.29584C56.5311 8.22639 58.7717 9.64289 60.6653 11.4605C62.5589 13.2781 64.0664 15.4595 65.0977 17.874C66.1289 20.2884 66.6627 22.8864 66.667 25.5121V25.5121Z" fill="url(#paint0_linear_1084_71310)"/>
<path d="M45.667 46.5C45.667 51.6717 43.6125 56.6316 39.9556 60.2886C36.2986 63.9455 31.3387 66 26.167 66C20.9953 66 16.0354 63.9455 12.3784 60.2886C8.72145 56.6316 6.66699 51.6717 6.66699 46.5C6.66699 41.3283 8.72145 36.3684 12.3784 32.7114C16.0354 29.0545 20.9953 27 26.167 27C31.3387 27 36.2986 29.0545 39.9556 32.7114C43.6125 36.3684 45.667 41.3283 45.667 46.5V46.5Z" fill="url(#paint1_linear_1084_71310)"/>
<path fill-rule="evenodd" clip-rule="evenodd" d="M25.1063 39.4393C25.6921 38.8536 26.6419 38.8536 27.2277 39.4393L33.2277 45.4393C33.8134 46.0251 33.8134 46.9749 33.2277 47.5607L27.2277 53.5607C26.6419 54.1464 25.6921 54.1464 25.1063 53.5607L19.1063 47.5607C18.5205 46.9749 18.5205 46.0251 19.1063 45.4393L25.1063 39.4393ZM22.2883 46.5L26.167 50.3787L30.0457 46.5L26.167 42.6213L22.2883 46.5Z" fill="url(#paint2_linear_1084_71310)"/>
<path fill-rule="evenodd" clip-rule="evenodd" d="M46.1063 18.4393C46.6921 17.8536 47.6419 17.8536 48.2277 18.4393L54.2277 24.4393C54.8134 25.0251 54.8134 25.9749 54.2277 26.5607L48.2277 32.5607C47.6419 33.1464 46.6921 33.1464 46.1063 32.5607L40.1063 26.5607C39.5205 25.9749 39.5205 25.0251 40.1063 24.4393L46.1063 18.4393ZM43.2883 25.5L47.167 29.3787L51.0457 25.5L47.167 21.6213L43.2883 25.5Z" fill="url(#paint3_linear_1084_71310)"/>
<path d="M58.9162 48.8601L53.9736 53.8028L49.5228 58.2535C48.7612 59.0151 49.3007 60.3163 50.3797 60.3163L58.5989 60.3163C59.9158 60.3163 60.9869 59.2452 60.9869 57.9282L60.9869 54.8024L60.9869 49.709C60.9789 48.638 59.6778 48.0985 58.9162 48.8601Z" fill="url(#paint4_linear_1084_71310)"/>
<path d="M13.5887 22.3137L18.5313 17.3711L22.982 12.9203C23.7437 12.1587 23.2042 10.8576 22.1252 10.8576L13.906 10.8576C12.589 10.8576 11.518 11.9286 11.518 13.2456L11.518 16.3714L11.518 21.4648C11.5259 22.5358 12.827 23.0753 13.5887 22.3137Z" fill="url(#paint5_linear_1084_71310)"/>
<defs>
<linearGradient id="paint0_linear_1084_71310" x1="47.167" y1="6.0293" x2="47.167" y2="45.0293" gradientUnits="userSpaceOnUse">
<stop stop-color="#4F90FF"/>
<stop offset="1" stop-color="#015DFA"/>
</linearGradient>
<linearGradient id="paint1_linear_1084_71310" x1="32.5103" y1="20.1289" x2="22.9219" y2="59.9908" gradientUnits="userSpaceOnUse">
<stop stop-color="#2C2C3D"/>
<stop offset="1" stop-color="#1A1A27"/>
</linearGradient>
<linearGradient id="paint2_linear_1084_71310" x1="28.5822" y1="54.1208" x2="28.5822" y2="39.0944" gradientUnits="userSpaceOnUse">
<stop stop-color="#B3BCDB"/>
<stop offset="1" stop-color="white"/>
</linearGradient>
<linearGradient id="paint3_linear_1084_71310" x1="49.5822" y1="33.1208" x2="49.5822" y2="18.0944" gradientUnits="userSpaceOnUse">
<stop stop-color="#B3BCDB"/>
<stop offset="1" stop-color="white"/>
</linearGradient>
<linearGradient id="paint4_linear_1084_71310" x1="54.2208" y1="53.5556" x2="60.284" y2="59.6188" gradientUnits="userSpaceOnUse">
<stop stop-color="#4F90FF"/>
<stop offset="1" stop-color="#015DFA"/>
</linearGradient>
<linearGradient id="paint5_linear_1084_71310" x1="18.2841" y1="17.6182" x2="12.2209" y2="11.555" gradientUnits="userSpaceOnUse">
<stop stop-color="#4F90FF"/>
<stop offset="1" stop-color="#015DFA"/>
</linearGradient>
</defs>
</svg>
