<svg width="136" height="152" viewBox="0 0 136 152" fill="none" xmlns="http://www.w3.org/2000/svg">
<path d="M115.386 92.546L117.723 96.7674L103.276 55.8096L100.939 51.5918L115.386 92.546Z" fill="url(#paint0_linear_1056_67064)"/>
<path d="M48.1048 51.5918L9.71442 92.546L24.1579 133.504H76.9918L115.386 92.546L100.939 51.5918H48.1048Z" fill="url(#paint1_linear_1056_67064)"/>
<path d="M76.559 132.486L114.229 92.3036L100.229 52.6094H48.5386L10.8727 92.7954L24.8687 132.486H76.559Z" fill="url(#paint2_linear_1056_67064)"/>
<path d="M24.1574 133.504L26.4942 137.722H79.3281L76.9913 133.504H24.1574Z" fill="url(#paint3_linear_1056_67064)"/>
<path d="M76.9919 133.505L79.3287 137.722L117.723 96.7683L115.386 92.5469L76.9919 133.505Z" fill="url(#paint4_linear_1056_67064)"/>
<path style="mix-blend-mode:multiply" opacity="0.6" d="M94.8371 130.094C101.099 119.131 88.369 99.8537 66.4045 87.0359C44.4399 74.218 21.558 72.7138 15.2963 83.6762C9.03459 94.6386 21.7643 113.916 43.7289 126.734C65.6935 139.552 88.5754 141.056 94.8371 130.094Z" fill="url(#paint5_radial_1056_67064)"/>
<path d="M58.7953 63.1407C58.9728 59.0234 59.3812 54.4789 60.0169 49.5001C60.6242 44.7366 61.3345 40.3537 62.1513 36.362C62.9646 32.3703 63.9732 28.9314 65.1735 26.0454C66.3704 23.1593 67.7945 20.9229 69.4387 19.3327C71.083 17.7461 73.0185 16.9492 75.2453 16.9492C77.0813 16.9492 78.5978 17.5056 79.7981 18.622L86.2119 24.5808C85.0115 23.4644 83.4916 22.908 81.659 22.908C79.4288 22.908 77.4933 23.7013 75.8525 25.2915C74.2083 26.8782 72.7877 29.1145 71.5873 32.0042C70.3905 34.8866 69.3819 38.3291 68.5651 42.3208C67.7518 46.3125 67.0416 50.6954 66.4307 55.4589C65.795 60.4341 65.3866 64.9786 65.209 69.0995C65.0279 73.2204 65.1664 76.7598 65.6175 79.7284C66.072 82.697 66.8995 85.0052 68.107 86.66C68.3556 87.001 68.6255 87.3061 68.9167 87.5754L62.5029 81.6166C62.2117 81.3473 61.9418 81.0422 61.6932 80.7012C60.4857 79.05 59.6547 76.7382 59.2037 73.7696C58.7526 70.801 58.6141 67.2616 58.7953 63.1407Z" fill="url(#paint6_linear_1056_67064)"/>
<path d="M49.7501 91.8335C54.1005 93.9658 59.2784 95.0319 65.2802 95.0319C71.2821 95.0319 77.0531 93.9371 81.9753 91.7402C86.901 89.5433 91.1521 86.4419 94.7247 82.4251C98.301 78.4119 101.202 73.6161 103.436 68.0342C105.67 62.4488 107.218 56.2746 108.081 49.5009C108.962 42.6016 108.969 36.4059 108.11 30.9066C107.254 25.4073 105.514 20.7479 102.896 16.9214C101.824 15.3491 100.606 13.9312 99.2421 12.6641L105.656 18.6229C107.02 19.89 108.238 21.3079 109.31 22.8802C111.928 26.7031 113.664 31.3661 114.524 36.8654C115.383 42.3647 115.376 48.5604 114.495 55.4597C113.632 62.2334 112.08 68.4076 109.85 73.993C107.616 79.5749 104.715 84.3707 101.139 88.3839C97.5658 92.3971 93.3148 95.5021 88.3891 97.699C83.4633 99.8959 77.9019 100.991 71.694 100.991C65.4862 100.991 60.5143 99.9246 56.1638 97.7923C53.7383 96.6042 51.5826 95.1324 49.6932 93.3807L43.2794 87.4219C45.1652 89.1736 47.3209 90.6454 49.7501 91.8335Z" fill="url(#paint7_linear_1056_67064)"/>
<path d="M38.706 31.0651C36.465 36.5429 34.9095 42.6884 34.043 49.5015C33.1516 56.4833 33.1481 62.776 34.0359 68.3794C34.9202 73.9828 36.6781 78.757 39.2919 82.7092C41.9129 86.6578 45.3968 89.7018 49.7508 91.8341C54.1012 93.9663 59.2791 95.0325 65.2809 95.0325C71.2828 95.0325 77.0538 93.9376 81.976 91.7408C86.9017 89.5439 91.1528 86.4425 94.7254 82.4256C98.3017 78.4124 101.203 73.6167 103.437 68.0348C105.671 62.4493 107.219 56.2751 108.082 49.5015C108.963 42.6022 108.97 36.4065 108.111 30.9072C107.255 25.4078 105.515 20.7485 102.897 16.9219C100.283 13.0954 96.803 10.1698 92.4597 8.13808C88.1128 6.11352 82.878 5.09766 76.7519 5.09766C70.6258 5.09766 64.9897 6.13147 60.0817 8.20269C55.1737 10.2703 50.944 13.2318 47.3891 17.0763C43.8377 20.9208 40.9398 25.5837 38.6989 31.0615L38.706 31.0651ZM58.7961 63.1421C58.9737 59.0248 59.3821 54.4803 60.0178 49.5015C60.6251 44.738 61.3354 40.3551 62.1522 36.3634C62.9655 32.3717 63.974 28.9329 65.1744 26.0468C66.3712 23.1607 67.7953 20.9244 69.4396 19.3342C71.0839 17.7439 73.0194 16.9506 75.2461 16.9506C79.2663 16.9506 81.7629 19.6249 82.7431 24.9771C83.7233 30.3292 83.5137 38.4992 82.1109 49.4979C81.4113 54.9757 80.6016 59.8037 79.6853 63.9821C78.7655 68.164 77.6895 71.6783 76.4536 74.5213C75.2213 77.3607 73.8114 79.5145 72.2203 80.979C70.6364 82.4436 68.8288 83.1759 66.7974 83.1759C64.6062 83.1759 62.9122 82.3503 61.6976 80.699C60.4901 79.0478 59.6591 76.7361 59.2081 73.7674C58.7571 70.7988 58.6186 67.2594 58.7997 63.1385" fill="url(#paint8_linear_1056_67064)"/>
<path d="M58.9898 49.3733C59.6006 44.5919 60.3216 40.148 61.1348 36.1599C61.9587 32.1251 62.9958 28.5893 64.2139 25.6566C65.4569 22.6593 66.9697 20.2865 68.7099 18.603C70.5389 16.8333 72.7265 15.9395 75.2125 15.9395C79.7654 15.9395 82.6207 18.9189 83.6967 24.7987C84.6911 30.2334 84.4816 38.5901 83.0717 49.6354C82.3721 55.1168 81.5517 60.0202 80.6284 64.2093C79.6979 68.4415 78.5899 72.0491 77.3327 74.9388C76.0471 77.9002 74.5413 80.1868 72.8579 81.7375C71.0893 83.3708 69.0366 84.2 66.7567 84.2C64.2423 84.2 62.2535 83.2272 60.8507 81.3104C59.5509 79.5335 58.6524 77.0495 58.173 73.9301C57.7113 70.8968 57.5728 67.2533 57.7575 63.1001C57.935 58.9864 58.3505 54.3701 58.9862 49.3769L58.9898 49.3733ZM59.1745 73.7721C59.629 76.7408 60.4565 79.0489 61.664 80.7037C62.875 82.3549 64.5726 83.1806 66.7638 83.1806C68.7952 83.1806 70.5993 82.4483 72.1867 80.9837C73.7742 79.5191 75.1841 77.3653 76.42 74.5259C77.6558 71.6829 78.7319 68.1687 79.6517 63.9868C80.5715 59.8084 81.3777 54.9804 82.0773 49.5026C83.4801 38.5075 83.6896 30.3339 82.7095 24.9818C81.7293 19.6296 79.2327 16.9553 75.2125 16.9553C72.9822 16.9553 71.0467 17.7486 69.406 19.3388C67.7617 20.9255 66.3411 23.1618 65.1408 26.0515C63.944 28.9339 62.9354 32.3764 62.1186 36.3681C61.3053 40.3598 60.595 44.7427 59.9842 49.5062C59.3485 54.4814 58.9401 59.0259 58.7625 63.1468C58.5814 67.2677 58.7199 70.8071 59.1709 73.7757L59.1745 73.7721Z" fill="url(#paint9_linear_1056_67064)"/>
<path d="M34.01 49.5018C34.8801 42.6851 36.4356 36.5396 38.673 31.0654C40.9139 25.5876 43.8118 20.9283 47.3632 17.0802C50.9182 13.2357 55.1479 10.2742 60.0559 8.2066C64.9639 6.13538 70.5182 5.10156 76.726 5.10156C82.9338 5.10156 88.0869 6.11384 92.4338 8.14199C96.7771 10.1701 100.257 13.0957 102.871 16.9258C105.489 20.7488 107.225 25.4117 108.085 30.9111C108.944 36.4104 108.937 42.6061 108.056 49.5054C107.193 56.279 105.641 62.4532 103.411 68.0387C101.177 73.6206 98.2758 78.4163 94.6996 82.4295C91.1269 86.4428 86.8759 89.5478 81.9501 91.7447C77.0243 93.9415 71.4629 95.0364 65.2551 95.0364C59.0473 95.0364 54.0753 93.9702 49.7249 91.838C45.3709 89.7057 41.8905 86.6617 39.2661 82.7131C36.6487 78.7609 34.8943 73.9867 34.01 68.3833C33.1222 62.7799 33.1257 56.4872 34.0171 49.5054L34.01 49.5018ZM34.9973 68.2182C35.8532 73.6385 37.5685 78.323 40.0971 82.1424C42.6079 85.9259 45.9924 88.8765 50.1582 90.9155C54.3523 92.9687 59.4273 94.0133 65.248 94.0133C71.0687 94.0133 76.7686 92.9328 81.5382 90.8078C86.3112 88.6791 90.4841 85.6315 93.9467 81.7439C97.427 77.8384 100.297 73.0965 102.474 67.651C104.665 62.1696 106.206 56.0206 107.055 49.369C107.918 42.6025 107.928 36.4463 107.087 31.0654C106.256 25.7456 104.558 21.1796 102.04 17.5002C99.5436 13.8423 96.1663 11.0029 92.0076 9.06452C87.8134 7.11176 82.671 6.11743 76.7225 6.11743C70.7739 6.11743 65.1983 7.13689 60.443 9.14349C55.6948 11.1429 51.5396 14.0469 48.0984 17.773C44.6429 21.5134 41.784 26.1153 39.6035 31.4531C37.4087 36.8232 35.8603 42.9364 35.008 49.631C34.1343 56.4872 34.1308 62.744 34.9973 68.2182Z" fill="url(#paint10_linear_1056_67064)"/>
<path d="M107.224 81.4952L102.089 76.8574L105.495 81.9045L110.63 86.5387L107.224 81.4952Z" fill="#FFDF3E"/>
<path style="mix-blend-mode:multiply" d="M121.81 91.9544C128.542 85.1499 130.26 75.854 125.648 71.1915C121.035 66.529 111.838 68.2654 105.106 75.0699C98.3739 81.8745 96.6559 91.1703 101.269 95.8329C105.882 100.495 115.078 98.7589 121.81 91.9544Z" fill="url(#paint11_radial_1056_67064)"/>
<path d="M16.5835 69.2988C16.619 69.306 16.6545 69.3131 16.6936 69.3202C16.6581 69.3131 16.619 69.306 16.5835 69.2988Z" fill="#A6A6A6"/>
<path d="M15.436 68.707C15.6704 68.9978 16.0504 69.1916 16.5831 69.2993C16.0469 69.188 15.674 68.9942 15.436 68.707Z" fill="#A6A6A6"/>
<path d="M22.3007 56.5768C22.0343 56.1819 21.633 55.9486 21.0648 55.8481C20.4539 55.7404 19.9532 55.7835 19.5306 55.9917C19.0547 56.225 18.6285 56.5839 18.2308 57.0901C17.7869 57.6501 17.3749 58.3536 17.0127 59.1721C16.6291 60.0444 16.2598 61.0136 15.9188 62.0581C15.5815 63.0991 15.3115 64.0863 15.1198 64.9945C14.9387 65.8488 14.8712 66.6098 14.9244 67.2595C14.9671 67.7908 15.102 68.2251 15.34 68.5769L18.7457 73.624C18.7315 73.6024 18.7173 73.5737 18.7031 73.5522L18.8381 73.7532C19.0902 74.0619 19.4986 74.2629 20.0917 74.367L18.316 71.7358C18.3267 71.2225 18.3941 70.6589 18.5255 70.0451C18.7173 69.1405 18.9872 68.1533 19.3246 67.1088C19.6655 66.0642 20.0313 65.095 20.4184 64.2227C20.7807 63.4007 21.1926 62.7007 21.6366 62.1407C22.0343 61.6346 22.4605 61.2756 22.9364 61.0423C23.359 60.8341 23.8597 60.791 24.4706 60.8987C25.0352 60.9992 25.4401 61.2325 25.7064 61.6274L22.3007 56.5804V56.5768Z" fill="url(#paint12_linear_1056_67064)"/>
<path d="M33.0901 60.1947C32.8983 59.746 32.6674 59.3224 32.3975 58.924L28.9918 53.877C29.2617 54.2754 29.4925 54.699 29.6843 55.1477C30.2205 56.3933 30.4656 57.8399 30.4159 59.4409C30.3697 61.0024 30.0536 62.6967 29.4747 64.4736C28.8959 66.254 28.1288 67.8658 27.1912 69.2621C26.2359 70.6836 25.1207 71.8754 23.8813 72.8051C22.6206 73.7456 21.2249 74.4169 19.7262 74.7902C18.2346 75.1635 16.6543 75.2066 15.0313 74.9194C13.1881 74.5892 11.6681 73.9753 10.521 73.0851C9.81785 72.5395 9.22478 71.9149 8.75244 71.2149L12.1582 76.2619C12.6305 76.9619 13.2201 77.5865 13.9268 78.1321C15.0739 79.0224 16.5939 79.6398 18.4371 79.9664C20.06 80.2572 21.6404 80.2141 23.132 79.8372C24.6307 79.4639 26.0264 78.7926 27.2871 77.8521C28.5265 76.926 29.6417 75.7343 30.597 74.3092C31.5345 72.9128 32.3052 71.3011 32.8805 69.5206C33.4594 67.7437 33.7755 66.0494 33.8216 64.4879C33.8714 62.8905 33.6263 61.4439 33.0901 60.1947Z" fill="url(#paint13_linear_1056_67064)"/>
<path d="M54.3842 58.3945L57.79 63.4416L17.2119 101.786L13.8062 96.7426L54.3842 58.3945Z" fill="url(#paint14_linear_1056_67064)"/>
<path d="M47.7118 81.9168C47.6905 81.8845 47.6657 81.8486 47.6408 81.8163C47.3922 81.4897 46.9767 81.2815 46.3623 81.1702C45.7976 81.0697 45.3253 81.1235 44.9169 81.3317C44.4481 81.5722 44.0148 81.9491 43.6277 82.4481C43.1909 83.0117 42.7825 83.7188 42.4203 84.5444C42.0332 85.4203 41.6709 86.3787 41.3371 87.3982C40.5132 89.9325 40.2007 91.8063 40.4066 92.9729C40.4741 93.3534 40.5878 93.6621 40.7511 93.9062L44.1569 98.9533C43.99 98.7056 43.8763 98.3969 43.8124 98.0199C43.6064 96.8533 43.9225 94.9759 44.7429 92.4452C45.0732 91.4258 45.4389 90.4638 45.826 89.5915C46.1918 88.7659 46.5967 88.0587 47.0371 87.4951C47.4242 86.9962 47.8574 86.6193 48.3262 86.3787C48.7346 86.1705 49.207 86.1167 49.7716 86.2172C50.386 86.3249 50.8015 86.5367 51.0501 86.8633C51.075 86.8957 51.0999 86.928 51.1212 86.9639L47.7154 81.9168H47.7118Z" fill="url(#paint15_linear_1056_67064)"/>
<path d="M29.6843 55.148C29.1373 53.8809 28.2886 52.8112 27.1486 51.964C26.0192 51.124 24.5845 50.5497 22.8869 50.2446C21.1574 49.9359 19.5131 49.9538 17.9967 50.2948C16.4696 50.643 15.0526 51.2963 13.7918 52.2297C12.5524 53.1522 11.4444 54.344 10.5103 55.7762C9.59409 57.1726 8.83055 58.8023 8.24102 60.6222C7.69055 62.3165 7.37803 63.9534 7.31766 65.4898C7.25373 67.0656 7.48102 68.5087 7.99597 69.783C8.51803 71.0788 9.3668 72.188 10.521 73.0819C11.6681 73.9721 13.1881 74.5895 15.0313 74.9162C16.6542 75.2069 18.2346 75.1639 19.7262 74.7869C21.2249 74.4136 22.6206 73.7424 23.8813 72.8019C25.1207 71.8757 26.2359 70.684 27.1912 69.2589C28.1287 67.8625 28.8994 66.2508 29.4747 64.4703C30.0536 62.6934 30.3697 60.9991 30.4158 59.4376C30.4656 57.8403 30.2205 56.3936 29.6843 55.1444V55.148ZM21.715 63.0919C21.3847 64.1078 21.0189 65.0698 20.6353 65.9421C20.2695 66.7713 19.8611 67.4748 19.4243 68.042C19.0372 68.541 18.6039 68.9179 18.1352 69.1584C17.7268 69.3702 17.2544 69.4204 16.6897 69.3199C16.6507 69.3127 16.6152 69.3056 16.5797 69.2984C16.569 69.2984 16.5548 69.2948 16.5441 69.2912C16.5193 69.2876 16.498 69.2804 16.4731 69.2768C16.4589 69.2768 16.4447 69.2697 16.434 69.2661C16.4127 69.2625 16.3914 69.2553 16.3737 69.2517C16.3595 69.2481 16.3453 69.2445 16.3311 69.2409C16.3133 69.2374 16.2956 69.2302 16.2778 69.2266C16.2636 69.223 16.2494 69.2194 16.2352 69.2122C16.2174 69.2051 16.1997 69.2015 16.1819 69.1943C16.1677 69.1907 16.157 69.1835 16.1428 69.1799C16.1251 69.1727 16.1109 69.1692 16.0931 69.162C16.0789 69.1584 16.0683 69.1512 16.0541 69.1476C16.0399 69.1404 16.0221 69.1333 16.0079 69.1297C15.9937 69.1225 15.983 69.1189 15.9724 69.1117C15.9582 69.1045 15.944 69.0974 15.9298 69.0902C15.9191 69.083 15.9049 69.0794 15.8942 69.0722C15.88 69.0651 15.8658 69.0579 15.8516 69.0507C15.841 69.0435 15.8303 69.0363 15.8161 69.0327C15.8019 69.0256 15.7913 69.0184 15.777 69.0112C15.7664 69.004 15.7557 68.9969 15.7451 68.9897C15.7309 68.9825 15.7202 68.9717 15.7096 68.9645C15.6989 68.9574 15.6883 68.9502 15.6812 68.943C15.6705 68.9358 15.6563 68.9251 15.6456 68.9179C15.635 68.9107 15.6279 68.9035 15.6172 68.8963C15.6066 68.8892 15.5959 68.8784 15.5853 68.8676C15.5746 68.8604 15.5675 68.8497 15.5569 68.8425C15.5462 68.8317 15.5356 68.8245 15.5284 68.8138C15.5213 68.8066 15.5107 68.7958 15.5036 68.7887C15.4929 68.7779 15.4858 68.7671 15.4752 68.7599C15.4681 68.7528 15.461 68.742 15.4397 68.7169C15.4326 68.7061 15.4219 68.6953 15.4148 68.6881C15.1342 68.3184 14.9744 67.8553 14.9283 67.2738C14.8785 66.6241 14.9425 65.8631 15.1236 65.0088C15.3154 64.1042 15.5853 63.117 15.9227 62.0724C16.2636 61.0279 16.6294 60.0587 17.0165 59.1864C17.3787 58.3643 17.7907 57.6644 18.2346 57.1044C18.6324 56.5982 19.0585 56.2393 19.5344 56.006C19.957 55.7978 20.4578 55.7547 21.0686 55.8624C21.9884 56.0275 22.4749 56.5372 22.649 57.5244C22.8514 58.6946 22.5389 60.572 21.715 63.1027V63.0919Z" fill="url(#paint16_linear_1056_67064)"/>
<path d="M49.2601 53.7168L8.67139 92.1044L13.8067 96.7422L54.3848 58.3941L49.2601 53.7168Z" fill="url(#paint17_linear_1056_67064)"/>
<path d="M55.0552 80.7098C54.5331 79.414 53.6844 78.3048 52.5302 77.411C51.3831 76.5207 49.8631 75.9033 48.0199 75.5767C46.3969 75.2859 44.8166 75.329 43.325 75.7059C41.8263 76.0828 40.4306 76.7505 39.1699 77.691C37.9304 78.6171 36.8153 79.8088 35.86 81.2339C34.9224 82.6303 34.1518 84.242 33.5729 86.0261C32.9976 87.7994 32.6815 89.4937 32.6318 91.0588C32.5821 92.6562 32.8271 94.1028 33.3634 95.352C33.9103 96.6155 34.7591 97.6852 35.8991 98.5324C37.0284 99.3724 38.4596 99.9503 40.1607 100.252C41.8902 100.561 43.5381 100.543 45.051 100.198C46.5781 99.8498 47.9951 99.2001 49.2558 98.2632C50.4988 97.3406 51.6033 96.1453 52.5408 94.7166C53.4571 93.3166 54.2171 91.687 54.8066 89.867C55.3571 88.1727 55.6696 86.5358 55.73 84.9995C55.7939 83.4272 55.5666 81.9806 55.0516 80.7062L55.0552 80.7098ZM47.9276 85.502C47.7358 86.4066 47.4694 87.3937 47.1285 88.4383C46.7911 89.4793 46.4218 90.4485 46.0382 91.3208C45.676 92.1428 45.264 92.8428 44.8201 93.4028C44.4224 93.9089 43.9962 94.2679 43.5203 94.5012C43.0977 94.7094 42.597 94.7525 41.9861 94.6448C41.0663 94.4797 40.5798 93.97 40.4057 92.9828C40.1998 91.8162 40.5158 89.9388 41.3362 87.4081C41.6665 86.3886 42.0323 85.4266 42.4194 84.5543C42.7852 83.7287 43.19 83.0216 43.6269 82.458C44.014 81.959 44.4472 81.5821 44.916 81.3416C45.3244 81.1334 45.7967 81.0796 46.3614 81.1801C46.9758 81.2878 47.3913 81.4996 47.6399 81.8262C47.9205 82.1959 48.0803 82.659 48.1229 83.2405C48.1726 83.8903 48.1087 84.6513 47.9276 85.5092V85.502Z" fill="url(#paint18_linear_1056_67064)"/>
<path d="M58.4612 85.753C58.2588 85.2469 58.0067 84.7695 57.7048 84.3244L54.299 79.2773C54.6009 79.726 54.853 80.1999 55.0555 80.706C55.5669 81.9803 55.7941 83.427 55.7338 84.9992C55.6734 86.5356 55.3609 88.1725 54.8104 89.8668C54.2209 91.6831 53.4573 93.3164 52.5446 94.7164C51.6071 96.1451 50.5026 97.3368 49.2596 98.2629C47.9989 99.1998 46.5819 99.8496 45.0548 100.198C43.5419 100.542 41.8976 100.56 40.1645 100.252C38.467 99.9501 37.0322 99.3686 35.9029 98.5322C35.1642 97.983 34.5498 97.3404 34.0562 96.6153L37.4619 101.662C37.952 102.391 38.5699 103.034 39.3086 103.579C40.438 104.419 41.8692 104.997 43.5703 105.299C45.2998 105.607 46.9477 105.589 48.4606 105.245C49.9876 104.897 51.4046 104.247 52.6654 103.31C53.9084 102.387 55.0128 101.192 55.9504 99.7634C56.8667 98.3635 57.6267 96.7338 58.2162 94.9138C58.7667 93.2195 59.0792 91.5826 59.1395 90.0463C59.2035 88.474 58.9762 87.0274 58.4612 85.753Z" fill="url(#paint19_linear_1056_67064)"/>
<path d="M21.2424 54.8452C20.9725 54.7986 20.7097 54.7734 20.4647 54.7734C19.9639 54.7734 19.5022 54.8739 19.0938 55.075C18.4794 55.3765 17.9396 55.8252 17.446 56.4534C16.9488 57.0816 16.4942 57.8569 16.0965 58.7579C15.6952 59.6661 15.3152 60.6712 14.9671 61.7409C14.6191 62.8106 14.3421 63.8337 14.1397 64.7813C13.9372 65.729 13.8662 66.5905 13.9266 67.3408C13.9869 68.1269 14.2142 68.7694 14.6191 69.2971L14.6937 69.3904L14.786 69.4945C14.786 69.4945 14.857 69.5663 14.8783 69.5843L14.9742 69.6704L15.1411 69.7997L15.2512 69.8715L15.3684 69.9397L15.4821 70.0007L15.5957 70.0545L15.7236 70.1084L15.8621 70.1586L15.9793 70.1981L16.0929 70.2304L16.2385 70.2663L16.3735 70.295L16.5084 70.3202C16.7535 70.3632 16.9914 70.3848 17.2116 70.3848C17.7123 70.3848 18.174 70.2771 18.5895 70.0617C19.1826 69.7602 19.7295 69.2899 20.2125 68.6689C20.7026 68.0336 21.1536 67.2546 21.5514 66.3572C21.9527 65.449 22.3291 64.4583 22.6701 63.4101C23.5579 60.6784 23.874 58.6933 23.6396 57.3364C23.391 55.9221 22.5848 55.0857 21.2424 54.8488V54.8452ZM21.7148 63.0906C21.3845 64.1065 21.0187 65.0685 20.6351 65.9408C20.2693 66.77 19.8609 67.4736 19.4241 68.0407C19.037 68.5397 18.6037 68.9166 18.135 69.1571C17.7265 69.3689 17.2542 69.4192 16.6895 69.3187C16.6505 69.3115 16.615 69.3043 16.5794 69.2971C16.5688 69.2971 16.5546 69.2935 16.5439 69.2899C16.5191 69.2863 16.4978 69.2792 16.4729 69.2756C16.4587 69.2756 16.4445 69.2684 16.4338 69.2648C16.4125 69.2612 16.3912 69.254 16.3735 69.2504C16.3593 69.2469 16.3451 69.2433 16.3309 69.2397C16.3131 69.2361 16.2953 69.2289 16.2776 69.2253C16.2634 69.2217 16.2492 69.2181 16.235 69.211C16.2172 69.2038 16.1995 69.2002 16.1817 69.193C16.1675 69.1894 16.1568 69.1822 16.1426 69.1787C16.1249 69.1715 16.1107 69.1679 16.0929 69.1607C16.0787 69.1571 16.0681 69.1499 16.0538 69.1464C16.0396 69.1392 16.0219 69.132 16.0077 69.1284C15.9935 69.1212 15.9828 69.1176 15.9722 69.1105C15.958 69.1033 15.9438 69.0961 15.9295 69.0889C15.9189 69.0817 15.9047 69.0781 15.894 69.071C15.8798 69.0638 15.8656 69.0566 15.8514 69.0494C15.8408 69.0423 15.8301 69.0351 15.8159 69.0315C15.8017 69.0243 15.791 69.0171 15.7768 69.0099C15.7662 69.0028 15.7555 68.9956 15.7449 68.9884C15.7307 68.9812 15.72 68.9705 15.7094 68.9633C15.6987 68.9561 15.6881 68.9489 15.6809 68.9417C15.6703 68.9346 15.6561 68.9238 15.6454 68.9166C15.6348 68.9094 15.6277 68.9023 15.617 68.8951C15.6064 68.8879 15.5957 68.8771 15.5851 68.8664C15.5744 68.8592 15.5673 68.8484 15.5566 68.8412C15.546 68.8305 15.5353 68.8233 15.5282 68.8125C15.5211 68.8053 15.5105 68.7946 15.5034 68.7874C15.4927 68.7766 15.4856 68.7658 15.475 68.7587C15.4679 68.7515 15.4608 68.7407 15.4395 68.7156C15.4324 68.7048 15.4217 68.6941 15.4146 68.6869C15.134 68.3171 14.9742 67.8541 14.9281 67.2726C14.8783 66.6228 14.9423 65.8618 15.1234 65.0075C15.3152 64.1029 15.5851 63.1158 15.9225 62.0712C16.2634 61.0266 16.6292 60.0574 17.0163 59.1851C17.3785 58.3631 17.7905 57.6631 18.2344 57.1031C18.6321 56.597 19.0583 56.238 19.5342 56.0047C19.9568 55.7965 20.4576 55.7534 21.0684 55.8611C21.9882 56.0262 22.4747 56.5359 22.6488 57.5231C22.8512 58.6933 22.5387 60.5707 21.7148 63.1014V63.0906Z" fill="url(#paint20_linear_1056_67064)"/>
<path d="M29.6843 55.148C29.1373 53.8809 28.2886 52.8112 27.1486 51.964C26.0192 51.124 24.5845 50.5497 22.8869 50.2446C21.1574 49.9359 19.5131 49.9538 17.9967 50.2948C16.4696 50.643 15.0526 51.2963 13.7918 52.2297C12.5524 53.1522 11.4444 54.344 10.5103 55.7762C9.59409 57.1726 8.83055 58.8023 8.24102 60.6222C7.69055 62.3165 7.37803 63.9534 7.31766 65.4898C7.25373 67.0656 7.48102 68.5087 7.99597 69.783C8.51803 71.0788 9.3668 72.188 10.521 73.0819C11.6681 73.9721 13.1881 74.5895 15.0313 74.9162C16.6542 75.2069 18.2346 75.1639 19.7262 74.7869C21.2249 74.4136 22.6206 73.7424 23.8813 72.8019C25.1207 71.8757 26.2359 70.684 27.1912 69.2589C28.1287 67.8625 28.8994 66.2508 29.4747 64.4703C30.0536 62.6934 30.3697 60.9991 30.4158 59.4376C30.4656 57.8403 30.2205 56.3936 29.6843 55.1444V55.148ZM29.4108 59.4089C29.3682 60.8699 29.0699 62.4673 28.5194 64.158C27.9689 65.8523 27.2409 67.3779 26.3566 68.6953C25.4617 70.0235 24.4282 71.1327 23.2811 71.9906C22.1234 72.8557 20.8449 73.466 19.4847 73.807C18.7247 73.9972 17.9292 74.0941 17.123 74.0941C16.498 74.0941 15.8516 74.0367 15.2053 73.9218C13.5184 73.6203 12.1475 73.0675 11.1354 72.2814C10.1232 71.4988 9.38101 70.5332 8.92999 69.4061C8.47186 68.2646 8.26943 66.9651 8.32625 65.54C8.38307 64.1042 8.67783 62.5606 9.19989 60.9489C9.76455 59.2079 10.489 57.6608 11.352 56.3506C12.2186 55.0224 13.2414 53.9132 14.392 53.0624C15.5391 52.2117 16.8283 51.6158 18.2239 51.2999C18.9413 51.1384 19.7049 51.0558 20.4897 51.0558C21.2071 51.0558 21.9564 51.124 22.7164 51.2604C24.2613 51.5369 25.554 52.0538 26.5555 52.7968C27.5463 53.5327 28.2886 54.466 28.7609 55.568C29.2368 56.6772 29.457 57.9731 29.4108 59.4233V59.4089Z" fill="url(#paint21_linear_1056_67064)"/>
<path d="M49.2598 53.7168L8.66748 92.1044L13.8063 96.7422L54.3808 58.3941L49.2598 53.7168ZM13.7886 95.3602L10.1591 92.0829L49.2704 55.0952L52.8928 58.4013L13.7886 95.3566V95.3602Z" fill="url(#paint22_linear_1056_67064)"/>
<path d="M55.0552 80.7098C54.5331 79.414 53.6844 78.3048 52.5302 77.411C51.3831 76.5207 49.8631 75.9033 48.0199 75.5767C46.3969 75.2859 44.8166 75.329 43.325 75.7059C41.8263 76.0828 40.4306 76.7505 39.1699 77.691C37.9304 78.6171 36.8153 79.8088 35.86 81.2339C34.9224 82.6303 34.1518 84.242 33.5729 86.0261C32.9976 87.7994 32.6815 89.4937 32.6318 91.0588C32.5821 92.6562 32.8271 94.1028 33.3634 95.352C33.9103 96.6155 34.7591 97.6852 35.8991 98.5324C37.0284 99.3724 38.4596 99.9503 40.1607 100.252C41.8902 100.561 43.5381 100.543 45.051 100.198C46.5781 99.8498 47.9951 99.2001 49.2558 98.2632C50.4988 97.3406 51.6033 96.1453 52.5408 94.7166C53.4571 93.3166 54.2171 91.687 54.8066 89.867C55.3571 88.1727 55.6696 86.5358 55.73 84.9995C55.7939 83.4272 55.5666 81.9806 55.0516 80.7062L55.0552 80.7098ZM54.7249 84.96C54.6681 86.3958 54.3733 87.9394 53.8513 89.5511C53.2866 91.2849 52.5657 92.8356 51.6991 94.1566C50.8291 95.4812 49.8063 96.5868 48.6556 97.4447C47.5085 98.2955 46.2194 98.8878 44.8272 99.2037C44.1027 99.3688 43.3356 99.4513 42.5472 99.4513C41.8334 99.4513 41.0876 99.3831 40.3312 99.2503C38.7899 98.9739 37.4972 98.457 36.4921 97.7104C35.5013 96.9745 34.7591 96.0448 34.2832 94.9428C33.8073 93.8336 33.5871 92.5341 33.6333 91.0911C33.6794 89.6193 33.9777 88.0219 34.5247 86.342C35.0751 84.6477 35.8032 83.1185 36.6875 81.8047C37.5824 80.4765 38.6159 79.3673 39.7629 78.5094C40.9136 77.6479 42.1921 77.0376 43.5629 76.693C44.3229 76.5028 45.1149 76.4059 45.9246 76.4059C46.5496 76.4059 47.196 76.4633 47.8423 76.5782C49.5292 76.8797 50.9001 77.4325 51.9122 78.2186C52.9244 79.0012 53.6666 79.9668 54.1176 81.0939C54.5758 82.2318 54.7782 83.5349 54.7214 84.96H54.7249Z" fill="url(#paint23_linear_1056_67064)"/>
<path d="M48.4399 81.199C48.0315 80.6641 47.41 80.3303 46.5399 80.1759C46.2984 80.1329 46.064 80.1113 45.8403 80.1113C45.3431 80.1113 44.8778 80.219 44.4623 80.4344C43.8622 80.7431 43.3152 81.2134 42.8358 81.8308C42.3422 82.4661 41.8947 83.2451 41.5005 84.1425C41.0992 85.0543 40.7227 86.045 40.3818 87.0932C39.494 89.8249 39.1779 91.8136 39.4158 93.1633C39.6644 94.574 40.4706 95.4104 41.813 95.6509C42.0829 95.6975 42.3457 95.7227 42.5908 95.7227C43.0915 95.7227 43.5532 95.6222 43.9616 95.4211C44.576 95.1196 45.1158 94.6709 45.6094 94.0427C46.1066 93.4145 46.5612 92.6392 46.959 91.7382C47.3603 90.83 47.7403 89.8249 48.0883 88.7588C48.4363 87.6891 48.7133 86.666 48.9158 85.7183C49.1182 84.7671 49.1892 83.9056 49.1324 83.1553C49.072 82.3692 48.8447 81.7303 48.4399 81.199ZM47.932 85.503C47.7403 86.4076 47.4739 87.3947 47.133 88.4393C46.7956 89.4803 46.4263 90.4495 46.0427 91.3218C45.6805 92.1438 45.2685 92.8438 44.8246 93.4038C44.4268 93.9099 44.0006 94.2689 43.5248 94.5022C43.1022 94.7104 42.6014 94.7535 41.9906 94.6458C41.0708 94.4807 40.5842 93.9709 40.4102 92.9838C40.2042 91.8171 40.5203 89.9398 41.3407 87.4091C41.6709 86.3896 42.0367 85.4276 42.4238 84.5553C42.7896 83.7297 43.1945 83.0225 43.6313 82.459C44.0184 81.96 44.4517 81.5831 44.9205 81.3426C45.3289 81.1344 45.8012 81.0805 46.3659 81.181C46.9803 81.2887 47.3958 81.5005 47.6444 81.8272C47.9249 82.1969 48.0847 82.66 48.1274 83.2415C48.1771 83.8912 48.1131 84.6522 47.932 85.5101V85.503Z" fill="url(#paint24_linear_1056_67064)"/>
<path d="M22.2018 0L41.7522 38.025L6.78174 22.3922L22.2018 0Z" fill="url(#paint25_linear_1056_67064)"/>
<path d="M8.30518 21.9627L22.0739 1.96484L39.536 35.9228L8.30518 21.9627Z" fill="url(#paint26_linear_1056_67064)"/>
<path d="M41.7533 38.0255L38.5038 39.9208L3.52979 24.2843L6.78285 22.3926L41.7533 38.0255Z" fill="url(#paint27_linear_1056_67064)"/>
<path d="M6.78285 22.3922L3.52979 24.2839L18.9499 1.89533L22.2029 0L6.78285 22.3922Z" fill="url(#paint28_linear_1056_67064)"/>
<path d="M133.927 12.0979L117.377 23.9509L120.918 5.19141L133.927 12.0979Z" fill="url(#paint29_linear_1056_67064)"/>
<path d="M121.65 6.73047L132.006 12.2262L118.833 21.6598L121.65 6.73047Z" fill="url(#paint30_linear_1056_67064)"/>
<path d="M133.927 12.0996L133.259 13.3488L116.71 25.2018L117.378 23.9526L133.927 12.0996Z" fill="url(#paint31_linear_1056_67064)"/>
<path d="M117.378 23.9509L116.71 25.2001L120.247 6.43701L120.918 5.19141L117.378 23.9509Z" fill="url(#paint32_linear_1056_67064)"/>
<path d="M3.97705 33.9961L29.2345 47.9741L7.90488 49.489L3.97705 33.9961Z" fill="url(#paint33_linear_1056_67064)"/>
<path d="M5.52588 36.0176L25.7439 47.2029L8.6724 48.4162L5.52588 36.0176Z" fill="url(#paint34_linear_1056_67064)"/>
<path d="M29.2345 47.9766L25.6334 50.9811L4.30029 52.4959L7.90494 49.4914L29.2345 47.9766Z" fill="url(#paint35_linear_1056_67064)"/>
<path d="M7.90504 49.489L4.30038 52.4935L0.372559 37.0006L3.97721 33.9961L7.90504 49.489Z" fill="url(#paint36_linear_1056_67064)"/>
<path d="M4.44189 107.02L48.8377 110.164L29.2767 135.098L4.44189 107.02Z" fill="url(#paint37_linear_1056_67064)"/>
<path d="M6.84619 108.211L46.8631 111.043L29.2305 133.518L6.84619 108.211Z" fill="url(#paint38_linear_1056_67064)"/>
<path d="M29.2771 135.098L24.8343 139.811L-0.000488281 111.736L4.44229 107.02L29.2771 135.098Z" fill="url(#paint39_linear_1056_67064)"/>
<path d="M54.7969 136.407L59.7155 120.121L69.0486 139.9L54.7969 136.407Z" fill="url(#paint40_linear_1056_67064)"/>
<path d="M56.0684 135.672L59.9216 122.922L67.2268 138.408L56.0684 135.672Z" fill="url(#paint41_linear_1056_67064)"/>
<path d="M54.7975 136.407L52.585 139.415L57.5036 123.129L59.7161 120.121L54.7975 136.407Z" fill="url(#paint42_linear_1056_67064)"/>
<path d="M69.0492 139.899L66.8366 142.907L52.585 139.414L54.7975 136.406L69.0492 139.899Z" fill="url(#paint43_linear_1056_67064)"/>
<path d="M49.5199 19.8533C49.5199 21.1887 48.4509 22.2692 47.1298 22.2692C45.8087 22.2692 44.7397 21.1887 44.7397 19.8533C44.7397 18.518 45.8087 17.4375 47.1298 17.4375C48.4509 17.4375 49.5199 18.518 49.5199 19.8533Z" stroke="url(#paint44_linear_1056_67064)" stroke-width="3" stroke-miterlimit="10"/>
<path d="M131.339 118.293C132.659 118.293 133.729 117.211 133.729 115.877C133.729 114.543 132.659 113.461 131.339 113.461C130.019 113.461 128.949 114.543 128.949 115.877C128.949 117.211 130.019 118.293 131.339 118.293Z" stroke="url(#paint45_linear_1056_67064)" stroke-width="3" stroke-miterlimit="10"/>
<path d="M40.098 147.584C40.098 148.919 39.0291 150 37.708 150C36.3868 150 35.3179 148.919 35.3179 147.584C35.3179 146.248 36.3868 145.168 37.708 145.168C39.0291 145.168 40.098 146.248 40.098 147.584Z" stroke="url(#paint46_linear_1056_67064)" stroke-width="3" stroke-miterlimit="10"/>
<defs>
<linearGradient id="paint0_linear_1056_67064" x1="117.723" y1="74.1778" x2="100.939" y2="74.1778" gradientUnits="userSpaceOnUse">
<stop stop-color="#5879CE"/>
<stop offset="0.64" stop-color="#839DF9"/>
</linearGradient>
<linearGradient id="paint1_linear_1056_67064" x1="84.9256" y1="44.0428" x2="39.3814" y2="140.679" gradientUnits="userSpaceOnUse">
<stop stop-color="#2A54E9"/>
<stop offset="0.43" stop-color="#5E5BE8"/>
<stop offset="1" stop-color="#505CC7"/>
</linearGradient>
<linearGradient id="paint2_linear_1056_67064" x1="84.4147" y1="45.1573" x2="39.9115" y2="139.576" gradientUnits="userSpaceOnUse">
<stop offset="0.43" stop-color="#3662FE"/>
<stop offset="1" stop-color="#3E4CCE"/>
</linearGradient>
<linearGradient id="paint3_linear_1056_67064" x1="79.3281" y1="135.615" x2="24.1574" y2="135.615" gradientUnits="userSpaceOnUse">
<stop stop-color="#3654BF"/>
<stop offset="1" stop-color="#3D5ED1"/>
</linearGradient>
<linearGradient id="paint4_linear_1056_67064" x1="117.723" y1="115.136" x2="76.9919" y2="115.136" gradientUnits="userSpaceOnUse">
<stop stop-color="#3545CE"/>
<stop offset="1" stop-color="#5269DE"/>
</linearGradient>
<radialGradient id="paint5_radial_1056_67064" cx="0" cy="0" r="1" gradientUnits="userSpaceOnUse" gradientTransform="translate(56.5243 107.815) rotate(-60.2651) scale(22.849 46.0028)">
<stop stop-color="#366374"/>
<stop offset="0.08" stop-color="#3D7184"/>
<stop offset="0.16" stop-color="#447D91"/>
<stop offset="0.25" stop-color="#4A8699" stop-opacity="0.87"/>
<stop offset="0.5" stop-color="#5E9FB1" stop-opacity="0.5"/>
<stop offset="0.72" stop-color="#6CB1C3" stop-opacity="0.23"/>
<stop offset="0.89" stop-color="#74BCCE" stop-opacity="0.06"/>
<stop offset="1" stop-color="#78C1D2" stop-opacity="0"/>
</radialGradient>
<linearGradient id="paint6_linear_1056_67064" x1="93.2294" y1="33.0416" x2="51.1248" y2="67.9911" gradientUnits="userSpaceOnUse">
<stop stop-color="#9EABB1"/>
<stop offset="0.11" stop-color="#ACB9BF"/>
<stop offset="0.27" stop-color="#BCC9CF"/>
<stop offset="0.44" stop-color="#CAD4D9"/>
<stop offset="0.66" stop-color="#DAE1E5"/>
<stop offset="0.94" stop-color="#BCC9CF"/>
</linearGradient>
<linearGradient id="paint7_linear_1056_67064" x1="119.215" y1="34.6326" x2="48.3157" y2="93.4868" gradientUnits="userSpaceOnUse">
<stop stop-color="#BECBD1"/>
<stop offset="0.06" stop-color="#D3DCE1"/>
<stop offset="0.12" stop-color="#DFE7EB"/>
<stop offset="0.17" stop-color="#E4EBEF"/>
<stop offset="0.44" stop-color="#BCC9CF"/>
<stop offset="0.53" stop-color="#CAD4D9"/>
<stop offset="0.66" stop-color="#DAE1E5"/>
<stop offset="0.73" stop-color="#C8D1D5"/>
<stop offset="0.94" stop-color="#9EABB1"/>
</linearGradient>
<linearGradient id="paint8_linear_1056_67064" x1="90.5916" y1="7.25862" x2="50.5521" y2="92.2126" gradientUnits="userSpaceOnUse">
<stop stop-color="white"/>
<stop offset="0.37" stop-color="#E6EBEE"/>
<stop offset="0.73" stop-color="#D5DDE3"/>
<stop offset="1" stop-color="#CFD9DF"/>
</linearGradient>
<linearGradient id="paint9_linear_1056_67064" x1="84.9255" y1="19.6009" x2="56.3796" y2="80.1679" gradientUnits="userSpaceOnUse">
<stop stop-color="#CDD7DD"/>
<stop offset="0.28" stop-color="#D1DADF"/>
<stop offset="0.57" stop-color="#DDE4E8"/>
<stop offset="0.86" stop-color="#F2F4F6"/>
<stop offset="1" stop-color="white"/>
</linearGradient>
<linearGradient id="paint10_linear_1056_67064" x1="90.5622" y1="7.25894" x2="50.5227" y2="92.2129" gradientUnits="userSpaceOnUse">
<stop offset="0.18" stop-color="white"/>
<stop offset="0.7" stop-color="#D7DFE2"/>
<stop offset="1" stop-color="#C6D1D6"/>
</linearGradient>
<radialGradient id="paint11_radial_1056_67064" cx="0" cy="0" r="1" gradientUnits="userSpaceOnUse" gradientTransform="translate(115.657 84.112) rotate(-45.3069) scale(17.3584 11.8522)">
<stop stop-color="#CFD9DF"/>
<stop offset="0.06" stop-color="#CFD9DF" stop-opacity="0.88"/>
<stop offset="0.19" stop-color="#CFD9DF" stop-opacity="0.65"/>
<stop offset="0.33" stop-color="#CFD9DF" stop-opacity="0.45"/>
<stop offset="0.46" stop-color="#CFD9DF" stop-opacity="0.29"/>
<stop offset="0.6" stop-color="#CFD9DF" stop-opacity="0.16"/>
<stop offset="0.73" stop-color="#CFD9DF" stop-opacity="0.07"/>
<stop offset="0.87" stop-color="#CFD9DF" stop-opacity="0.02"/>
<stop offset="1" stop-color="#CFD9DF" stop-opacity="0"/>
</radialGradient>
<linearGradient id="paint12_linear_1056_67064" x1="15.5672" y1="71.9368" x2="24.0406" y2="57.4128" gradientUnits="userSpaceOnUse">
<stop offset="0.04" stop-color="#DDB736"/>
<stop offset="0.2" stop-color="#E5BF3B"/>
<stop offset="0.38" stop-color="#F5D146"/>
<stop offset="0.66" stop-color="#DDB736"/>
<stop offset="0.96" stop-color="#CC992F"/>
</linearGradient>
<linearGradient id="paint13_linear_1056_67064" x1="12.5844" y1="76.8758" x2="34.4357" y2="61.7393" gradientUnits="userSpaceOnUse">
<stop stop-color="#FFDF3E"/>
<stop offset="0.04" stop-color="#F9D83C"/>
<stop offset="0.21" stop-color="#E4BF37"/>
<stop offset="0.32" stop-color="#DDB736"/>
<stop offset="0.45" stop-color="#EBC839"/>
<stop offset="0.59" stop-color="#FFDF3E"/>
<stop offset="0.8" stop-color="#F5D146"/>
<stop offset="1" stop-color="#FFE84F"/>
</linearGradient>
<linearGradient id="paint14_linear_1056_67064" x1="15.7736" y1="100.332" x2="56.2516" y2="60.2857" gradientUnits="userSpaceOnUse">
<stop stop-color="#FFDF3E"/>
<stop offset="0.2" stop-color="#F5D146"/>
<stop offset="0.44" stop-color="#DDB736"/>
<stop offset="0.68" stop-color="#F5D146"/>
<stop offset="1" stop-color="#FFE84F"/>
</linearGradient>
<linearGradient id="paint15_linear_1056_67064" x1="40.4315" y1="96.7887" x2="48.8291" y2="82.3968" gradientUnits="userSpaceOnUse">
<stop offset="0.04" stop-color="#DDB736"/>
<stop offset="0.2" stop-color="#E5BF3B"/>
<stop offset="0.38" stop-color="#F5D146"/>
<stop offset="0.66" stop-color="#DDB736"/>
<stop offset="0.96" stop-color="#CC992F"/>
</linearGradient>
<linearGradient id="paint16_linear_1056_67064" x1="13.9658" y1="51.9102" x2="23.9305" y2="73.0539" gradientUnits="userSpaceOnUse">
<stop stop-color="#FFDF3E"/>
<stop offset="0.71" stop-color="#F5D146"/>
</linearGradient>
<linearGradient id="paint17_linear_1056_67064" x1="26.5348" y1="64.4283" x2="36.6838" y2="85.9582" gradientUnits="userSpaceOnUse">
<stop stop-color="#FFDF3E"/>
<stop offset="0.71" stop-color="#F5D146"/>
</linearGradient>
<linearGradient id="paint18_linear_1056_67064" x1="39.2942" y1="77.3607" x2="49.2625" y2="98.5044" gradientUnits="userSpaceOnUse">
<stop stop-color="#FFDF3E"/>
<stop offset="0.71" stop-color="#F5D146"/>
</linearGradient>
<linearGradient id="paint19_linear_1056_67064" x1="37.9165" y1="102.312" x2="59.7679" y2="87.172" gradientUnits="userSpaceOnUse">
<stop stop-color="#FFDF3E"/>
<stop offset="0.32" stop-color="#DDB736"/>
<stop offset="0.56" stop-color="#FFDF3E"/>
<stop offset="0.76" stop-color="#F5D146"/>
<stop offset="1" stop-color="#FFE84F"/>
</linearGradient>
<linearGradient id="paint20_linear_1056_67064" x1="16.0254" y1="56.5216" x2="21.7144" y2="68.5935" gradientUnits="userSpaceOnUse">
<stop stop-color="#E9C246"/>
<stop offset="1" stop-color="#FBE740"/>
</linearGradient>
<linearGradient id="paint21_linear_1056_67064" x1="13.9658" y1="51.9102" x2="23.9305" y2="73.0539" gradientUnits="userSpaceOnUse">
<stop stop-color="#FFF03E"/>
<stop offset="0.71" stop-color="#EFC946"/>
</linearGradient>
<linearGradient id="paint22_linear_1056_67064" x1="26.5345" y1="64.4283" x2="36.6835" y2="85.9582" gradientUnits="userSpaceOnUse">
<stop stop-color="#FFF03E"/>
<stop offset="0.71" stop-color="#EFC946"/>
</linearGradient>
<linearGradient id="paint23_linear_1056_67064" x1="39.2942" y1="77.3607" x2="49.2625" y2="98.5044" gradientUnits="userSpaceOnUse">
<stop stop-color="#FFF03E"/>
<stop offset="0.71" stop-color="#EFC946"/>
</linearGradient>
<linearGradient id="paint24_linear_1056_67064" x1="41.4366" y1="81.8523" x2="47.1291" y2="93.9242" gradientUnits="userSpaceOnUse">
<stop stop-color="#E9C246"/>
<stop offset="1" stop-color="#FBE740"/>
</linearGradient>
<linearGradient id="paint25_linear_1056_67064" x1="12.4497" y1="4.59474" x2="30.6696" y2="43.2492" gradientUnits="userSpaceOnUse">
<stop offset="0.03" stop-color="#FFF555"/>
<stop offset="0.3" stop-color="#F9E750"/>
<stop offset="0.72" stop-color="#EFC946"/>
</linearGradient>
<linearGradient id="paint26_linear_1056_67064" x1="13.3694" y1="6.0678" x2="29.6375" y2="40.5886" gradientUnits="userSpaceOnUse">
<stop stop-color="#FFDF3E"/>
<stop offset="0.71" stop-color="#F5D146"/>
</linearGradient>
<linearGradient id="paint27_linear_1056_67064" x1="16.4888" y1="17.8158" x2="29.016" y2="44.3911" gradientUnits="userSpaceOnUse">
<stop stop-color="#EFC946"/>
<stop offset="0.46" stop-color="#D8AF34"/>
<stop offset="0.96" stop-color="#CC992F"/>
</linearGradient>
<linearGradient id="paint28_linear_1056_67064" x1="3.52979" y1="12.1437" x2="22.2029" y2="12.1437" gradientUnits="userSpaceOnUse">
<stop stop-color="#F5D146"/>
<stop offset="1" stop-color="#FFF03E"/>
</linearGradient>
<linearGradient id="paint29_linear_1056_67064" x1="119.945" y1="5.65088" x2="126.534" y2="19.6359" gradientUnits="userSpaceOnUse">
<stop stop-color="#8CC6E6"/>
<stop offset="0.43" stop-color="#425DEA"/>
<stop offset="1" stop-color="#4B5BAC"/>
</linearGradient>
<linearGradient id="paint30_linear_1056_67064" x1="120.876" y1="7.09302" x2="126.124" y2="18.2245" gradientUnits="userSpaceOnUse">
<stop offset="0.43" stop-color="#5C7DF1"/>
<stop offset="1" stop-color="#3D64C7"/>
</linearGradient>
<linearGradient id="paint31_linear_1056_67064" x1="116.71" y1="18.6507" x2="133.927" y2="18.6507" gradientUnits="userSpaceOnUse">
<stop stop-color="#444791"/>
<stop offset="1" stop-color="#364474"/>
</linearGradient>
<linearGradient id="paint32_linear_1056_67064" x1="116.71" y1="15.1957" x2="120.918" y2="15.1957" gradientUnits="userSpaceOnUse">
<stop stop-color="#6476D6"/>
<stop offset="0.64" stop-color="#6A78FB"/>
</linearGradient>
<linearGradient id="paint33_linear_1056_67064" x1="10.3802" y1="30.9808" x2="20.3594" y2="52.1567" gradientUnits="userSpaceOnUse">
<stop stop-color="#939BE1"/>
<stop offset="0.43" stop-color="#7D81E2"/>
<stop offset="1" stop-color="#3248BD"/>
</linearGradient>
<linearGradient id="paint34_linear_1056_67064" x1="10.6505" y1="33.6018" x2="18.6418" y2="50.551" gradientUnits="userSpaceOnUse">
<stop offset="0.43" stop-color="#7881D2"/>
<stop offset="1" stop-color="#5F80C0"/>
</linearGradient>
<linearGradient id="paint35_linear_1056_67064" x1="4.30029" y1="50.238" x2="29.2345" y2="50.238" gradientUnits="userSpaceOnUse">
<stop stop-color="#4E5AC5"/>
<stop offset="1" stop-color="#4B56B5"/>
</linearGradient>
<linearGradient id="paint36_linear_1056_67064" x1="0.603398" y1="35.5863" x2="7.7995" y2="50.8478" gradientUnits="userSpaceOnUse">
<stop stop-color="#5D7ADF"/>
<stop offset="0.43" stop-color="#3B6BE7"/>
<stop offset="1" stop-color="#3E5CC9"/>
</linearGradient>
<linearGradient id="paint37_linear_1056_67064" x1="22.078" y1="98.7059" x2="37.4208" y2="131.256" gradientUnits="userSpaceOnUse">
<stop stop-color="#8CA0E6"/>
<stop offset="0.43" stop-color="#8290DC"/>
<stop offset="1" stop-color="#4B5BAC"/>
</linearGradient>
<linearGradient id="paint38_linear_1056_67064" x1="22.7422" y1="100.716" x2="36.5742" y2="130.055" gradientUnits="userSpaceOnUse">
<stop offset="0.43" stop-color="#788CD2"/>
<stop offset="1" stop-color="#5F74C0"/>
</linearGradient>
<linearGradient id="paint39_linear_1056_67064" x1="-0.000488281" y1="123.417" x2="29.2771" y2="123.417" gradientUnits="userSpaceOnUse">
<stop stop-color="#546DAE"/>
<stop offset="1" stop-color="#4A619D"/>
</linearGradient>
<linearGradient id="paint40_linear_1056_67064" x1="54.6939" y1="122.487" x2="64.0188" y2="142.268" gradientUnits="userSpaceOnUse">
<stop offset="0.03" stop-color="#FFF555"/>
<stop offset="0.3" stop-color="#F9E750"/>
<stop offset="0.72" stop-color="#EFC946"/>
</linearGradient>
<linearGradient id="paint41_linear_1056_67064" x1="55.9902" y1="124.778" x2="63.2912" y2="140.261" gradientUnits="userSpaceOnUse">
<stop stop-color="#FFDF3E"/>
<stop offset="0.71" stop-color="#F5D146"/>
</linearGradient>
<linearGradient id="paint42_linear_1056_67064" x1="56.1505" y1="139.415" x2="56.1505" y2="120.121" gradientUnits="userSpaceOnUse">
<stop stop-color="#DDB736"/>
<stop offset="0.54" stop-color="#F5D146"/>
<stop offset="1" stop-color="#FFF03E"/>
</linearGradient>
<linearGradient id="paint43_linear_1056_67064" x1="52.585" y1="139.655" x2="69.0492" y2="139.655" gradientUnits="userSpaceOnUse">
<stop stop-color="#D8AF34"/>
<stop offset="0.96" stop-color="#CC992F"/>
</linearGradient>
<linearGradient id="paint44_linear_1056_67064" x1="45.8939" y1="17.1755" x2="48.4095" y2="22.5105" gradientUnits="userSpaceOnUse">
<stop stop-color="#FFDF3E"/>
<stop offset="0.71" stop-color="#F5D146"/>
</linearGradient>
<linearGradient id="paint45_linear_1056_67064" x1="130.103" y1="113.199" x2="132.619" y2="118.538" gradientUnits="userSpaceOnUse">
<stop stop-color="#FFDF3E"/>
<stop offset="0.71" stop-color="#F5D146"/>
</linearGradient>
<linearGradient id="paint46_linear_1056_67064" x1="36.4685" y1="144.906" x2="38.9841" y2="150.241" gradientUnits="userSpaceOnUse">
<stop stop-color="#FFDF3E"/>
<stop offset="0.71" stop-color="#F5D146"/>
</linearGradient>
</defs>
</svg>
