<svg width="143" height="46" viewBox="0 0 143 46" fill="none" xmlns="http://www.w3.org/2000/svg">
<path d="M9.13107 45.9976C8.76365 45.9976 8.4051 45.9929 8.04056 45.9847C7.28539 45.9749 6.53198 45.9094 5.78651 45.7886C5.0914 45.6692 4.41803 45.4471 3.7886 45.1297C3.16495 44.8149 2.59612 44.4021 2.10392 43.9072C1.6046 43.4181 1.18888 42.8508 0.87326 42.2278C0.554159 41.6008 0.333322 40.9287 0.218442 40.235C0.0943812 39.4895 0.0272593 38.7358 0.0176548 37.9802C0.0100092 37.7266 0 36.8821 0 36.8821V9.10252C0 9.10252 0.0106605 8.27106 0.0177151 8.02679C0.0269113 7.27241 0.093643 6.51982 0.217332 5.77553C0.332425 5.07988 0.553433 4.40585 0.872706 3.77677C1.18717 3.15422 1.60057 2.58652 2.09689 2.09566C2.59265 1.60014 3.1633 1.18524 3.78801 0.86609C4.41599 0.549679 5.08809 0.329177 5.7818 0.211974C6.52971 0.0899943 7.28573 0.0240463 8.04353 0.0146832L9.13166 0H133.063L134.164 0.0152724C134.915 0.0241703 135.664 0.08953 136.405 0.210795C137.106 0.329469 137.785 0.551509 138.42 0.869613C139.672 1.51279 140.69 2.53036 141.333 3.7797C141.647 4.40444 141.864 5.07297 141.978 5.76261C142.103 6.51301 142.173 7.27151 142.188 8.03208C142.191 8.37264 142.191 8.73846 142.191 9.10252C142.201 9.55348 142.201 9.9827 142.201 10.4155V35.5833C142.201 36.0201 142.201 36.4464 142.191 36.8762C142.191 37.2673 142.191 37.6255 142.186 37.9943C142.172 38.7412 142.103 39.4862 141.98 40.2232C141.868 40.9219 141.648 41.5993 141.329 42.2314C141.011 42.8477 140.598 43.41 140.104 43.8978C139.612 44.3954 139.042 44.8106 138.417 45.1274C137.783 45.4473 137.105 45.6702 136.405 45.7886C135.66 45.91 134.906 45.9756 134.151 45.9847C133.798 45.9929 133.428 45.9976 133.069 45.9976L131.762 46L9.13107 45.9976Z" fill="white"/>
<path d="M29.0896 22.8628C29.1031 21.819 29.3811 20.7956 29.8978 19.8878C30.4145 18.9799 31.1531 18.2172 32.0448 17.6705C31.4783 16.8637 30.731 16.1997 29.8622 15.7314C28.9933 15.263 28.0269 15.0031 27.0398 14.9723C24.9339 14.7518 22.8924 16.2288 21.8193 16.2288C20.7254 16.2288 19.0732 14.9941 17.2941 15.0306C16.1433 15.0677 15.0217 15.4014 14.0387 15.9993C13.0557 16.5971 12.2448 17.4386 11.6849 18.4419C9.25962 22.6292 11.0686 28.7831 13.3919 32.1678C14.5542 33.8252 15.9127 35.6766 17.6903 35.6109C19.4297 35.539 20.0793 34.5049 22.179 34.5049C24.2591 34.5049 24.8686 35.6109 26.6822 35.5692C28.5487 35.539 29.7247 33.9044 30.8463 32.2313C31.6814 31.0504 32.3241 29.7452 32.7504 28.3641C31.6661 27.9067 30.7407 27.1412 30.0897 26.1629C29.4387 25.1846 29.0909 24.0369 29.0896 22.8628Z" fill="black"/>
<path d="M25.6631 12.7467C26.6808 11.5284 27.1822 9.9625 27.0608 8.38153C25.506 8.54437 24.0698 9.28539 23.0383 10.4569C22.534 11.0292 22.1478 11.6951 21.9017 12.4163C21.6556 13.1376 21.5545 13.9002 21.6041 14.6604C22.3817 14.6684 23.1511 14.5003 23.8542 14.1688C24.5573 13.8373 25.1758 13.3511 25.6631 12.7467Z" fill="black"/>
<path d="M49.9557 31.582H44.2475L42.8767 35.6183H40.459L45.8656 20.685H48.3776L53.7842 35.6183H51.3253L49.9557 31.582ZM44.8387 29.7194H49.3634L47.1328 23.1688H47.0704L44.8387 29.7194Z" fill="black"/>
<path d="M65.4603 30.1768C65.4603 33.5602 63.6444 35.7339 60.904 35.7339C60.2098 35.7702 59.5194 35.6107 58.9118 35.2738C58.3043 34.9369 57.8042 34.4363 57.4687 33.8291H57.4169V39.2218H55.1758V24.7325H57.345V26.5433H57.3863C57.7371 25.9391 58.2457 25.441 58.8579 25.1021C59.47 24.7632 60.1629 24.596 60.8627 24.6186C63.6338 24.6186 65.4603 26.8029 65.4603 30.1768ZM63.1568 30.1768C63.1568 27.9726 62.0145 26.5234 60.2716 26.5234C58.5592 26.5234 57.4075 28.0031 57.4075 30.1768C57.4075 32.3706 58.5592 33.8397 60.2716 33.8397C62.0145 33.8397 63.1568 32.4011 63.1568 30.1768H63.1568Z" fill="black"/>
<path d="M77.4785 30.1768C77.4785 33.5602 75.662 35.7339 72.9215 35.7339C72.2273 35.7702 71.537 35.6107 70.9294 35.2738C70.3219 34.9369 69.8218 34.4363 69.4863 33.8291H69.4345V39.2218H67.1934V24.7325H69.3626V26.5433H69.4038C69.7547 25.9391 70.2633 25.441 70.8754 25.1021C71.4876 24.7632 72.1805 24.596 72.8803 24.6186C75.6514 24.6186 77.4785 26.8029 77.4785 30.1768ZM75.1744 30.1768C75.1744 27.9726 74.0321 26.5234 72.2891 26.5234C70.5768 26.5234 69.4251 28.0031 69.4251 30.1768C69.4251 32.3706 70.5768 33.8397 72.2891 33.8397C74.0321 33.8397 75.1744 32.4011 75.1744 30.1768Z" fill="black"/>
<path d="M85.4191 31.4593C85.5852 32.9402 87.0278 33.9125 88.9992 33.9125C90.8882 33.9125 92.2472 32.9402 92.2472 31.6049C92.2472 30.4458 91.4276 29.7518 89.4868 29.2761L87.546 28.8099C84.7962 28.1476 83.5196 26.8651 83.5196 24.7842C83.5196 22.2076 85.7713 20.4378 88.9675 20.4378C92.133 20.4378 94.3023 22.2076 94.3753 24.7842H92.113C91.9775 23.2939 90.7422 22.3943 88.9368 22.3943C87.1315 22.3943 85.8961 23.3045 85.8961 24.6292C85.8961 25.6849 86.6851 26.3062 88.6153 26.7817L90.2652 27.1857C93.3377 27.9103 94.6132 29.1411 94.6132 31.3254C94.6132 34.1192 92.3826 35.869 88.8331 35.869C85.5121 35.869 83.2699 34.1603 83.125 31.4592L85.4191 31.4593Z" fill="black"/>
<path d="M99.4505 22.1555V24.7321H101.527V26.5018H99.4505V32.504C99.4505 33.4365 99.8662 33.871 100.779 33.871C101.025 33.8667 101.271 33.8494 101.516 33.8193V35.5785C101.106 35.6549 100.689 35.6896 100.271 35.6818C98.0609 35.6818 97.1988 34.8539 97.1988 32.7424V26.5018H95.6113V24.7321H97.1988V22.1555H99.4505Z" fill="black"/>
<path d="M102.73 30.1784C102.73 26.7528 104.754 24.6002 107.909 24.6002C111.074 24.6002 113.088 26.7528 113.088 30.1784C113.088 33.6135 111.085 35.7567 107.909 35.7567C104.734 35.7567 102.73 33.6134 102.73 30.1784ZM110.805 30.1784C110.805 27.8285 109.725 26.4416 107.909 26.4416C106.093 26.4416 105.013 27.8391 105.013 30.1784C105.013 32.5377 106.093 33.9141 107.909 33.9141C109.725 33.9141 110.805 32.5377 110.805 30.1784H110.805Z" fill="black"/>
<path d="M114.936 24.7324H117.073V26.5855H117.125C117.269 26.0067 117.609 25.4952 118.088 25.137C118.566 24.7788 119.153 24.5957 119.751 24.6184C120.009 24.6175 120.267 24.6455 120.519 24.7018V26.7922C120.193 26.6928 119.853 26.6472 119.512 26.6571C119.186 26.644 118.862 26.7012 118.561 26.8249C118.259 26.9487 117.988 27.136 117.766 27.3739C117.545 27.6119 117.377 27.8949 117.275 28.2036C117.173 28.5122 117.14 28.8392 117.177 29.1621V35.6199H114.936L114.936 24.7324Z" fill="black"/>
<path d="M130.851 32.4238C130.549 34.4003 128.619 35.7567 126.15 35.7567C122.973 35.7567 121.002 33.6346 121.002 30.2301C121.002 26.815 122.984 24.6002 126.055 24.6002C129.076 24.6002 130.976 26.6694 130.976 29.9706V30.7363H123.264V30.8713C123.229 31.272 123.279 31.6757 123.412 32.0555C123.545 32.4353 123.757 32.7826 124.035 33.0742C124.313 33.3659 124.65 33.5953 125.023 33.7472C125.397 33.8991 125.798 33.97 126.201 33.9552C126.731 34.0047 127.262 33.8824 127.717 33.6064C128.171 33.3305 128.524 32.9158 128.723 32.4238L130.851 32.4238ZM123.275 29.1743H128.733C128.753 28.8141 128.699 28.4535 128.572 28.1154C128.446 27.7772 128.251 27.4687 128 27.2092C127.748 26.9498 127.446 26.7449 127.111 26.6076C126.777 26.4702 126.417 26.4033 126.055 26.4111C125.69 26.4089 125.329 26.4788 124.991 26.6168C124.653 26.7548 124.346 26.9581 124.088 27.215C123.829 27.4719 123.624 27.7773 123.485 28.1136C123.345 28.4499 123.274 28.8104 123.275 29.1744V29.1743Z" fill="black"/>
<path d="M44.562 9.44546C45.0318 9.41184 45.5033 9.48262 45.9424 9.6527C46.3815 9.82278 46.7773 10.0879 47.1012 10.429C47.4251 10.7701 47.669 11.1786 47.8154 11.625C47.9618 12.0715 48.007 12.5448 47.9478 13.0108C47.9478 15.3032 46.7054 16.6209 44.562 16.6209H41.9629V9.44546H44.562ZM43.0805 15.6061H44.4372C44.7729 15.6261 45.1089 15.5713 45.4207 15.4454C45.7324 15.3196 46.0122 15.1261 46.2395 14.8789C46.4668 14.6317 46.636 14.3371 46.7347 14.0164C46.8334 13.6958 46.8592 13.3573 46.8101 13.0255C46.8556 12.695 46.8272 12.3585 46.727 12.0402C46.6268 11.722 46.4572 11.4297 46.2304 11.1845C46.0036 10.9393 45.7252 10.7471 45.4152 10.6217C45.1052 10.4964 44.7712 10.441 44.4372 10.4595H43.0805V15.6061Z" fill="black"/>
<path d="M49.2113 13.9094C49.1772 13.5536 49.218 13.1945 49.3312 12.8553C49.4443 12.5161 49.6274 12.2043 49.8685 11.9397C50.1096 11.6752 50.4035 11.4638 50.7313 11.3192C51.0592 11.1745 51.4137 11.0998 51.7722 11.0998C52.1306 11.0998 52.4852 11.1745 52.813 11.3192C53.1408 11.4638 53.4347 11.6752 53.6759 11.9397C53.917 12.2043 54.1 12.5161 54.2131 12.8553C54.3263 13.1945 54.3671 13.5536 54.333 13.9094C54.3678 14.2657 54.3274 14.6252 54.2146 14.965C54.1017 15.3047 53.9188 15.6171 53.6776 15.8822C53.4365 16.1473 53.1423 16.3591 52.8142 16.504C52.486 16.649 52.1311 16.7239 51.7722 16.7239C51.4133 16.7239 51.0583 16.649 50.7301 16.504C50.402 16.3591 50.1079 16.1473 49.8667 15.8822C49.6255 15.6171 49.4426 15.3047 49.3297 14.965C49.2169 14.6252 49.1765 14.2657 49.2113 13.9094ZM53.2307 13.9094C53.2307 12.7357 52.7019 12.0492 51.7739 12.0492C50.8424 12.0492 50.3184 12.7357 50.3184 13.9095C50.3184 15.0926 50.8424 15.7738 51.7739 15.7738C52.7019 15.7737 53.2307 15.0879 53.2307 13.9094H53.2307Z" fill="black"/>
<path d="M61.1398 16.619H60.0281L58.9058 12.6308H58.821L57.7034 16.619H56.6023L55.1055 11.204H56.1925L57.1652 15.3359H57.2453L58.3617 11.204H59.3898L60.5062 15.3359H60.591L61.5591 11.204H62.6307L61.1398 16.619Z" fill="black"/>
<path d="M63.8887 11.2056H64.9203V12.0658H65.0004C65.1362 11.7569 65.3654 11.4979 65.6558 11.3249C65.9463 11.152 66.2837 11.0737 66.6209 11.1011C66.8851 11.0813 67.1504 11.121 67.3971 11.2173C67.6438 11.3136 67.8657 11.4641 68.0462 11.6575C68.2267 11.8509 68.3612 12.0824 68.4399 12.3347C68.5185 12.587 68.5392 12.8537 68.5004 13.1151V16.6205H67.4287V13.3835C67.4287 12.5133 67.0495 12.0805 66.257 12.0805C66.0776 12.0722 65.8985 12.1026 65.732 12.1697C65.5655 12.2369 65.4156 12.3391 65.2924 12.4695C65.1692 12.5998 65.0758 12.7552 65.0185 12.9249C64.9612 13.0946 64.9413 13.2747 64.9603 13.4527V16.6206H63.8887L63.8887 11.2056Z" fill="black"/>
<path d="M70.209 9.09216H71.2807V16.621H70.209V9.09216Z" fill="black"/>
<path d="M72.7699 13.9095C72.7358 13.5537 72.7766 13.1946 72.8898 12.8554C73.003 12.5162 73.1861 12.2043 73.4272 11.9397C73.6683 11.6752 73.9623 11.4638 74.2901 11.3192C74.618 11.1745 74.9725 11.0998 75.331 11.0998C75.6895 11.0998 76.0441 11.1745 76.3719 11.3192C76.6998 11.4638 76.9937 11.6752 77.2348 11.9397C77.476 12.2043 77.659 12.5162 77.7722 12.8554C77.8854 13.1946 77.9262 13.5537 77.8921 13.9095C77.9269 14.2658 77.8865 14.6253 77.7736 14.9651C77.6607 15.3048 77.4778 15.6173 77.2366 15.8823C76.9954 16.1474 76.7012 16.3592 76.3731 16.5041C76.0449 16.649 75.6899 16.7239 75.331 16.7239C74.9721 16.7239 74.6171 16.649 74.289 16.5041C73.9608 16.3592 73.6667 16.1474 73.4255 15.8823C73.1843 15.6173 73.0013 15.3048 72.8884 14.9651C72.7755 14.6253 72.7352 14.2658 72.7699 13.9095ZM76.7892 13.9095C76.7892 12.7358 76.2605 12.0493 75.3325 12.0493C74.401 12.0493 73.8769 12.7358 73.8769 13.9096C73.8769 15.0927 74.401 15.7739 75.3325 15.7739C76.2605 15.7738 76.7893 15.088 76.7893 13.9095H76.7892Z" fill="black"/>
<path d="M79.0215 15.088C79.0215 14.1132 79.7493 13.5513 81.0412 13.4714L82.5121 13.3869V12.9195C82.5121 12.3476 82.1329 12.0246 81.4004 12.0246C80.8021 12.0246 80.3876 12.2437 80.2686 12.6265H79.2311C79.3406 11.6964 80.218 11.0998 81.4498 11.0998C82.8112 11.0998 83.579 11.7757 83.579 12.9195V16.6193H82.5474V15.8584H82.4626C82.2905 16.1313 82.0488 16.3539 81.7623 16.5032C81.4757 16.6526 81.1546 16.7235 80.8316 16.7086C80.6036 16.7322 80.3732 16.708 80.1552 16.6374C79.9372 16.5668 79.7365 16.4514 79.566 16.2987C79.3954 16.146 79.2589 15.9594 79.1651 15.7509C79.0713 15.5423 79.0224 15.3165 79.0215 15.088ZM82.5121 14.6253V14.1725L81.186 14.2571C80.4382 14.307 80.099 14.5607 80.099 15.038C80.099 15.5254 80.523 15.809 81.106 15.809C81.2768 15.8263 81.4493 15.8091 81.6134 15.7584C81.7774 15.7078 81.9295 15.6248 82.0607 15.5144C82.1919 15.4039 82.2994 15.2683 82.377 15.1156C82.4545 14.9628 82.5005 14.7961 82.5121 14.6253Z" fill="black"/>
<path d="M84.9863 13.9112C84.9863 12.2001 85.8684 11.1162 87.2404 11.1162C87.5797 11.1006 87.9166 11.1817 88.2114 11.3499C88.5063 11.5181 88.7471 11.7666 88.9056 12.0662H88.9857V9.09216H90.0573V16.621H89.0304V15.7655H88.9456C88.7749 16.0631 88.5257 16.3085 88.2251 16.475C87.9246 16.6415 87.584 16.7229 87.2404 16.7103C85.859 16.7103 84.9863 15.6264 84.9863 13.9112ZM86.0934 13.9112C86.0934 15.0597 86.6363 15.7508 87.5443 15.7508C88.4475 15.7508 89.0057 15.0498 89.0057 13.9159C89.0057 12.7873 88.4416 12.0762 87.5443 12.0762C86.6421 12.0762 86.0933 12.7721 86.0933 13.9112H86.0934Z" fill="black"/>
<path d="M94.4906 13.9094C94.4565 13.5536 94.4973 13.1945 94.6105 12.8553C94.7236 12.5161 94.9067 12.2043 95.1478 11.9397C95.3889 11.6752 95.6828 11.4638 96.0106 11.3192C96.3384 11.1745 96.693 11.0998 97.0515 11.0998C97.4099 11.0998 97.7645 11.1745 98.0923 11.3192C98.4201 11.4638 98.714 11.6752 98.9551 11.9397C99.1963 12.2043 99.3793 12.5161 99.4924 12.8553C99.6056 13.1945 99.6464 13.5536 99.6123 13.9094C99.6471 14.2657 99.6067 14.6252 99.4939 14.965C99.381 15.3047 99.1981 15.6171 98.9569 15.8822C98.7157 16.1473 98.4216 16.3591 98.0935 16.504C97.7653 16.649 97.4104 16.7239 97.0515 16.7239C96.6925 16.7239 96.3376 16.649 96.0094 16.504C95.6813 16.3591 95.3872 16.1473 95.146 15.8822C94.9048 15.6171 94.7219 15.3047 94.609 14.965C94.4962 14.6252 94.4558 14.2657 94.4906 13.9094ZM98.51 13.9094C98.51 12.7357 97.9812 12.0492 97.0532 12.0492C96.1217 12.0492 95.5977 12.7357 95.5977 13.9095C95.5977 15.0926 96.1217 15.7738 97.0532 15.7738C97.9812 15.7737 98.51 15.0879 98.51 13.9094Z" fill="black"/>
<path d="M101.051 11.2056H102.082V12.0658H102.163C102.298 11.7569 102.527 11.4979 102.818 11.3249C103.108 11.152 103.446 11.0737 103.783 11.1011C104.047 11.0813 104.312 11.121 104.559 11.2173C104.806 11.3136 105.028 11.4641 105.208 11.6575C105.389 11.8509 105.523 12.0824 105.602 12.3347C105.681 12.587 105.701 12.8537 105.663 13.1151V16.6205H104.591V13.3835C104.591 12.5133 104.212 12.0805 103.419 12.0805C103.24 12.0722 103.061 12.1026 102.894 12.1697C102.728 12.2369 102.578 12.3391 102.455 12.4695C102.331 12.5998 102.238 12.7552 102.181 12.9249C102.123 13.0946 102.103 13.2747 102.122 13.4527V16.6206H101.051V11.2056Z" fill="black"/>
<path d="M111.718 9.85602V11.2289H112.895V12.129H111.718V14.9134C111.718 15.4807 111.952 15.729 112.486 15.729C112.623 15.7286 112.759 15.7204 112.895 15.7044V16.5945C112.702 16.6289 112.507 16.6471 112.312 16.6491C111.12 16.6491 110.645 16.2311 110.645 15.187V12.129H109.783V11.2288H110.645V9.85602H111.718Z" fill="black"/>
<path d="M114.357 9.09216H115.42V12.0762H115.504C115.647 11.7644 115.882 11.5039 116.179 11.3303C116.475 11.1568 116.818 11.0785 117.16 11.1062C117.423 11.0919 117.686 11.1357 117.93 11.2344C118.174 11.333 118.393 11.4842 118.571 11.677C118.75 11.8698 118.884 12.0995 118.963 12.3498C119.042 12.6001 119.065 12.8648 119.03 13.1249V16.621H117.958V13.3886C117.958 12.5237 117.554 12.0856 116.796 12.0856C116.612 12.0706 116.427 12.0958 116.254 12.1596C116.08 12.2234 115.923 12.3242 115.793 12.455C115.662 12.5857 115.562 12.7433 115.5 12.9166C115.437 13.09 115.413 13.2749 115.429 13.4584V16.621H114.357L114.357 9.09216Z" fill="black"/>
<path d="M125.281 15.1573C125.135 15.6522 124.82 16.0803 124.39 16.3667C123.96 16.6531 123.442 16.7796 122.928 16.7239C122.57 16.7334 122.215 16.665 121.886 16.5237C121.558 16.3824 121.264 16.1714 121.025 15.9055C120.786 15.6396 120.609 15.325 120.504 14.9837C120.4 14.6424 120.371 14.2825 120.42 13.929C120.372 13.5743 120.401 13.2137 120.506 12.8713C120.61 12.529 120.787 12.213 121.024 11.9448C121.262 11.6765 121.554 11.4622 121.882 11.3165C122.209 11.1707 122.565 11.0969 122.923 11.0999C124.434 11.0999 125.346 12.1293 125.346 13.8297V14.2026H121.511V14.2625C121.495 14.4612 121.52 14.6612 121.585 14.8497C121.65 15.0382 121.754 15.211 121.89 15.3571C122.027 15.5032 122.192 15.6192 122.376 15.6979C122.559 15.7765 122.758 15.816 122.958 15.8138C123.214 15.8445 123.474 15.7984 123.704 15.6815C123.934 15.5646 124.124 15.3822 124.249 15.1573L125.281 15.1573ZM121.511 13.4122H124.254C124.268 13.2305 124.243 13.048 124.181 12.8763C124.12 12.7047 124.023 12.5478 123.897 12.4157C123.771 12.2836 123.619 12.1792 123.45 12.1092C123.282 12.0393 123.1 12.0053 122.917 12.0095C122.732 12.0071 122.548 12.0418 122.376 12.1115C122.205 12.1812 122.049 12.2845 121.918 12.4152C121.787 12.5459 121.683 12.7015 121.613 12.8727C121.544 13.044 121.509 13.2274 121.511 13.4122H121.511Z" fill="black"/>
</svg>
