<svg width="25" height="26" viewBox="0 0 25 26" fill="none" xmlns="http://www.w3.org/2000/svg">
<path fill-rule="evenodd" clip-rule="evenodd" d="M12.483 12.9983C14.3785 11.0521 14.847 8.12484 13.6535 5.68427C13.5788 5.50659 13.6129 5.30182 13.741 5.15786C13.8692 5.01391 14.0686 4.95639 14.2538 5.00999C15.6793 5.37743 16.9805 6.11975 18.0223 7.15988C21.2468 10.3012 21.3149 15.4614 18.1744 18.6867C14.9494 21.8274 9.78916 21.7598 6.64759 18.5356C5.60686 17.4945 4.86414 16.1935 4.4967 14.768C4.44282 14.5827 4.50043 14.3828 4.64471 14.2546C4.78899 14.1263 4.9942 14.0926 5.17198 14.1678C7.61147 15.3607 10.5374 14.8927 12.483 12.9983Z" fill="url(#paint0_linear_1537_78646)"/>
<path fill-rule="evenodd" clip-rule="evenodd" d="M14.5593 5.88144C15.5869 8.49165 15.0021 11.4868 13.0203 13.5216L13.0063 13.5357C10.9718 15.5166 7.97739 16.1008 5.36804 15.0731C5.73444 16.1758 6.35329 17.1804 7.17805 18.0054L7.18483 18.0122L7.18479 18.0122C10.035 20.9374 14.7153 21.0011 17.644 18.1564C20.4885 15.2273 20.4245 10.5471 17.499 7.69712L17.4924 7.6907L17.4925 7.69066C16.6668 6.86637 15.662 6.24783 14.5593 5.88144ZM14.4495 4.28596C13.9905 4.15831 13.4982 4.30273 13.1809 4.65921C12.8606 5.019 12.7755 5.5308 12.9621 5.97488C12.9676 5.98801 12.9735 6.00098 12.9798 6.01377C14.0327 8.16681 13.6214 10.7486 11.9527 12.4679C10.234 14.1356 7.65348 14.5464 5.50148 13.4941C5.48924 13.4881 5.47685 13.4824 5.4643 13.4771C5.01997 13.2891 4.50708 13.3735 4.14647 13.6941C3.78929 14.0116 3.64464 14.5046 3.77275 14.9641C4.17403 16.5144 4.98225 17.9293 6.1138 19.0625C9.5447 22.5799 15.1772 22.6526 18.6977 19.224L18.7118 19.2099C22.1401 15.6891 22.0669 10.0565 18.549 6.62593C17.4151 5.49498 15.9999 4.6872 14.4495 4.28596Z" fill="url(#paint1_linear_1537_78646)"/>
<defs>
<linearGradient id="paint0_linear_1537_78646" x1="12.4814" y1="4.99023" x2="12.4814" y2="20.9987" gradientUnits="userSpaceOnUse">
<stop stop-color="#6092FF"/>
<stop offset="1" stop-color="#407FFF"/>
</linearGradient>
<linearGradient id="paint1_linear_1537_78646" x1="12.4814" y1="21.7487" x2="12.4814" y2="4.24023" gradientUnits="userSpaceOnUse">
<stop stop-color="#C0C9E8"/>
<stop offset="1" stop-color="white"/>
</linearGradient>
</defs>
</svg>
