<svg width="151" height="36" viewBox="0 0 151 36" fill="none" xmlns="http://www.w3.org/2000/svg">
<path d="M40.7909 12.632C42.3001 11.1228 44.1175 10.3691 46.243 10.3691C47.7651 10.3691 49.1333 10.7868 50.3491 11.6185C51.5632 12.452 52.4858 13.5583 53.1188 14.9376L50.0373 15.8212C49.6493 15.1028 49.1314 14.5273 48.4854 14.0967C47.8394 13.666 47.0913 13.4507 46.2448 13.4507C44.9658 13.4507 43.8984 13.8962 43.0445 14.7872C42.1888 15.6782 41.7618 16.7772 41.7618 18.084C41.7618 19.3909 42.1888 20.4861 43.0445 21.3697C43.8984 22.2533 44.9658 22.6951 46.2448 22.6951C47.9396 22.6951 49.1834 21.9415 49.9723 20.4323L53.0965 21.2732C52.4783 22.6376 51.5632 23.7291 50.3491 24.5496C49.1351 25.3682 47.767 25.7785 46.243 25.7785C44.1156 25.7785 42.3001 25.0285 40.7909 23.5268C39.2817 22.025 38.5281 20.2114 38.5281 18.0859C38.5281 15.9604 39.2817 14.1431 40.7909 12.6339V12.632Z" fill="#015DFA"/>
<path d="M54.1953 18.084C54.1953 15.9585 54.949 14.1412 56.4582 12.632C57.9674 11.1228 59.7847 10.3691 61.9102 10.3691C64.0357 10.3691 65.8493 11.1228 67.3511 12.632C68.8529 14.1412 69.6102 15.9585 69.6251 18.084V18.149C69.6251 20.2318 68.877 22.0213 67.3845 23.5156C65.8623 25.0248 64.0375 25.7785 61.9102 25.7785C59.7828 25.7785 57.9674 25.0285 56.4582 23.5268C54.949 22.025 54.1953 20.2114 54.1953 18.0859V18.084ZM58.721 21.4031C59.5694 22.309 60.6312 22.7601 61.9102 22.7601C63.1892 22.7601 64.2547 22.3072 65.1105 21.4031C65.9644 20.4973 66.3932 19.3927 66.3932 18.084C66.3932 16.7753 65.9663 15.6671 65.1105 14.7538C64.2547 13.8423 63.1892 13.3857 61.9102 13.3857C60.6312 13.3857 59.5824 13.8423 58.721 14.7538C57.8597 15.6671 57.4272 16.7753 57.4272 18.084C57.4272 19.3927 57.8578 20.4973 58.721 21.4031Z" fill="#015DFA"/>
<path d="M71.5648 25.604V10.5195H74.819V25.604H71.5648Z" fill="#015DFA"/>
<path d="M82.6415 10.5195L87.7055 22.5021V10.5195H90.8742V25.604H85.8529L80.6385 13.2335V25.604H77.4697V10.5195H82.6415Z" fill="#015DFA"/>
<path d="M93.3081 25.604V10.5195H100.182C101.662 10.5195 102.922 11.0374 103.963 12.0714C105.005 13.1054 105.526 14.3268 105.526 15.7358C105.526 17.1447 105.009 18.3904 103.975 19.3891C102.941 20.3878 101.676 20.8871 100.182 20.8871H96.5622V25.6059H93.3081V25.604ZM96.5622 17.9745H99.9667C100.67 17.9745 101.253 17.7443 101.712 17.2858C102.172 16.8255 102.402 16.2723 102.402 15.6263C102.402 14.9803 102.176 14.4698 101.723 14.054C101.27 13.6382 100.685 13.4284 99.9667 13.4284H96.5622V17.9764V17.9745Z" fill="#015DFA"/>
<path d="M110.29 10.5195H115.203L120.225 25.604H116.885L115.916 22.6079H109.516L108.524 25.604H105.162L110.291 10.5195H110.29ZM114.966 19.6786L112.746 12.7601L110.46 19.6786H114.964H114.966Z" fill="#015DFA"/>
<path d="M121.842 25.604V10.5195H128.716C130.195 10.5195 131.455 11.0374 132.497 12.0714C133.538 13.1054 134.06 14.3268 134.06 15.7358C134.06 16.7122 133.783 17.6181 133.23 18.4516C132.677 19.2851 131.947 19.881 131.043 20.2411L134.275 25.6077H130.611L127.615 20.6513H125.072V25.6077H121.84L121.842 25.604ZM128.716 17.8464C129.334 17.8464 129.857 17.6311 130.288 17.2004C130.718 16.7698 130.934 16.2444 130.934 15.6281C130.934 15.0118 130.718 14.4902 130.288 14.0651C129.857 13.6419 129.332 13.4302 128.716 13.4302H125.073V17.8483H128.716V17.8464Z" fill="#015DFA"/>
<path d="M140.548 10.5195H145.461L150.483 25.604H147.143L146.174 22.6079H139.774L138.782 25.604H135.421L140.55 10.5195H140.548ZM145.224 19.6786L143.004 12.7601L140.718 19.6786H145.222H145.224Z" fill="#015DFA"/>
<path d="M15.6618 2.33887C7.02618 2.33887 0 9.36508 0 18.0007C0 26.6363 7.02618 33.6625 15.6618 33.6625C24.2974 33.6625 31.3236 26.6363 31.3236 18.0007C31.3236 9.36508 24.2974 2.33887 15.6618 2.33887ZM15.6618 31.2103C8.37759 31.2103 2.45221 25.2849 2.45221 18.0007C2.45221 10.7165 8.37759 4.79109 15.6618 4.79109C22.946 4.79109 28.8714 10.7165 28.8714 18.0007C28.8714 25.2849 22.946 31.2103 15.6618 31.2103Z" fill="#015DFA"/>
<path d="M21.2605 19.6174C21.0767 20.2634 20.7797 20.8723 20.3806 21.4218C20.2005 21.6705 19.9982 21.9081 19.7754 22.1309C19.341 22.5653 18.8491 22.9236 18.3201 23.1983C17.5905 23.5751 16.7867 23.7923 15.9533 23.8331C15.8567 23.8387 15.7602 23.8406 15.6618 23.8406C14.8283 23.8406 14.0208 23.6661 13.282 23.3319C12.6453 23.0461 12.0587 22.6414 11.5482 22.1309C10.4455 21.0282 9.83852 19.5673 9.83852 18.0154C9.83852 16.7754 10.2265 15.5948 10.943 14.6072C11.1231 14.3585 11.3254 14.1227 11.5463 13.9018C11.9826 13.4656 12.4745 13.1073 13.0054 12.8344C13.7349 12.4594 14.5387 12.2404 15.3722 12.2014C15.4688 12.1958 15.5634 12.194 15.66 12.194C16.4953 12.194 17.3028 12.3703 18.0435 12.7026C18.6802 12.9885 19.2649 13.3932 19.7754 13.9018C19.794 13.9204 19.8144 13.9408 19.833 13.9594L23.0481 12.0213C21.5556 10.1854 19.3967 8.91571 16.9408 8.58343C16.5213 8.52588 16.0943 8.49805 15.66 8.49805C15.2256 8.49805 14.8135 8.52588 14.4014 8.58157C13.5734 8.6911 12.7808 8.90829 12.0346 9.21644C11.2438 9.54316 10.5068 9.97382 9.83852 10.4917C7.59051 12.233 6.14258 14.9581 6.14258 18.0154C6.14258 22.8307 9.73642 26.8218 14.3809 27.4474C14.7986 27.5031 15.2256 27.5328 15.6581 27.5328C16.0906 27.5328 16.5064 27.5049 16.9185 27.4493C17.7465 27.3397 18.5391 27.1226 19.2853 26.8144C20.0761 26.4877 20.8131 26.0552 21.4814 25.5391C23.3266 24.1079 24.6316 22.0139 25.04 19.6193H21.2586L21.2605 19.6174Z" fill="#015DFA"/>
<path d="M16.4302 6.662C16.1759 6.64529 15.9198 6.63601 15.6599 6.63601C15.0677 6.63601 14.4885 6.68058 13.9205 6.76968L13.4397 4.97647L12.803 2.60036L12.5487 1.64807L12.5227 1.54968C12.5227 1.54968 12.5227 1.54598 12.5227 1.54413C12.5227 1.54413 12.5227 1.54227 12.5227 1.54041C12.5134 1.507 12.506 1.47172 12.5004 1.4383C12.3927 0.827572 12.7621 0.226128 13.3654 0.0516336H13.3729C13.3729 0.0516336 13.384 0.0460574 13.3914 0.0442011C13.3989 0.0442011 13.4044 0.0405057 13.4119 0.0386493C14.0597 -0.122851 14.7187 0.263256 14.8913 0.911113L15.2756 2.34605L15.9309 4.79455L16.4321 6.66386L16.4302 6.662Z" fill="#015DFA"/>
<path d="M22.6713 34.6889C22.0197 34.8634 21.3515 34.4791 21.1733 33.8294C21.1733 33.8276 21.1733 33.8239 21.1714 33.822C21.1714 33.8146 21.1677 33.809 21.1658 33.8016L21.1454 33.7236L20.8892 32.7657L20.2525 30.3897L19.7717 28.5964C20.5607 28.2901 21.3051 27.8985 21.9975 27.4307L22.4987 29.3018L23.1558 31.7522L23.5401 33.189C23.7146 33.8424 23.3266 34.5144 22.6732 34.6907L22.6713 34.6889Z" fill="#015DFA"/>
<path d="M11.5556 7.40464C10.7666 7.71094 10.0222 8.10262 9.32984 8.56856L8.82863 6.69739L8.17149 4.24703L7.79651 2.84738L7.78909 2.81767C7.78909 2.81767 7.78909 2.81395 7.78909 2.8121C7.78909 2.80467 7.78538 2.79911 7.78352 2.79168C7.62202 2.14382 8.00813 1.48483 8.65599 1.31034C9.30942 1.13584 9.98141 1.5238 10.1578 2.17723L10.4399 3.23349L11.0766 5.60959L11.5574 7.40278L11.5556 7.40464Z" fill="#015DFA"/>
<path d="M17.9712 35.9494H17.9637L17.9563 35.9531C17.9507 35.9531 17.9452 35.9568 17.9378 35.9587C17.9303 35.9587 17.9248 35.9624 17.9173 35.9642L17.9081 35.9661C17.275 36.1183 16.6309 35.747 16.4453 35.1215L16.4286 35.0583L16.0536 33.655L15.3983 31.2065L14.8971 29.3372C15.1514 29.3539 15.4057 29.3631 15.6638 29.3631C16.2559 29.3631 16.837 29.3167 17.405 29.2295L17.8858 31.0227L18.5225 33.3988L18.7991 34.4291C18.7991 34.4328 18.7991 34.4365 18.8028 34.4402L18.8121 34.4717C18.8121 34.4717 18.8121 34.4736 18.8121 34.4755C18.9717 35.1122 18.6005 35.76 17.973 35.9475L17.9712 35.9494Z" fill="#015DFA"/>
<path d="M9.28729 3.67911C8.63572 3.8536 7.96559 3.46934 7.78738 2.81963C7.78738 2.81777 7.78738 2.81591 7.78738 2.81405C7.78738 2.80663 7.78367 2.80106 7.78181 2.79363C7.62031 2.14578 8.00642 1.48679 8.65428 1.31229C9.30771 1.1378 9.9797 1.52575 10.1561 2.17918C10.3305 2.83261 9.94257 3.50461 9.28915 3.68096L9.28729 3.67911Z" fill="#015DFA"/>
<path d="M14.0228 2.40906C13.9727 2.42206 13.9226 2.4332 13.8724 2.43877C13.8724 2.43877 13.8724 2.43877 13.8706 2.43877C13.8539 2.44063 13.8372 2.44249 13.8205 2.44434C13.271 2.49632 12.7475 2.17145 12.5563 1.64611C12.5452 1.61456 12.534 1.58116 12.5248 1.54775C12.5248 1.54775 12.5248 1.54403 12.5248 1.54217C12.5248 1.54217 12.5248 1.54031 12.5248 1.53846C12.5155 1.50504 12.508 1.46976 12.5025 1.43635C12.3948 0.825619 12.7642 0.224175 13.3675 0.0496805H13.375C13.375 0.0496805 13.3861 0.0441043 13.3935 0.042248C13.4009 0.042248 13.4065 0.0385525 13.4139 0.0366962C14.0618 -0.124804 14.7208 0.261302 14.8934 0.90916C15.0679 1.56259 14.6799 2.23457 14.0265 2.41092L14.0228 2.40906Z" fill="#015DFA"/>
<path d="M22.6715 34.6888C22.0199 34.8633 21.3516 34.479 21.1734 33.8293C21.1734 33.8274 21.1734 33.8237 21.1715 33.8219C21.1715 33.8145 21.1678 33.8089 21.166 33.8015C21.0045 33.1536 21.3906 32.4946 22.0384 32.3201C22.6919 32.1456 23.3639 32.5336 23.5402 33.187C23.7147 33.8404 23.3267 34.5124 22.6733 34.6888H22.6715Z" fill="#015DFA"/>
<path d="M17.9711 35.9495C17.9711 35.9495 17.9655 35.9495 17.9637 35.9514H17.9562C17.9562 35.9514 17.9451 35.957 17.9377 35.9588C17.9303 35.9588 17.9247 35.9625 17.9173 35.9644C17.9173 35.9644 17.9117 35.9644 17.908 35.9662C17.275 36.1185 16.6308 35.7472 16.4452 35.1216C16.4415 35.1124 16.4396 35.1012 16.4359 35.0919C16.4322 35.0808 16.4303 35.0696 16.4285 35.0585C16.2744 34.4144 16.6605 33.7609 17.3028 33.5902C17.3622 33.5735 17.4216 33.5623 17.4829 33.5567C18.0676 33.4899 18.6282 33.8519 18.7972 34.4311C18.7972 34.4348 18.7972 34.4385 18.8009 34.4422C18.8009 34.4422 18.8046 34.4515 18.8046 34.4571C18.8046 34.4626 18.8083 34.4682 18.8083 34.4738C18.8083 34.4738 18.8083 34.4756 18.8083 34.4775C18.9679 35.1142 18.5967 35.7621 17.9692 35.9495H17.9711Z" fill="#015DFA"/>
</svg>
