<svg width="24" height="24" viewBox="0 0 24 24" fill="none" xmlns="http://www.w3.org/2000/svg">
<path d="M8.99901 18.0042H3.74682M6.37292 12.5019H1.99609M8.99901 6.99963H3.74682M16.3652 5.6342V10.3061H20.3519C20.5887 10.3007 20.8087 10.4277 20.9226 10.6354C21.0364 10.8431 21.025 11.0969 20.8931 11.2936L15.825 18.7197C15.6652 18.9533 15.373 19.0572 15.1016 18.9769C14.8301 18.8967 14.6415 18.6505 14.6345 18.3675V13.6926H10.6498C10.4131 13.698 10.193 13.571 10.0792 13.3633C9.96533 13.1556 9.97669 12.9018 10.1086 12.7051L15.1747 5.28206C15.3345 5.04841 15.6267 4.94447 15.8982 5.02476C16.1696 5.10505 16.3583 5.35123 16.3652 5.6342Z" stroke="url(#paint0_linear_1114_67453)" stroke-width="1.5" stroke-linecap="round" stroke-linejoin="round"/>
<defs>
<linearGradient id="paint0_linear_1114_67453" x1="11.4984" y1="4.99792" x2="11.4984" y2="19.0038" gradientUnits="userSpaceOnUse">
<stop stop-color="#488CFF"/>
<stop offset="0.0001" stop-color="#407FFF"/>
<stop offset="1" stop-color="#015DFA"/>
</linearGradient>
</defs>
</svg>
