<svg width="24" height="24" viewBox="0 0 24 24" fill="none" xmlns="http://www.w3.org/2000/svg">
<path fill-rule="evenodd" clip-rule="evenodd" d="M15.5355 8.46447C17.4881 10.4171 17.4881 13.5829 15.5355 15.5355C13.5829 17.4882 10.417 17.4882 8.4644 15.5355C6.51178 13.5829 6.51178 10.4171 8.4644 8.46447C10.417 6.51184 13.5829 6.51184 15.5355 8.46447Z" fill="url(#paint0_linear_1226_55078)"/>
<path fill-rule="evenodd" clip-rule="evenodd" d="M15.0051 8.9948C13.3454 7.33507 10.6545 7.33507 8.99473 8.9948C7.33501 10.6545 7.33501 13.3455 8.99473 15.0052C10.6545 16.6649 13.3454 16.6649 15.0051 15.0052C16.6649 13.3455 16.6649 10.6545 15.0051 8.9948ZM16.0658 7.93414C13.8203 5.68862 10.1796 5.68862 7.93407 7.93414C5.68856 10.1796 5.68856 13.8204 7.93407 16.0659C10.1796 18.3114 13.8203 18.3114 16.0658 16.0659C18.3113 13.8204 18.3113 10.1796 16.0658 7.93414Z" fill="url(#paint1_linear_1226_55078)"/>
<path fill-rule="evenodd" clip-rule="evenodd" d="M12 1.25C12.4142 1.25 12.75 1.58579 12.75 2V4C12.75 4.41421 12.4142 4.75 12 4.75C11.5858 4.75 11.25 4.41421 11.25 4V2C11.25 1.58579 11.5858 1.25 12 1.25ZM4.39967 4.39967C4.69256 4.10678 5.16744 4.10678 5.46033 4.39967L6.17033 5.10967C6.46322 5.40256 6.46322 5.87744 6.17033 6.17033C5.87744 6.46322 5.40256 6.46322 5.10967 6.17033L4.39967 5.46033C4.10678 5.16744 4.10678 4.69256 4.39967 4.39967ZM19.6003 4.39967C19.8932 4.69256 19.8932 5.16744 19.6003 5.46033L18.8903 6.17033C18.5974 6.46322 18.1226 6.46322 17.8297 6.17033C17.5368 5.87744 17.5368 5.40256 17.8297 5.10967L18.5397 4.39967C18.8326 4.10678 19.3074 4.10678 19.6003 4.39967ZM1.25 12C1.25 11.5858 1.58579 11.25 2 11.25H4C4.41421 11.25 4.75 11.5858 4.75 12C4.75 12.4142 4.41421 12.75 4 12.75H2C1.58579 12.75 1.25 12.4142 1.25 12ZM19.25 12C19.25 11.5858 19.5858 11.25 20 11.25H22C22.4142 11.25 22.75 11.5858 22.75 12C22.75 12.4142 22.4142 12.75 22 12.75H20C19.5858 12.75 19.25 12.4142 19.25 12ZM6.17033 17.8297C6.46322 18.1226 6.46322 18.5974 6.17033 18.8903L5.46033 19.6003C5.16744 19.8932 4.69256 19.8932 4.39967 19.6003C4.10678 19.3074 4.10678 18.8326 4.39967 18.5397L5.10967 17.8297C5.40256 17.5368 5.87744 17.5368 6.17033 17.8297ZM17.8297 17.8297C18.1226 17.5368 18.5974 17.5368 18.8903 17.8297L19.6003 18.5397C19.8932 18.8326 19.8932 19.3074 19.6003 19.6003C19.3074 19.8932 18.8326 19.8932 18.5397 19.6003L17.8297 18.8903C17.5368 18.5974 17.5368 18.1226 17.8297 17.8297ZM12 19.25C12.4142 19.25 12.75 19.5858 12.75 20V22C12.75 22.4142 12.4142 22.75 12 22.75C11.5858 22.75 11.25 22.4142 11.25 22V20C11.25 19.5858 11.5858 19.25 12 19.25Z" fill="url(#paint2_linear_1226_55078)"/>
<defs>
<linearGradient id="paint0_linear_1226_55078" x1="11.9999" y1="7" x2="11.9999" y2="17" gradientUnits="userSpaceOnUse">
<stop stop-color="#FFDCA3"/>
<stop offset="1" stop-color="#F9C266"/>
</linearGradient>
<linearGradient id="paint1_linear_1226_55078" x1="11.9999" y1="7" x2="11.9999" y2="17" gradientUnits="userSpaceOnUse">
<stop stop-color="#F9B440"/>
<stop offset="1" stop-color="#F59E0B"/>
</linearGradient>
<linearGradient id="paint2_linear_1226_55078" x1="5.28516" y1="4.78516" x2="5.28516" y2="5.78516" gradientUnits="userSpaceOnUse">
<stop stop-color="#F9B440"/>
<stop offset="1" stop-color="#F59E0B"/>
</linearGradient>
</defs>
</svg>
