<svg width="24" height="24" viewBox="0 0 24 24" fill="none" xmlns="http://www.w3.org/2000/svg">
<path d="M13.75 11.25L11.75 13.25L10.55 12.05M11.4116 17.4417C8.84645 16.9287 7 14.6764 7 12.0604V10.2778C7 9.54107 7.29265 8.83453 7.81359 8.31359C8.33453 7.79265 9.04107 7.5 9.77778 7.5H14.2222C14.9589 7.5 15.6655 7.79265 16.1864 8.31359C16.7073 8.83453 17 9.54107 17 10.2778V12.0604C17 14.6763 15.1536 16.9286 12.5885 17.4417C12.2001 17.5194 11.8 17.5194 11.4116 17.4417ZM21.5 12C21.5 17.2467 17.2467 21.5 12 21.5C6.75329 21.5 2.5 17.2467 2.5 12C2.5 6.75329 6.75329 2.5 12 2.5C17.2467 2.5 21.5 6.75329 21.5 12Z" stroke="url(#paint0_linear_1114_67446)" stroke-width="1.5" stroke-linecap="round" stroke-linejoin="round"/>
<defs>
<linearGradient id="paint0_linear_1114_67446" x1="12" y1="2.5" x2="12" y2="21.5" gradientUnits="userSpaceOnUse">
<stop stop-color="#488CFF"/>
<stop offset="0.0001" stop-color="#407FFF"/>
<stop offset="1" stop-color="#015DFA"/>
</linearGradient>
</defs>
</svg>
