<svg width="142" height="44" viewBox="0 0 142 44" fill="none" xmlns="http://www.w3.org/2000/svg">
<g clip-path="url(#clip0_1183_67810)">
<path d="M136.741 0H5.25926C2.35465 0 0 2.46243 0 5.5V38.5C0 41.5376 2.35465 44 5.25926 44H136.741C139.645 44 142 41.5376 142 38.5V5.5C142 2.46243 139.645 0 136.741 0Z" fill="black"/>
<path d="M49.8797 11.2651C49.897 11.6685 49.836 12.0714 49.7004 12.4495C49.5648 12.8276 49.3575 13.1731 49.0908 13.4651C48.792 13.7877 48.4314 14.0407 48.0326 14.2076C47.6339 14.3744 47.2059 14.4512 46.7768 14.4331C46.3451 14.4432 45.9161 14.3605 45.5163 14.1902C45.1165 14.0199 44.7543 13.7657 44.4522 13.4431C43.8393 12.7875 43.4961 11.907 43.4961 10.9901C43.4961 10.0732 43.8393 9.19275 44.4522 8.53711C44.9208 8.05827 45.5142 7.73492 46.158 7.60771C46.8018 7.4805 47.4672 7.55509 48.0705 7.82212C48.4498 7.98517 48.7882 8.23735 49.0593 8.55912L48.5018 9.14211C48.2929 8.87896 48.0282 8.67037 47.7288 8.53288C47.4294 8.3954 47.1034 8.33282 46.7768 8.35011C46.3645 8.3531 45.9591 8.46165 45.5962 8.66627C45.2333 8.8709 44.9238 9.16537 44.6948 9.52395C44.4659 9.88254 44.3244 10.2943 44.2827 10.7233C44.241 11.1523 44.3005 11.5854 44.4558 11.9848C44.6112 12.3842 44.8577 12.7377 45.1739 13.0145C45.4901 13.2912 45.8663 13.4828 46.2696 13.5724C46.6729 13.662 47.0911 13.647 47.4875 13.5285C47.884 13.4101 48.2467 13.192 48.5439 12.8931C48.8652 12.5247 49.0515 12.0493 49.0698 11.5511H46.7768V10.7591H49.8377C49.8616 10.9267 49.8757 11.0957 49.8797 11.2651Z" fill="white" stroke="white" stroke-width="0.411304" stroke-miterlimit="10"/>
<path d="M54.6956 8.51392H51.8556V10.6039H54.4432V11.3959H51.8556V13.4859H54.6956V14.2999H51.0352V7.69992H54.6956V8.51392Z" fill="white" stroke="white" stroke-width="0.411304" stroke-miterlimit="10"/>
<path d="M58.1473 14.2999H57.3374V8.51392H55.5703V7.69992H59.9565V8.51392H58.1473V14.2999Z" fill="white" stroke="white" stroke-width="0.411304" stroke-miterlimit="10"/>
<path d="M63.0488 14.2999V7.69992H63.8588V14.2999H63.0488Z" fill="white" stroke="white" stroke-width="0.411304" stroke-miterlimit="10"/>
<path d="M67.454 14.2999H66.6441V8.51392H64.877V7.69992H69.2106V8.51392H67.454V14.2999Z" fill="white" stroke="white" stroke-width="0.411304" stroke-miterlimit="10"/>
<path d="M77.4269 13.4414C77.1231 13.7594 76.7624 14.0116 76.3653 14.1837C75.9682 14.3558 75.5427 14.4444 75.1128 14.4444C74.683 14.4444 74.2574 14.3558 73.8604 14.1837C73.4633 14.0116 73.1026 13.7594 72.7988 13.4414C72.2041 12.7804 71.873 11.907 71.873 10.9994C71.873 10.0918 72.2041 9.21845 72.7988 8.5574C73.096 8.23048 73.4556 7.97246 73.8542 7.80003C74.2528 7.6276 74.6816 7.5446 75.1128 7.5564C75.5435 7.54928 75.9709 7.63441 76.3689 7.80656C76.7669 7.97872 77.1269 8.23424 77.4269 8.5574C77.7294 8.87914 77.9671 9.261 78.1261 9.68042C78.2851 10.0998 78.3621 10.5483 78.3525 10.9994C78.3663 11.451 78.2913 11.9008 78.1321 12.3209C77.9729 12.7409 77.7328 13.1223 77.4269 13.4414ZM73.3983 12.8914C73.6224 13.1289 73.8893 13.3174 74.1837 13.4461C74.478 13.5748 74.7938 13.6411 75.1128 13.6411C75.4319 13.6411 75.7477 13.5748 76.042 13.4461C76.3363 13.3174 76.6033 13.1289 76.8274 12.8914C77.2812 12.3756 77.5331 11.7003 77.5331 10.9994C77.5331 10.2985 77.2812 9.62316 76.8274 9.1074C76.6033 8.86994 76.3363 8.68138 76.042 8.55269C75.7477 8.424 75.4319 8.35773 75.1128 8.35773C74.7938 8.35773 74.478 8.424 74.1837 8.55269C73.8893 8.68138 73.6224 8.86994 73.3983 9.1074C72.9445 9.62316 72.6925 10.2985 72.6925 10.9994C72.6925 11.7003 72.9445 12.3756 73.3983 12.8914Z" fill="white" stroke="white" stroke-width="0.411304" stroke-miterlimit="10"/>
<path d="M79.498 14.2999V7.69992H80.4763L83.5477 12.8369V11.5609V7.69992H84.3576V14.2999H83.5161L80.308 8.92092V10.1859V14.2999H79.498Z" fill="white" stroke="white" stroke-width="0.411304" stroke-miterlimit="10"/>
<path d="M71.675 23.9252C70.7888 23.9274 69.9231 24.2043 69.1874 24.721C68.4517 25.2378 67.879 25.971 67.5418 26.8281C67.2045 27.6852 67.1179 28.6276 67.2929 29.5362C67.4678 30.4447 67.8964 31.2786 68.5246 31.9325C69.1527 32.5863 69.9521 33.0306 70.8217 33.2093C71.6913 33.388 72.5921 33.2929 73.41 32.9363C74.228 32.5796 74.9265 31.9773 75.4171 31.2054C75.9078 30.4336 76.1685 29.527 76.1665 28.6002C76.175 27.9819 76.0646 27.3682 75.8416 26.7955C75.6187 26.2228 75.2878 25.7029 74.8687 25.2667C74.4497 24.8304 73.9509 24.4869 73.4023 24.2564C72.8536 24.026 72.2662 23.9133 71.675 23.9252ZM71.675 31.4382C71.1318 31.4779 70.5898 31.3458 70.1193 31.0591C69.6489 30.7724 69.2717 30.3443 69.037 29.8305C68.8023 29.3167 68.7208 28.7409 68.8031 28.178C68.8855 27.6151 69.1279 27.0911 69.4987 26.6741C69.8696 26.2572 70.3518 25.9666 70.8828 25.84C71.4137 25.7135 71.9687 25.757 72.4757 25.9647C72.9827 26.1724 73.4182 26.5349 73.7256 27.0049C74.0331 27.4749 74.1982 28.0307 74.1995 28.6002C74.2164 28.961 74.1641 29.3217 74.0456 29.6611C73.9272 30.0004 73.7449 30.3115 73.5096 30.576C73.2743 30.8405 72.9908 31.0531 72.6757 31.2011C72.3606 31.3492 72.0204 31.4298 71.675 31.4382ZM61.8718 23.9252C60.9855 23.9274 60.1198 24.2043 59.3841 24.721C58.6484 25.2378 58.0757 25.971 57.7385 26.8281C57.4013 27.6852 57.3147 28.6276 57.4896 29.5362C57.6645 30.4447 58.0932 31.2786 58.7213 31.9325C59.3494 32.5863 60.1488 33.0306 61.0185 33.2093C61.8881 33.388 62.7888 33.2929 63.6068 32.9363C64.4248 32.5796 65.1232 31.9773 65.6139 31.2054C66.1045 30.4336 66.3653 29.527 66.3632 28.6002C66.3718 27.9819 66.2613 27.3682 66.0384 26.7955C65.8154 26.2228 65.4845 25.7029 65.0655 25.2667C64.6464 24.8304 64.1477 24.4869 63.599 24.2564C63.0504 24.026 62.4629 23.9133 61.8718 23.9252ZM61.8718 31.4382C61.3286 31.4779 60.7865 31.3458 60.3161 31.0591C59.8456 30.7724 59.4685 30.3443 59.2338 29.8305C58.999 29.3167 58.9175 28.7409 58.9999 28.178C59.0822 27.6151 59.3246 27.0911 59.6955 26.6741C60.0663 26.2572 60.5486 25.9666 61.0795 25.84C61.6104 25.7135 62.1654 25.757 62.6724 25.9647C63.1794 26.1724 63.615 26.5349 63.9224 27.0049C64.2298 27.4749 64.3949 28.0307 64.3962 28.6002C64.4132 28.961 64.3609 29.3217 64.2424 29.6611C64.1239 30.0004 63.9416 30.3115 63.7064 30.576C63.4711 30.8405 63.1875 31.0531 62.8725 31.2011C62.5574 31.3492 62.2171 31.4298 61.8718 31.4382ZM50.2173 25.3662V27.3462H54.7613C54.69 28.2788 54.3193 29.1588 53.7094 29.8432C53.2536 30.3289 52.7054 30.709 52.1002 30.9592C51.495 31.2093 50.8464 31.3238 50.1962 31.2952C48.8572 31.2952 47.573 30.7389 46.6261 29.7487C45.6793 28.7585 45.1473 27.4155 45.1473 26.0152C45.1473 24.6149 45.6793 23.2719 46.6261 22.2817C47.573 21.2915 48.8572 20.7352 50.1962 20.7352C51.48 20.7152 52.7195 21.2251 53.6463 22.1542L54.9822 20.7572C54.3552 20.1088 53.6109 19.5977 52.7927 19.2539C51.9745 18.9101 51.0989 18.7406 50.2173 18.7552C49.2822 18.7171 48.3493 18.8769 47.4747 19.2249C46.6 19.5728 45.8016 20.1019 45.1271 20.7803C44.4526 21.4587 43.9161 22.2725 43.5496 23.173C43.1831 24.0735 42.9941 25.042 42.9941 26.0207C42.9941 26.9993 43.1831 27.9679 43.5496 28.8684C43.9161 29.7688 44.4526 30.5827 45.1271 31.2611C45.8016 31.9395 46.6 32.4686 47.4747 32.8165C48.3493 33.1645 49.2822 33.3243 50.2173 33.2862C51.117 33.3238 52.0142 33.1619 52.8499 32.8112C53.6857 32.4604 54.441 31.9288 55.0663 31.2512C56.1709 29.9822 56.7594 28.3133 56.7072 26.5982C56.711 26.1854 56.6793 25.7731 56.6125 25.3662H50.2173ZM97.8767 26.9062C97.6024 26.0622 97.0894 25.3253 96.4057 24.7929C95.722 24.2606 94.8998 23.958 94.0479 23.9252C93.4726 23.924 92.9031 24.0463 92.3747 24.2844C91.8463 24.5225 91.3702 24.8714 90.9759 25.3096C90.5815 25.7477 90.2773 26.2658 90.082 26.8318C89.8868 27.3978 89.8046 27.9997 89.8405 28.6002C89.8315 29.6043 90.1334 30.5846 90.7011 31.3945C91.2687 32.2044 92.0717 32.8005 92.99 33.0939C93.9084 33.3872 94.8928 33.3619 95.7963 33.0219C96.6998 32.6818 97.4739 32.0452 98.0029 31.2072L96.4777 30.1072C96.2504 30.5035 95.9279 30.8308 95.5422 31.0565C95.1566 31.2823 94.7213 31.3987 94.2793 31.3942C93.8234 31.4139 93.3725 31.2889 92.9858 31.0356C92.5991 30.7824 92.2947 30.4127 92.1125 29.9752L98.0976 27.3902L97.8767 26.9062ZM91.7759 28.4682C91.7546 28.1265 91.7987 27.7838 91.9056 27.4602C92.0125 27.1365 92.1801 26.8384 92.3985 26.5834C92.617 26.3283 92.8819 26.1214 93.1777 25.9747C93.4736 25.828 93.7945 25.7446 94.1216 25.7292C94.4605 25.7076 94.798 25.791 95.0917 25.9691C95.3855 26.1471 95.6225 26.4119 95.773 26.7302L91.7759 28.4682ZM86.9164 33.0002H88.8833V19.2502H86.9164V33.0002ZM83.6977 24.9702H83.6241C83.3302 24.6202 82.9676 24.3408 82.561 24.1509C82.1543 23.9611 81.7132 23.8653 81.2679 23.8702C80.1185 23.9285 79.0345 24.4471 78.2407 25.3184C77.4469 26.1898 77.0041 27.3472 77.0041 28.5507C77.0041 29.7542 77.4469 30.9116 78.2407 31.783C79.0345 32.6543 80.1185 33.1729 81.2679 33.2312C81.7139 33.2406 82.1563 33.1468 82.5636 32.9567C82.9709 32.7665 83.333 32.4846 83.6241 32.1312H83.6977V32.8022C83.6977 34.5952 82.7826 35.5522 81.31 35.5522C80.8181 35.5409 80.3405 35.377 79.9378 35.0812C79.5352 34.7855 79.2256 34.3713 79.0485 33.8912L77.3445 34.6282C77.6596 35.4557 78.2073 36.1637 78.9154 36.6586C79.6234 37.1536 80.4584 37.4122 81.31 37.4002C83.6136 37.4002 85.5174 35.9812 85.5174 32.5272V24.2002H83.6977V24.9702ZM81.4362 31.4382C80.7471 31.3933 80.1002 31.0753 79.6274 30.549C79.1545 30.0228 78.8913 29.3278 78.8913 28.6057C78.8913 27.8836 79.1545 27.1886 79.6274 26.6624C80.1002 26.1361 80.7471 25.8181 81.4362 25.7732C81.7731 25.7884 82.1035 25.8743 82.408 26.0258C82.7124 26.1773 82.9846 26.3913 83.2084 26.655C83.4321 26.9188 83.6029 27.2269 83.7104 27.5611C83.818 27.8953 83.8602 28.2486 83.8344 28.6002C83.8631 28.953 83.8231 29.3081 83.7168 29.6443C83.6105 29.9804 83.4401 30.2905 83.2159 30.5558C82.9918 30.821 82.7184 31.036 82.4125 31.1877C82.1067 31.3394 81.7745 31.4246 81.4362 31.4382ZM107.091 19.2502H102.379V33.0002H104.346V27.7862H107.091C107.651 27.8283 108.214 27.7492 108.744 27.5538C109.274 27.3584 109.76 27.0509 110.172 26.6504C110.583 26.25 110.911 25.7652 111.136 25.2263C111.36 24.6874 111.476 24.106 111.476 23.5182C111.476 22.9304 111.36 22.349 111.136 21.8101C110.911 21.2712 110.583 20.7864 110.172 20.386C109.76 19.9855 109.274 19.678 108.744 19.4826C108.214 19.2872 107.651 19.2081 107.091 19.2502ZM107.091 25.8502H104.346V21.1642H107.133C107.429 21.1642 107.721 21.2251 107.994 21.3434C108.267 21.4617 108.516 21.6351 108.725 21.8537C108.934 22.0723 109.099 22.3318 109.213 22.6174C109.326 22.903 109.384 23.2091 109.384 23.5182C109.384 23.8273 109.326 24.1334 109.213 24.419C109.099 24.7046 108.934 24.9641 108.725 25.1827C108.516 25.4013 108.267 25.5747 107.994 25.693C107.721 25.8113 107.429 25.8722 107.133 25.8722L107.091 25.8502ZM119.229 23.8812C118.513 23.835 117.799 24.0094 117.177 24.3828C116.554 24.7562 116.05 25.3123 115.727 25.9822L117.462 26.7412C117.638 26.4105 117.901 26.1401 118.22 25.9624C118.539 25.7848 118.901 25.7076 119.261 25.7402C119.511 25.7097 119.764 25.7315 120.005 25.8044C120.247 25.8772 120.472 25.9996 120.668 26.1645C120.864 26.3293 121.026 26.5333 121.146 26.7645C121.265 26.9958 121.34 27.2496 121.365 27.5112V27.6432C120.732 27.2955 120.028 27.1143 119.313 27.1152C117.441 27.1152 115.527 28.2152 115.527 30.2172C115.545 30.6427 115.645 31.06 115.821 31.4443C115.997 31.8286 116.245 32.172 116.55 32.4542C116.855 32.7363 117.211 32.9515 117.597 33.0869C117.984 33.2222 118.392 33.2751 118.798 33.2422C119.292 33.2707 119.784 33.1615 120.223 32.9257C120.663 32.6899 121.035 32.3359 121.301 31.9002H121.365V33.0002H123.258V27.7092C123.258 25.3002 121.512 23.9032 119.271 23.9032L119.229 23.8812ZM118.987 31.4162C118.346 31.4162 117.452 31.0752 117.452 30.2502C117.452 29.1502 118.567 28.7762 119.555 28.7762C120.18 28.7601 120.798 28.9196 121.343 29.2382C121.277 29.8356 121.007 30.3877 120.581 30.7922C120.156 31.1967 119.604 31.4262 119.029 31.4382L118.987 31.4162ZM130.158 24.2002L127.907 30.1622H127.844L125.509 24.2002H123.405L126.908 32.5382L124.909 37.1692H126.96L132.346 24.2002H130.158ZM112.487 33.0002H114.443V19.2502H112.487V33.0002Z" fill="white"/>
<path d="M10.9833 8.29505C10.6367 8.72363 10.4598 9.27456 10.4889 9.83505V34.1671C10.4531 34.7285 10.6308 35.2819 10.9833 35.707L11.0569 35.795L24.0893 22.166V21.8361L11.0569 8.21805L10.9833 8.29505Z" fill="url(#paint0_linear_1183_67810)"/>
<path d="M28.4005 26.7077L24.0879 22.1647V21.8347L28.4005 17.2917L28.4951 17.3577L33.6597 20.4157C35.1323 21.2847 35.1323 22.7147 33.6597 23.5947L28.5162 26.6527L28.4005 26.7077Z" fill="url(#paint1_linear_1183_67810)"/>
<path d="M28.5273 26.6412L24.0885 21.9992L10.9824 35.7052C11.2796 35.9818 11.6601 36.141 12.0578 36.1551C12.4555 36.1691 12.8453 36.0372 13.1598 35.7822L28.5273 26.6412Z" fill="url(#paint2_linear_1183_67810)"/>
<path d="M28.5273 17.3569L13.1598 8.22692C12.8474 7.96833 12.4578 7.83319 12.0596 7.84526C11.6614 7.85733 11.2799 8.01584 10.9824 8.29292L24.0885 21.9989L28.5273 17.3569Z" fill="url(#paint3_linear_1183_67810)"/>
<path opacity="0.2" d="M28.4011 26.542L13.1598 35.617C12.8568 35.8561 12.4875 35.9855 12.1079 35.9855C11.7283 35.9855 11.359 35.8561 11.0561 35.617L10.9824 35.694L11.0561 35.782C11.359 36.0211 11.7283 36.1505 12.1079 36.1505C12.4875 36.1505 12.8568 36.0211 13.1598 35.782L28.5273 26.641L28.4011 26.542Z" fill="black"/>
<path opacity="0.12" d="M10.9806 35.5519C10.6427 35.1156 10.4771 34.5607 10.5178 34.0009V34.1659C10.482 34.7273 10.6596 35.2808 11.0121 35.7059L11.0858 35.6289L10.9806 35.5519Z" fill="black"/>
<path opacity="0.12" d="M33.6616 23.4292L28.4023 26.5422L28.497 26.6412L33.6616 23.5832C33.9665 23.4484 34.2309 23.2301 34.4271 22.9513C34.6234 22.6726 34.7441 22.3436 34.7766 21.9992C34.7108 22.3122 34.5756 22.6047 34.382 22.8531C34.1883 23.1014 33.9416 23.2988 33.6616 23.4292Z" fill="black"/>
<path opacity="0.25" d="M13.16 8.3809L33.6606 20.5689C33.9405 20.6993 34.1873 20.8966 34.381 21.145C34.5746 21.3934 34.7098 21.6859 34.7755 21.9989C34.743 21.6544 34.6223 21.3255 34.4261 21.0467C34.2299 20.768 33.9654 20.5497 33.6606 20.4149L13.16 8.2269C11.6979 7.3469 10.4883 8.0729 10.4883 9.8329V9.9979C10.5198 8.2379 11.6979 7.5119 13.16 8.3809Z" fill="white"/>
</g>
<defs>
<linearGradient id="paint0_linear_1183_67810" x1="22.9323" y1="9.58205" x2="4.49278" y2="27.2145" gradientUnits="userSpaceOnUse">
<stop stop-color="#00A0FF"/>
<stop offset="0.01" stop-color="#00A1FF"/>
<stop offset="0.26" stop-color="#00BEFF"/>
<stop offset="0.51" stop-color="#00D2FF"/>
<stop offset="0.76" stop-color="#00DFFF"/>
<stop offset="1" stop-color="#00E3FF"/>
</linearGradient>
<linearGradient id="paint1_linear_1183_67810" x1="35.5846" y1="21.9997" x2="10.1403" y2="21.9997" gradientUnits="userSpaceOnUse">
<stop stop-color="#FFE000"/>
<stop offset="0.41" stop-color="#FFBD00"/>
<stop offset="0.78" stop-color="#FFA500"/>
<stop offset="1" stop-color="#FF9C00"/>
</linearGradient>
<linearGradient id="paint2_linear_1183_67810" x1="26.1186" y1="24.5292" x2="1.10812" y2="48.4344" gradientUnits="userSpaceOnUse">
<stop stop-color="#FF3A44"/>
<stop offset="1" stop-color="#C31162"/>
</linearGradient>
<linearGradient id="paint3_linear_1183_67810" x1="7.67961" y1="0.196924" x2="18.8444" y2="10.873" gradientUnits="userSpaceOnUse">
<stop stop-color="#32A071"/>
<stop offset="0.07" stop-color="#2DA771"/>
<stop offset="0.48" stop-color="#15CF74"/>
<stop offset="0.8" stop-color="#06E775"/>
<stop offset="1" stop-color="#00F076"/>
</linearGradient>
<clipPath id="clip0_1183_67810">
<rect width="142" height="44" rx="8" fill="white"/>
</clipPath>
</defs>
</svg>
