<svg width="24" height="24" viewBox="0 0 24 24" fill="none" xmlns="http://www.w3.org/2000/svg">
<path d="M18.512 15.961H16.488V13.938M6 11C3.791 11 2 9.209 2 7C2 4.791 3.791 3 6 3H16C18.209 3 20 4.791 20 7C20 9.209 18.209 11 16 11H6ZM6 11C3.791 11 2 12.791 2 15C2 17.209 3.791 19 6 19H13M10 7H16M6 7H7M6 15H7M10 15H12.1M17 21C14.239 21 12 18.761 12 16C12 13.239 14.239 11 17 11C19.762 11 22 13.239 22 16C22 18.761 19.762 21 17 21Z" stroke="url(#paint0_linear_1114_67416)" stroke-width="1.5" stroke-linecap="round" stroke-linejoin="round"/>
<defs>
<linearGradient id="paint0_linear_1114_67416" x1="12" y1="3" x2="12" y2="21" gradientUnits="userSpaceOnUse">
<stop stop-color="#488CFF"/>
<stop offset="0.0001" stop-color="#407FFF"/>
<stop offset="1" stop-color="#015DFA"/>
</linearGradient>
</defs>
</svg>
