<svg width="142" height="45" viewBox="0 0 142 45" fill="none" xmlns="http://www.w3.org/2000/svg">
<g clip-path="url(#clip0_1369_82628)">
<path d="M136.741 0.5H5.25926C2.35465 0.5 0 2.96243 0 6V39C0 42.0376 2.35465 44.5 5.25926 44.5H136.741C139.645 44.5 142 42.0376 142 39V6C142 2.96243 139.645 0.5 136.741 0.5Z" fill="black"/>
<path d="M49.8797 11.7641C49.897 12.1675 49.836 12.5704 49.7004 12.9485C49.5648 13.3266 49.3575 13.6721 49.0908 13.9641C48.792 14.2867 48.4314 14.5397 48.0326 14.7065C47.6339 14.8734 47.2059 14.9502 46.7768 14.9321C46.3451 14.9422 45.9161 14.8595 45.5163 14.6892C45.1165 14.5189 44.7543 14.2646 44.4522 13.9421C43.8393 13.2865 43.4961 12.406 43.4961 11.4891C43.4961 10.5722 43.8393 9.69174 44.4522 9.03611C44.9208 8.55726 45.5142 8.23392 46.158 8.10671C46.8018 7.97949 47.4672 8.05408 48.0705 8.32111C48.4498 8.48416 48.7882 8.73634 49.0593 9.05811L48.5018 9.64111C48.2929 9.37796 48.0282 9.16936 47.7288 9.03188C47.4294 8.89439 47.1034 8.83182 46.7768 8.84911C46.3645 8.85209 45.9591 8.96064 45.5962 9.16526C45.2333 9.36989 44.9238 9.66436 44.6948 10.0229C44.4659 10.3815 44.3244 10.7933 44.2827 11.2223C44.241 11.6513 44.3005 12.0844 44.4558 12.4838C44.6112 12.8832 44.8577 13.2367 45.1739 13.5135C45.4901 13.7902 45.8663 13.9818 46.2696 14.0714C46.6729 14.161 47.0911 14.146 47.4875 14.0275C47.884 13.9091 48.2467 13.691 48.5439 13.3921C48.8652 13.0237 49.0515 12.5483 49.0698 12.0501H46.7768V11.2581H49.8377C49.8616 11.4257 49.8757 11.5947 49.8797 11.7641Z" fill="white" stroke="white" stroke-width="0.411304" stroke-miterlimit="10"/>
<path d="M54.6956 9.01389H51.8556V11.1039H54.4432V11.8959H51.8556V13.9859H54.6956V14.7999H51.0352V8.19989H54.6956V9.01389Z" fill="white" stroke="white" stroke-width="0.411304" stroke-miterlimit="10"/>
<path d="M58.1473 14.7999H57.3374V9.01389H55.5703V8.19989H59.9565V9.01389H58.1473V14.7999Z" fill="white" stroke="white" stroke-width="0.411304" stroke-miterlimit="10"/>
<path d="M63.0488 14.7999V8.19989H63.8588V14.7999H63.0488Z" fill="white" stroke="white" stroke-width="0.411304" stroke-miterlimit="10"/>
<path d="M67.454 14.7999H66.6441V9.01389H64.877V8.19989H69.2106V9.01389H67.454V14.7999Z" fill="white" stroke="white" stroke-width="0.411304" stroke-miterlimit="10"/>
<path d="M77.4269 13.9419C77.1231 14.2599 76.7624 14.5121 76.3653 14.6842C75.9682 14.8563 75.5427 14.9449 75.1128 14.9449C74.683 14.9449 74.2574 14.8563 73.8604 14.6842C73.4633 14.5121 73.1026 14.2599 72.7988 13.9419C72.2041 13.2808 71.873 12.4075 71.873 11.4999C71.873 10.5923 72.2041 9.71894 72.7988 9.05789C73.096 8.73097 73.4556 8.47295 73.8542 8.30051C74.2528 8.12808 74.6816 8.04509 75.1128 8.05689C75.5435 8.04977 75.9709 8.1349 76.3689 8.30705C76.7669 8.4792 77.1269 8.73473 77.4269 9.05789C77.7294 9.37963 77.9671 9.76148 78.1261 10.1809C78.2851 10.6003 78.3621 11.0488 78.3525 11.4999C78.3663 11.9515 78.2913 12.4013 78.1321 12.8214C77.9729 13.2414 77.7328 13.6228 77.4269 13.9419ZM73.3983 13.3919C73.6224 13.6294 73.8893 13.8179 74.1837 13.9466C74.478 14.0753 74.7938 14.1416 75.1128 14.1416C75.4319 14.1416 75.7477 14.0753 76.042 13.9466C76.3363 13.8179 76.6033 13.6294 76.8274 13.3919C77.2812 12.8761 77.5331 12.2008 77.5331 11.4999C77.5331 10.799 77.2812 10.1236 76.8274 9.60789C76.6033 9.37042 76.3363 9.18187 76.042 9.05318C75.7477 8.92448 75.4319 8.85821 75.1128 8.85821C74.7938 8.85821 74.478 8.92448 74.1837 9.05318C73.8893 9.18187 73.6224 9.37042 73.3983 9.60789C72.9445 10.1236 72.6925 10.799 72.6925 11.4999C72.6925 12.2008 72.9445 12.8761 73.3983 13.3919Z" fill="white" stroke="white" stroke-width="0.411304" stroke-miterlimit="10"/>
<path d="M79.498 14.7999V8.19989H80.4763L83.5477 13.3369V12.0609V8.19989H84.3576V14.7999H83.5161L80.308 9.42089V10.6859V14.7999H79.498Z" fill="white" stroke="white" stroke-width="0.411304" stroke-miterlimit="10"/>
<path d="M71.675 24.425C70.7888 24.4271 69.9231 24.7041 69.1874 25.2208C68.4517 25.7375 67.879 26.4708 67.5418 27.3279C67.2045 28.1849 67.1179 29.1274 67.2929 30.0359C67.4678 30.9445 67.8964 31.7784 68.5246 32.4322C69.1527 33.086 69.9521 33.5304 70.8217 33.709C71.6913 33.8877 72.5921 33.7927 73.41 33.436C74.228 33.0793 74.9265 32.477 75.4171 31.7052C75.9078 30.9334 76.1685 30.0268 76.1665 29.1C76.175 28.4817 76.0646 27.8679 75.8416 27.2952C75.6187 26.7225 75.2878 26.2026 74.8687 25.7664C74.4497 25.3302 73.9509 24.9866 73.4023 24.7562C72.8536 24.5257 72.2662 24.4131 71.675 24.425ZM71.675 31.938C71.1318 31.9777 70.5898 31.8456 70.1193 31.5589C69.6489 31.2722 69.2717 30.8441 69.037 30.3302C68.8023 29.8164 68.7208 29.2406 68.8031 28.6777C68.8855 28.1148 69.1279 27.5908 69.4987 27.1739C69.8696 26.757 70.3518 26.4663 70.8828 26.3398C71.4137 26.2133 71.9687 26.2567 72.4757 26.4644C72.9827 26.6722 73.4182 27.0346 73.7256 27.5046C74.0331 27.9746 74.1982 28.5305 74.1995 29.1C74.2164 29.4608 74.1641 29.8215 74.0456 30.1608C73.9272 30.5002 73.7449 30.8112 73.5096 31.0757C73.2743 31.3402 72.9908 31.5528 72.6757 31.7009C72.3606 31.849 72.0204 31.9296 71.675 31.938ZM61.8718 24.425C60.9855 24.4271 60.1198 24.7041 59.3841 25.2208C58.6484 25.7375 58.0757 26.4708 57.7385 27.3279C57.4013 28.1849 57.3147 29.1274 57.4896 30.0359C57.6645 30.9445 58.0932 31.7784 58.7213 32.4322C59.3494 33.086 60.1488 33.5304 61.0185 33.709C61.8881 33.8877 62.7888 33.7927 63.6068 33.436C64.4248 33.0793 65.1232 32.477 65.6139 31.7052C66.1045 30.9334 66.3653 30.0268 66.3632 29.1C66.3718 28.4817 66.2613 27.8679 66.0384 27.2952C65.8154 26.7225 65.4845 26.2026 65.0655 25.7664C64.6464 25.3302 64.1477 24.9866 63.599 24.7562C63.0504 24.5257 62.4629 24.4131 61.8718 24.425ZM61.8718 31.938C61.3286 31.9777 60.7865 31.8456 60.3161 31.5589C59.8456 31.2722 59.4685 30.8441 59.2338 30.3302C58.999 29.8164 58.9175 29.2406 58.9999 28.6777C59.0822 28.1148 59.3246 27.5908 59.6955 27.1739C60.0663 26.757 60.5486 26.4663 61.0795 26.3398C61.6104 26.2133 62.1654 26.2567 62.6724 26.4644C63.1794 26.6722 63.615 27.0346 63.9224 27.5046C64.2298 27.9746 64.3949 28.5305 64.3962 29.1C64.4132 29.4608 64.3609 29.8215 64.2424 30.1608C64.1239 30.5002 63.9416 30.8112 63.7064 31.0757C63.4711 31.3402 63.1875 31.5528 62.8725 31.7009C62.5574 31.849 62.2171 31.9296 61.8718 31.938ZM50.2173 25.866V27.846H54.7613C54.69 28.7785 54.3193 29.6585 53.7094 30.343C53.2536 30.8286 52.7054 31.2088 52.1002 31.4589C51.495 31.709 50.8464 31.8235 50.1962 31.795C48.8572 31.795 47.573 31.2387 46.6261 30.2485C45.6793 29.2583 45.1473 27.9153 45.1473 26.515C45.1473 25.1146 45.6793 23.7716 46.6261 22.7814C47.573 21.7912 48.8572 21.235 50.1962 21.235C51.48 21.215 52.7195 21.7248 53.6463 22.654L54.9822 21.257C54.3552 20.6085 53.6109 20.0974 52.7927 19.7537C51.9745 19.4099 51.0989 19.2403 50.2173 19.255C49.2822 19.2169 48.3493 19.3766 47.4747 19.7246C46.6 20.0726 45.8016 20.6016 45.1271 21.2801C44.4526 21.9585 43.9161 22.7723 43.5496 23.6728C43.1831 24.5732 42.9941 25.5418 42.9941 26.5205C42.9941 27.4991 43.1831 28.4677 43.5496 29.3681C43.9161 30.2686 44.4526 31.0824 45.1271 31.7608C45.8016 32.4393 46.6 32.9683 47.4747 33.3163C48.3493 33.6643 49.2822 33.824 50.2173 33.7859C51.117 33.8235 52.0142 33.6617 52.8499 33.3109C53.6857 32.9602 54.441 32.4286 55.0663 31.751C56.1709 30.482 56.7594 28.8131 56.7072 27.098C56.711 26.6852 56.6793 26.2728 56.6125 25.866H50.2173ZM97.8767 27.406C97.6024 26.562 97.0894 25.825 96.4057 25.2927C95.722 24.7604 94.8998 24.4578 94.0479 24.425C93.4726 24.4238 92.9031 24.546 92.3747 24.7841C91.8463 25.0223 91.3702 25.3712 90.9759 25.8093C90.5815 26.2475 90.2773 26.7656 90.082 27.3316C89.8868 27.8976 89.8046 28.4994 89.8405 29.1C89.8315 30.1041 90.1334 31.0843 90.7011 31.8942C91.2687 32.7042 92.0717 33.3003 92.99 33.5936C93.9084 33.8869 94.8928 33.8617 95.7963 33.5216C96.6998 33.1816 97.4739 32.545 98.0029 31.707L96.4777 30.607C96.2504 31.0033 95.9279 31.3305 95.5422 31.5563C95.1566 31.782 94.7213 31.8984 94.2793 31.894C93.8234 31.9136 93.3725 31.7886 92.9858 31.5354C92.5991 31.2821 92.2947 30.9125 92.1125 30.475L98.0976 27.89L97.8767 27.406ZM91.7759 28.968C91.7546 28.6263 91.7987 28.2836 91.9056 27.9599C92.0125 27.6363 92.1801 27.3382 92.3985 27.0831C92.617 26.8281 92.8819 26.6211 93.1777 26.4745C93.4736 26.3278 93.7945 26.2443 94.1216 26.229C94.4605 26.2073 94.798 26.2908 95.0917 26.4688C95.3855 26.6469 95.6225 26.9117 95.773 27.23L91.7759 28.968ZM86.9164 33.5H88.8833V19.75H86.9164V33.5ZM83.6977 25.47H83.6241C83.3302 25.12 82.9676 24.8405 82.561 24.6507C82.1543 24.4608 81.7132 24.3651 81.2679 24.37C80.1185 24.4282 79.0345 24.9468 78.2407 25.8182C77.4469 26.6896 77.0041 27.8469 77.0041 29.0505C77.0041 30.254 77.4469 31.4113 78.2407 32.2827C79.0345 33.1541 80.1185 33.6727 81.2679 33.731C81.7139 33.7403 82.1563 33.6466 82.5636 33.4564C82.9709 33.2663 83.333 32.9844 83.6241 32.631H83.6977V33.302C83.6977 35.095 82.7826 36.052 81.31 36.052C80.8181 36.0406 80.3405 35.8767 79.9378 35.581C79.5352 35.2852 79.2256 34.871 79.0485 34.391L77.3445 35.128C77.6596 35.9554 78.2073 36.6634 78.9154 37.1584C79.6234 37.6533 80.4584 37.9119 81.31 37.9C83.6136 37.9 85.5174 36.481 85.5174 33.027V24.7H83.6977V25.47ZM81.4362 31.938C80.7471 31.893 80.1002 31.575 79.6274 31.0488C79.1545 30.5225 78.8913 29.8276 78.8913 29.1055C78.8913 28.3833 79.1545 27.6884 79.6274 27.1621C80.1002 26.6359 80.7471 26.3179 81.4362 26.273C81.7731 26.2882 82.1035 26.3741 82.408 26.5256C82.7124 26.677 82.9846 26.891 83.2084 27.1548C83.4321 27.4185 83.6029 27.7267 83.7104 28.0608C83.818 28.395 83.8602 28.7484 83.8344 29.1C83.8631 29.4527 83.8231 29.8079 83.7168 30.144C83.6105 30.4801 83.4401 30.7902 83.2159 31.0555C82.9918 31.3208 82.7184 31.5358 82.4125 31.6875C82.1067 31.8391 81.7745 31.9244 81.4362 31.938ZM107.091 19.75H102.379V33.5H104.346V28.2859H107.091C107.651 28.3281 108.214 28.249 108.744 28.0536C109.274 27.8581 109.76 27.5506 110.172 27.1502C110.583 26.7498 110.911 26.265 111.136 25.7261C111.36 25.1872 111.476 24.6057 111.476 24.018C111.476 23.4302 111.36 22.8487 111.136 22.3098C110.911 21.7709 110.583 21.2862 110.172 20.8857C109.76 20.4853 109.274 20.1778 108.744 19.9824C108.214 19.7869 107.651 19.7078 107.091 19.75ZM107.091 26.35H104.346V21.664H107.133C107.429 21.664 107.721 21.7248 107.994 21.8431C108.267 21.9614 108.516 22.1348 108.725 22.3534C108.934 22.572 109.099 22.8315 109.213 23.1171C109.326 23.4027 109.384 23.7088 109.384 24.018C109.384 24.3271 109.326 24.6332 109.213 24.9188C109.099 25.2044 108.934 25.4639 108.725 25.6825C108.516 25.9011 108.267 26.0745 107.994 26.1928C107.721 26.3111 107.429 26.372 107.133 26.372L107.091 26.35ZM119.229 24.381C118.513 24.3348 117.799 24.5092 117.177 24.8826C116.554 25.256 116.05 25.812 115.727 26.482L117.462 27.241C117.638 26.9103 117.901 26.6398 118.22 26.4622C118.539 26.2846 118.901 26.2074 119.261 26.24C119.511 26.2095 119.764 26.2313 120.005 26.3041C120.247 26.377 120.472 26.4994 120.668 26.6642C120.864 26.8291 121.026 27.0331 121.146 27.2643C121.265 27.4955 121.34 27.7493 121.365 28.011V28.143C120.732 27.7953 120.028 27.614 119.313 27.615C117.441 27.615 115.527 28.715 115.527 30.717C115.545 31.1425 115.645 31.5598 115.821 31.9441C115.997 32.3283 116.245 32.6718 116.55 32.9539C116.855 33.2361 117.211 33.4513 117.597 33.5866C117.984 33.722 118.392 33.7748 118.798 33.742C119.292 33.7705 119.784 33.6613 120.223 33.4254C120.663 33.1896 121.035 32.8357 121.301 32.4H121.365V33.5H123.258V28.209C123.258 25.8 121.512 24.403 119.271 24.403L119.229 24.381ZM118.987 31.916C118.346 31.916 117.452 31.575 117.452 30.75C117.452 29.65 118.567 29.276 119.555 29.276C120.18 29.2598 120.798 29.4194 121.343 29.738C121.277 30.3353 121.007 30.8874 120.581 31.2919C120.156 31.6965 119.604 31.926 119.029 31.938L118.987 31.916ZM130.158 24.7L127.907 30.662H127.844L125.509 24.7H123.405L126.908 33.038L124.909 37.669H126.96L132.346 24.7H130.158ZM112.487 33.5H114.443V19.75H112.487V33.5Z" fill="white"/>
<path d="M10.9833 8.79404C10.6367 9.22262 10.4598 9.77355 10.4889 10.334V34.666C10.4531 35.2275 10.6308 35.7809 10.9833 36.206L11.0569 36.294L24.0893 22.665V22.335L11.0569 8.71704L10.9833 8.79404Z" fill="url(#paint0_linear_1369_82628)"/>
<path d="M28.4005 27.2079L24.0879 22.6649V22.3349L28.4005 17.7919L28.4951 17.8579L33.6597 20.9159C35.1323 21.7849 35.1323 23.2149 33.6597 24.0949L28.5162 27.1529L28.4005 27.2079Z" fill="url(#paint1_linear_1369_82628)"/>
<path d="M28.5273 27.1419L24.0885 22.4999L10.9824 36.2059C11.2796 36.4826 11.6601 36.6418 12.0578 36.6559C12.4555 36.6699 12.8453 36.538 13.1598 36.2829L28.5273 27.1419Z" fill="url(#paint2_linear_1369_82628)"/>
<path d="M28.5273 17.8579L13.1598 8.72793C12.8474 8.46933 12.4578 8.33419 12.0596 8.34626C11.6614 8.35834 11.2799 8.51685 10.9824 8.79393L24.0885 22.4999L28.5273 17.8579Z" fill="url(#paint3_linear_1369_82628)"/>
<path opacity="0.2" d="M28.4011 27.043L13.1598 36.118C12.8568 36.3571 12.4875 36.4865 12.1079 36.4865C11.7283 36.4865 11.359 36.3571 11.0561 36.118L10.9824 36.195L11.0561 36.283C11.359 36.5221 11.7283 36.6515 12.1079 36.6515C12.4875 36.6515 12.8568 36.5221 13.1598 36.283L28.5273 27.142L28.4011 27.043Z" fill="black"/>
<path opacity="0.12" d="M10.9806 36.0519C10.6427 35.6156 10.4771 35.0607 10.5178 34.5009V34.6659C10.482 35.2273 10.6596 35.7808 11.0121 36.2059L11.0858 36.1289L10.9806 36.0519Z" fill="black"/>
<path opacity="0.12" d="M33.6616 23.9299L28.4023 27.0429L28.497 27.1419L33.6616 24.0839C33.9665 23.9491 34.2309 23.7309 34.4271 23.4521C34.6234 23.1733 34.7441 22.8444 34.7766 22.4999C34.7108 22.813 34.5756 23.1055 34.382 23.3538C34.1883 23.6022 33.9416 23.7996 33.6616 23.9299Z" fill="black"/>
<path opacity="0.25" d="M13.16 8.88188L33.6606 21.0699C33.9405 21.2003 34.1873 21.3976 34.381 21.646C34.5746 21.8944 34.7098 22.1869 34.7755 22.4999C34.743 22.1554 34.6223 21.8265 34.4261 21.5477C34.2299 21.269 33.9654 21.0507 33.6606 20.9159L13.16 8.72788C11.6979 7.84788 10.4883 8.57388 10.4883 10.3339V10.4989C10.5198 8.73888 11.6979 8.01288 13.16 8.88188Z" fill="white"/>
</g>
<defs>
<linearGradient id="paint0_linear_1369_82628" x1="22.9323" y1="10.081" x2="4.49278" y2="27.7135" gradientUnits="userSpaceOnUse">
<stop stop-color="#00A0FF"/>
<stop offset="0.01" stop-color="#00A1FF"/>
<stop offset="0.26" stop-color="#00BEFF"/>
<stop offset="0.51" stop-color="#00D2FF"/>
<stop offset="0.76" stop-color="#00DFFF"/>
<stop offset="1" stop-color="#00E3FF"/>
</linearGradient>
<linearGradient id="paint1_linear_1369_82628" x1="35.5846" y1="22.4999" x2="10.1403" y2="22.4999" gradientUnits="userSpaceOnUse">
<stop stop-color="#FFE000"/>
<stop offset="0.41" stop-color="#FFBD00"/>
<stop offset="0.78" stop-color="#FFA500"/>
<stop offset="1" stop-color="#FF9C00"/>
</linearGradient>
<linearGradient id="paint2_linear_1369_82628" x1="26.1186" y1="25.0299" x2="1.10812" y2="48.9352" gradientUnits="userSpaceOnUse">
<stop stop-color="#FF3A44"/>
<stop offset="1" stop-color="#C31162"/>
</linearGradient>
<linearGradient id="paint3_linear_1369_82628" x1="7.67961" y1="0.697931" x2="18.8444" y2="11.3741" gradientUnits="userSpaceOnUse">
<stop stop-color="#32A071"/>
<stop offset="0.07" stop-color="#2DA771"/>
<stop offset="0.48" stop-color="#15CF74"/>
<stop offset="0.8" stop-color="#06E775"/>
<stop offset="1" stop-color="#00F076"/>
</linearGradient>
<clipPath id="clip0_1369_82628">
<rect y="0.5" width="142" height="44" rx="8" fill="white"/>
</clipPath>
</defs>
</svg>
